<svg width="52" height="95" viewBox="0 0 52 95" fill="none" xmlns="http://www.w3.org/2000/svg">
<path d="M2.21484 26.3091V77.768H49.4689V26.3091H2.21484ZM44.2271 61.8892C44.3038 62.9383 44.7616 63.8516 45.1256 64.8102C45.1594 64.9032 45.1965 65.0358 45.2332 65.1962C44.7074 66.7831 43.2007 67.931 41.4244 67.931C41.4015 67.931 41.3847 67.9309 41.3619 67.9281H41.3593C40.2794 67.9111 39.3013 67.4714 38.5881 66.7636C37.8632 66.045 37.4145 65.0495 37.4145 63.9503V48.2405C37.4145 46.8565 38.1248 45.641 39.1992 44.9281C39.8216 44.519 40.5636 44.2736 41.3593 44.2624H41.3619C41.3847 44.2596 41.4018 44.2596 41.4244 44.2596C42.5329 44.2596 43.5361 44.705 44.2609 45.424C44.6134 45.7765 44.9007 46.1967 45.1053 46.6587C45.0286 46.9463 44.9577 47.1831 44.912 47.3298C44.3183 49.1484 43.9404 50.5697 44.5483 52.5011C45.151 54.4178 45.7251 54.852 45.2306 56.978C44.8437 58.6218 44.0937 60.116 44.2271 61.8892Z" fill="#AADDF9"/>
<path d="M40.1951 66.7648C40.7241 67.2898 41.4013 67.6685 42.1596 67.8359C41.9019 67.8919 41.6348 67.9238 41.362 67.928H41.3594C41.3352 67.9296 41.3133 67.9296 41.2888 67.9296C40.1813 67.9296 39.1784 67.4851 38.4523 66.7645C37.7268 66.0446 37.2773 65.0492 37.2773 63.9502V48.2395C37.2773 46.7938 38.0563 45.5265 39.219 44.8308C39.823 44.4681 40.5321 44.2607 41.2888 44.2607C41.3133 44.2607 41.3355 44.2608 41.3594 44.262H41.362C41.6351 44.2662 41.9022 44.2981 42.1596 44.354C40.3642 44.7493 39.0202 46.3388 39.0202 48.2395V63.9502C39.0199 65.0492 39.4693 66.0445 40.1951 66.7648Z" fill="#4A7DAF"/>
<g opacity="0.4">
<path d="M23.5296 58.4632C19.5136 67.8347 10.0352 72.5299 2.21484 69.104V36.0649C6.61903 33.0838 11.9436 32.3211 16.6281 34.5279C24.5128 38.2407 27.601 48.9569 23.5296 58.4632Z" fill="#AADDF9"/>
</g>
<path d="M51.3355 34.4872C51.3355 35.6219 50.5388 36.5729 49.4692 36.8183C49.292 36.8579 49.1087 36.88 48.9222 36.88H2.75963C2.57278 36.88 2.39012 36.8579 2.21519 36.8183C1.14531 36.5729 0.347656 35.6235 0.347656 34.4872C0.347656 33.8248 0.616336 33.2266 1.05479 32.7936C1.36857 32.4823 1.76869 32.2567 2.21487 32.1554C2.3898 32.1158 2.57247 32.0938 2.75932 32.0938H48.9219C49.1084 32.0938 49.2917 32.1158 49.4689 32.1554C50.5388 32.4009 51.3355 33.3522 51.3355 34.4872Z" fill="#AADDF9"/>
<path d="M49.4616 75.7739V79.4181C49.4616 79.5357 49.46 79.6536 49.4571 79.7712C49.4391 80.6071 49.3592 81.4249 49.221 82.2151C49.144 82.6695 49.0451 83.1162 48.931 83.5527C48.8527 83.8461 48.7658 84.1337 48.6733 84.4168H3.05035C2.95822 84.134 2.87155 83.8464 2.79326 83.5527C2.68051 83.1261 2.58354 82.6874 2.50719 82.2426C2.37285 81.4827 2.29167 80.6988 2.26976 79.8974C2.26364 79.7376 2.26172 79.5782 2.26172 79.4181V75.7739H49.4616Z" fill="#98C9EA"/>
<path d="M41.0821 94.1243H10.506C6.22454 94.1243 1.81908 90.7617 2.29748 85.4181C2.34934 84.8218 2.46435 84.1994 2.64734 83.5532H48.94C49.1311 84.2294 49.2477 84.8816 49.2983 85.5038C49.7216 90.7975 45.3384 94.1243 41.0821 94.1243Z" fill="#98C9EA"/>
<g opacity="0.2">
<path d="M50.9848 77.5564C50.9848 76.5498 50.3566 75.6896 49.4674 75.3432V36.8197C50.5357 36.5743 51.3347 35.6214 51.3347 34.4876C51.3347 33.3516 50.536 32.4016 49.4674 32.1562V28.243C49.6147 28.2094 49.7571 28.1615 49.8933 28.0995C49.9417 28.0826 49.9871 28.0599 50.0296 28.0369C50.0383 28.0343 50.0438 28.0289 50.0499 28.026C50.1008 28.0004 50.1488 27.9726 50.1946 27.9439C50.2683 27.8966 50.3392 27.8483 50.4075 27.7946C50.4417 27.7694 50.4755 27.7413 50.5099 27.7103C50.5215 27.7016 50.5325 27.6901 50.5438 27.679C50.5779 27.6508 50.6092 27.6195 50.6407 27.586C50.6546 27.5748 50.6691 27.5607 50.6833 27.5467C50.72 27.5045 50.7573 27.462 50.7941 27.4195C50.7966 27.4137 50.7999 27.4115 50.8024 27.4083C50.8369 27.3658 50.8679 27.3236 50.8994 27.2789C50.9249 27.2447 50.9445 27.214 50.9619 27.1801C50.9899 27.1405 51.0128 27.1012 51.0357 27.0587C51.0669 27.0053 51.0924 26.9517 51.1178 26.8954C51.1459 26.8385 51.1688 26.7794 51.1887 26.7235C51.2087 26.6669 51.2287 26.6078 51.2454 26.5487C51.2625 26.4867 51.2767 26.4276 51.2883 26.3656C51.2995 26.3036 51.3108 26.2388 51.3166 26.1768H41.3578C41.3553 26.2221 41.352 26.2669 41.3495 26.3094C41.2953 26.9913 40.8408 25.9285 40.7867 26.5768C40.7409 27.1351 26.3876 27.3354 15.2056 27.5863C13.2785 27.6285 11.4451 27.6735 9.79694 27.7215C5.34283 27.857 2.22759 28.0151 2.21373 28.2433C2.21373 28.3503 4.97395 28.6466 9.01796 29.0297C11.1526 29.2329 13.6454 29.4585 16.2832 29.6953C27.3541 30.6904 40.9316 31.8577 40.9145 32.0945C40.8095 33.6904 40.67 35.2888 40.4883 36.8817C40.4545 37.1888 31.9416 37.0453 22.9544 36.8817C21.985 36.8622 21.0128 36.8453 20.0437 36.8252C18.7873 36.8031 17.5396 36.7801 16.3232 36.7574C13.5916 36.7101 11.0076 36.6705 8.81662 36.6535C4.90275 36.6171 2.23661 36.6475 2.21373 36.82V36.8229C2.21373 37.0453 4.88826 37.3048 8.81662 37.5809C11.0108 37.7394 13.5948 37.8969 16.3232 38.0605C18.0116 38.159 19.7538 38.2606 21.4934 38.3622C30.9497 38.9121 40.3179 39.4589 40.2496 39.8737C40.0592 41.0404 39.4655 43.6738 39.2181 44.8328C39.2126 44.8663 39.2068 44.8973 39.1984 44.9286C38.7181 47.184 38.1321 49.4225 37.4137 51.63C37.3679 51.7715 37.3251 51.9089 37.2771 52.0447C37.1295 52.4959 36.8992 52.9213 36.8164 53.3868C34.4405 66.7671 24.8161 72.0931 16.3235 74.1484C14.0835 74.6897 11.9235 75.0026 9.99636 75.1777C9.5927 75.2141 9.19742 75.2422 8.81695 75.2675C4.91436 75.5241 2.21405 75.2253 2.21405 75.2253C1.74499 75.3212 1.33006 75.5522 1.00308 75.8733C0.571067 76.3019 0.300781 76.9001 0.300781 77.5567C0.300781 78.7237 1.15095 79.6968 2.27076 79.8965C2.29331 80.7005 2.37321 81.484 2.50626 82.2423C2.23951 82.3324 1.99757 82.4593 1.7959 82.6117C1.37259 82.9361 1.1081 83.3783 1.1081 83.872C1.1081 84.537 1.58586 85.1154 2.29653 85.4167C1.81878 90.7625 6.22424 94.1258 10.505 94.1258H41.0798C45.3377 94.1258 49.7207 90.7964 49.297 85.5043C50.1269 85.2305 50.7071 84.6019 50.7071 83.8717C50.7071 83.1185 50.0902 82.4734 49.2207 82.2139C49.3595 81.4243 49.4391 80.6065 49.4565 79.7725C50.3508 79.4258 50.9848 78.5659 50.9848 77.5564ZM39.0216 48.2405C39.0216 46.3404 40.363 44.7503 42.1594 44.3554C41.9036 44.2991 41.6362 44.2656 41.3604 44.2624C41.3833 44.2595 41.4004 44.2595 41.4229 44.2595C42.5314 44.2595 43.5346 44.705 44.2595 45.424C44.6119 45.7764 44.8993 46.1966 45.1039 46.6587C45.0272 46.9463 44.9563 47.1831 44.9106 47.3298C44.3168 49.1483 43.9389 50.5697 44.5469 52.5011C45.1496 54.4177 45.7237 54.852 45.2292 56.978C44.8423 58.6217 44.092 60.116 44.2257 61.8895C44.3023 62.9386 44.7601 63.8518 45.1242 64.8105C45.158 64.9035 45.195 65.0361 45.2317 65.1965C44.706 66.7834 43.1993 67.9312 41.4229 67.9312C41.4 67.9312 41.3833 67.9312 41.3604 67.9284C41.6362 67.9255 41.9032 67.8919 42.1594 67.8354C41.4004 67.6689 40.7238 67.2912 40.1952 66.7639C39.4707 66.0452 39.0212 65.0498 39.0212 63.9506V48.2405H39.0216Z" fill="#4A7DAF"/>
</g>
<g opacity="0.4">
<path d="M29.2677 33.4124C29.2677 33.7853 28.9636 34.0882 28.5867 34.0882H4.41151C4.03588 34.0882 3.73047 33.7853 3.73047 33.4124C3.73047 33.0398 4.03588 32.7368 4.41151 32.7368H28.5867C28.9636 32.7368 29.2677 33.0401 29.2677 33.4124Z" fill="#AADDF9"/>
</g>
<path d="M49.4121 24.7137C49.4121 24.7137 47.9083 25.1428 41.4156 25.4378C39.3007 25.5337 36.658 25.6158 33.3643 25.6656C31.3415 25.6931 29.0738 25.7113 26.5317 25.7113C7.34029 25.7113 2.27344 24.714 2.27344 24.714C2.29148 24.3031 2.45868 23.9043 2.74218 23.5176C4.89804 20.5694 13.7608 18.4096 14.1993 18.3319C19.1643 17.4637 21.279 14.2989 22.1746 11.5904C22.5963 10.3179 22.7496 9.14707 22.8015 8.36097C22.8334 8.35938 22.8682 8.35938 22.8997 8.35938H29.5245C29.58 8.35938 29.6337 8.36098 29.6885 8.36737C29.7433 8.87418 29.8393 9.53788 30.0107 10.284C30.1009 10.6828 30.2117 11.1062 30.3483 11.5386C31.2374 14.3532 33.2016 17.6682 37.5488 18.3322C37.7301 18.3604 39.4353 18.7688 41.4977 19.4571C44.2789 20.3863 47.7131 21.8246 48.9463 23.5179C49.2276 23.9039 49.3938 24.3027 49.4121 24.7137Z" fill="#AADDF9"/>
<g opacity="0.2">
<path d="M49.4086 24.714C49.4086 24.714 47.9048 25.1431 41.4121 25.4381C39.2971 25.534 36.6545 25.6161 33.3608 25.6659C33.5705 24.9994 33.6746 24.2836 33.6488 23.5176C33.6423 23.308 33.6246 23.0971 33.5979 22.8794C33.3247 20.6518 31.0142 19.2992 29.7813 17.4899C28.4466 15.5253 28.0343 13.9157 27.9402 11.7498C27.9241 11.3689 27.918 10.972 27.918 10.5531L30.0075 10.2837C30.0977 10.6825 30.2085 11.1059 30.3451 11.5383C31.2342 14.3529 33.1984 17.6679 37.5456 18.3319C37.727 18.36 39.4321 18.7684 41.4946 19.4567C44.2757 20.386 47.7099 21.8243 48.9431 23.5176C49.224 23.9042 49.3902 24.303 49.4086 24.714Z" fill="#4A7DAF"/>
</g>
<path d="M31.2327 10.0539C31.2327 10.6921 30.8757 11.2503 30.349 11.5376C30.1051 11.6734 29.8239 11.7492 29.5252 11.7492H22.9004C22.6414 11.7492 22.3963 11.6913 22.1753 11.5894C21.5935 11.3181 21.1914 10.7317 21.1914 10.0536C21.1914 9.58675 21.3831 9.16174 21.6924 8.85465C21.98 8.56961 22.3702 8.38588 22.8022 8.36C22.8341 8.3584 22.8689 8.3584 22.9004 8.3584H29.5252C29.5807 8.3584 29.6344 8.36 29.6892 8.3664C30.5558 8.4482 31.2327 9.17454 31.2327 10.0539Z" fill="#AADDF9"/>
<path d="M51.3355 25.9105C51.3355 27.0453 50.5388 27.9966 49.4692 28.242C49.292 28.2816 49.1087 28.304 48.9222 28.304H2.75963C2.57278 28.304 2.39012 28.2816 2.21519 28.242C1.14531 27.9966 0.347656 27.0475 0.347656 25.9105C0.347656 25.2484 0.616336 24.6499 1.05479 24.2172C1.48744 23.7881 2.08311 23.5232 2.73999 23.5171H48.9441C50.2672 23.5292 51.3355 24.5965 51.3355 25.9105Z" fill="#AADDF9"/>
<g opacity="0.4">
<path d="M29.2638 25.7105C29.2638 26.0838 28.9597 26.3861 28.5828 26.3861H4.4076C4.03197 26.3861 3.72656 26.0838 3.72656 25.7105C3.72656 25.3376 4.03197 25.0347 4.4076 25.0347H28.5828C28.9597 25.0347 29.2638 25.3379 29.2638 25.7105Z" fill="#AADDF9"/>
</g>
<g opacity="0.4">
<path d="M16.0931 19.2292C14.5693 19.7887 13.0475 19.8651 11.5659 20.3556C10.1729 20.8167 9.30437 21.6949 8.21484 22.5864L8.34853 22.7193C8.45967 22.6695 13.5768 23.9167 18.671 22.0543C21.0537 21.1839 21.948 16.7488 22.3971 14.6216C20.7692 16.7722 18.6913 18.2747 16.0931 19.2292Z" fill="#AADDF9"/>
</g>
<g opacity="0.4">
<path d="M28.1913 9.55517C28.1913 9.84916 27.9516 10.0872 27.6552 10.0872H23.2314C22.9347 10.0872 22.6953 9.84916 22.6953 9.55517C22.6953 9.2615 22.935 9.02344 23.2314 9.02344H27.6552C27.9516 9.02344 28.1913 9.2615 28.1913 9.55517Z" fill="#AADDF9"/>
</g>
<path d="M50.9848 77.5555C50.9848 78.5649 50.3511 79.4261 49.4562 79.7713C49.1872 79.8774 48.8934 79.9349 48.5854 79.9349H2.69923C2.55265 79.9349 2.40769 79.9211 2.26916 79.8972C1.14967 79.6955 0.300781 78.7244 0.300781 77.5555C0.300781 76.8994 0.570108 76.3028 1.00276 75.8724C1.32814 75.5509 1.74436 75.3215 2.21277 75.224C2.36934 75.1943 2.53235 75.1758 2.69923 75.1758H48.5854C48.8976 75.1758 49.1956 75.2355 49.4668 75.3436C50.3553 75.6906 50.9848 76.5499 50.9848 77.5555Z" fill="#AADDF9"/>
<path d="M50.7045 83.8723C50.7045 84.6022 50.1246 85.2307 49.2947 85.5033C49.0067 85.5992 48.6913 85.6513 48.3576 85.6513H3.45205C3.03163 85.6513 2.63571 85.5672 2.29391 85.4177C1.5842 85.1147 1.10547 84.5363 1.10547 83.8723C1.10547 83.3793 1.36867 82.9344 1.79262 82.6117C1.99623 82.458 2.23784 82.333 2.50491 82.2426C2.7942 82.1451 3.11378 82.0908 3.45205 82.0908H48.3576C48.661 82.0908 48.9526 82.1349 49.2187 82.2151C50.0888 82.4736 50.7045 83.1185 50.7045 83.8723Z" fill="#AADDF9"/>
<g opacity="0.4">
<path d="M29.2638 76.695C29.2638 77.068 28.9597 77.3703 28.5828 77.3703H4.4076C4.03197 77.3703 3.72656 77.068 3.72656 76.695C3.72656 76.3218 4.03197 76.0195 4.4076 76.0195H28.5828C28.9597 76.0195 29.2638 76.3218 29.2638 76.695Z" fill="#AADDF9"/>
</g>
<g opacity="0.4">
<path d="M29.6658 83.4752C29.6658 83.8484 29.3611 84.151 28.9841 84.151H4.8093C4.43399 84.151 4.12891 83.8484 4.12891 83.4752C4.12891 83.1026 4.43399 82.8003 4.8093 82.8003H28.9841C29.3611 82.8003 29.6658 83.1026 29.6658 83.4752Z" fill="#AADDF9"/>
</g>
<g opacity="0.4">
<path d="M16.319 82.6221C16.319 84.6785 14.6387 86.3456 12.5656 86.3456C10.4925 86.3456 8.8125 84.6785 8.8125 82.6221V30.2321C8.8125 28.1764 10.4928 26.5093 12.5656 26.5093C14.6387 26.5093 16.319 28.1767 16.319 30.2321V82.6221Z" fill="#AADDF9"/>
</g>
<path d="M30.8215 4.85843V6.84892C30.8215 7.5302 30.6192 8.17153 30.2625 8.73106C29.5699 9.82808 28.2858 10.6155 26.7742 10.7896C26.5619 10.8165 26.3467 10.8302 26.1258 10.8302C24.8275 10.8302 23.6529 10.3831 22.8069 9.66448C22.4828 9.3903 22.2048 9.07618 21.9893 8.73106C21.632 8.17153 21.4297 7.5302 21.4297 6.84892V4.85843C21.4297 4.31647 21.5566 3.79911 21.7892 3.32841C22.496 1.89075 24.1696 0.878418 26.1258 0.878418C26.4618 0.878418 26.79 0.909095 27.1064 0.966614C28.0087 1.12767 28.8157 1.51049 29.4452 2.0435C29.8753 2.40843 30.2248 2.84397 30.4616 3.32841C30.6949 3.79943 30.8215 4.31679 30.8215 4.85843Z" fill="#AADDF9"/>
<path d="M31.2915 1.9841C31.2915 2.56089 30.9584 3.06322 30.4623 3.32877C30.2232 3.45915 29.9436 3.532 29.6475 3.532H22.6049C22.3085 3.532 22.0295 3.45883 21.7898 3.32877C21.2944 3.06322 20.9609 2.56089 20.9609 1.9841C20.9609 1.55462 21.1439 1.17053 21.4426 0.889325C21.7383 0.609079 22.1519 0.436524 22.6049 0.436524H29.6475C30.5537 0.436204 31.2915 1.12802 31.2915 1.9841Z" fill="#AADDF9"/>
<path d="M31.2915 10.1662C31.2915 11.0223 30.5537 11.7145 29.6472 11.7145H22.6046C21.6951 11.7145 20.9609 11.022 20.9609 10.1662C20.9609 9.73741 21.1439 9.35234 21.4426 9.07145C21.5969 8.92606 21.7831 8.80878 21.9896 8.73113C22.1793 8.65795 22.3881 8.61865 22.6046 8.61865H29.6472C29.8656 8.61865 30.0728 8.65827 30.2628 8.73113C30.8659 8.96089 31.2915 9.51628 31.2915 10.1662Z" fill="#AADDF9"/>
<g opacity="0.3">
<path d="M31.2932 10.1664C31.2932 11.0224 30.5554 11.7146 29.6489 11.7146H26.6841C26.7998 11.3628 26.8294 11.0598 26.7762 10.7898C26.5946 9.81486 25.3713 9.29943 23.3875 8.72935C24.2051 8.75331 24.9068 8.71785 25.505 8.61847C27.5784 8.27527 28.4147 7.18976 28.4363 5.30121C28.4498 4.01374 27.6583 3.66637 26.4451 3.53184C25.4158 3.4168 24.0856 3.4542 22.6836 3.20016C24.9541 3.02984 26.5105 2.09675 27.1084 0.966501C27.2034 0.793943 27.2733 0.617221 27.3204 0.436035H29.6489C30.5554 0.436035 31.2932 1.12786 31.2932 1.98394C31.2932 2.56073 30.9601 3.06307 30.464 3.32861C30.6972 3.79963 30.8238 4.31667 30.8238 4.85863V6.84912C30.8238 7.5304 30.6215 8.17172 30.2649 8.73126C30.8676 8.96102 31.2932 9.5164 31.2932 10.1664Z" fill="#4A7DAF"/>
</g>
</svg>
