<svg width="32" height="32" viewBox="0 0 32 32" fill="none" xmlns="http://www.w3.org/2000/svg">
    <rect width="32" height="32" rx="16" fill="white" fill-opacity="0.3" />
    <path
        d="M24.25 22.4167V20.9079C24.25 20.1582 23.7936 19.4841 23.0975 19.2057L21.2329 18.4598C20.3476 18.1057 19.3387 18.4893 18.9123 19.3422L18.75 19.6667C18.75 19.6667 16.4583 19.2083 14.625 17.375C12.7917 15.5417 12.3333 13.25 12.3333 13.25L12.6578 13.0877C13.5107 12.6613 13.8943 11.6524 13.5402 10.7671L12.7943 8.90245C12.5159 8.20641 11.8418 7.75 11.0921 7.75H9.58333C8.57081 7.75 7.75 8.57081 7.75 9.58333C7.75 17.6835 14.3165 24.25 22.4167 24.25C23.4292 24.25 24.25 23.4292 24.25 22.4167Z"
        fill="white" />
</svg>