<svg width="32" height="32" viewBox="0 0 32 32" fill="none" xmlns="http://www.w3.org/2000/svg">
    <rect width="32" height="32" rx="16" fill="white" fill-opacity="0.3" />
    <path fill-rule="evenodd" clip-rule="evenodd"
        d="M10.4999 7.75C8.47487 7.75 6.83325 9.39162 6.83325 11.4167V20.5833C6.83325 22.6084 8.47487 24.25 10.4999 24.25H21.4999C23.525 24.25 25.1666 22.6084 25.1666 20.5833V11.4167C25.1666 9.39162 23.525 7.75 21.4999 7.75H10.4999ZM10.8813 11.7613C10.5654 11.5506 10.1385 11.636 9.92789 11.9519C9.71727 12.2679 9.80264 12.6947 10.1186 12.9053L13.5847 15.2161C15.0472 16.1911 16.9526 16.1911 18.4152 15.2161L21.8813 12.9053C22.1972 12.6947 22.2826 12.2679 22.072 11.9519C21.8613 11.636 21.4345 11.5506 21.1186 11.7613L17.6525 14.072C16.6518 14.7391 15.3481 14.7391 14.3474 14.072L10.8813 11.7613Z"
        fill="white" />
</svg>