<svg width="343" height="299" viewBox="0 0 343 299" fill="none" xmlns="http://www.w3.org/2000/svg">
<g clip-path="url(#clip0_187_1169)">
<path d="M343 0.529297H0V299H343V0.529297Z" fill="white"/>
<path d="M15.6516 247.757C18.9549 247.952 22.3765 247.316 25.6036 246.651C26.0421 246.56 26.4803 246.466 26.9185 246.37C26.1169 247.33 25.315 248.29 24.5095 249.248L22.6882 253.011C21.7882 255.835 21.5622 258.724 22.0092 261.677C22.6206 265.789 24.4885 269.636 27.1812 272.575H296.908C297.282 272.108 297.654 271.64 298.022 271.172C299.127 269.146 305.874 276.794 305.519 274.463C305.49 274.257 313.532 271.701 313.495 271.498C347.884 246.355 318.886 211.534 322.238 208.981C322.318 208.92 322.398 208.86 322.478 208.799C322.823 208.1 323.169 207.402 323.514 206.703C323.84 204.65 323.628 202.658 322.876 200.725C321.659 197.158 319.545 193.936 317.14 191.173C317.306 191.07 317.471 190.967 317.637 190.864C320.674 189.039 323.753 187.301 326.873 185.653C327.598 185.21 328.323 184.767 329.049 184.325C330.236 183.181 330.675 181.762 330.365 180.066C329.748 176.858 326.947 174.323 324.622 172.613C322.265 170.879 319.646 169.526 316.928 168.542C317.593 168.071 318.257 167.598 318.923 167.129C319.573 166.486 320.222 165.843 320.873 165.2C321.893 163.417 322.199 161.491 321.79 159.423C321.128 155.488 318.755 151.971 316.179 149.263C313.097 146.022 309.255 143.453 305.13 142.158C303.924 141.91 302.718 141.662 301.512 141.415C299.424 141.152 297.447 141.536 295.582 142.567C295.119 142.893 294.657 143.221 294.194 143.548C292.774 141.111 291.172 138.783 289.323 136.751C288.624 136.093 287.925 135.434 287.225 134.775C286.344 133.895 285.358 133.575 284.267 133.812C285.197 132.817 286.041 131.739 286.766 130.581C288.274 128.173 289.528 124.815 288.19 121.95C286.851 119.086 283.627 118.227 280.957 118.15C279.333 118.103 277.716 118.302 276.129 118.683C276.268 118.294 276.398 117.898 276.513 117.492C277.504 113.745 276.872 109.698 274.535 106.691C272.098 103.556 268.334 102.04 264.665 101.786C264.027 101.819 263.389 101.852 262.752 101.885C262.156 100.051 260.96 98.4697 259.403 97.3312C256.272 95.042 252.238 94.4483 248.564 94.7385C247.107 94.9995 245.651 95.2602 244.194 95.5208C243.679 95.6617 243.171 95.8202 242.669 95.9959C240.901 94.1721 238.809 92.7079 236.6 91.6508C235.194 91.1546 233.788 90.6582 232.382 90.162C229.718 89.5208 227.055 89.5179 224.394 90.1532C224.278 90.1936 224.162 90.2349 224.047 90.2754C223.863 89.3641 223.571 88.479 223.169 87.6202C221.587 83.6875 219.235 80.0773 216.726 76.7974C214.217 73.5172 211.383 70.3475 208.121 67.9484C206.929 67.0715 204.017 64.8826 202.396 66.2572C200.068 68.2319 197.657 70.0681 195.185 71.7988C192.738 71.4069 190.266 71.1785 187.806 71.0903C186.478 71.0944 185.15 71.0985 183.822 71.1023C181.764 71.1483 179.741 71.4588 177.755 72.0337C167.75 75.6914 158.438 81.1156 149.51 87.1941C149.031 86.8007 148.54 86.4197 148.04 86.0535C147.007 82.8856 144.573 80.3672 142.016 78.652C138.339 76.1861 133.923 74.9703 129.624 75.0058C125.893 75.0362 121.94 76.0362 118.967 78.6304C115.353 81.7828 111.525 84.623 107.589 87.2705C97.2906 93.8724 86.4441 99.3798 75.8692 105.42C70.6713 108.39 65.5951 111.56 60.5798 114.883C59.8759 115.732 59.1721 116.581 58.4683 117.43C57.3455 119.406 57.0007 121.533 57.4342 123.811C57.9406 126.368 59.371 128.553 61.1429 130.296C54.592 135.832 48.1762 141.558 41.9645 147.543C37.8022 151.553 33.7389 155.687 29.8132 159.973C29.3857 160.534 28.9575 161.095 28.53 161.657C28.0829 163.302 28.314 164.843 29.2235 166.277C30.7487 169.068 33.272 171.246 35.8216 172.957C35.2298 173.471 34.6392 173.986 34.05 174.504C31.4327 176.803 28.8429 179.145 26.3852 181.647C24.7415 183.32 26.1438 186.893 26.8384 188.532C27.8173 190.842 29.1076 193.012 30.5581 195.039C26.618 198.726 22.5334 202.259 18.8772 206.242C16.7138 208.6 16.3108 211.705 17.3898 214.776C18.7165 218.552 21.6653 221.545 24.716 223.662C26.3863 224.822 28.1949 225.794 30.08 226.532C25.3043 231.648 20.6486 236.893 16.2248 242.379C15.3085 243.515 14.4044 244.663 13.5103 245.819C12.2117 247.499 14.8003 247.706 15.6516 247.757Z" fill="#E2EAFF"/>
<path d="M343.528 275.386C343.528 281.341 266.627 286.169 171.764 286.169C76.9016 286.169 0 281.341 0 275.386C0 269.43 76.9016 264.603 171.764 264.603C266.627 264.603 343.528 269.43 343.528 275.386Z" fill="#9EAAAD"/>
<path d="M171.765 281.024C243.827 281.024 302.245 279.032 302.245 276.575C302.245 274.118 243.827 272.126 171.765 272.126C99.703 272.126 41.2852 274.118 41.2852 276.575C41.2852 279.032 99.703 281.024 171.765 281.024Z" fill="#717F82"/>
<path d="M201.215 208.309V259.768H248.469V208.309H201.215ZM243.227 243.889C243.304 244.938 243.762 245.852 244.126 246.81C244.159 246.903 244.196 247.036 244.233 247.196C243.707 248.783 242.201 249.931 240.424 249.931C240.401 249.931 240.385 249.931 240.362 249.928H240.359C239.279 249.911 238.301 249.471 237.588 248.764C236.863 248.045 236.414 247.05 236.414 245.95V230.241C236.414 228.857 237.125 227.641 238.199 226.928C238.822 226.519 239.564 226.274 240.359 226.262H240.362C240.385 226.26 240.402 226.26 240.424 226.26C241.533 226.26 242.536 226.705 243.261 227.424C243.613 227.776 243.901 228.197 244.105 228.659C244.029 228.946 243.958 229.183 243.912 229.33C243.318 231.148 242.94 232.57 243.548 234.501C244.151 236.418 244.725 236.852 244.231 238.978C243.844 240.622 243.094 242.116 243.227 243.889Z" fill="#AADDF9"/>
<path d="M239.195 248.765C239.724 249.29 240.401 249.669 241.16 249.836C240.902 249.892 240.635 249.924 240.362 249.928H240.359C240.335 249.93 240.313 249.93 240.289 249.93C239.181 249.93 238.178 249.485 237.452 248.765C236.727 248.045 236.277 247.049 236.277 245.95V230.239C236.277 228.794 237.056 227.526 238.219 226.831C238.823 226.468 239.532 226.261 240.289 226.261C240.313 226.261 240.336 226.261 240.359 226.262H240.362C240.635 226.266 240.902 226.298 241.16 226.354C239.364 226.749 238.02 228.339 238.02 230.239V245.95C238.02 247.049 238.469 248.045 239.195 248.765Z" fill="#4A7DAF"/>
<g opacity="0.4">
<path d="M222.53 240.463C218.514 249.835 209.035 254.53 201.215 251.104V218.065C205.619 215.084 210.944 214.321 215.628 216.528C223.513 220.241 226.601 230.957 222.53 240.463Z" fill="#AADDF9"/>
</g>
<path d="M250.335 216.487C250.335 217.622 249.539 218.573 248.469 218.818C248.292 218.858 248.109 218.88 247.922 218.88H201.76C201.573 218.88 201.39 218.858 201.215 218.818C200.145 218.573 199.348 217.624 199.348 216.487C199.348 215.825 199.616 215.227 200.055 214.794C200.369 214.482 200.769 214.257 201.215 214.155C201.39 214.116 201.572 214.094 201.759 214.094H247.922C248.108 214.094 248.292 214.116 248.469 214.155C249.539 214.401 250.335 215.352 250.335 216.487Z" fill="#AADDF9"/>
<path d="M248.462 257.774V261.418C248.462 261.536 248.46 261.654 248.457 261.771C248.439 262.607 248.359 263.425 248.221 264.215C248.144 264.67 248.045 265.116 247.931 265.553C247.853 265.846 247.766 266.134 247.673 266.417H202.05C201.958 266.134 201.872 265.846 201.793 265.553C201.681 265.126 201.584 264.687 201.507 264.243C201.373 263.483 201.292 262.699 201.27 261.897C201.264 261.738 201.262 261.578 201.262 261.418V257.774H248.462Z" fill="#98C9EA"/>
<path d="M240.082 276.124H209.506C205.225 276.124 200.819 272.762 201.297 267.418C201.349 266.822 201.464 266.199 201.647 265.553H247.94C248.131 266.229 248.248 266.882 248.298 267.504C248.722 272.797 244.338 276.124 240.082 276.124Z" fill="#98C9EA"/>
<g opacity="0.2">
<path d="M249.985 259.556C249.985 258.55 249.357 257.69 248.467 257.343V218.82C249.536 218.574 250.335 217.621 250.335 216.488C250.335 215.352 249.536 214.402 248.467 214.156V210.243C248.615 210.209 248.757 210.161 248.893 210.099C248.942 210.083 248.987 210.06 249.03 210.037C249.038 210.034 249.044 210.029 249.05 210.026C249.101 210 249.149 209.973 249.195 209.944C249.268 209.897 249.339 209.848 249.408 209.795C249.442 209.769 249.475 209.741 249.51 209.71C249.522 209.702 249.532 209.69 249.544 209.679C249.578 209.651 249.609 209.62 249.641 209.586C249.655 209.575 249.669 209.561 249.683 209.547C249.72 209.504 249.757 209.462 249.794 209.419C249.797 209.414 249.8 209.411 249.802 209.408C249.837 209.366 249.868 209.324 249.899 209.279C249.925 209.245 249.945 209.214 249.962 209.18C249.99 209.141 250.013 209.101 250.036 209.059C250.067 209.005 250.092 208.952 250.118 208.895C250.146 208.839 250.169 208.779 250.189 208.724C250.209 208.667 250.229 208.608 250.245 208.549C250.262 208.487 250.277 208.428 250.288 208.366C250.3 208.304 250.311 208.239 250.317 208.177H240.358C240.355 208.222 240.352 208.267 240.349 208.309C240.295 208.991 239.841 207.928 239.787 208.577C239.741 209.135 225.388 209.335 214.206 209.586C212.278 209.628 210.445 209.674 208.797 209.721C204.343 209.857 201.228 210.015 201.214 210.243C201.214 210.35 203.974 210.647 208.018 211.03C210.153 211.233 212.645 211.459 215.283 211.695C226.354 212.69 239.932 213.858 239.915 214.095C239.81 215.69 239.67 217.289 239.488 218.882C239.455 219.189 230.942 219.045 221.954 218.882C220.985 218.862 220.013 218.845 219.044 218.825C217.787 218.803 216.54 218.78 215.323 218.757C212.592 218.71 210.008 218.67 207.817 218.654C203.903 218.617 201.237 218.647 201.214 218.82V218.823C201.214 219.045 203.888 219.305 207.817 219.581C210.011 219.739 212.595 219.897 215.323 220.061C217.012 220.159 218.754 220.261 220.493 220.362C229.95 220.912 239.318 221.459 239.25 221.874C239.059 223.04 238.465 225.674 238.218 226.833C238.213 226.866 238.207 226.897 238.198 226.929C237.718 229.184 237.132 231.422 236.414 233.63C236.368 233.772 236.325 233.909 236.277 234.045C236.13 234.496 235.899 234.921 235.816 235.387C233.441 248.767 223.816 254.093 215.323 256.148C213.084 256.69 210.923 257.003 208.996 257.178C208.593 257.214 208.197 257.242 207.817 257.267C203.914 257.524 201.214 257.225 201.214 257.225C200.745 257.321 200.33 257.552 200.003 257.873C199.571 258.302 199.301 258.9 199.301 259.557C199.301 260.724 200.151 261.697 201.271 261.897C201.293 262.7 201.373 263.484 201.506 264.242C201.24 264.332 200.998 264.459 200.796 264.612C200.373 264.936 200.108 265.378 200.108 265.872C200.108 266.537 200.586 267.115 201.297 267.417C200.819 272.763 205.224 276.126 209.505 276.126H240.08C244.338 276.126 248.721 272.796 248.297 267.504C249.127 267.23 249.707 266.602 249.707 265.872C249.707 265.119 249.09 264.473 248.221 264.214C248.36 263.424 248.439 262.607 248.456 261.773C249.351 261.426 249.985 260.566 249.985 259.556ZM238.022 230.24C238.022 228.34 239.363 226.75 241.159 226.355C240.904 226.299 240.636 226.266 240.36 226.262C240.383 226.26 240.4 226.26 240.423 226.26C241.531 226.26 242.535 226.705 243.259 227.424C243.612 227.776 243.899 228.197 244.104 228.659C244.027 228.946 243.956 229.183 243.911 229.33C243.317 231.148 242.939 232.57 243.547 234.501C244.15 236.418 244.724 236.852 244.229 238.978C243.842 240.622 243.092 242.116 243.226 243.889C243.302 244.939 243.76 245.852 244.124 246.81C244.158 246.903 244.195 247.036 244.232 247.197C243.706 248.783 242.199 249.931 240.423 249.931C240.4 249.931 240.383 249.931 240.36 249.928C240.636 249.925 240.903 249.892 241.159 249.835C240.4 249.669 239.724 249.291 239.195 248.764C238.471 248.045 238.021 247.05 238.021 245.951V230.24H238.022Z" fill="#4A7DAF"/>
</g>
<g opacity="0.4">
<path d="M228.268 215.412C228.268 215.785 227.964 216.088 227.587 216.088H203.412C203.036 216.088 202.73 215.785 202.73 215.412C202.73 215.04 203.036 214.737 203.412 214.737H227.587C227.964 214.737 228.268 215.04 228.268 215.412Z" fill="#AADDF9"/>
</g>
<path d="M248.412 206.714C248.412 206.714 246.908 207.143 240.416 207.438C238.301 207.534 235.658 207.616 232.364 207.666C230.342 207.693 228.074 207.711 225.532 207.711C206.34 207.711 201.273 206.714 201.273 206.714C201.291 206.303 201.459 205.904 201.742 205.518C203.898 202.569 212.761 200.41 213.199 200.332C218.164 199.464 220.279 196.299 221.175 193.59C221.596 192.318 221.75 191.147 221.801 190.361C221.833 190.359 221.868 190.359 221.9 190.359H228.525C228.58 190.359 228.634 190.361 228.689 190.367C228.743 190.874 228.839 191.538 229.011 192.284C229.101 192.683 229.212 193.106 229.348 193.539C230.237 196.353 232.202 199.668 236.549 200.332C236.73 200.36 238.435 200.769 240.498 201.457C243.279 202.386 246.713 203.825 247.946 205.518C248.228 205.904 248.394 206.303 248.412 206.714Z" fill="#AADDF9"/>
<g opacity="0.2">
<path d="M248.409 206.714C248.409 206.714 246.905 207.143 240.412 207.438C238.297 207.534 235.655 207.616 232.361 207.666C232.571 206.999 232.675 206.284 232.649 205.518C232.642 205.308 232.625 205.097 232.598 204.879C232.325 202.652 230.014 201.299 228.781 199.49C227.447 197.525 227.034 195.916 226.94 193.75C226.924 193.369 226.918 192.972 226.918 192.553L229.007 192.284C229.098 192.682 229.208 193.106 229.345 193.538C230.234 196.353 232.198 199.668 236.546 200.332C236.727 200.36 238.432 200.768 240.495 201.457C243.276 202.386 246.71 203.824 247.943 205.518C248.224 205.904 248.39 206.303 248.409 206.714Z" fill="#4A7DAF"/>
</g>
<path d="M230.233 192.054C230.233 192.692 229.876 193.25 229.349 193.538C229.105 193.673 228.824 193.749 228.525 193.749H221.9C221.641 193.749 221.396 193.691 221.175 193.589C220.593 193.318 220.191 192.732 220.191 192.054C220.191 191.587 220.383 191.162 220.692 190.855C220.98 190.57 221.37 190.386 221.802 190.36C221.834 190.358 221.869 190.358 221.9 190.358H228.525C228.581 190.358 228.634 190.36 228.689 190.366C229.556 190.448 230.233 191.175 230.233 192.054Z" fill="#AADDF9"/>
<path d="M250.335 207.911C250.335 209.045 249.539 209.997 248.469 210.242C248.292 210.282 248.109 210.304 247.922 210.304H201.76C201.573 210.304 201.39 210.282 201.215 210.242C200.145 209.997 199.348 209.047 199.348 207.911C199.348 207.248 199.616 206.65 200.055 206.217C200.487 205.788 201.083 205.523 201.74 205.517H247.944C249.267 205.529 250.335 206.597 250.335 207.911Z" fill="#AADDF9"/>
<g opacity="0.4">
<path d="M228.264 207.711C228.264 208.084 227.96 208.386 227.583 208.386H203.408C203.032 208.386 202.727 208.084 202.727 207.711C202.727 207.338 203.032 207.035 203.408 207.035H227.583C227.96 207.035 228.264 207.338 228.264 207.711Z" fill="#AADDF9"/>
</g>
<g opacity="0.4">
<path d="M215.093 201.229C213.569 201.789 212.047 201.865 210.566 202.356C209.173 202.817 208.304 203.695 207.215 204.586L207.349 204.719C207.46 204.669 212.577 205.917 217.671 204.054C220.054 203.184 220.948 198.749 221.397 196.622C219.769 198.772 217.691 200.275 215.093 201.229Z" fill="#AADDF9"/>
</g>
<g opacity="0.4">
<path d="M227.191 191.555C227.191 191.849 226.952 192.087 226.655 192.087H222.231C221.935 192.087 221.695 191.849 221.695 191.555C221.695 191.262 221.935 191.023 222.231 191.023H226.655C226.952 191.023 227.191 191.262 227.191 191.555Z" fill="#AADDF9"/>
</g>
<path d="M249.985 259.555C249.985 260.565 249.351 261.426 248.456 261.771C248.187 261.877 247.893 261.935 247.585 261.935H201.699C201.553 261.935 201.408 261.921 201.269 261.897C200.15 261.696 199.301 260.724 199.301 259.555C199.301 258.899 199.57 258.303 200.003 257.872C200.328 257.551 200.744 257.321 201.213 257.224C201.369 257.194 201.532 257.176 201.699 257.176H247.585C247.898 257.176 248.196 257.236 248.467 257.344C249.355 257.691 249.985 258.55 249.985 259.555Z" fill="#AADDF9"/>
<path d="M249.704 265.872C249.704 266.602 249.125 267.231 248.295 267.503C248.007 267.599 247.691 267.651 247.358 267.651H202.452C202.032 267.651 201.636 267.567 201.294 267.418C200.584 267.115 200.105 266.536 200.105 265.872C200.105 265.379 200.369 264.934 200.793 264.612C200.996 264.458 201.238 264.333 201.505 264.243C201.794 264.145 202.114 264.091 202.452 264.091H247.358C247.661 264.091 247.953 264.135 248.219 264.215C249.089 264.474 249.704 265.119 249.704 265.872Z" fill="#AADDF9"/>
<g opacity="0.4">
<path d="M228.264 258.695C228.264 259.068 227.96 259.37 227.583 259.37H203.408C203.032 259.37 202.727 259.068 202.727 258.695C202.727 258.322 203.032 258.02 203.408 258.02H227.583C227.96 258.02 228.264 258.322 228.264 258.695Z" fill="#AADDF9"/>
</g>
<g opacity="0.4">
<path d="M228.666 265.475C228.666 265.848 228.361 266.151 227.984 266.151H203.809C203.434 266.151 203.129 265.848 203.129 265.475C203.129 265.103 203.434 264.8 203.809 264.8H227.984C228.361 264.8 228.666 265.103 228.666 265.475Z" fill="#AADDF9"/>
</g>
<g opacity="0.4">
<path d="M215.319 264.622C215.319 266.678 213.639 268.346 211.566 268.346C209.493 268.346 207.812 266.678 207.812 264.622V212.232C207.812 210.176 209.493 208.509 211.566 208.509C213.639 208.509 215.319 210.177 215.319 212.232V264.622Z" fill="#AADDF9"/>
</g>
<path d="M229.821 186.858V188.849C229.821 189.53 229.619 190.172 229.263 190.731C228.57 191.828 227.286 192.615 225.774 192.79C225.562 192.816 225.347 192.83 225.126 192.83C223.827 192.83 222.653 192.383 221.807 191.664C221.483 191.39 221.205 191.076 220.989 190.731C220.632 190.172 220.43 189.53 220.43 188.849V186.858C220.43 186.316 220.557 185.799 220.789 185.328C221.496 183.891 223.17 182.878 225.126 182.878C225.462 182.878 225.79 182.909 226.106 182.967C227.009 183.128 227.816 183.51 228.445 184.044C228.875 184.408 229.225 184.844 229.462 185.328C229.695 185.799 229.821 186.317 229.821 186.858Z" fill="#AADDF9"/>
<path d="M230.291 183.984C230.291 184.561 229.958 185.063 229.462 185.329C229.223 185.459 228.944 185.532 228.648 185.532H221.605C221.309 185.532 221.03 185.459 220.79 185.329C220.294 185.063 219.961 184.561 219.961 183.984C219.961 183.555 220.144 183.171 220.443 182.889C220.738 182.609 221.152 182.437 221.605 182.437H228.648C229.554 182.436 230.291 183.128 230.291 183.984Z" fill="#AADDF9"/>
<path d="M230.291 192.166C230.291 193.022 229.554 193.714 228.647 193.714H221.605C220.695 193.714 219.961 193.022 219.961 192.166C219.961 191.737 220.144 191.352 220.443 191.071C220.597 190.926 220.783 190.809 220.99 190.731C221.179 190.658 221.388 190.619 221.605 190.619H228.647C228.866 190.619 229.073 190.658 229.263 190.731C229.866 190.961 230.291 191.516 230.291 192.166Z" fill="#AADDF9"/>
<g opacity="0.3">
<path d="M230.293 192.166C230.293 193.022 229.555 193.715 228.649 193.715H225.684C225.8 193.363 225.829 193.06 225.776 192.79C225.595 191.815 224.371 191.299 222.388 190.729C223.205 190.753 223.907 190.718 224.505 190.618C226.578 190.275 227.415 189.19 227.436 187.301C227.45 186.014 226.658 185.666 225.445 185.532C224.416 185.417 223.086 185.454 221.684 185.2C223.954 185.03 225.51 184.097 226.108 182.967C226.203 182.794 226.273 182.617 226.32 182.436H228.649C229.555 182.436 230.293 183.128 230.293 183.984C230.293 184.561 229.96 185.063 229.464 185.329C229.697 185.8 229.824 186.317 229.824 186.859V188.849C229.824 189.53 229.622 190.172 229.265 190.731C229.868 190.961 230.293 191.516 230.293 192.166Z" fill="#4A7DAF"/>
</g>
<path d="M258.582 208.309V259.768H305.836V208.309H258.582ZM300.594 243.889C300.671 244.938 301.129 245.851 301.493 246.81C301.527 246.903 301.564 247.035 301.6 247.196C301.075 248.783 299.568 249.93 297.792 249.93C297.769 249.93 297.752 249.93 297.729 249.928H297.726C296.647 249.911 295.669 249.471 294.955 248.763C294.23 248.044 293.782 247.049 293.782 245.95V230.24C293.782 228.856 294.492 227.64 295.566 226.928C296.189 226.519 296.931 226.273 297.726 226.262H297.729C297.752 226.259 297.769 226.259 297.792 226.259C298.9 226.259 299.903 226.705 300.628 227.424C300.981 227.776 301.268 228.196 301.472 228.658C301.396 228.946 301.325 229.183 301.279 229.329C300.685 231.148 300.308 232.569 300.915 234.501C301.518 236.417 302.092 236.852 301.598 238.978C301.211 240.621 300.461 242.116 300.594 243.889Z" fill="#AADDF9"/>
<path d="M296.562 248.765C297.091 249.29 297.768 249.669 298.527 249.836C298.269 249.892 298.002 249.924 297.729 249.928H297.727C297.702 249.93 297.68 249.93 297.656 249.93C296.548 249.93 295.546 249.485 294.819 248.765C294.094 248.045 293.645 247.049 293.645 245.95V230.239C293.645 228.794 294.424 227.526 295.586 226.831C296.19 226.468 296.899 226.261 297.656 226.261C297.68 226.261 297.703 226.261 297.727 226.262H297.729C298.002 226.266 298.269 226.298 298.527 226.354C296.731 226.749 295.387 228.339 295.387 230.239V245.95C295.387 247.049 295.836 248.045 296.562 248.765Z" fill="#4A7DAF"/>
<g opacity="0.4">
<path d="M279.897 240.463C275.881 249.835 266.402 254.53 258.582 251.104V218.065C262.986 215.084 268.311 214.321 272.995 216.528C280.88 220.241 283.968 230.957 279.897 240.463Z" fill="#AADDF9"/>
</g>
<path d="M307.699 216.487C307.699 217.622 306.902 218.573 305.833 218.818C305.655 218.858 305.472 218.88 305.285 218.88H259.123C258.936 218.88 258.753 218.858 258.578 218.818C257.509 218.573 256.711 217.624 256.711 216.487C256.711 215.825 256.98 215.227 257.418 214.794C257.732 214.482 258.132 214.257 258.578 214.155C258.753 214.116 258.936 214.094 259.123 214.094H305.285C305.472 214.094 305.655 214.116 305.832 214.155C306.902 214.401 307.699 215.352 307.699 216.487Z" fill="#AADDF9"/>
<path d="M305.825 257.774V261.418C305.825 261.536 305.823 261.654 305.82 261.771C305.802 262.607 305.722 263.425 305.584 264.215C305.507 264.67 305.408 265.116 305.294 265.553C305.216 265.846 305.129 266.134 305.037 266.417H259.414C259.321 266.134 259.235 265.846 259.157 265.553C259.044 265.126 258.947 264.687 258.87 264.243C258.736 263.483 258.655 262.699 258.633 261.897C258.627 261.738 258.625 261.578 258.625 261.418V257.774H305.825Z" fill="#98C9EA"/>
<path d="M297.445 276.124H266.869C262.588 276.124 258.182 272.762 258.661 267.418C258.713 266.822 258.828 266.199 259.011 265.553H305.303C305.494 266.229 305.611 266.882 305.662 267.504C306.085 272.797 301.702 276.124 297.445 276.124Z" fill="#98C9EA"/>
<g opacity="0.2">
<path d="M307.352 259.556C307.352 258.55 306.724 257.69 305.835 257.343V218.82C306.903 218.574 307.702 217.621 307.702 216.488C307.702 215.352 306.903 214.402 305.835 214.156V210.243C305.982 210.209 306.124 210.161 306.261 210.099C306.309 210.083 306.354 210.06 306.397 210.037C306.405 210.034 306.411 210.029 306.417 210.026C306.468 210 306.516 209.973 306.562 209.944C306.636 209.897 306.706 209.848 306.775 209.795C306.809 209.769 306.843 209.741 306.877 209.71C306.889 209.702 306.9 209.69 306.911 209.679C306.945 209.651 306.976 209.62 307.008 209.586C307.022 209.575 307.036 209.561 307.05 209.547C307.087 209.504 307.125 209.462 307.161 209.419C307.164 209.414 307.167 209.411 307.17 209.408C307.204 209.366 307.235 209.324 307.267 209.279C307.292 209.245 307.312 209.214 307.329 209.18C307.357 209.141 307.38 209.101 307.403 209.059C307.434 209.005 307.46 208.952 307.485 208.895C307.513 208.839 307.536 208.779 307.556 208.724C307.576 208.667 307.596 208.608 307.613 208.549C307.63 208.487 307.644 208.428 307.655 208.366C307.667 208.304 307.678 208.239 307.684 208.177H297.725C297.722 208.222 297.719 208.267 297.717 208.309C297.663 208.991 297.208 207.928 297.154 208.577C297.108 209.135 282.755 209.335 271.573 209.586C269.646 209.628 267.812 209.674 266.164 209.721C261.71 209.857 258.595 210.015 258.581 210.243C258.581 210.35 261.341 210.647 265.385 211.03C267.52 211.233 270.013 211.459 272.65 211.695C283.721 212.69 297.299 213.858 297.282 214.095C297.177 215.69 297.037 217.289 296.856 218.882C296.822 219.189 288.309 219.045 279.322 218.882C278.352 218.862 277.38 218.845 276.411 218.825C275.155 218.803 273.907 218.78 272.69 218.757C269.959 218.71 267.375 218.67 265.184 218.654C261.27 218.617 258.604 218.647 258.581 218.82V218.823C258.581 219.045 261.255 219.305 265.184 219.581C267.378 219.739 269.962 219.897 272.69 220.061C274.379 220.159 276.121 220.261 277.861 220.362C287.317 220.912 296.685 221.459 296.617 221.874C296.426 223.04 295.833 225.674 295.585 226.833C295.58 226.866 295.574 226.897 295.566 226.929C295.085 229.184 294.499 231.422 293.781 233.63C293.735 233.772 293.692 233.909 293.644 234.045C293.497 234.496 293.266 234.921 293.184 235.387C290.808 248.767 281.183 254.093 272.691 256.148C270.451 256.69 268.291 257.003 266.364 257.178C265.96 257.214 265.565 257.242 265.184 257.267C261.282 257.524 258.581 257.225 258.581 257.225C258.112 257.321 257.697 257.552 257.37 257.873C256.938 258.302 256.668 258.9 256.668 259.557C256.668 260.724 257.518 261.697 258.638 261.897C258.66 262.7 258.74 263.484 258.873 264.242C258.607 264.332 258.365 264.459 258.163 264.612C257.74 264.936 257.475 265.378 257.475 265.872C257.475 266.537 257.953 267.115 258.664 267.417C258.186 272.763 262.591 276.126 266.872 276.126H297.447C301.705 276.126 306.088 272.796 305.664 267.504C306.494 267.23 307.074 266.602 307.074 265.872C307.074 265.119 306.457 264.473 305.588 264.214C305.727 263.424 305.806 262.607 305.824 261.773C306.718 261.426 307.352 260.566 307.352 259.556ZM295.389 230.24C295.389 228.34 296.73 226.75 298.527 226.355C298.271 226.299 298.003 226.266 297.728 226.262C297.75 226.26 297.768 226.26 297.79 226.26C298.899 226.26 299.902 226.705 300.627 227.424C300.979 227.776 301.266 228.197 301.471 228.659C301.394 228.946 301.323 229.183 301.278 229.33C300.684 231.148 300.306 232.57 300.914 234.501C301.517 236.418 302.091 236.852 301.596 238.978C301.209 240.622 300.459 242.116 300.593 243.889C300.67 244.939 301.127 245.852 301.491 246.81C301.525 246.903 301.562 247.036 301.599 247.197C301.073 248.783 299.566 249.931 297.79 249.931C297.767 249.931 297.75 249.931 297.728 249.928C298.003 249.925 298.27 249.892 298.527 249.835C297.768 249.669 297.091 249.291 296.562 248.764C295.838 248.045 295.388 247.05 295.388 245.951V230.24H295.389Z" fill="#4A7DAF"/>
</g>
<g opacity="0.4">
<path d="M285.631 215.413C285.631 215.786 285.327 216.089 284.95 216.089H260.775C260.399 216.089 260.094 215.786 260.094 215.413C260.094 215.04 260.399 214.737 260.775 214.737H284.95C285.327 214.737 285.631 215.041 285.631 215.413Z" fill="#AADDF9"/>
</g>
<path d="M305.775 206.714C305.775 206.714 304.272 207.143 297.779 207.438C295.664 207.534 293.021 207.616 289.728 207.666C287.705 207.693 285.437 207.711 282.895 207.711C263.704 207.711 258.637 206.714 258.637 206.714C258.655 206.303 258.822 205.904 259.105 205.518C261.261 202.569 270.124 200.41 270.563 200.332C275.528 199.464 277.642 196.299 278.538 193.59C278.96 192.318 279.113 191.147 279.165 190.361C279.197 190.359 279.231 190.359 279.263 190.359H285.888C285.943 190.359 285.997 190.361 286.052 190.367C286.107 190.874 286.203 191.538 286.374 192.284C286.464 192.683 286.575 193.106 286.712 193.539C287.601 196.353 289.565 199.668 293.912 200.332C294.093 200.36 295.799 200.769 297.861 201.457C300.642 202.386 304.076 203.825 305.31 205.518C305.591 205.904 305.757 206.303 305.775 206.714Z" fill="#AADDF9"/>
<g opacity="0.2">
<path d="M305.772 206.714C305.772 206.714 304.268 207.143 297.775 207.438C295.66 207.534 293.018 207.616 289.724 207.666C289.934 206.999 290.038 206.284 290.012 205.518C290.006 205.308 289.988 205.097 289.961 204.879C289.688 202.652 287.377 201.299 286.145 199.49C284.81 197.525 284.398 195.916 284.303 193.75C284.287 193.369 284.281 192.972 284.281 192.553L286.371 192.284C286.461 192.682 286.572 193.106 286.708 193.538C287.598 196.353 289.562 199.668 293.909 200.332C294.09 200.36 295.795 200.768 297.858 201.457C300.639 202.386 304.073 203.824 305.306 205.518C305.587 205.904 305.754 206.303 305.772 206.714Z" fill="#4A7DAF"/>
</g>
<path d="M287.596 192.054C287.596 192.692 287.239 193.25 286.712 193.538C286.468 193.673 286.187 193.749 285.889 193.749H279.264C279.005 193.749 278.76 193.691 278.539 193.589C277.957 193.318 277.555 192.732 277.555 192.054C277.555 191.587 277.746 191.162 278.056 190.855C278.343 190.57 278.733 190.386 279.165 190.36C279.197 190.358 279.232 190.358 279.264 190.358H285.889C285.944 190.358 285.998 190.36 286.052 190.366C286.919 190.448 287.596 191.175 287.596 192.054Z" fill="#AADDF9"/>
<path d="M307.699 207.911C307.699 209.045 306.902 209.997 305.833 210.242C305.655 210.282 305.472 210.304 305.285 210.304H259.123C258.936 210.304 258.753 210.282 258.578 210.242C257.509 209.997 256.711 209.047 256.711 207.911C256.711 207.248 256.98 206.65 257.418 206.217C257.851 205.788 258.446 205.523 259.103 205.517H305.307C306.63 205.529 307.699 206.597 307.699 207.911Z" fill="#AADDF9"/>
<g opacity="0.4">
<path d="M285.631 207.711C285.631 208.084 285.327 208.386 284.95 208.386H260.775C260.399 208.386 260.094 208.084 260.094 207.711C260.094 207.338 260.399 207.035 260.775 207.035H284.95C285.327 207.035 285.631 207.338 285.631 207.711Z" fill="#AADDF9"/>
</g>
<g opacity="0.4">
<path d="M272.456 201.229C270.933 201.789 269.411 201.865 267.929 202.356C266.536 202.817 265.668 203.695 264.578 204.586L264.712 204.719C264.823 204.669 269.94 205.917 275.034 204.054C277.417 203.184 278.311 198.749 278.76 196.622C277.132 198.772 275.055 200.275 272.456 201.229Z" fill="#AADDF9"/>
</g>
<g opacity="0.4">
<path d="M284.551 191.555C284.551 191.849 284.311 192.087 284.015 192.087H279.591C279.294 192.087 279.055 191.849 279.055 191.555C279.055 191.262 279.294 191.023 279.591 191.023H284.015C284.311 191.023 284.551 191.262 284.551 191.555Z" fill="#AADDF9"/>
</g>
<path d="M307.352 259.555C307.352 260.565 306.718 261.426 305.823 261.771C305.554 261.877 305.261 261.935 304.953 261.935H259.066C258.92 261.935 258.775 261.921 258.636 261.897C257.517 261.696 256.668 260.724 256.668 259.555C256.668 258.899 256.937 258.303 257.37 257.872C257.695 257.551 258.112 257.321 258.58 257.224C258.737 257.194 258.9 257.176 259.066 257.176H304.953C305.265 257.176 305.563 257.236 305.834 257.344C306.723 257.691 307.352 258.55 307.352 259.555Z" fill="#AADDF9"/>
<path d="M307.072 265.872C307.072 266.602 306.492 267.231 305.662 267.503C305.374 267.599 305.059 267.651 304.725 267.651H259.819C259.399 267.651 259.003 267.567 258.661 267.418C257.951 267.115 257.473 266.536 257.473 265.872C257.473 265.379 257.736 264.934 258.16 264.612C258.363 264.458 258.605 264.333 258.872 264.243C259.161 264.145 259.481 264.091 259.819 264.091H304.725C305.028 264.091 305.32 264.135 305.586 264.215C306.456 264.474 307.072 265.119 307.072 265.872Z" fill="#AADDF9"/>
<g opacity="0.4">
<path d="M285.631 258.695C285.631 259.068 285.327 259.37 284.95 259.37H260.775C260.399 259.37 260.094 259.068 260.094 258.695C260.094 258.322 260.399 258.02 260.775 258.02H284.95C285.327 258.02 285.631 258.322 285.631 258.695Z" fill="#AADDF9"/>
</g>
<g opacity="0.4">
<path d="M286.033 265.475C286.033 265.848 285.728 266.151 285.351 266.151H261.176C260.801 266.151 260.496 265.848 260.496 265.475C260.496 265.103 260.801 264.8 261.176 264.8H285.351C285.728 264.8 286.033 265.103 286.033 265.475Z" fill="#AADDF9"/>
</g>
<g opacity="0.4">
<path d="M272.686 264.622C272.686 266.678 271.006 268.346 268.933 268.346C266.86 268.346 265.18 266.678 265.18 264.622V212.232C265.18 210.176 266.86 208.509 268.933 208.509C271.006 208.509 272.686 210.177 272.686 212.232V264.622Z" fill="#AADDF9"/>
</g>
<path d="M287.181 186.858V188.849C287.181 189.53 286.979 190.172 286.622 190.731C285.929 191.828 284.645 192.615 283.134 192.79C282.921 192.816 282.706 192.83 282.485 192.83C281.187 192.83 280.012 192.383 279.166 191.664C278.842 191.39 278.564 191.076 278.349 190.731C277.991 190.172 277.789 189.53 277.789 188.849V186.858C277.789 186.316 277.916 185.799 278.149 185.328C278.855 183.891 280.529 182.878 282.485 182.878C282.821 182.878 283.149 182.909 283.466 182.967C284.368 183.128 285.175 183.51 285.805 184.044C286.235 184.408 286.584 184.844 286.821 185.328C287.054 185.799 287.181 186.317 287.181 186.858Z" fill="#AADDF9"/>
<path d="M287.651 183.984C287.651 184.561 287.318 185.063 286.822 185.329C286.583 185.459 286.303 185.532 286.007 185.532H278.964C278.668 185.532 278.389 185.459 278.149 185.329C277.654 185.063 277.32 184.561 277.32 183.984C277.32 183.555 277.503 183.171 277.802 182.889C278.098 182.609 278.511 182.437 278.964 182.437H286.007C286.913 182.436 287.651 183.128 287.651 183.984Z" fill="#AADDF9"/>
<path d="M287.651 192.166C287.651 193.022 286.913 193.714 286.007 193.714H278.964C278.055 193.714 277.32 193.022 277.32 192.166C277.32 191.737 277.503 191.352 277.802 191.071C277.956 190.926 278.142 190.809 278.349 190.731C278.539 190.658 278.747 190.619 278.964 190.619H286.007C286.225 190.619 286.432 190.658 286.622 190.731C287.225 190.961 287.651 191.516 287.651 192.166Z" fill="#AADDF9"/>
<g opacity="0.3">
<path d="M287.653 192.166C287.653 193.022 286.915 193.715 286.008 193.715H283.043C283.159 193.363 283.189 193.06 283.136 192.79C282.954 191.815 281.731 191.299 279.747 190.729C280.565 190.753 281.266 190.718 281.864 190.618C283.938 190.275 284.774 189.19 284.796 187.301C284.809 186.014 284.018 185.666 282.804 185.532C281.775 185.417 280.445 185.454 279.043 185.2C281.314 185.03 282.87 184.097 283.468 182.967C283.563 182.794 283.633 182.617 283.68 182.436H286.008C286.915 182.436 287.653 183.128 287.653 183.984C287.653 184.561 287.319 185.063 286.823 185.329C287.057 185.8 287.183 186.317 287.183 186.859V188.849C287.183 189.53 286.981 190.172 286.624 190.731C287.227 190.961 287.653 191.516 287.653 192.166Z" fill="#4A7DAF"/>
</g>
<path d="M142.536 91.1451C139.221 102.204 121.205 80.5961 118.815 77.0615C115.609 72.3204 110.018 62.5338 107.73 56.4776C111.327 54.7741 112.138 54.0625 114.222 52.6836C114.347 52.6008 123.455 62.769 124.581 63.6417C127.726 66.0763 131.122 68.2499 134.329 70.6171C137.714 73.1164 144.874 78.2944 144.246 82.3725C144.234 82.4517 142.561 91.0649 142.536 91.1451Z" fill="#E5804E"/>
<path d="M145.403 56.5778C143.3 56.9507 141.018 56.2327 138.918 55.7361C137.527 55.407 134.199 54.0661 132.887 54.347C131.351 54.6758 129.863 58.1382 129.173 59.4084C128.647 60.3776 123.746 71.1979 123.531 71.1055C126.382 72.332 129.764 73.1328 132.755 74.4132C135.315 75.5093 137.761 77.9574 139.256 79.8101L142.852 70.13C141.258 65.7658 143.675 60.4827 145.403 56.5778Z" fill="#EA5050"/>
<path d="M136.923 71.875C135.814 79.2784 136.425 85.0191 137.381 89.342C138.176 92.9245 139.204 95.5375 139.688 97.3193C142.44 107.482 135.159 119.571 138.158 129.644C140.469 137.403 163.601 137.82 171.302 138.552C172.486 133.529 182.279 109.259 184.686 102.348C186.131 98.2029 187.62 94.9974 189.114 92.0112C191.428 87.3934 193.758 83.2983 195.978 77.0569C196.617 75.26 199.225 67.3102 198.561 65.3795C197.724 62.9426 191.826 59.6643 186.189 56.744C184.766 56.0061 183.357 55.2906 182.053 54.6205C178.391 52.733 175.536 51.1783 175.381 50.3833C175.381 50.3833 158.87 51.9862 148 54.7749C145.975 55.2964 144.144 55.8563 142.654 56.4567C142.36 56.5743 142.081 56.6941 141.815 56.8159C137.249 58.8942 137.844 65.7237 136.923 71.875Z" fill="#EA5050"/>
<path d="M139.685 97.3189C142.437 107.481 135.156 119.571 138.155 129.644C140.466 137.403 163.598 137.819 171.299 138.552C172.483 133.528 182.276 109.258 184.683 102.348C186.127 98.2025 187.616 94.9971 189.111 92.0109C189.372 88.622 186.856 67.9215 186 64.355C178.124 66.2231 173.647 75.0545 169.734 76.9223C164.443 79.4493 168.887 93.9793 162.992 94.5216C156.427 95.1236 149.543 94.3327 143.323 92.1237C141.812 91.5868 139.544 90.5962 137.379 89.3416C138.173 92.9241 139.201 95.5374 139.685 97.3189Z" fill="#CC4242"/>
<path d="M139.575 79.5588C141.732 77.0906 166.228 81.4064 168.67 83.3432C169.908 84.3243 169.533 87.7454 169.301 90.9802C169.174 92.7585 164.582 128.71 165.255 129.278L134.297 135.867C134.297 119.223 135.292 84.4597 139.575 79.5588Z" fill="#194BC9"/>
<path d="M163.758 88.2195L167.97 88.8704C169.947 76.2964 177.22 63.5198 186.191 56.744C184.768 56.0062 183.359 55.2907 182.055 54.6206C172.984 62.2665 165.779 75.3652 163.758 88.2195Z" fill="#194BC9"/>
<path d="M139.12 85.1642L143.347 84.6024C141.994 74.5558 143.832 63.4399 148.002 54.7749C145.977 55.2964 144.146 55.8563 142.657 56.4567C139.23 65.236 137.844 75.6592 139.12 85.1642Z" fill="#194BC9"/>
<path d="M165.146 86.0091C165.051 86.6431 165.492 87.2336 166.131 87.3279C166.771 87.4221 167.366 86.9843 167.461 86.3504C167.556 85.716 167.114 85.1255 166.475 85.0313C165.836 84.9373 165.24 85.3748 165.146 86.0091Z" fill="#1776A5"/>
<path d="M139.845 82.2801C139.75 82.9141 140.192 83.5046 140.831 83.5989C141.47 83.6931 142.065 83.2553 142.16 82.6214C142.255 81.987 141.814 81.3968 141.174 81.3022C140.536 81.2083 139.94 81.6458 139.845 82.2801Z" fill="#1776A5"/>
<path d="M160.548 63.7676C154.846 63.1055 153.741 55.7332 153.778 54.4709C154.194 53.852 155.178 53.759 155.567 53.0154C155.614 52.9323 155.656 52.8467 155.701 52.7617C155.998 52.1724 156.277 51.5662 156.51 50.9639C156.79 50.2461 157.007 49.5393 157.133 48.8826C157.652 46.2211 157.623 43.4084 157.469 40.5746L176.32 26.917C176.305 26.9301 176.29 26.9477 176.277 26.9678C176.204 27.0681 176.141 27.2701 176.091 27.5593C176.091 27.5638 176.088 27.5705 176.09 27.5749C175.502 36.5556 178.031 53.5484 178.031 53.5484C178.031 53.5484 166.585 64.4687 160.548 63.7676Z" fill="#FFB278"/>
<path d="M176.321 26.917C176.307 26.9291 176.293 26.9464 176.28 26.9665C176.221 27.0659 176.159 27.2675 176.094 27.5577C176.092 27.5634 176.09 27.5689 176.091 27.5737C176.101 37.728 174.945 56.6215 156.52 50.9667C156.517 50.9642 156.515 50.9651 156.512 50.9629C156.792 50.2465 157.009 49.539 157.136 48.8823C157.656 46.222 157.624 43.4081 157.471 40.5733L176.321 26.917Z" fill="#E5804E"/>
<path d="M177.898 51.4019C178.809 52.1288 181.157 53.4636 182.735 54.783C181.461 56.4083 171.724 66.7004 170.572 67.3427C169.251 68.0802 169.311 68.115 168.287 66.909C166.758 65.1071 164.455 65.7801 162.265 65.2135C160.254 64.6933 159.228 63.2748 158.57 63.2473C171.136 60.055 177.898 51.4019 177.898 51.4019Z" fill="#CC4242"/>
<path d="M151.728 56.8202C152.171 53.9509 153.587 52.9025 155.97 52.0132C155.025 58.726 159.655 63.31 159.655 63.31C158.341 63.8653 156.669 63.1118 155.301 63.3298C154.077 63.5247 152.573 64.384 151.418 64.5914C151.5 62.0091 151.317 59.4785 151.728 56.8202Z" fill="#CC4242"/>
<path d="M154.257 10.7627L157.414 12.5771C157.562 13.005 155.451 16.7763 155.003 17.7363C154.092 19.6897 152.967 22.0256 152.836 24.1845C152.131 22.6551 150.455 19.1503 150.423 17.456C150.377 14.9188 152.463 10.9477 154.257 10.7627Z" fill="#2D150F"/>
<path d="M153.82 32.3505C155.583 28.8898 151.655 21.4436 148.956 25.7351C147.955 27.3271 148.014 31.5775 149.321 33.4734C150.709 35.4875 152.663 34.5982 153.62 34.9542L153.82 32.3505Z" fill="#FFB278"/>
<path d="M150.348 26.7981L150.39 26.9253C150.833 26.6447 151.784 27.2688 152.069 27.9855C152.425 28.8806 152.088 29.1439 151.681 29.6255C151.248 30.1374 149.714 32.3771 151.732 32.0282C154.561 31.5409 152.357 24.4372 150.348 26.7981Z" fill="#E5804E"/>
<path d="M176.091 37.7288C170.16 54.2132 160.589 50.8467 155.574 49.3726C150.617 47.9164 151.68 42.3313 151.472 38.7923C151.172 33.7274 150.957 30.1619 151.923 25.0573C152.187 23.6638 152.539 22.1552 153.001 20.4721C153.997 16.8462 156.132 12.2533 158.641 9.29165C159.729 8.00354 160.89 7.02571 162.055 6.56972C168.001 4.24913 171.941 6.23131 175.554 10.2688C176.8 11.663 178.008 13.3004 179.245 15.0902C179.245 15.0902 178.932 18.4008 178.469 22.5262C177.823 28.2366 176.889 35.5108 176.091 37.7288Z" fill="#FFB278"/>
<path d="M168.956 30.1334C169.818 30.4826 170.656 30.8664 171.464 31.2825C171.202 32.1238 170.477 32.228 169.977 32.4984C169.244 32.8914 168.561 32.9275 167.744 32.7342C166.496 32.4271 165.132 31.6145 164.781 30.2922C165.999 30.111 167.926 29.9231 168.956 30.1334Z" fill="#E5804E"/>
<path d="M164.789 30.3789C165.364 30.3946 165.937 30.4265 166.506 30.4716C166.515 30.4729 166.525 30.4732 166.534 30.4735C167.656 30.5668 168.766 30.7195 169.86 30.9311C169.873 30.933 169.885 30.9349 169.898 30.9365C170.424 31.0385 170.944 31.1538 171.464 31.2823C171.994 30.4786 171.779 29.0074 171.02 27.8909C170.76 27.4978 170.428 27.1486 170.059 26.8993C169.745 26.6782 169.399 26.5318 169.05 26.4865C167.893 26.3276 167.02 26.721 166.391 27.3451C166.282 27.4531 166.177 27.5662 166.081 27.6857C166.081 27.6883 166.082 27.6899 166.081 27.6908C165.446 28.4856 165.081 29.5148 164.789 30.3789Z" fill="white"/>
<path d="M166.082 27.6857C166.082 27.6883 166.082 27.6899 166.082 27.6908C166.163 28.6038 166.284 29.6222 166.507 30.4716C166.516 30.4729 166.526 30.4732 166.535 30.4735C167.656 30.5668 168.767 30.7195 169.861 30.9311C169.874 30.933 169.885 30.9349 169.899 30.9365C170.384 30.0798 170.733 28.9476 171.02 27.8909C170.76 27.4978 170.429 27.1486 170.06 26.8993C169.746 26.6782 169.4 26.5318 169.051 26.4865C167.894 26.3276 167.021 26.721 166.392 27.3451C166.283 27.4531 166.178 27.5665 166.082 27.6857Z" fill="#30241B"/>
<path d="M169.138 29.0177C168.886 29.5229 168.828 29.9907 168.987 30.0623C169.15 30.1339 169.479 29.7846 169.738 29.2842C169.997 28.786 170.081 28.3207 169.912 28.2441C169.741 28.1674 169.387 28.5128 169.138 29.0177Z" fill="white"/>
<path d="M154.689 27.4877C155.246 27.7887 155.782 28.1137 156.295 28.4601C156.027 29.0123 155.484 29.427 155.111 29.7172C154.563 30.1412 154.101 30.2192 153.57 30.0693C152.765 29.8341 151.927 29.0698 151.82 27.7686C152.654 27.5746 153.999 27.3308 154.689 27.4877Z" fill="#E5804E"/>
<path d="M151.816 27.8568C152.201 27.8613 152.585 27.8782 152.968 27.9064C152.973 27.907 152.981 27.9076 152.986 27.9083C153.736 27.9661 154.482 28.0703 155.217 28.215C155.225 28.2166 155.235 28.2176 155.243 28.2182C155.596 28.2889 155.946 28.3694 156.294 28.4605C156.774 27.6606 156.835 26.2827 156.458 25.2464C156.332 24.8812 156.148 24.5591 155.921 24.3299C155.729 24.1273 155.504 23.9963 155.263 23.9596C154.463 23.8334 153.79 24.2267 153.268 24.8476C153.178 24.9556 153.089 25.0678 153.008 25.1867C153.006 25.1879 153.007 25.1899 153.006 25.1911C152.464 25.9776 152.098 26.9966 151.816 27.8568Z" fill="white"/>
<path d="M153.005 25.1863C153.003 25.1876 153.004 25.1895 153.003 25.1908C152.94 26.0836 152.904 27.0813 152.965 27.9064C152.97 27.907 152.977 27.9076 152.983 27.9083C153.733 27.9661 154.479 28.0703 155.214 28.215C155.222 28.2166 155.232 28.2176 155.239 28.2182C155.685 27.3686 156.087 26.2674 156.455 25.2464C156.329 24.8812 156.145 24.5591 155.918 24.3299C155.726 24.1273 155.501 23.9963 155.26 23.9596C154.46 23.8334 153.786 24.2267 153.265 24.8476C153.175 24.955 153.086 25.0672 153.005 25.1863Z" fill="#30241B"/>
<path d="M154.963 26.4012C154.722 26.8987 154.621 27.356 154.724 27.4177C154.827 27.4793 155.1 27.1275 155.351 26.6357C155.602 26.1436 155.729 25.6943 155.618 25.6259C155.508 25.5592 155.206 25.9043 154.963 26.4012Z" fill="white"/>
<path d="M174.787 25.0743L173.994 27.6608C173.565 28.0225 167.003 26.898 165.537 26.7357C165.33 25.6511 164.897 23.0263 166.067 22.8509C167.232 22.1977 173.171 23.7725 174.787 25.0743Z" fill="#2D150F"/>
<path d="M151.721 20.3466L151.418 23.0324C151.614 23.5306 156.951 25.052 158.111 25.4728C158.646 24.5573 159.328 23.1363 159.067 21.6967C157.84 19.8558 152.509 19.5087 151.721 20.3466Z" fill="#2D150F"/>
<path d="M161.019 28.168C160.913 28.4712 160.814 28.7758 160.717 29.0819C160.62 29.3842 160.51 29.6823 160.419 29.9824C160.315 30.2802 160.198 30.5732 160.1 30.872L159.75 31.7431L159.367 32.5938C159.217 32.8673 159.086 33.1482 158.942 33.4227L158.471 34.2244L157.961 35.0044L157.805 35.2425L157.962 35.4275C158.117 35.609 158.272 35.7902 158.434 35.9644C158.507 36.057 158.607 36.1277 158.699 36.2056L158.976 36.4316C159.155 36.5901 159.375 36.6891 159.576 36.8128C159.779 36.9333 160.001 37.0071 160.212 37.1052C160.317 37.1569 160.428 37.1828 160.536 37.2218L160.861 37.3273C161.077 37.3947 161.292 37.4541 161.511 37.5129C161.725 37.574 161.938 37.6369 162.156 37.6932C162.365 37.7647 162.582 37.8286 162.798 37.8945C162.609 37.7734 162.421 37.6491 162.223 37.5318C162.025 37.4238 161.824 37.3221 161.624 37.2202C161.219 37.0218 160.812 36.8393 160.432 36.6326C160.249 36.5207 160.05 36.4312 159.882 36.3037L159.628 36.1165C159.541 36.058 159.455 35.9986 159.383 35.9228L159.155 35.7091C159.081 35.6359 158.997 35.5742 158.938 35.4857C158.809 35.3192 158.678 35.1588 158.546 35L158.545 35.4218L159.098 34.614C159.266 34.3337 159.421 34.0467 159.583 33.7623C159.724 33.4677 159.869 33.1763 160 32.8766L160.343 31.962C160.436 31.6511 160.526 31.3389 160.61 31.0273C160.686 30.7132 160.749 30.3965 160.812 30.0814C160.865 29.7632 160.906 29.4417 160.95 29.125C160.978 28.8071 161.003 28.4891 161.019 28.168Z" fill="#E5804E"/>
<path d="M160.387 44.298C160.387 44.298 160.384 44.2383 160.372 44.1414C160.361 44.0513 160.306 43.8909 160.21 43.749C160.117 43.596 159.974 43.4445 159.796 43.3186C159.619 43.1876 159.409 43.0949 159.192 43.0252C158.756 42.8945 158.294 42.9064 157.972 43.0134C157.809 43.0562 157.68 43.124 157.596 43.1764C157.51 43.231 157.465 43.2681 157.465 43.2681C157.465 43.2681 157.522 43.2921 157.614 43.3218C157.706 43.3521 157.832 43.393 157.978 43.4359C158.268 43.5289 158.628 43.6263 158.978 43.7318C159.063 43.7577 159.149 43.7839 159.236 43.8101C159.32 43.8372 159.402 43.8637 159.482 43.8922C159.564 43.9174 159.638 43.9491 159.713 43.9746C159.781 44.0072 159.86 44.0267 159.922 44.0596C160.056 44.121 160.158 44.1632 160.248 44.2194C160.331 44.2721 160.387 44.298 160.387 44.298Z" fill="#E5804E"/>
<path d="M181.569 13.9488L152.82 12.2993C152.833 12.3201 152.844 12.3393 152.852 12.3572C152.858 12.3703 152.865 12.383 152.874 12.3965C154.589 15.3641 167.528 14.2473 170.615 14.0527C170.616 14.1204 170.62 14.1911 170.62 14.2614C170.667 16.4624 170.474 19.5896 172.625 20.4137C174.934 21.3001 177.643 21.3097 176.665 23.7057C173.683 31.0391 176.543 32.316 176.805 35.2808L179.19 31.1768C179.248 31.0947 179.309 31.0103 179.372 30.9208C181.306 28.1701 184.998 22.0057 184.536 20.5143C184.533 20.5025 182.828 16.4679 181.569 13.9488Z" fill="#2D150F"/>
<path d="M155.297 38.3564C155.297 38.3564 155.321 38.3935 155.367 38.4619C155.418 38.529 155.47 38.6377 155.574 38.7562C155.621 38.8156 155.675 38.8815 155.733 38.953C155.803 39.0205 155.873 39.0946 155.948 39.1723C156.026 39.2496 156.126 39.3224 156.22 39.4033C156.318 39.4816 156.433 39.5564 156.545 39.6372C156.792 39.7842 157.064 39.9357 157.383 40.0609C157.695 40.1919 158.052 40.2932 158.424 40.3834C158.795 40.4786 159.201 40.5246 159.607 40.5729C160.017 40.6179 160.44 40.6272 160.86 40.6233C161.281 40.6179 161.7 40.5879 162.109 40.5447C162.514 40.4901 162.917 40.4412 163.291 40.352C163.664 40.2674 164.021 40.1741 164.346 40.0635C164.509 40.0092 164.664 39.951 164.809 39.8906C164.962 39.8357 165.096 39.7695 165.228 39.7091C165.489 39.5829 165.714 39.4525 165.906 39.3288C166.089 39.2004 166.252 39.0853 166.365 38.978C166.49 38.8757 166.571 38.7862 166.631 38.7265C166.691 38.6658 166.724 38.6335 166.724 38.6335C166.724 38.6335 166.707 38.6718 166.677 38.7431C166.643 38.8128 166.605 38.9224 166.516 39.047C166.439 39.1774 166.32 39.3263 166.164 39.4899C166.081 39.5675 165.997 39.6554 165.895 39.7395C165.789 39.8203 165.683 39.9111 165.555 39.9919C165.306 40.1597 165.018 40.33 164.679 40.4748C164.515 40.555 164.333 40.6166 164.153 40.6911C163.967 40.754 163.774 40.8208 163.571 40.8729C163.17 40.9876 162.739 41.0768 162.292 41.1433C161.843 41.2056 161.379 41.2404 160.91 41.249C160.441 41.2465 159.97 41.2279 159.509 41.1701C159.05 41.1126 158.601 41.0231 158.183 40.8991C157.764 40.7802 157.377 40.6262 157.043 40.4486C156.698 40.2801 156.423 40.0721 156.188 39.8785C156.082 39.7733 155.97 39.6791 155.887 39.5787C155.808 39.4755 155.725 39.3838 155.666 39.2899C155.608 39.1956 155.553 39.1087 155.508 39.0269C155.473 38.9425 155.441 38.8645 155.411 38.7942C155.346 38.6568 155.345 38.5463 155.321 38.4721C155.304 38.3964 155.297 38.3564 155.297 38.3564Z" fill="#E5804E"/>
<path d="M176.488 35.2545C176.192 31.3017 182.829 26.3208 183.679 31.4586C183.995 33.3638 182.262 37.2038 180.283 38.3312C178.181 39.5295 176.691 37.8269 175.648 37.7154L176.488 35.2545Z" fill="#FFB278"/>
<path d="M181.954 31.7902L181.865 31.8877C181.557 31.4295 180.414 31.5634 179.863 32.0855C179.176 32.7371 179.39 33.1308 179.583 33.7548C179.788 34.4179 180.349 37.1558 178.586 35.9176C176.114 34.1805 180.992 28.7251 181.954 31.7902Z" fill="#E5804E"/>
<path opacity="0.6" d="M178.477 22.5255C173.799 28.1126 168.667 30.329 161.162 28.5245C158.219 27.8164 154.537 26.9954 151.93 25.0567C152.194 23.6632 152.546 22.1546 153.008 20.4715C154.004 16.8455 156.14 12.2526 158.648 9.29102L175.561 10.2682C176.807 11.6624 178.016 13.2998 179.253 15.0896C179.253 15.0896 178.939 18.4001 178.477 22.5255Z" fill="#8C6453"/>
<path d="M186.413 17.0825C185.987 18.9359 184.588 22.388 183.088 24.707C178.692 21.6348 175.118 17.1848 169.556 15.8401C168.608 15.61 167.638 15.3624 166.656 15.1256C164.566 14.6226 162.414 14.1765 160.298 14.0982C158.189 14.0199 153.336 14.0369 151.965 14.9949L154.374 10.7439C158.309 6.23821 160.658 -0.042572 168.48 0.423973C174.006 0.750235 180.653 2.56529 184.249 6.59259C184.847 7.26045 185.358 7.98839 185.77 8.78311C186.989 11.1459 186.994 14.5459 186.413 17.0825Z" fill="#194BC9"/>
<path d="M186.416 17.0825C185.99 18.9359 184.59 22.388 183.091 24.707C178.694 21.6348 175.121 17.1848 169.559 15.8401C168.61 15.61 167.641 15.3624 166.659 15.1256L163.465 10.5058C166.812 13.1728 172.98 14.884 177.186 13.6962C181.183 12.5663 183.429 9.868 184.252 6.59229C184.85 7.26015 185.361 7.98808 185.772 8.78281C186.991 11.1459 186.997 14.5459 186.416 17.0825Z" fill="#153DA2"/>
<path d="M179.109 21.5098C178.433 21.8089 173.055 23.5546 170.404 24.0119C168.054 24.4165 158.436 12.6685 144.249 17.8213C142.632 18.4105 138.926 18.3245 140.249 16.4478C140.414 16.2075 140.662 15.9397 141.006 15.6422C143.222 13.7221 151.588 8.92176 156.791 8.0187C156.791 8.0187 170.512 4.63466 178.584 20.4349C178.763 20.7845 178.937 21.1411 179.109 21.5098Z" fill="#39A7EA"/>
<path d="M178.582 20.4347C177.017 20.986 172.682 22.3488 170.387 22.7438C168.037 23.1484 158.418 11.4004 144.232 16.5531C143.12 16.9583 141.021 17.0452 140.246 16.4477C140.412 16.2074 140.659 15.9396 141.003 15.6421C143.22 13.7219 151.586 8.92161 156.788 8.01856C156.788 8.01856 170.509 4.63452 178.582 20.4347Z" fill="#5C87F2"/>
<path d="M169.742 7.31063C169.589 8.12069 168.15 8.53227 166.528 8.22966C164.906 7.92704 163.715 7.02495 163.869 6.21521C164.022 5.40515 165.462 4.99356 167.084 5.29618C168.706 5.59879 169.896 6.50057 169.742 7.31063Z" fill="white"/>
<path d="M143.223 91.3283C143.165 92.9158 149.523 97.789 149.523 97.789C149.523 97.789 154.631 95.4566 158.711 95.1197C158.559 92.9986 159.006 92.665 159.185 90.8304L143.51 88.2778C143.319 89.557 143.281 89.7471 143.223 91.3283Z" fill="#1776A5"/>
<path d="M191.078 277.164C190.216 274.489 188.606 271.431 187.485 269.691L184.165 269.384C182.013 270.537 180.866 274.551 179.473 277.164L191.078 277.164Z" fill="white"/>
<path d="M147.289 277.164C146.799 273.673 147.006 271.498 145.82 269.657L143.711 269.974C141.529 271.143 134.035 274.627 131.887 277.164H147.289Z" fill="white"/>
<path d="M187.713 269.735C186.761 269.804 183.881 269.985 182.931 269.916C178.537 255.504 163.686 195.002 157.105 168.511C155.223 160.941 154.018 156.152 153.924 156.003C153.905 156.052 153.888 156.103 153.871 156.157C151.035 164.557 148.222 228.666 147.115 257.464C146.793 265.836 146.615 271.223 146.621 271.39C144.738 271.377 142.535 271.284 141.314 271.037C139.538 264.533 131.515 135.887 135.205 124.101L175.889 125.315C177.791 134.239 191.149 223.881 187.713 269.735Z" fill="#194BC9"/>
<path d="M176.753 246.934L157.103 168.511C155.222 160.942 154.017 156.152 153.922 156.003C153.903 156.052 153.886 156.105 153.869 156.158C151.034 164.557 148.221 228.666 147.113 257.464C147.048 257.036 146.998 256.583 146.962 256.106C143.881 214.667 150.044 149.792 150.044 149.792L144.793 140.737L155.684 150.591L176.753 246.934Z" fill="#153DA2"/>
<path d="M103.133 42.6172L94.0586 55.1845C96.2051 55.9712 98.4886 56.8788 100.861 56.7219C103.586 56.5416 105.954 54.7272 108.65 54.3731C110.502 54.13 113.175 54.9349 114.3 53.6931C115.523 52.3421 116.152 48.7717 116.286 47.0615C111.684 45.163 108.341 39.6626 103.133 42.6172Z" fill="#E5804E"/>
<path d="M105.7 43.1186C102.885 39.5135 102.053 48.9223 101.934 49.0709L102.618 50.09C103.925 50.0711 105.778 49.2035 106.175 47.8438C106.388 47.1181 106.164 43.7133 105.7 43.1186Z" fill="#FFB278"/>
<path d="M115.478 100.512L145.685 60.0134L108.496 32.7222L78.2891 73.2208L115.478 100.512ZM103.299 48.2479C103.853 47.3768 104.03 46.3939 104.307 45.4288C104.335 45.3355 104.384 45.2105 104.447 45.0632C105.794 44.1183 107.652 44.0851 109.05 45.1108C109.067 45.1236 109.081 45.1339 109.097 45.1482L109.099 45.1495C109.941 45.7867 110.453 46.6993 110.599 47.666C110.747 48.6518 110.516 49.6942 109.871 50.5589L100.649 62.9236C99.8371 64.0113 98.5642 64.5591 97.3001 64.4983C96.5694 64.4626 95.8417 64.2274 95.2077 63.7742L95.2064 63.773C95.1877 63.7618 95.1732 63.7516 95.1558 63.7385C94.2841 63.0987 93.757 62.1701 93.6085 61.1843C93.536 60.7037 93.5557 60.2077 93.6684 59.7249C93.8972 59.5427 94.0908 59.398 94.2135 59.3088C95.7489 58.2227 96.881 57.3219 97.5353 55.4502C98.1854 53.5937 97.9879 52.9188 99.6273 51.5329C100.896 50.4621 102.363 49.7194 103.299 48.2479Z" fill="#AADDF9"/>
<path d="M109.329 46.7367C109.221 46.0183 108.91 45.3287 108.412 44.7593C108.647 44.8638 108.877 44.9932 109.094 45.1479L109.096 45.1491C109.116 45.1613 109.133 45.1741 109.153 45.1881C110.024 45.8279 110.553 46.7574 110.702 47.7436C110.851 48.7294 110.619 49.7718 109.974 50.6365L100.752 63.0012C99.9029 64.1391 98.547 64.6865 97.2235 64.5635C96.5341 64.4996 95.8554 64.2538 95.259 63.816C95.24 63.802 95.2223 63.7892 95.2046 63.7738L95.2033 63.7726C94.9904 63.6115 94.7984 63.4319 94.6289 63.2392C96.2735 63.9653 98.2641 63.4904 99.3801 61.9943L108.602 49.6299C109.247 48.7652 109.478 47.7225 109.329 46.7367Z" fill="#4A7DAF"/>
<g opacity="0.4">
<path d="M117.573 62.8964C126.234 57.8401 136.45 59.6197 140.593 66.8326L121.199 92.8345C115.983 92.637 111.345 90.1624 108.954 85.7194C104.928 78.2441 108.788 68.0265 117.573 62.8964Z" fill="#AADDF9"/>
</g>
<path d="M81.6198 65.7068C82.286 64.8136 83.4712 64.5244 84.4573 64.9497C84.6197 65.0204 84.7766 65.1089 84.9238 65.2166L121.254 91.8777C121.4 91.9854 121.532 92.1081 121.646 92.241C122.344 93.0517 122.415 94.2599 121.748 95.1547C121.359 95.6755 120.796 95.9913 120.197 96.0788C119.767 96.1421 119.32 96.0887 118.909 95.9107C118.748 95.8411 118.591 95.7526 118.444 95.6449L82.1143 68.9838C81.9671 68.8761 81.836 68.753 81.7203 68.6195C81.0216 67.8084 80.9536 66.5999 81.6198 65.7068Z" fill="#AADDF9"/>
<path d="M107.328 34.2953L109.467 31.4274C109.536 31.3347 109.607 31.243 109.678 31.1516C110.182 30.5045 110.726 29.9073 111.298 29.3656C111.626 29.0518 111.965 28.7569 112.312 28.4795C112.545 28.2942 112.783 28.1181 113.022 27.9487L148.927 54.298C148.833 54.5744 148.733 54.8505 148.623 55.1266C148.461 55.5276 148.279 55.9286 148.078 56.3226C147.738 56.9985 147.341 57.6619 146.888 58.3058C146.799 58.4346 146.707 58.5617 146.614 58.6873L144.474 61.5553L107.328 34.2953Z" fill="#98C9EA"/>
<path d="M124.694 24.6942L148.758 42.3536C152.128 44.8263 153.621 50.0171 150.108 53.9463C149.716 54.385 149.261 54.8087 148.737 55.2114L112.305 28.4752C112.551 27.8329 112.842 27.2522 113.168 26.7333C115.942 22.3225 121.345 22.2356 124.694 24.6942Z" fill="#98C9EA"/>
<g opacity="0.2">
<path d="M81.6191 65.707C80.9529 66.6002 81.0208 67.8087 81.7193 68.6197L79.422 71.6996C78.5142 71.3084 77.4388 71.5238 76.7539 72.2569L84.5923 78.0088C84.6206 77.9762 84.6496 77.9426 84.6779 77.9097C85.1187 77.4045 84.8535 78.5015 85.2752 78.0244C85.8735 77.3483 116.104 99.5948 116.611 98.9908C116.864 98.6879 88.1563 73.9067 88.4137 73.6073C89.4336 72.4128 90.4813 71.2359 91.5589 70.0865C91.997 69.618 121.197 92.7005 121.646 92.2413C122.228 91.6447 92.9032 68.4481 93.5037 67.8688C94.3397 67.0616 96.3529 65.3328 97.2259 64.5637C97.2504 64.5403 97.2742 64.5186 97.2993 64.4985C99.0013 63.0004 100.776 61.5797 102.638 60.2552C102.755 60.1708 102.871 60.0884 102.988 60.0065C103.368 59.7394 103.801 59.5368 104.139 59.2189C122.441 41.9851 144.19 62.0165 144.19 62.0165C144.616 62.2099 145.078 62.2699 145.523 62.2051C146.116 62.1156 146.678 61.8021 147.063 61.2857C147.749 60.3657 147.651 59.1112 146.888 58.3059C147.341 57.662 147.738 56.9989 148.078 56.3228C148.341 56.4065 148.605 56.4474 148.855 56.4436C149.378 56.4343 149.847 56.2365 150.136 55.8489C150.526 55.3261 150.489 54.5946 150.108 53.9463C153.621 50.0171 152.128 44.8263 148.759 42.3536L124.695 24.6942C121.345 22.2356 115.942 22.3225 113.169 26.7333C112.355 26.4684 111.531 26.6288 111.102 27.2033C110.659 27.7967 110.765 28.6589 111.299 29.3657C110.726 29.9074 110.183 30.5043 109.678 31.1517C108.771 30.9063 107.766 31.2188 107.174 32.0129C106.584 32.8041 106.575 33.8443 107.071 34.6307L84.4569 64.95C83.4705 64.525 82.2853 64.8139 81.6191 65.707ZM103.298 48.248C103.852 47.3769 104.029 46.394 104.305 45.4289C104.334 45.3356 104.382 45.2107 104.446 45.0634C105.792 44.1185 107.651 44.0852 109.048 45.111C109.066 45.1238 109.08 45.134 109.096 45.1484C108.878 44.9937 108.649 44.8643 108.414 44.7598C108.912 45.3292 109.223 46.0188 109.331 46.7372C109.479 47.723 109.248 48.7654 108.603 49.6304L99.3811 61.9948C98.2652 63.4909 96.2746 63.9658 94.63 63.2398C94.7994 63.4325 94.9914 63.612 95.2044 63.7731C95.1857 63.7619 95.1712 63.7517 95.1538 63.7386C94.282 63.0989 93.755 62.1702 93.6065 61.1844C93.534 60.7038 93.5536 60.2079 93.6664 59.725C93.8951 59.5429 94.0887 59.3981 94.2115 59.309C95.7469 58.2228 96.8789 57.322 97.5332 55.4504C98.1833 53.5938 97.9859 52.9189 99.6253 51.533C100.894 50.4622 102.362 49.7196 103.298 48.248Z" fill="#4A7DAF"/>
</g>
<g opacity="0.4">
<path d="M98.3572 79.2991C98.5763 79.0057 98.9938 78.9437 99.2901 79.161L118.316 93.1232C118.612 93.3405 118.674 93.7546 118.455 94.048C118.236 94.3413 117.819 94.4036 117.523 94.1863L98.4973 80.2242C98.2006 80.0069 98.1384 79.5924 98.3572 79.2991Z" fill="#AADDF9"/>
</g>
<path d="M77.3935 74.5103C77.3935 74.5103 78.8291 75.0417 84.1124 78.559C85.8334 79.7055 87.9609 81.1672 90.5822 83.0301C92.1904 84.1764 93.9865 85.4725 95.9867 86.9402C111.09 98.0238 114.493 101.735 114.493 101.735C114.237 102.048 113.872 102.266 113.421 102.406C109.995 103.481 101.751 100.062 101.36 99.8705C96.9435 97.6857 93.4208 98.9553 91.1267 100.57C90.0478 101.328 89.2402 102.161 88.7376 102.749C88.7109 102.732 88.6838 102.712 88.659 102.694L83.4465 98.8684C83.4021 98.8361 83.3602 98.8032 83.3212 98.7671C83.5763 98.337 83.8901 97.7583 84.1933 97.0725C84.3563 96.7063 84.5174 96.3097 84.6636 95.8898C85.6162 93.1618 86.0163 89.4186 82.9849 86.3848C82.8586 86.2582 81.7565 84.9516 80.5368 83.2187C78.8935 80.8812 77.035 77.7655 77.0588 75.721C77.0643 75.2545 77.1667 74.8442 77.3935 74.5103Z" fill="#AADDF9"/>
<g opacity="0.2">
<path d="M77.3939 74.5103C77.3939 74.5103 78.8294 75.0417 84.1127 78.559C85.8337 79.7055 87.9612 81.1671 90.5826 83.0301C90.0272 83.4337 89.524 83.9367 89.0952 84.5547C88.9773 84.7228 88.8671 84.8998 88.7605 85.0861C87.6677 86.9974 88.6922 89.3959 88.6004 91.5315C88.4982 93.8489 87.8778 95.3536 86.6806 97.1131C86.4696 97.4221 86.2412 97.7381 85.9954 98.0676L84.1933 97.0728C84.3563 96.7066 84.5174 96.31 84.6636 95.8901C85.6162 93.1621 86.0163 89.4189 82.9849 86.3851C82.8586 86.2586 81.7565 84.9519 80.5368 83.219C78.8935 80.8815 77.035 77.7658 77.0588 75.7214C77.0646 75.2545 77.1671 74.8442 77.3939 74.5103Z" fill="#4A7DAF"/>
</g>
<path d="M83.0971 96.5473C83.4721 96.045 84.0813 95.8121 84.6644 95.8903C84.9356 95.9242 85.2017 96.0274 85.4378 96.2003L90.6503 100.026C90.8546 100.176 91.0144 100.363 91.1281 100.57C91.4261 101.12 91.3987 101.814 91.0008 102.347C90.7267 102.714 90.3269 102.938 89.9032 103.001C89.5092 103.06 89.095 102.979 88.739 102.75C88.7122 102.732 88.6852 102.712 88.6604 102.694L83.4479 98.8686C83.4034 98.8363 83.3616 98.8034 83.3226 98.7673C82.6886 98.2023 82.581 97.2395 83.0971 96.5473Z" fill="#AADDF9"/>
<path d="M76.5848 72.4572C77.2513 71.5641 78.4359 71.2749 79.422 71.7002C79.5847 71.7708 79.7419 71.8594 79.8888 71.9671L116.219 98.6282C116.366 98.7359 116.496 98.8589 116.611 98.9915C117.309 99.8022 117.38 101.01 116.712 101.905C116.324 102.426 115.76 102.742 115.161 102.829C114.569 102.917 113.945 102.782 113.424 102.407L77.0609 75.7218C76.0271 74.9481 75.8129 73.4916 76.5848 72.4572Z" fill="#AADDF9"/>
<g opacity="0.4">
<path d="M93.8379 85.3608C94.0567 85.0671 94.4742 85.0054 94.7706 85.2224L113.796 99.1845C114.092 99.4018 114.154 99.816 113.936 100.11C113.717 100.403 113.299 100.465 113.004 100.248L93.9774 86.2859C93.681 86.0686 93.6189 85.6541 93.8379 85.3608Z" fill="#AADDF9"/>
</g>
<g opacity="0.4">
<path d="M100.4 98.0702C101.928 98.5096 103.17 99.3286 104.624 99.7983C105.991 100.24 107.191 100.051 108.571 99.9785L108.544 99.7964C108.427 99.7718 105.132 95.8352 100.03 94.3579C97.644 93.6671 94.3368 96.6408 92.7344 98.0558C95.2784 97.3036 97.7945 97.3208 100.4 98.0702Z" fill="#AADDF9"/>
</g>
<g opacity="0.4">
<path d="M85.2006 98.6978C85.373 98.4668 85.7016 98.4179 85.9348 98.5889L89.4163 101.144C89.6499 101.315 89.6989 101.641 89.5262 101.872C89.3542 102.103 89.0252 102.152 88.7917 101.981L85.3105 99.4261C85.0772 99.2548 85.0283 98.9289 85.2006 98.6978Z" fill="#AADDF9"/>
</g>
<path d="M107.171 32.0133C107.763 31.2189 108.768 30.9067 109.675 31.1521C109.948 31.2244 110.214 31.3487 110.455 31.526L146.568 58.028C146.684 58.1127 146.789 58.2073 146.885 58.3063C147.648 59.1116 147.746 60.3662 147.06 61.2861C146.674 61.8025 146.112 62.116 145.519 62.2055C145.075 62.2704 144.613 62.2103 144.186 62.017C144.045 61.9499 143.907 61.87 143.775 61.7735L107.662 35.2718C107.417 35.0919 107.218 34.873 107.068 34.6314C106.572 33.8447 106.581 32.8045 107.171 32.0133Z" fill="#AADDF9"/>
<path d="M111.097 27.2038C111.525 26.6296 112.35 26.4692 113.164 26.7337C113.446 26.8242 113.725 26.9661 113.988 27.1587L149.328 53.0935C149.659 53.3364 149.921 53.631 150.103 53.9464C150.484 54.5948 150.521 55.3265 150.13 55.849C149.841 56.2366 149.373 56.4347 148.85 56.4437C148.6 56.4475 148.336 56.4066 148.073 56.3229C147.787 56.2328 147.504 56.0906 147.238 55.8953L111.897 29.9606C111.659 29.7851 111.455 29.5822 111.292 29.3662C110.76 28.6594 110.654 27.7972 111.097 27.2038Z" fill="#AADDF9"/>
<g opacity="0.4">
<path d="M123.76 45.2367C123.979 44.943 124.397 44.8813 124.693 45.0986L143.719 59.0608C144.015 59.2781 144.077 59.6922 143.858 59.9859C143.639 60.2795 143.222 60.3415 142.925 60.1242L123.9 46.1618C123.603 45.9445 123.54 45.53 123.76 45.2367Z" fill="#AADDF9"/>
</g>
<g opacity="0.4">
<path d="M127.424 39.6674C127.643 39.3737 128.06 39.312 128.356 39.529L147.382 53.4915C147.678 53.7088 147.741 54.1229 147.522 54.4166C147.303 54.7103 146.885 54.7719 146.589 54.5546L127.563 40.5925C127.267 40.3752 127.205 39.9611 127.424 39.6674Z" fill="#AADDF9"/>
</g>
<g opacity="0.4">
<path d="M137.431 48.0456C138.638 46.4273 140.939 46.0861 142.571 47.2834C144.202 48.4805 144.546 50.763 143.339 52.3815L112.586 93.6126C111.379 95.2311 109.078 95.5721 107.446 94.3747C105.815 93.1777 105.471 90.8951 106.678 89.2766L137.431 48.0456Z" fill="#AADDF9"/>
</g>
<path d="M79.2323 103.306L80.2857 101.893C80.6465 101.409 81.1223 101.054 81.6587 100.833C82.7064 100.397 83.9886 100.474 85.1003 101.098C85.2566 101.183 85.4093 101.281 85.5584 101.39C86.4334 102.032 86.9878 102.93 87.1785 103.859C87.2517 104.214 87.2723 104.574 87.2352 104.926C87.1792 105.499 86.9759 106.054 86.6154 106.538L85.5616 107.951C85.2753 108.336 84.9157 108.64 84.5098 108.859C83.2721 109.53 81.6078 109.421 80.2896 108.454C80.0631 108.287 79.8579 108.103 79.6749 107.905C79.1527 107.345 78.8109 106.673 78.6688 105.984C78.5718 105.512 78.5673 105.03 78.664 104.569C78.7568 104.12 78.9449 103.69 79.2323 103.306Z" fill="#4A7DAF"/>
<path d="M77.3952 105.114C77.7009 104.704 78.1913 104.513 78.6658 104.569C78.8958 104.595 79.1233 104.682 79.3227 104.828L84.0703 108.312C84.2697 108.458 84.4195 108.648 84.512 108.859C84.7052 109.293 84.664 109.814 84.3586 110.224C84.1315 110.528 83.8042 110.711 83.4546 110.763C83.1064 110.816 82.7366 110.733 82.4315 110.509L77.6839 107.025C77.0727 106.578 76.942 105.722 77.3952 105.114Z" fill="#4A7DAF"/>
<path d="M81.7273 99.3063C82.1803 98.6985 83.044 98.5723 83.6545 99.0206L88.4021 102.504C89.0148 102.954 89.1437 103.808 88.6907 104.416C88.4636 104.721 88.1366 104.904 87.7864 104.955C87.6047 104.982 87.4176 104.974 87.2378 104.926C87.0709 104.884 86.9089 104.809 86.7633 104.702L82.016 101.218C81.8688 101.11 81.7502 100.979 81.661 100.833C81.3752 100.372 81.3829 99.7674 81.7273 99.3063Z" fill="#4A7DAF"/>
<g opacity="0.3">
<path d="M81.7276 99.3063C82.1805 98.6985 83.0442 98.5723 83.6547 99.0206L85.6534 100.487C85.3898 100.68 85.2091 100.88 85.1025 101.098C84.7078 101.88 85.2597 102.85 86.2948 104.237C85.7571 103.815 85.2648 103.493 84.8087 103.268C83.2301 102.486 82.0916 102.843 81.0778 104.173C80.3868 105.08 80.7363 105.718 81.4831 106.414C82.1155 107.004 83.0326 107.636 83.8425 108.51C82.2221 107.507 80.6787 107.4 79.6771 107.906C79.5224 107.982 79.381 108.073 79.2531 108.178L77.6836 107.026C77.0728 106.578 76.942 105.722 77.3952 105.114C77.701 104.705 78.1913 104.513 78.6658 104.57C78.7586 104.121 78.9467 103.691 79.2338 103.306L80.2872 101.893C80.648 101.41 81.1239 101.055 81.6603 100.834C81.3755 100.372 81.3832 99.7674 81.7276 99.3063Z" fill="#4A7DAF"/>
</g>
<path d="M91.7816 92.5115C91.7816 93.0327 91.3557 93.4551 90.8302 93.4551C90.3048 93.4551 89.8789 93.0327 89.8789 92.5115C89.8789 91.9903 90.3048 91.5679 90.8302 91.5679C91.3557 91.5679 91.7816 91.9903 91.7816 92.5115Z" fill="white"/>
<path d="M89.1294 86.8723C89.1294 87.2695 88.8047 87.5913 88.4045 87.5913C88.0041 87.5913 87.6797 87.2692 87.6797 86.8723C87.6797 86.4751 88.0044 86.1533 88.4045 86.1533C88.8047 86.1533 89.1294 86.4751 89.1294 86.8723Z" fill="white"/>
<path d="M91.938 88.1301C91.938 88.5273 91.6132 88.8491 91.2131 88.8491C90.8127 88.8491 90.4883 88.5273 90.4883 88.1301C90.4883 87.7329 90.813 87.4111 91.2131 87.4111C91.6136 87.4111 91.938 87.7332 91.938 88.1301Z" fill="white"/>
<path d="M94.8359 90.0175C94.8359 90.5138 94.43 90.9164 93.9297 90.9164C93.429 90.9164 93.0234 90.5141 93.0234 90.0175C93.0234 89.5213 93.429 89.1187 93.9297 89.1187C94.43 89.1187 94.8359 89.5213 94.8359 90.0175Z" fill="white"/>
<g opacity="0.8">
<path d="M91.6671 82.738C92.3677 82.738 92.9357 82.1746 92.9357 81.4796C92.9357 80.7846 92.3677 80.2212 91.6671 80.2212C90.9664 80.2212 90.3984 80.7846 90.3984 81.4796C90.3984 82.1746 90.9664 82.738 91.6671 82.738Z" fill="#AADDF9"/>
</g>
<g opacity="0.8">
<path d="M95.2895 83.7263C95.2895 84.1235 94.9648 84.4453 94.5647 84.4453C94.1643 84.4453 93.8398 84.1232 93.8398 83.7263C93.8398 83.3291 94.1646 83.0073 94.5647 83.0073C94.9648 83.0073 95.2895 83.3294 95.2895 83.7263Z" fill="#AADDF9"/>
</g>
<g opacity="0.8">
<path d="M97.417 86.6922C97.7423 86.6922 98.0059 86.4307 98.0059 86.1081C98.0059 85.7855 97.7423 85.5239 97.417 85.5239C97.0918 85.5239 96.8281 85.7855 96.8281 86.1081C96.8281 86.4307 97.0918 86.6922 97.417 86.6922Z" fill="#AADDF9"/>
</g>
<g opacity="0.8">
<path d="M93.296 85.344C93.296 85.6914 93.0118 85.9732 92.6617 85.9732C92.3112 85.9732 92.0273 85.6917 92.0273 85.344C92.0273 84.9967 92.3112 84.7148 92.6617 84.7148C93.0118 84.7148 93.296 84.9967 93.296 85.344Z" fill="#AADDF9"/>
</g>
<g opacity="0.8">
<path d="M97.6466 79.0973C97.6466 79.4201 97.3827 79.6815 97.0577 79.6815C96.7323 79.6815 96.4688 79.4198 96.4688 79.0973C96.4688 78.7746 96.7326 78.5132 97.0577 78.5132C97.3827 78.5132 97.6466 78.7749 97.6466 79.0973Z" fill="#AADDF9"/>
</g>
<g opacity="0.8">
<path d="M94.653 75.0082C95.2035 75.0082 95.6497 74.5655 95.6497 74.0195C95.6497 73.4734 95.2035 73.0308 94.653 73.0308C94.1025 73.0308 93.6562 73.4734 93.6562 74.0195C93.6562 74.5655 94.1025 75.0082 94.653 75.0082Z" fill="#AADDF9"/>
</g>
<g opacity="0.8">
<path d="M98.6872 70.8733C99.0625 70.8733 99.3667 70.5715 99.3667 70.1993C99.3667 69.8271 99.0625 69.5254 98.6872 69.5254C98.312 69.5254 98.0078 69.8271 98.0078 70.1993C98.0078 70.5715 98.312 70.8733 98.6872 70.8733Z" fill="#AADDF9"/>
</g>
<g opacity="0.8">
<path d="M99.6421 73.8851C99.6421 74.3069 99.2971 74.6492 98.8718 74.6492C98.4463 74.6492 98.1016 74.3073 98.1016 73.8851C98.1016 73.463 98.4463 73.1211 98.8718 73.1211C99.2971 73.1211 99.6421 73.463 99.6421 73.8851Z" fill="#AADDF9"/>
</g>
<g opacity="0.8">
<path d="M103.629 76.7158C103.629 77.2121 103.223 77.6147 102.723 77.6147C102.222 77.6147 101.816 77.2124 101.816 76.7158C101.816 76.2195 102.222 75.8169 102.723 75.8169C103.223 75.8169 103.629 76.2192 103.629 76.7158Z" fill="#AADDF9"/>
</g>
<g opacity="0.8">
<path d="M100.455 81.7485C100.856 81.7485 101.18 81.4266 101.18 81.0295C101.18 80.6324 100.856 80.3105 100.455 80.3105C100.055 80.3105 99.7305 80.6324 99.7305 81.0295C99.7305 81.4266 100.055 81.7485 100.455 81.7485Z" fill="#AADDF9"/>
</g>
<g opacity="0.8">
<path d="M106.164 81.075C106.164 81.5962 105.738 82.0186 105.213 82.0186C104.688 82.0186 104.262 81.5962 104.262 81.075C104.262 80.5538 104.688 80.1313 105.213 80.1313C105.738 80.1313 106.164 80.5538 106.164 81.075Z" fill="#AADDF9"/>
</g>
<g opacity="0.8">
<path d="M108.566 78.603C109.192 78.603 109.699 78.1 109.699 77.4795C109.699 76.859 109.192 76.356 108.566 76.356C107.941 76.356 107.434 76.859 107.434 77.4795C107.434 78.1 107.941 78.603 108.566 78.603Z" fill="#AADDF9"/>
</g>
<g opacity="0.8">
<path d="M107.796 72.6713C107.796 73.2669 107.309 73.7497 106.708 73.7497C106.108 73.7497 105.621 73.2669 105.621 72.6713C105.621 72.0756 106.108 71.5928 106.708 71.5928C107.309 71.5928 107.796 72.0756 107.796 72.6713Z" fill="#AADDF9"/>
</g>
<g opacity="0.8">
<path d="M103.08 86.3325C103.481 86.3325 103.805 86.0106 103.805 85.6135C103.805 85.2164 103.481 84.8945 103.08 84.8945C102.68 84.8945 102.355 85.2164 102.355 85.6135C102.355 86.0106 102.68 86.3325 103.08 86.3325Z" fill="#AADDF9"/>
</g>
<g opacity="0.8">
<path d="M101.545 87.5912C101.545 87.889 101.301 88.1306 101.001 88.1306C100.701 88.1306 100.457 87.889 100.457 87.5912C100.457 87.2933 100.7 87.0518 101.001 87.0518C101.301 87.0518 101.545 87.2933 101.545 87.5912Z" fill="#AADDF9"/>
</g>
<path d="M98.5076 92.3542C98.8828 92.3542 99.187 92.0525 99.187 91.6803C99.187 91.3081 98.8828 91.0063 98.5076 91.0063C98.1323 91.0063 97.8281 91.3081 97.8281 91.6803C97.8281 92.0525 98.1323 92.3542 98.5076 92.3542Z" fill="white"/>
<path d="M94.611 93.2534C94.8362 93.2534 95.0188 93.0723 95.0188 92.8489C95.0188 92.6255 94.8362 92.4443 94.611 92.4443C94.3857 92.4443 94.2031 92.6255 94.2031 92.8489C94.2031 93.0723 94.3857 93.2534 94.611 93.2534Z" fill="white"/>
<path d="M90.1272 95.86C90.1272 96.0584 89.9648 96.2195 89.7648 96.2195C89.5647 96.2195 89.4023 96.0584 89.4023 95.86C89.4023 95.6615 89.5647 95.5005 89.7648 95.5005C89.9648 95.5005 90.1272 95.6615 90.1272 95.86Z" fill="white"/>
<path d="M88.4508 98.646C88.6761 98.646 88.8587 98.4649 88.8587 98.2415C88.8587 98.018 88.6761 97.8369 88.4508 97.8369C88.2256 97.8369 88.043 98.018 88.043 98.2415C88.043 98.4649 88.2256 98.646 88.4508 98.646Z" fill="white"/>
<path d="M88.3571 96.3994C88.5823 96.3994 88.7649 96.2183 88.7649 95.9949C88.7649 95.7715 88.5823 95.5903 88.3571 95.5903C88.1318 95.5903 87.9492 95.7715 87.9492 95.9949C87.9492 96.2183 88.1318 96.3994 88.3571 96.3994Z" fill="white"/>
<path d="M89.4913 94.2419C89.4913 94.3413 89.4101 94.4218 89.31 94.4218C89.2098 94.4218 89.1289 94.3413 89.1289 94.2419C89.1289 94.1425 89.2098 94.062 89.31 94.062C89.4101 94.0623 89.4913 94.1429 89.4913 94.2419Z" fill="white"/>
<g opacity="0.8">
<path d="M91.5751 95.5902C91.5751 95.6396 91.5346 95.6798 91.4848 95.6798C91.435 95.6798 91.3945 95.6396 91.3945 95.5902C91.3945 95.5407 91.435 95.5005 91.4848 95.5005C91.5346 95.5005 91.5751 95.5407 91.5751 95.5902Z" fill="#AADDF9"/>
</g>
<path d="M89.6742 97.9266C89.8244 97.9266 89.9461 97.8059 89.9461 97.6569C89.9461 97.508 89.8244 97.3872 89.6742 97.3872C89.5241 97.3872 89.4023 97.508 89.4023 97.6569C89.4023 97.8059 89.5241 97.9266 89.6742 97.9266Z" fill="white"/>
<path d="M93.1155 94.5118C93.1155 94.7103 92.9531 94.8713 92.753 94.8713C92.553 94.8713 92.3906 94.7103 92.3906 94.5118C92.3906 94.3134 92.553 94.1523 92.753 94.1523C92.9531 94.1523 93.1155 94.3134 93.1155 94.5118Z" fill="white"/>
<path d="M91.6663 96.6686C91.6663 96.867 91.5039 97.0281 91.3038 97.0281C91.1038 97.0281 90.9414 96.867 90.9414 96.6686C90.9414 96.4701 91.1038 96.3091 91.3038 96.3091C91.5042 96.3091 91.6663 96.4701 91.6663 96.6686Z" fill="white"/>
<path d="M91.7561 94.2423C91.7561 94.4407 91.5937 94.6018 91.3937 94.6018C91.1936 94.6018 91.0312 94.4407 91.0312 94.2423C91.0312 94.0439 91.1936 93.8828 91.3937 93.8828C91.5937 93.8828 91.7561 94.0439 91.7561 94.2423Z" fill="white"/>
<path d="M88.8561 91.6804C88.8561 91.9533 88.6329 92.1747 88.3577 92.1747C88.0826 92.1747 87.8594 91.9533 87.8594 91.6804C87.8594 91.4075 88.0826 91.186 88.3577 91.186C88.6329 91.186 88.8561 91.4075 88.8561 91.6804Z" fill="white"/>
<path d="M93.6598 95.3209C93.6598 95.5692 93.4569 95.7702 93.2069 95.7702C92.9565 95.7702 92.7539 95.5688 92.7539 95.3209C92.7539 95.0726 92.9565 94.8716 93.2069 94.8716C93.4572 94.8713 93.6598 95.0726 93.6598 95.3209Z" fill="white"/>
<path d="M95.5637 94.1074C95.5637 94.2809 95.4216 94.4218 95.2467 94.4218C95.0714 94.4218 94.9297 94.2809 94.9297 94.1074C94.9297 93.9336 95.0718 93.793 95.2467 93.793C95.4216 93.7926 95.5637 93.9336 95.5637 94.1074Z" fill="white"/>
<path d="M92.753 90.1976C92.753 90.5449 92.4689 90.8267 92.1187 90.8267C91.7682 90.8267 91.4844 90.5452 91.4844 90.1976C91.4844 89.8502 91.7682 89.5684 92.1187 89.5684C92.4689 89.5687 92.753 89.8502 92.753 90.1976Z" fill="white"/>
<path d="M97.3718 89.4338C97.3718 89.7067 97.1485 89.9282 96.8734 89.9282C96.5983 89.9282 96.375 89.7067 96.375 89.4338C96.375 89.1609 96.5983 88.9395 96.8734 88.9395C97.1485 88.9395 97.3718 89.1606 97.3718 89.4338Z" fill="white"/>
<path d="M96.4682 91.2761C96.4682 91.3755 96.387 91.456 96.2868 91.456C96.1867 91.456 96.1055 91.3755 96.1055 91.2761C96.1055 91.1767 96.1863 91.0962 96.2868 91.0962C96.387 91.0962 96.4682 91.1767 96.4682 91.2761Z" fill="white"/>
<g opacity="0.8">
<path d="M102.812 91.2764C102.812 91.5247 102.609 91.7257 102.359 91.7257C102.109 91.7257 101.906 91.5247 101.906 91.2764C101.906 91.0281 102.109 90.8271 102.359 90.8271C102.609 90.8268 102.812 91.0281 102.812 91.2764Z" fill="#AADDF9"/>
</g>
<g opacity="0.8">
<path d="M105.167 89.7932C105.167 90.0166 104.985 90.1978 104.759 90.1978C104.534 90.1978 104.352 90.0166 104.352 89.7932C104.352 89.5699 104.534 89.3887 104.759 89.3887C104.985 89.3887 105.167 89.5699 105.167 89.7932Z" fill="#AADDF9"/>
</g>
<g opacity="0.8">
<path d="M106.073 86.962C106.073 87.1605 105.91 87.3215 105.71 87.3215C105.51 87.3215 105.348 87.1605 105.348 86.962C105.348 86.7636 105.51 86.6025 105.71 86.6025C105.91 86.6025 106.073 86.7636 106.073 86.962Z" fill="#AADDF9"/>
</g>
<g opacity="0.8">
<path d="M109.698 84.0852C109.698 84.4326 109.414 84.7145 109.064 84.7145C108.714 84.7145 108.43 84.4326 108.43 84.0852C108.43 83.7379 108.714 83.4561 109.064 83.4561C109.414 83.4564 109.698 83.7379 109.698 84.0852Z" fill="#AADDF9"/>
</g>
<g opacity="0.8">
<path d="M112.417 85.0745C112.417 85.4222 112.133 85.7037 111.783 85.7037C111.432 85.7037 111.148 85.4222 111.148 85.0745C111.148 84.7272 111.432 84.4453 111.783 84.4453C112.133 84.4456 112.417 84.7272 112.417 85.0745Z" fill="#AADDF9"/>
</g>
<g opacity="0.8">
<path d="M114.137 82.1089C114.137 82.6051 113.731 83.0078 113.23 83.0078C112.73 83.0078 112.324 82.6054 112.324 82.1089C112.324 81.6126 112.73 81.21 113.23 81.21C113.731 81.21 114.137 81.6123 114.137 82.1089Z" fill="#AADDF9"/>
</g>
<g opacity="0.8">
<path d="M112.962 78.3786C112.962 78.6515 112.738 78.873 112.463 78.873C112.188 78.873 111.965 78.6515 111.965 78.3786C111.965 78.1057 112.188 77.8843 112.463 77.8843C112.738 77.8843 112.962 78.1057 112.962 78.3786Z" fill="#AADDF9"/>
</g>
<g opacity="0.8">
<path d="M115.226 76.087C115.226 76.3353 115.023 76.5363 114.773 76.5363C114.523 76.5363 114.32 76.335 114.32 76.087C114.32 75.839 114.523 75.6377 114.773 75.6377C115.024 75.6377 115.226 75.8387 115.226 76.087Z" fill="#AADDF9"/>
</g>
<g opacity="0.8">
<path d="M112.507 72.1773C112.507 72.5496 112.203 72.8513 111.828 72.8513C111.453 72.8513 111.148 72.5496 111.148 72.1773C111.148 71.8051 111.453 71.5034 111.828 71.5034C112.203 71.5031 112.507 71.8051 112.507 72.1773Z" fill="#AADDF9"/>
</g>
<g opacity="0.8">
<path d="M107.797 65.2117C107.797 65.6089 107.473 65.9307 107.073 65.9307C106.672 65.9307 106.348 65.6085 106.348 65.2117C106.348 64.8145 106.672 64.4927 107.073 64.4927C107.473 64.4927 107.797 64.8145 107.797 65.2117Z" fill="#AADDF9"/>
</g>
<g opacity="0.8">
<path d="M112.507 67.0087C112.507 67.6043 112.02 68.0871 111.419 68.0871C110.819 68.0871 110.332 67.6043 110.332 67.0087C110.332 66.413 110.819 65.9302 111.419 65.9302C112.02 65.9302 112.507 66.413 112.507 67.0087Z" fill="#AADDF9"/>
</g>
<g opacity="0.8">
<path d="M117.577 67.0087C117.577 67.6043 117.09 68.0871 116.49 68.0871C115.889 68.0871 115.402 67.6043 115.402 67.0087C115.402 66.413 115.889 65.9302 116.49 65.9302C117.09 65.9302 117.577 66.413 117.577 67.0087Z" fill="#AADDF9"/>
</g>
<g opacity="0.8">
<path d="M117.04 59.1893C117.04 59.8345 116.512 60.3576 115.862 60.3576C115.211 60.3576 114.684 59.8345 114.684 59.1893C114.684 58.5441 115.211 58.021 115.862 58.021C116.512 58.021 117.04 58.5441 117.04 59.1893Z" fill="#AADDF9"/>
</g>
<g opacity="0.8">
<path d="M122.834 55.8639C122.834 56.5589 122.266 57.1223 121.566 57.1223C120.865 57.1223 120.297 56.5589 120.297 55.8639C120.297 55.1688 120.865 54.6055 121.566 54.6055C122.266 54.6058 122.834 55.1688 122.834 55.8639Z" fill="#AADDF9"/>
</g>
<g opacity="0.8">
<path d="M112.051 62.515C112.602 62.515 113.048 62.0723 113.048 61.5263C113.048 60.9803 112.602 60.5376 112.051 60.5376C111.501 60.5376 111.055 60.9803 111.055 61.5263C111.055 62.0723 111.501 62.515 112.051 62.515Z" fill="#AADDF9"/>
</g>
<g opacity="0.8">
<path d="M125.193 49.8422C125.193 50.3883 124.747 50.8309 124.196 50.8309C123.645 50.8309 123.199 50.3883 123.199 49.8422C123.199 49.2961 123.645 48.8535 124.196 48.8535C124.747 48.8535 125.193 49.2964 125.193 49.8422Z" fill="#AADDF9"/>
</g>
<g opacity="0.8">
<path d="M129.72 45.258C130.321 45.258 130.807 44.7752 130.807 44.1796C130.807 43.5839 130.321 43.1011 129.72 43.1011C129.12 43.1011 128.633 43.5839 128.633 44.1796C128.633 44.7752 129.12 45.258 129.72 45.258Z" fill="#AADDF9"/>
</g>
<path d="M101.794 47.8228C101.102 46.2653 100.855 44.388 100.995 42.4429L99.7336 42.818C99.4795 42.5931 98.1222 43.3977 97.7012 43.9972C97.1348 44.8028 97.0958 45.7132 97.2611 46.5932C97.5446 48.1095 98.7968 49.7631 99.9711 50.5786C102.124 52.0748 102.566 49.5631 101.794 47.8228Z" fill="#FFB278"/>
<path d="M99.2559 51.2161C98.6338 49.5596 97.2563 48.0855 97.5272 45.9528L97.4267 45.8831C97.1748 45.6537 95.7054 46.6184 95.2273 47.2991C94.584 48.2146 94.4848 49.2106 94.6001 50.1613C94.7989 51.7987 96.0002 53.5242 97.1745 54.3404C99.3265 55.8365 99.9505 53.0667 99.2559 51.2161Z" fill="#FFB278"/>
<path d="M97.3732 54.7458C96.7515 53.0896 95.3736 51.6152 95.6449 49.4828L95.5437 49.4128C95.2924 49.1837 93.8231 50.1481 93.3444 50.8288C92.7013 51.7443 92.6018 52.7406 92.7174 53.6907C92.9156 55.3281 94.1175 57.0536 95.2915 57.8698C97.4435 59.3669 98.0681 56.597 97.3732 54.7458Z" fill="#FFB278"/>
<path d="M94.9358 56.7156C94.4094 55.3124 93.242 54.0636 93.4717 52.2572L93.3866 52.1981C93.1727 52.0041 91.9285 52.8212 91.5229 53.3977C90.9785 54.1732 90.8947 55.0172 90.992 55.8221C91.1602 57.2093 92.1785 58.6712 93.173 59.3624C94.9961 60.6301 95.5244 58.2836 94.9358 56.7156Z" fill="#FFB278"/>
<path d="M186.486 91.5191C186.438 91.5616 186.39 91.6057 186.342 91.6482C180.201 97.1014 173.287 102.643 169.101 105.141C168.394 105.564 167.728 105.916 167.088 106.204C166.531 106.459 165.997 106.666 165.478 106.828C165.477 106.829 165.471 106.829 165.471 106.829C161.111 108.178 157.952 106.338 152.463 103.21C144.351 98.5876 151.959 94.4759 158.192 90.9503C159.217 90.3697 160.207 89.8057 161.082 89.257C161.161 89.2043 161.242 89.1551 161.321 89.1027C162.056 88.6355 162.698 88.1805 163.205 87.7372C167.309 84.1401 171.514 79.3289 175.518 74.9526C175.828 75.4195 176.143 75.8969 176.477 76.374C177.146 77.6835 177.853 78.9758 178.598 80.2511C180.901 84.1976 183.553 87.9731 186.486 91.5191Z" fill="#FFB278"/>
<path d="M178.602 80.2514C177.97 80.9187 177.409 81.4791 177.058 81.8476C173.726 85.363 169.975 87.7577 165.53 89.6632C164.357 90.1658 159.95 91.7911 158.195 90.9503C159.221 90.3697 160.21 89.8057 161.085 89.257C161.164 89.2043 161.246 89.1551 161.325 89.1027C162.06 88.6355 162.702 88.1805 163.208 87.7372C167.312 84.1401 171.517 79.3289 175.522 74.9526C175.832 75.4195 176.147 75.8969 176.481 76.374C177.15 77.6835 177.858 78.9758 178.602 80.2514Z" fill="#E5804E"/>
<path d="M199.847 67.6455C198.936 63.5712 196.251 60.9234 191.886 59.1138L187.52 62.4748C180.824 66.2637 174.758 73.0245 170.828 79.2378C174.599 83.6556 182.127 91.1718 187.52 93.7573C196.251 82.8986 200.555 70.8135 199.847 67.6455Z" fill="#EA5050"/>
<path d="M165.595 103.15C167.457 114.538 141.761 102.85 138.059 100.698C133.094 97.8106 123.769 91.409 119.055 86.9417C121.547 83.8568 121.965 82.8658 123.237 80.7255C123.314 80.597 135.972 85.8258 137.369 86.1256C141.268 86.9618 145.28 87.4543 149.205 88.2033C153.349 88.9939 162.067 90.5686 163.288 94.5122C163.312 94.5892 165.581 103.067 165.595 103.15Z" fill="#FFB278"/>
<path d="M126.242 81.7521L121.916 88.98C117.303 88.7135 114.405 86.397 110.294 84.8584C110.023 84.7565 109.748 84.658 109.465 84.5647C108.224 84.1519 102.617 82.187 102.617 80.8286C102.617 79.7552 107.799 80.7301 108.951 81.5079C107.337 79.8657 101.377 76.2721 102.373 73.6617C103.644 72.1671 108.864 77.2042 110.835 78.6205C110.311 77.4199 102.618 70.4671 104.671 68.9403C107.41 66.9025 111.966 74.774 113.403 75.5636C113.167 73.5783 107.753 67.2419 109.465 65.8831C111.253 64.9967 113.208 68.6428 114.43 69.959C115.708 71.3347 117.05 72.5167 118.288 73.9432C118.315 73.9735 118.341 74.0042 118.368 74.0349C118.36 73.909 118.348 73.7562 118.334 73.5763C118.305 73.2012 118.267 72.7187 118.237 72.177C118.083 69.5567 118.074 65.5435 119.909 65.5435C121.176 66.3586 120.661 69.6228 121.45 70.9781C122.243 72.34 122.994 73.1756 123.676 74.5446C124.554 76.3072 123.926 76.6047 124.176 78.3709C124.375 79.7836 125.652 80.9503 126.242 81.7521Z" fill="#FFB278"/>
<path d="M118.288 73.9432C118.248 74.1503 118.192 74.3507 118.113 74.5443C117.572 75.8708 115.478 77.4212 114.108 76.9355C114.314 78.0616 113.658 80.1572 112.054 79.5408C112.403 80.9964 111.824 83.316 109.768 82.2599C110.496 83.0105 110.662 84.0276 110.294 84.8581C110.023 84.7562 109.748 84.6578 109.465 84.5645C108.224 84.1516 102.617 82.1867 102.617 80.8283C102.617 79.7549 107.799 80.7299 108.951 81.5077C107.337 79.8655 101.377 76.2718 102.373 73.6614C103.644 72.1669 108.864 77.2039 110.835 78.6202C110.311 77.4196 102.618 70.4668 104.671 68.94C107.41 66.9022 111.966 74.7737 113.403 75.5634C113.167 73.578 107.753 67.2416 109.465 65.8829C111.253 64.9964 113.208 68.6425 114.43 69.9588C115.707 71.3347 117.05 72.5168 118.288 73.9432Z" fill="#E5804E"/>
<path d="M91.0084 110.824C91.0084 111.527 90.4334 112.098 89.7243 112.098H79.4521C78.7427 112.098 78.168 111.527 78.168 110.824C78.168 110.121 78.7427 109.55 79.4521 109.55H89.7243C90.4334 109.55 91.0084 110.121 91.0084 110.824Z" fill="#7F7571"/>
<path d="M103.689 115.537C103.689 118.14 102.31 120.25 100.608 120.25H68.5583C66.8564 120.25 65.4766 118.14 65.4766 115.537C65.4766 112.934 66.8564 110.825 68.5583 110.825H100.608C102.31 110.824 103.689 112.934 103.689 115.537Z" fill="#D6CBC7"/>
<path d="M108.469 119.231C108.469 121.341 106.745 123.052 104.617 123.052H64.5555C62.4279 123.052 60.7031 121.341 60.7031 119.231C60.7031 117.121 62.4279 115.41 64.5555 115.41H104.617C106.745 115.41 108.469 117.121 108.469 119.231Z" fill="#B2A8A4"/>
<path d="M92.0451 269.669C92.0451 272.723 90.3828 275.198 88.332 275.198H52.6858C50.6353 275.198 48.9727 272.722 48.9727 269.669V124.824C48.9727 121.771 50.6353 119.295 52.6858 119.295H88.332C90.3828 119.295 92.0451 121.771 92.0451 124.824V269.669Z" fill="#B2A8A4"/>
<path d="M120.195 124.824V269.67C120.195 272.723 118.305 275.198 115.973 275.198H75.4328C73.101 275.198 71.2109 272.723 71.2109 269.67V124.824C71.2109 122.781 72.0566 120.998 73.3133 120.04C73.9367 119.567 74.6609 119.295 75.4328 119.295H115.973C118.305 119.295 120.195 121.771 120.195 124.824Z" fill="#D6CBC7"/>
<path d="M61.175 267.631H48.9805V277.164H61.175V267.631Z" fill="#B2A8A4"/>
<path d="M83.343 267.631H71.1484V277.164H83.343V267.631Z" fill="#D6CBC7"/>
<path d="M120.198 267.631H108.004V277.164H120.198V267.631Z" fill="#D6CBC7"/>
<path d="M114.959 138.486V148.515L91.7227 132.628H109.051C112.309 132.628 114.959 135.256 114.959 138.486Z" fill="#B2A8A4"/>
<path d="M80.0352 259.229V256.852C80.0352 260.082 82.5702 262.711 85.6851 262.711H108.286C111.253 262.711 113.727 260.308 113.923 257.249C113.931 257.125 113.936 256.994 113.936 256.852V259.229C113.936 259.372 113.931 259.503 113.923 259.627C113.728 262.685 111.253 265.089 108.286 265.089H85.6851C82.5702 265.088 80.0352 262.459 80.0352 259.229Z" fill="#E2E1E0"/>
<path d="M109.324 265.787H85.1544C82.0472 265.787 79.5195 263.365 79.5195 260.389V173.453C79.5195 170.476 82.0472 168.055 85.1544 168.055H109.324C112.431 168.055 114.959 170.476 114.959 173.453V260.389C114.959 263.365 112.431 265.787 109.324 265.787ZM85.1544 169.244C82.7082 169.244 80.7179 171.132 80.7179 173.453V260.389C80.7179 262.71 82.7082 264.598 85.1544 264.598H109.324C111.77 264.598 113.76 262.71 113.76 260.389V173.453C113.76 171.132 111.77 169.244 109.324 169.244H85.1544Z" fill="#B2A8A4"/>
<path d="M114.276 188.518H79.8633V189.537H114.276V188.518Z" fill="#B2A8A4"/>
<path d="M114.907 179.612H79.5V181.459H114.907V179.612Z" fill="#B2A8A4"/>
<path d="M111.464 183.83C111.464 184.205 105.753 184.51 98.7085 184.51C91.664 184.51 85.9531 184.205 85.9531 183.83C85.9531 183.455 91.664 183.151 98.7085 183.151C105.753 183.151 111.464 183.455 111.464 183.83Z" fill="#B2A8A4"/>
<path d="M114.961 148.515V180.111H79.5195V138.486C79.5195 138.342 79.525 138.213 79.534 138.089C79.737 135.03 82.3249 132.628 85.4256 132.628H91.7247L114.961 148.515Z" fill="#B2A8A4"/>
<path d="M114.96 136.109V138.486C114.96 135.256 112.31 132.627 109.053 132.627H85.4262C82.3239 132.627 79.737 135.03 79.5331 138.089C79.5247 138.213 79.5195 138.344 79.5195 138.486V136.109C79.5195 135.966 79.5247 135.835 79.5331 135.712C79.737 132.653 82.3239 130.25 85.4262 130.25H109.053C112.31 130.25 114.96 132.879 114.96 136.109Z" fill="#E2E1E0"/>
<path d="M108.701 180.111V143.241C108.701 140.427 106.343 138.146 103.433 138.146H79.5669C79.5582 138.259 79.5547 138.372 79.5547 138.486V180.111L108.701 180.111Z" fill="#C6BAB6"/>
<path d="M79.4648 143.422V162.366L80.104 162.394L82.9396 162.522L83.5027 162.547L83.5047 162.535L83.6055 161.867V161.865L84.0001 159.272L86.3422 143.844L86.3999 143.471L86.4076 143.422H79.4648Z" fill="#B2A8A4"/>
<path d="M79.4648 143.471V153.661L80.1552 158.867L80.4387 160.998L80.4506 161.093L80.6249 162.406L82.9377 162.509L83.5047 162.536L83.6055 161.867V161.866L84.0001 159.272L86.3422 143.844L86.3999 143.471H79.4648Z" fill="#FCEEE6"/>
<path d="M86.7762 166.332C85.9537 165.074 84.3188 163.647 83.7282 162.218C83.6806 162.1 83.639 161.983 83.6055 161.865C83.5324 161.607 83.4986 161.349 83.5143 161.093H79.527C79.5077 161.119 79.4851 161.146 79.4648 161.172V172.739C81.6342 172.971 83.9183 172.698 85.1296 172.206C87.5133 171.241 88.1911 168.503 86.7762 166.332Z" fill="#FCEEE6"/>
<path d="M85.5085 166.39C84.9457 165.492 83.9012 164.491 83.3204 163.477C83.1381 163.16 83.0015 162.841 82.9399 162.522C82.938 162.519 82.9361 162.514 82.938 162.509C82.8964 162.296 82.8884 162.082 82.9241 161.871C82.9261 161.869 82.9261 161.867 82.9261 161.865C82.9319 161.821 82.9399 161.779 82.9538 161.734C82.9557 161.719 82.9596 161.706 82.9638 161.691L82.958 161.69L81.9828 161.422L80.786 161.094L80.439 160.998L79.9832 160.874C80.0151 160.946 80.0351 161.02 80.0425 161.094C80.0583 161.212 80.0486 161.333 80.0167 161.455C79.94 161.751 79.7367 162.057 79.4648 162.363V171.685C81.2567 171.92 83.189 171.691 84.1941 171.267C86.0967 170.464 86.6379 168.192 85.5085 166.39Z" fill="#B2A8A4"/>
<path d="M83.9289 145.315C83.2415 144.9 82.4225 144.693 81.9019 144.693C81.5675 144.693 81.1436 144.793 80.7229 144.982C80.2593 145.19 79.7999 145.509 79.4648 145.927V154.114L79.8221 158.868L80.0186 161.492C80.0186 162.327 80.23 163.08 80.5705 163.626C80.911 164.172 81.381 164.511 81.9019 164.511C82.9415 164.511 83.7846 163.159 83.7846 161.492L84.0404 158.868L84.4856 154.285L85.0491 148.499L85.177 147.187C85.1766 146.352 84.6184 145.73 83.9289 145.315Z" fill="#BDAEA7"/>
<path d="M84.0425 158.868L83.7867 161.492C83.7867 163.159 82.9436 164.511 81.904 164.511C81.3831 164.511 80.9134 164.173 80.5726 163.626C80.2321 163.08 80.0207 162.327 80.0207 161.492L79.8242 158.868H84.0425Z" fill="white"/>
<path d="M83.9289 145.315C83.2415 144.9 82.4225 144.693 81.9019 144.693C81.5675 144.693 81.1436 144.793 80.7229 144.982C80.2593 145.19 79.7999 145.509 79.4648 145.927V148.499H85.0488L85.1766 147.187C85.1766 146.352 84.6184 145.73 83.9289 145.315Z" fill="#65BCFC"/>
<g opacity="0.5">
<path d="M82.9669 161.557C82.9669 161.992 82.7466 162.345 82.4753 162.345C82.2041 162.345 81.9844 161.992 81.9844 161.557V148.301C81.9844 146.399 84.031 146.005 84.1947 148.499L82.9669 161.557Z" fill="white"/>
</g>
<path d="M83.5929 154.885C83.4638 154.927 83.3291 154.948 83.1919 154.943C82.6874 154.927 82.2963 154.575 81.9835 154.05C81.5527 153.331 81.2728 152.292 81.0598 151.386C80.8617 150.541 80.739 149.528 80.6784 148.499C80.6198 147.472 80.6214 146.428 80.6687 145.509C80.6771 145.346 80.6968 145.17 80.7229 144.981C80.2593 145.189 79.7999 145.509 79.4648 145.926V154.113L79.8221 158.867L80.0186 161.492C80.0186 162.326 80.23 163.08 80.5705 163.625C80.911 164.171 81.381 164.51 81.9019 164.51C82.9415 164.51 83.7846 163.158 83.7846 161.492L84.0404 158.867L84.4856 154.284C84.2083 154.575 83.9109 154.791 83.5929 154.885Z" fill="#BDAEA7"/>
<path d="M87.2384 142.158H79.4648V143.844H87.2384C87.6643 143.844 88.0113 143.468 88.0113 143.002C88.0113 142.534 87.6646 142.158 87.2384 142.158Z" fill="#B2A8A4"/>
<path d="M87.2384 142.158H79.4648V143.844H87.2384C87.6643 143.844 88.0113 143.468 88.0113 143.002C88.0113 142.534 87.6646 142.158 87.2384 142.158Z" fill="#FCEEE6"/>
<path d="M104.399 143.422L104.392 143.47L101.775 162.536L101.773 162.547L97.9714 162.358L95.6992 143.422H104.399Z" fill="#B2A8A4"/>
<path d="M104.388 143.47L101.771 162.536L99.1683 162.406L96.8984 143.47H104.388Z" fill="#FCEEE6"/>
<path d="M104.73 166.332C103.793 164.741 101.68 162.883 101.783 161.094H98.1804C97.3528 162.339 95.3757 163.625 94.7775 164.363C93.6226 165.787 92.9419 167.839 93.4715 169.805C94.4173 173.313 100.951 173.235 103.243 172.206C105.398 171.24 106.01 168.502 104.73 166.332Z" fill="#FCEEE6"/>
<path d="M103.584 166.389C102.776 164.965 100.876 163.282 101.285 161.691L98.5905 160.874C99.0976 162.171 96.3048 163.903 95.6409 164.755C94.7192 165.937 94.176 167.641 94.5987 169.273C95.3538 172.185 100.568 172.12 102.397 171.266C104.116 170.464 104.605 168.191 103.584 166.389Z" fill="#B2A8A4"/>
<path d="M103.284 147.187L103.173 148.499L102.68 154.285L102.29 158.868L102.067 161.492C102.067 163.159 101.329 164.511 100.419 164.511C99.9635 164.511 99.5524 164.173 99.2544 163.627C98.9564 163.081 98.7715 162.327 98.7715 161.493L98.5995 158.868L97.9175 148.5L97.8398 147.318C97.8398 146.187 98.6091 145.381 99.3871 144.982C99.7554 144.793 100.126 144.693 100.419 144.693C100.874 144.693 101.59 144.901 102.192 145.316C102.796 145.73 103.284 146.352 103.284 147.187Z" fill="#BDAEA7"/>
<path d="M102.288 158.868L102.065 161.492C102.065 163.159 101.327 164.511 100.418 164.511C99.9617 164.511 99.5506 164.173 99.2526 163.627C98.9546 163.081 98.7697 162.327 98.7697 161.493L98.5977 158.868H102.288V158.868Z" fill="white"/>
<path d="M103.284 147.187L103.172 148.499H97.9175L97.8398 147.318C97.8398 146.187 98.6092 145.381 99.3872 144.982C99.7554 144.793 100.126 144.693 100.419 144.693C100.874 144.693 101.59 144.9 102.192 145.315C102.796 145.73 103.284 146.352 103.284 147.187Z" fill="#FF2E2E"/>
<g opacity="0.5">
<path d="M101.352 161.558C101.352 161.993 101.159 162.345 100.922 162.345C100.685 162.345 100.492 161.993 100.492 161.558V148.302C100.492 146.399 102.283 146.005 102.426 148.499L101.352 161.558Z" fill="white"/>
</g>
<path d="M102.68 154.284L102.29 158.867L102.067 161.492C102.067 163.159 101.329 164.511 100.419 164.511C99.9635 164.511 99.5524 164.173 99.2544 163.626C98.9564 163.081 98.7715 162.327 98.7715 161.492L98.5995 158.868L97.9175 148.499L97.8398 147.318C97.8398 146.187 98.6091 145.381 99.3871 144.982C99.364 145.171 99.3469 145.347 99.3398 145.51C99.2982 146.429 99.2969 147.473 99.3485 148.5C99.4013 149.529 99.5089 150.542 99.6822 151.387C99.8685 152.293 100.113 153.332 100.49 154.051C100.764 154.577 101.106 154.928 101.548 154.944C101.668 154.949 101.785 154.928 101.898 154.886C102.177 154.791 102.437 154.576 102.68 154.284Z" fill="#BDAEA7"/>
<path d="M105.845 143.001C105.845 143.468 105.533 143.844 105.147 143.844H95.1359C94.7493 143.844 94.4375 143.468 94.4375 143.001C94.4375 142.767 94.5167 142.556 94.6424 142.404C94.768 142.253 94.9426 142.157 95.1359 142.157H105.147C105.533 142.157 105.845 142.534 105.845 143.001Z" fill="#B2A8A4"/>
<path d="M105.846 143.001C105.846 143.468 105.534 143.844 105.148 143.844H97.5816C97.195 143.844 96.8828 143.468 96.8828 143.001C96.8828 142.767 96.9621 142.556 97.0877 142.404C97.2137 142.253 97.3883 142.157 97.5816 142.157H105.148C105.534 142.157 105.846 142.534 105.846 143.001Z" fill="#FCEEE6"/>
<path d="M118.529 125.724V127.849C118.529 125.019 116.778 122.726 114.617 122.726H77.0529C74.8919 122.726 73.1406 125.019 73.1406 127.849V125.724C73.1406 122.895 74.8919 120.602 77.0529 120.602H114.617C116.778 120.602 118.529 122.895 118.529 125.724Z" fill="#E2E1E0"/>
<path opacity="0.3" d="M120.198 124.824V152.095L114.961 148.514V138.486C114.961 135.255 112.312 132.627 109.053 132.627H91.725L73.3164 120.041C73.9398 119.566 74.6646 119.295 75.4368 119.295H115.976C118.308 119.295 120.198 121.77 120.198 124.824Z" fill="#E2E1E0"/>
<path opacity="0.3" d="M120.195 217.923V249.574L71.2109 216.082V184.433L120.195 217.923Z" fill="#E2E1E0"/>
<path opacity="0.3" d="M101.695 112.907C101.695 113.371 101.316 113.746 100.849 113.746H83.6933C83.2262 113.746 82.8477 113.371 82.8477 112.907C82.8477 112.444 83.2262 112.068 83.6933 112.068H100.849C101.316 112.068 101.695 112.444 101.695 112.907Z" fill="#E2E1E0"/>
<path opacity="0.3" d="M105.078 117.222C105.078 117.685 104.699 118.06 104.232 118.06H87.0761C86.609 118.06 86.2305 117.685 86.2305 117.222C86.2305 116.758 86.6093 116.383 87.0761 116.383H104.232C104.699 116.383 105.078 116.758 105.078 117.222Z" fill="#E2E1E0"/>
</g>
<defs>
<clipPath id="clip0_187_1169">
<rect width="343" height="299" fill="white"/>
</clipPath>
</defs>
</svg>
