<svg width="26" height="34" viewBox="0 0 26 34" fill="none" xmlns="http://www.w3.org/2000/svg">
    <path fill-rule="evenodd" clip-rule="evenodd"
        d="M5.85035 12.3134L13 4.79577L20.1495 12.3134C24.0982 16.4653 24.0982 23.1967 20.1495 27.3486C16.201 31.5005 9.79898 31.5005 5.85035 27.3486C1.90172 23.1967 1.90172 16.4653 5.85035 12.3134ZM22.1924 10.1655L13 0.5L3.80761 10.1655C-1.2692 15.5036 -1.2692 24.1584 3.80761 29.4964C8.88442 34.8345 17.1155 34.8345 22.1924 29.4964C27.2692 24.1584 27.2692 15.5036 22.1924 10.1655Z"
        fill="#AADDF9" />
    <path
        d="M19.6129 19.9563C19.9266 19.8948 20.2229 20.1348 20.1983 20.4536C19.897 24.3564 16.7893 27.4248 13 27.4248C9.06694 27.4248 5.86818 24.1193 5.77965 20.006C5.77722 19.893 5.81675 19.7826 5.90384 19.7105C6.21965 19.4491 7.18598 18.8531 9.43136 18.8531C10.7385 18.8531 13.5098 20.4613 15.549 20.4613C16.8516 20.4613 18.6755 20.1401 19.6129 19.9563Z"
        fill="#AADDF9" />
</svg>