<svg width="20" height="17" viewBox="0 0 20 17" fill="none" xmlns="http://www.w3.org/2000/svg">
    <mask id="mask0_221_702" style="mask-type:alpha" maskUnits="userSpaceOnUse" x="0" y="0"
        width="20" height="17">
        <path
            d="M18.3333 0.358398H1.66667C0.746194 0.358398 0 1.19414 0 2.22507V14.4917C0 15.5227 0.746194 16.3584 1.66667 16.3584H18.3333C19.2538 16.3584 20 15.5227 20 14.4917V2.22507C20 1.19414 19.2538 0.358398 18.3333 0.358398Z"
            fill="white" />
    </mask>
    <g mask="url(#mask0_221_702)">
        <path d="M20 0.358398H0V16.3584H20V0.358398Z" fill="#0A17A7" />
        <path fill-rule="evenodd" clip-rule="evenodd"
            d="M4.76738 11.0257L-1.98047 16.1234L-0.915337 17.892L7.61978 11.4441V17.4257H12.3817V11.4441L20.9169 17.8921L21.982 16.1235L15.2341 11.0257H20.0007V5.6924H15.2335L21.9819 0.594304L20.9168 -1.17432L12.3817 5.27351V-0.707604H7.61978V5.27349L-0.915199 -1.17427L-1.98033 0.594349L4.76804 5.6924H0.000735402V11.0257H4.76738Z"
            fill="white" />
        <path fill-rule="evenodd" clip-rule="evenodd"
            d="M22.6112 -1.41282C22.6955 -1.26928 22.66 -1.07636 22.5318 -0.981922L13.4851 5.68384C13.357 5.77827 13.1847 5.73846 13.1004 5.59492C13.0161 5.45137 13.0516 5.25845 13.1798 5.16402L22.2265 -1.50174C22.3546 -1.59618 22.5269 -1.55637 22.6112 -1.41282Z"
            fill="#DB1F35" />
        <path fill-rule="evenodd" clip-rule="evenodd"
            d="M22.6336 17.6127C22.7194 17.4703 22.6858 17.2768 22.5585 17.1808L14.4487 11.0586C14.3214 10.9625 14.1488 11.0001 14.0631 11.1426C13.9773 11.2852 14.0109 11.4785 14.1381 11.5745L22.248 17.6968C22.3752 17.7928 22.5479 17.7552 22.6336 17.6127Z"
            fill="#DB1F35" />
        <path fill-rule="evenodd" clip-rule="evenodd"
            d="M-2.97207 -1.15203C-2.88633 -1.29452 -2.7137 -1.33218 -2.58648 -1.23616L5.87282 5.14901C6.00004 5.24503 6.03367 5.43839 5.94793 5.58087C5.86219 5.72335 5.68956 5.76101 5.56234 5.66498L-2.89696 -0.720173C-3.02418 -0.816198 -3.05781 -1.00955 -2.97207 -1.15203Z"
            fill="#DB1F35" />
        <path fill-rule="evenodd" clip-rule="evenodd"
            d="M-2.97323 18.3787C-2.88844 18.5219 -2.71606 18.561 -2.58821 18.4661L6.7886 11.5016C6.91645 11.4066 6.95136 11.2135 6.86658 11.0704C6.78179 10.9271 6.60941 10.8881 6.48156 10.983L-2.89525 17.9475C-3.0231 18.0424 -3.05801 18.2355 -2.97323 18.3787Z"
            fill="#DB1F35" />
        <path fill-rule="evenodd" clip-rule="evenodd"
            d="M0 9.95841H8.57143V16.3584H11.4286V9.95841H20V6.7584H11.4286V0.358398H8.57143V6.7584H0V9.95841Z"
            fill="#E6273E" />
    </g>
</svg>