<svg width="50" height="50" viewBox="0 0 50 50" fill="none" xmlns="http://www.w3.org/2000/svg">
<rect width="50" height="50" rx="25" fill="#1A367C"/>
<path fill-rule="evenodd" clip-rule="evenodd" d="M17.8504 20.3134L25 12.7958L32.1495 20.3134C36.0982 24.4653 36.0982 31.1967 32.1495 35.3486C28.201 39.5005 21.799 39.5005 17.8504 35.3486C13.9017 31.1967 13.9017 24.4653 17.8504 20.3134ZM34.1924 18.1655L25 8.5L15.8076 18.1655C10.7308 23.5036 10.7308 32.1584 15.8076 37.4964C20.8844 42.8345 29.1155 42.8345 34.1924 37.4964C39.2692 32.1584 39.2692 23.5036 34.1924 18.1655Z" fill="white"/>
<path d="M31.6129 27.9563C31.9266 27.8948 32.2229 28.1348 32.1983 28.4536C31.897 32.3564 28.7893 35.4248 25 35.4248C21.0669 35.4248 17.8682 32.1193 17.7797 28.006C17.7772 27.893 17.8168 27.7826 17.9038 27.7105C18.2196 27.4491 19.186 26.8531 21.4314 26.8531C22.7385 26.8531 25.5098 28.4613 27.549 28.4613C28.8516 28.4613 30.6755 28.1401 31.6129 27.9563Z" fill="white"/>
</svg>
