<svg width="209" height="244" viewBox="0 0 209 244" fill="none" xmlns="http://www.w3.org/2000/svg">
    <path
        d="M63.4098 39.1583C63.5344 40.8393 62.9532 42.4989 61.7925 43.7769C60.6317 45.055 58.9851 45.8482 57.21 45.9845H40.7523C38.9772 45.8482 37.3306 45.055 36.1699 43.7769C35.0091 42.4989 34.4279 40.8393 34.5525 39.1583V27.3545C34.4176 25.6676 34.994 23.9988 36.1558 22.713C37.3176 21.4271 38.9702 20.6288 40.7523 20.4927H57.21C58.9921 20.6288 60.6447 21.4271 61.8065 22.713C62.9683 23.9988 63.5447 25.6676 63.4098 27.3545V39.1583Z"
        fill="#92D9F8" />
    <path
        d="M65.8115 35.0701C65.8115 35.4576 65.7308 35.8413 65.574 36.1994C65.4173 36.5574 65.1876 36.8827 64.898 37.1567C64.6084 37.4307 64.2646 37.6481 63.8862 37.7964C63.5079 37.9447 63.1023 38.021 62.6928 38.021H35.3008C34.4702 38.0211 33.673 37.7113 33.0822 37.1589C32.4913 36.6065 32.1544 35.856 32.1445 35.0701C32.1544 34.2842 32.4913 33.5337 33.0822 32.9813C33.673 32.4289 34.4702 32.1191 35.3008 32.1191H62.6928C63.1023 32.1191 63.5079 32.1955 63.8862 32.3438C64.2646 32.4921 64.6084 32.7094 64.898 32.9835C65.1876 33.2575 65.4173 33.5828 65.574 33.9408C65.7308 34.2988 65.8115 34.6826 65.8115 35.0701Z"
        fill="#3AB9E6" />
    <path
        d="M81.1047 144.646H17.829C10.6488 144.646 4.82812 150.153 4.82812 156.947V221.299C4.82812 228.093 10.6488 233.6 17.829 233.6H81.1047C88.2849 233.6 94.1055 228.093 94.1055 221.299V156.947C94.1055 150.153 88.2849 144.646 81.1047 144.646Z"
        fill="#92D9F8" />
    <path
        d="M4.82821 154.104C4.82821 154.104 3.21246 74.6059 37.7812 41.0078H49.9178V154.104H4.82821Z"
        fill="#92D9F8" />
    <path
        d="M94.0681 154.104C94.0681 154.104 95.7214 74.6059 61.1151 41.0078H48.9785V154.104H94.0681Z"
        fill="#92D9F8" />
    <path
        d="M90.9122 137.713H7.04553C3.18567 137.713 0.0566406 140.674 0.0566406 144.326V144.966C0.0566406 148.618 3.18567 151.579 7.04553 151.579H90.9122C94.772 151.579 97.9011 148.618 97.9011 144.966V144.326C97.9011 140.674 94.772 137.713 90.9122 137.713Z"
        fill="#AEECFF" />
    <path
        d="M90.9122 154.921H7.04553C3.18567 154.921 0.0566406 157.882 0.0566406 161.534V162.174C0.0566406 165.826 3.18567 168.787 7.04553 168.787H90.9122C94.772 168.787 97.9011 165.826 97.9011 162.174V161.534C97.9011 157.882 94.772 154.921 90.9122 154.921Z"
        fill="#AEECFF" />
    <path
        d="M90.9122 172.093H7.04553C3.18567 172.093 0.0566406 175.053 0.0566406 178.706V179.346C0.0566406 182.998 3.18567 185.959 7.04553 185.959H90.9122C94.772 185.959 97.9011 182.998 97.9011 179.346V178.706C97.9011 175.053 94.772 172.093 90.9122 172.093Z"
        fill="#AEECFF" />
    <path
        d="M90.9122 189.301H7.04553C3.18567 189.301 0.0566406 192.262 0.0566406 195.914V196.554C0.0566406 200.206 3.18567 203.167 7.04553 203.167H90.9122C94.772 203.167 97.9011 200.206 97.9011 196.554V195.914C97.9011 192.262 94.772 189.301 90.9122 189.301Z"
        fill="#AEECFF" />
    <path
        d="M90.9122 206.509H7.04553C3.18567 206.509 0.0566406 209.47 0.0566406 213.122V213.762C0.0566406 217.414 3.18567 220.375 7.04553 220.375H90.9122C94.772 220.375 97.9011 217.414 97.9011 213.762V213.122C97.9011 209.47 94.772 206.509 90.9122 206.509Z"
        fill="#AEECFF" />
    <g style="mix-blend-mode:overlay" opacity="0.2">
        <path
            d="M97.901 144.966V144.326C97.8982 143.027 97.495 141.756 96.7409 140.67C95.9868 139.584 94.9145 138.73 93.6551 138.211C92.1522 113.324 86.1402 65.2198 61.1155 41.0078H37.7816L37.0677 41.7544C62.2052 52.4205 80.4664 84.4186 80.4664 122.639C80.4664 169.356 52.9242 207.221 18.9567 207.221C14.1458 207.217 9.36989 206.448 4.82864 204.945V206.865C3.44111 207.304 2.23422 208.144 1.37808 209.267C0.521952 210.389 0.0597444 211.738 0.0566406 213.122V213.585C0.0597444 214.969 0.521952 216.318 1.37808 217.44C2.23422 218.563 3.44111 219.403 4.82864 219.842V221.157C4.8237 222.771 5.15533 224.37 5.80458 225.862C6.45384 227.355 7.40795 228.711 8.61219 229.854C9.81643 230.997 11.2471 231.903 12.8224 232.522C14.3976 233.141 16.0864 233.459 17.7919 233.459H81.1052C84.5533 233.459 87.86 232.163 90.2982 229.856C92.7363 227.549 94.106 224.42 94.106 221.157V219.451C95.2421 218.895 96.194 218.053 96.857 217.018C97.5199 215.983 97.8682 214.795 97.8635 213.585V212.98C97.8725 211.769 97.526 210.579 96.8625 209.544C96.1991 208.508 95.2449 207.667 94.106 207.114V202.279C95.2421 201.723 96.194 200.881 96.857 199.846C97.5199 198.811 97.8682 197.622 97.8635 196.412V195.808C97.8682 194.598 97.5199 193.41 96.857 192.374C96.194 191.339 95.2421 190.498 94.106 189.941V185.142C95.2421 184.586 96.194 183.744 96.857 182.709C97.5199 181.674 97.8682 180.486 97.8635 179.275V178.635C97.8682 177.425 97.5199 176.237 96.857 175.202C96.194 174.167 95.2421 173.325 94.106 172.769V167.934C95.2449 167.381 96.1991 166.54 96.8625 165.504C97.526 164.468 97.8725 163.279 97.8635 162.068V161.463C97.8587 160.219 97.4868 159 96.7898 157.945C96.0928 156.89 95.0982 156.04 93.9181 155.49C93.9181 154.992 93.9182 154.495 93.6927 154.032H94.0309C94.0309 154.032 94.0309 152.859 94.0309 150.762C95.1767 150.226 96.1442 149.401 96.827 148.379C97.5098 147.356 97.8814 146.176 97.901 144.966Z"
            fill="black" />
    </g>
    <g style="mix-blend-mode:overlay" opacity="0.3">
        <g style="mix-blend-mode:overlay">
            <path
                d="M23.0172 90.1423C26.7747 76.5253 34.9284 59.1752 35.8302 85.5914C36.2435 97.8929 38.6107 123.563 38.9113 137.535C39.0992 146.921 41.3913 156.272 30.72 158.867C21.2512 161.107 15.1266 147.348 15.6902 133.553C16.2074 118.85 18.6689 104.266 23.0172 90.1423Z"
                fill="#FEF098" />
        </g>
    </g>
    <path
        d="M171.383 0.938477H57.9455C50.1843 0.938477 43.8926 6.89175 43.8926 14.2355V223.183C43.8926 230.527 50.1843 236.481 57.9455 236.481H171.383C179.145 236.481 185.436 230.527 185.436 223.183V14.2355C185.436 6.89175 179.145 0.938477 171.383 0.938477Z"
        fill="#6F74A1" />
    <path d="M174.918 21.7729H53.9648V215.148H174.918V21.7729Z" fill="#AEECFF" />
    <path d="M169.769 59.6377H60.3887V189.301H169.769V59.6377Z" fill="#CAF5FF" />
    <path
        d="M158.045 10.1117C158.035 10.7312 157.771 11.3228 157.308 11.7608C156.845 12.1989 156.22 12.4491 155.565 12.4583H74.7046C74.0499 12.4491 73.4247 12.1989 72.9617 11.7608C72.4987 11.3228 72.2343 10.7312 72.2246 10.1117C72.2345 9.49558 72.5001 8.90784 72.9641 8.47544C73.4281 8.04304 74.0533 7.80071 74.7046 7.80078H155.64C156.292 7.80071 156.917 8.04304 157.381 8.47544C157.845 8.90784 158.11 9.49558 158.12 10.1117H158.045Z"
        fill="white" />
    <path
        d="M71.6626 67.0327C71.6626 67.0327 61.2545 81.2541 67.304 87.8671C67.8537 88.4455 68.5258 88.9081 69.2767 89.2247C70.0276 89.5413 70.8405 89.7049 71.6626 89.7049C72.4847 89.7049 73.2977 89.5413 74.0486 89.2247C74.7995 88.9081 75.4716 88.4455 76.0213 87.8671C82.1084 81.2541 71.6626 67.0327 71.6626 67.0327Z"
        fill="#3AB9E6" />
    <path
        d="M88.9455 67.0327C88.9455 67.0327 78.4997 81.2541 84.5868 87.8671C85.1331 88.4446 85.802 88.9067 86.5498 89.223C87.2977 89.5393 88.1075 89.7028 88.9267 89.7028C89.7458 89.7028 90.5558 89.5393 91.3036 89.223C92.0514 88.9067 92.7203 88.4446 93.2666 87.8671C99.2785 81.2541 88.9455 67.0327 88.9455 67.0327Z"
        fill="#3AB9E6" />
    <path
        d="M106.194 67.0327C106.194 67.0327 95.7478 81.2541 101.835 87.8671C102.385 88.4455 103.057 88.9081 103.808 89.2247C104.559 89.5413 105.371 89.7049 106.194 89.7049C107.016 89.7049 107.829 89.5413 108.579 89.2247C109.33 88.9081 110.003 88.4455 110.552 87.8671C116.602 81.2541 106.194 67.0327 106.194 67.0327Z"
        fill="#3AB9E6" />
    <path
        d="M123.438 67.0327C123.438 67.0327 112.992 81.2541 119.079 87.8671C119.629 88.4455 120.301 88.9081 121.052 89.2247C121.803 89.5413 122.616 89.7049 123.438 89.7049C124.26 89.7049 125.073 89.5413 125.824 89.2247C126.575 88.9081 127.247 88.4455 127.796 87.8671C133.846 81.2541 123.438 67.0327 123.438 67.0327Z"
        fill="#3AB9E6" />
    <path
        d="M140.61 67.0327C140.61 67.0327 130.164 81.2541 136.251 87.8671C136.801 88.4455 137.473 88.9081 138.224 89.2247C138.975 89.5413 139.787 89.7049 140.61 89.7049C141.432 89.7049 142.245 89.5413 142.995 89.2247C143.746 88.9081 144.419 88.4455 144.968 87.8671C151.13 81.2541 140.61 67.0327 140.61 67.0327Z"
        fill="#3AB9E6" />
    <path
        d="M157.932 67.0327C157.932 67.0327 147.524 81.2541 153.574 87.8671C154.123 88.4455 154.795 88.9081 155.546 89.2247C156.297 89.5413 157.11 89.7049 157.932 89.7049C158.754 89.7049 159.567 89.5413 160.318 89.2247C161.069 88.9081 161.741 88.4455 162.291 87.8671C168.378 81.2541 157.932 67.0327 157.932 67.0327Z"
        fill="#3AB9E6" />
    <path
        d="M71.6626 98.3906C71.6626 98.3906 61.2545 112.612 67.304 119.225C67.8471 119.814 68.5171 120.285 69.2689 120.608C70.0207 120.932 70.8369 121.099 71.6626 121.099C72.4884 121.099 73.3046 120.932 74.0564 120.608C74.8082 120.285 75.4782 119.814 76.0213 119.225C82.1084 112.612 71.6626 98.3906 71.6626 98.3906Z"
        fill="#3AB9E6" />
    <path
        d="M88.9455 98.3906C88.9455 98.3906 78.4997 112.612 84.5868 119.225C85.1265 119.813 85.7932 120.284 86.5419 120.607C87.2906 120.93 88.1038 121.097 88.9267 121.097C89.7495 121.097 90.5628 120.93 91.3115 120.607C92.0602 120.284 92.7269 119.813 93.2666 119.225C99.2785 112.612 88.9455 98.3906 88.9455 98.3906Z"
        fill="#3AB9E6" />
    <path
        d="M106.194 98.3906C106.194 98.3906 95.7478 112.612 101.835 119.225C102.378 119.814 103.048 120.285 103.8 120.608C104.552 120.932 105.368 121.099 106.194 121.099C107.019 121.099 107.836 120.932 108.587 120.608C109.339 120.285 110.009 119.814 110.552 119.225C116.602 112.612 106.194 98.3906 106.194 98.3906Z"
        fill="#3AB9E6" />
    <path
        d="M123.438 98.3906C123.438 98.3906 112.992 112.612 119.079 119.225C119.622 119.814 120.292 120.285 121.044 120.608C121.796 120.932 122.612 121.099 123.438 121.099C124.263 121.099 125.08 120.932 125.831 120.608C126.583 120.285 127.253 119.814 127.796 119.225C133.846 112.612 123.438 98.3906 123.438 98.3906Z"
        fill="#3AB9E6" />
    <path
        d="M140.61 98.3906C140.61 98.3906 130.164 112.612 136.251 119.225C136.794 119.814 137.464 120.285 138.216 120.608C138.968 120.932 139.784 121.099 140.61 121.099C141.435 121.099 142.252 120.932 143.003 120.608C143.755 120.285 144.425 119.814 144.968 119.225C151.13 112.612 140.61 98.3906 140.61 98.3906Z"
        fill="#3AB9E6" />
    <path
        d="M157.932 98.3906C157.932 98.3906 147.524 112.612 153.574 119.225C154.117 119.814 154.787 120.285 155.538 120.608C156.29 120.932 157.106 121.099 157.932 121.099C158.758 121.099 159.574 120.932 160.326 120.608C161.078 120.285 161.748 119.814 162.291 119.225C168.378 112.612 157.932 98.3906 157.932 98.3906Z"
        fill="#3AB9E6" />
    <path
        d="M71.6626 126.265C71.6626 126.265 61.2545 140.486 67.304 147.099C67.8471 147.688 68.5171 148.159 69.2689 148.482C70.0207 148.806 70.8369 148.973 71.6626 148.973C72.4884 148.973 73.3046 148.806 74.0564 148.482C74.8082 148.159 75.4782 147.688 76.0213 147.099C82.1084 140.486 71.6626 126.265 71.6626 126.265Z"
        fill="#3AB9E6" />
    <path
        d="M88.9455 126.264C88.9455 126.264 78.4997 140.486 84.5868 147.099C85.1265 147.686 85.7932 148.158 86.5419 148.481C87.2906 148.804 88.1038 148.971 88.9267 148.971C89.7495 148.971 90.5628 148.804 91.3115 148.481C92.0602 148.158 92.7269 147.686 93.2666 147.099C99.2785 140.486 88.9455 126.264 88.9455 126.264Z"
        fill="#3AB9E6" />
    <path
        d="M106.194 126.265C106.194 126.265 95.7478 140.486 101.835 147.099C102.378 147.688 103.048 148.159 103.8 148.482C104.552 148.806 105.368 148.973 106.194 148.973C107.019 148.973 107.836 148.806 108.587 148.482C109.339 148.159 110.009 147.688 110.552 147.099C116.602 140.486 106.194 126.265 106.194 126.265Z"
        fill="#3AB9E6" />
    <path
        d="M123.438 126.264C123.438 126.264 112.992 140.486 119.079 147.099C119.622 147.687 120.292 148.159 121.044 148.482C121.796 148.805 122.612 148.972 123.438 148.972C124.263 148.972 125.08 148.805 125.831 148.482C126.583 148.159 127.253 147.687 127.796 147.099C133.846 140.486 123.438 126.264 123.438 126.264Z"
        fill="#3AB9E6" />
    <path
        d="M140.61 126.265C140.61 126.265 130.164 140.486 136.251 147.099C136.794 147.688 137.464 148.159 138.216 148.482C138.968 148.806 139.784 148.973 140.61 148.973C141.435 148.973 142.252 148.806 143.003 148.482C143.755 148.159 144.425 147.688 144.968 147.099C151.13 140.486 140.61 126.265 140.61 126.265Z"
        fill="#3AB9E6" />
    <path
        d="M157.932 126.264C157.932 126.264 147.524 140.486 153.574 147.099C154.117 147.687 154.787 148.159 155.538 148.482C156.29 148.805 157.106 148.972 157.932 148.972C158.758 148.972 159.574 148.805 160.326 148.482C161.078 148.159 161.748 147.687 162.291 147.099C168.378 140.486 157.932 126.264 157.932 126.264Z"
        fill="#3AB9E6" />
    <path
        d="M71.6626 157.658C71.6626 157.658 61.2545 171.88 67.304 178.493C67.8537 179.071 68.5258 179.533 69.2767 179.85C70.0276 180.167 70.8405 180.33 71.6626 180.33C72.4847 180.33 73.2977 180.167 74.0486 179.85C74.7995 179.533 75.4716 179.071 76.0213 178.493C82.1084 171.88 71.6626 157.658 71.6626 157.658Z"
        fill="#3AB9E6" />
    <path
        d="M88.9455 157.659C88.9455 157.659 78.4997 171.88 84.5868 178.493C85.1331 179.071 85.802 179.533 86.5498 179.849C87.2977 180.165 88.1075 180.329 88.9267 180.329C89.7458 180.329 90.5558 180.165 91.3036 179.849C92.0514 179.533 92.7203 179.071 93.2666 178.493C99.2785 171.88 88.9455 157.659 88.9455 157.659Z"
        fill="#3AB9E6" />
    <path
        d="M106.194 157.658C106.194 157.658 95.7478 171.88 101.835 178.493C102.385 179.071 103.057 179.533 103.808 179.85C104.559 180.167 105.371 180.33 106.194 180.33C107.016 180.33 107.829 180.167 108.579 179.85C109.33 179.533 110.003 179.071 110.552 178.493C116.602 171.88 106.194 157.658 106.194 157.658Z"
        fill="#3AB9E6" />
    <path
        d="M123.438 157.659C123.438 157.659 112.992 171.88 119.079 178.493C119.629 179.071 120.301 179.534 121.052 179.851C121.803 180.167 122.616 180.331 123.438 180.331C124.26 180.331 125.073 180.167 125.824 179.851C126.575 179.534 127.247 179.071 127.796 178.493C133.846 171.88 123.438 157.659 123.438 157.659Z"
        fill="#3AB9E6" />
    <path
        d="M140.61 157.658C140.61 157.658 130.164 171.88 136.251 178.493C136.801 179.071 137.473 179.533 138.224 179.85C138.975 180.167 139.787 180.33 140.61 180.33C141.432 180.33 142.245 180.167 142.995 179.85C143.746 179.533 144.419 179.071 144.968 178.493C151.13 171.88 140.61 157.658 140.61 157.658Z"
        fill="#3AB9E6" />
    <path
        d="M157.932 157.659C157.932 157.659 147.524 171.88 153.574 178.493C154.123 179.071 154.795 179.534 155.546 179.851C156.297 180.167 157.11 180.331 157.932 180.331C158.754 180.331 159.567 180.167 160.318 179.851C161.069 179.534 161.741 179.071 162.291 178.493C168.378 171.88 157.932 157.659 157.932 157.659Z"
        fill="#3AB9E6" />
    <path
        d="M139.34 228.908H89.8163C88.6932 228.898 87.6189 228.472 86.8247 227.721C86.0306 226.969 85.5801 225.953 85.5703 224.89C85.5801 223.827 86.0306 222.811 86.8247 222.06C87.6189 221.308 88.6932 220.882 89.8163 220.873H139.34C140.463 220.882 141.537 221.308 142.331 222.06C143.125 222.811 143.576 223.827 143.586 224.89C143.576 225.953 143.125 226.969 142.331 227.721C141.537 228.472 140.463 228.898 139.34 228.908Z"
        fill="#484F7D" />
    <path
        d="M167.976 96.2578C166.699 99.1732 165.233 108.737 171.734 109.128C174.439 109.128 178.572 104.435 179.249 99.8132C179.198 98.4396 178.712 97.1121 177.854 96.0028C176.997 94.8934 175.807 94.0533 174.439 93.5913C173.832 93.3408 173.178 93.2115 172.516 93.2114C171.854 93.2113 171.199 93.3405 170.593 93.5907C169.986 93.841 169.441 94.2071 168.99 94.666C168.54 95.1249 168.195 95.6668 167.976 96.2578Z"
        fill="#FBB99D" />
    <path
        d="M168.273 104.506C169.25 105.536 169.79 106.872 169.79 108.257C169.79 109.641 169.25 110.977 168.273 112.007C164.515 115.385 177.854 113.75 177.854 113.75L176.351 101.555L168.273 104.506Z"
        fill="#FBB99D" />
    <path
        d="M184.618 124.7C184.075 123.593 183.994 122.334 184.391 121.173C184.788 120.013 185.634 119.037 186.76 118.442C188.225 117.838 190.029 119.224 191.419 120.647C194.726 124.202 202.24 139.917 198.07 143.899C193.899 147.881 186.985 131.81 184.618 124.7Z"
        fill="#FBB99D" />
    <path
        d="M185.86 146.317C185.86 146.317 178.346 149.872 177.519 150.37C173.761 153.356 171.019 153.925 171.883 154.565C173.461 155.454 178.834 153.072 179.661 152.752C181.096 152.096 182.489 151.36 183.831 150.548C184.729 149.242 185.413 147.816 185.86 146.317Z"
        fill="#FBB99D" />
    <path
        d="M197.732 144.041C193.975 147.596 179.621 152.787 179.621 152.787V148.805L193.937 138.139C193.937 138.139 201.452 140.663 197.732 144.041Z"
        fill="#FBB99D" />
    <path
        d="M196.041 125.661C196.041 125.661 191.306 111.439 184.543 113.288C177.779 115.137 185.332 130.14 185.332 130.14C185.332 130.14 193.11 129.251 196.041 125.661Z"
        fill="#FEC44F" />
    <path
        d="M196.418 225.565C196.233 227.612 196.608 229.669 197.508 231.538C198.785 234.241 192.548 240.996 188.527 242.204C186.761 242.631 184.958 240.711 187.325 238.649C188.838 237.142 189.865 235.257 190.284 233.216C190.703 231.175 190.498 229.064 189.692 227.13L196.418 225.565Z"
        fill="#FBB99D" />
    <path
        d="M197.244 230.97C197.244 230.97 193.11 241.636 188.263 237.832C188.263 237.832 183.942 239.005 184.506 240.747C185.069 242.489 189.691 242.667 192.584 240.996C196.342 238.863 197.394 238.507 198.747 236.943C201.565 233.601 197.244 230.97 197.244 230.97Z"
        fill="#53424D" />
    <path
        d="M193.377 191.861C193.753 192.856 194.805 197.371 195.97 201.496C197.747 209.418 197.9 217.589 196.421 225.565C196.364 226.335 196.364 227.107 196.421 227.876C196.421 231.432 192.212 233.032 191.912 232.392C189.695 227.912 180.639 205.442 180.639 195.238C180.451 180.377 183.42 165.195 193.377 191.861Z"
        fill="#FBB99D" />
    <path
        d="M179.245 142.477C179.245 142.477 190.179 144.006 190.931 157.196C191.682 170.387 208.102 232.463 208.102 232.463C199.941 235.873 190.948 237.102 182.1 236.018L165.154 142.477H179.245Z"
        fill="#008CFF" />
    <path
        d="M136.45 234.418C134.84 235.913 133.663 237.774 133.03 239.822C132.128 242.809 122.321 244.231 118.376 242.489C116.648 241.707 118.865 239.645 122.134 238.934C127.544 237.974 130.024 231.112 130.024 231.112L136.45 234.418Z"
        fill="#FBB99D" />
    <path
        d="M133.856 237.867C133.856 237.867 123.072 243.449 121.231 239.183C121.231 239.183 116.647 240.143 117.098 241.991C117.549 243.84 122.095 244.48 125.514 243.591C130.624 242.24 129.272 242.774 131.489 242.134C132.377 241.834 133.114 241.228 133.553 240.438C133.991 239.647 134.099 238.73 133.856 237.867Z"
        fill="#53424D" />
    <path
        d="M158.05 205.656C157.636 206.687 155.231 210.918 153.278 214.971C148.994 222.388 143.285 228.983 136.444 234.418C135.799 234.958 135.207 235.553 134.678 236.196C132.273 239.005 127.652 237.583 127.877 236.872C129.305 231.894 138.135 208.215 145.387 200.074C155.983 188.234 169.172 178.031 158.05 205.656Z"
        fill="#FBB99D" />
    <path
        d="M121.193 232.996C124.425 235.785 128.277 237.85 132.466 239.041C132.774 239.183 133.103 239.279 133.443 239.325C135.589 239.862 137.798 240.137 140.018 240.143H140.469C142.619 240.157 144.759 239.869 146.819 239.289C146.819 239.289 169.364 180.342 177.555 167.151C185.747 153.961 173.798 142.548 173.798 142.548L158.204 144.575L121.193 232.996Z"
        fill="#55C2FF" />
    <path
        d="M166.396 111.688C172.721 110.269 179.351 110.703 185.409 112.932C194.577 116.488 186.16 130.389 185.409 132.629C180.787 144.255 188.227 143.544 186.762 146.175C184.131 150.903 171.394 151.472 163.39 148.841C160.234 147.81 157.716 145.89 158.505 144.575C164.029 135.224 159.595 130.567 159.896 124.38C160.196 118.194 160.459 113.074 166.396 111.688Z"
        fill="#FEB801" />
    <path
        d="M158.429 119.119C159.132 118.101 160.209 117.367 161.452 117.058C162.695 116.75 164.014 116.888 165.155 117.448C166.507 118.301 166.207 120.47 165.718 122.354C164.516 126.834 155.648 140.451 148.885 140.344C143.324 140.273 153.244 124.985 158.429 119.119Z"
        fill="#FBB99D" />
    <path
        d="M163.617 128.86C163.617 128.86 173.762 117.376 168.389 113.003C163.016 108.63 153.848 122.745 153.848 122.745C153.848 122.745 158.845 128.469 163.617 128.86Z"
        fill="#FEB801" />
    <path
        d="M174.175 88.7912C168.501 89.1823 166.66 93.271 169.178 97.8574C172.935 105.181 162.715 102.479 168.163 110.408C172.484 116.701 170.267 115.812 167.299 123.029C158.882 143.686 190.257 146.672 202.807 136.22C208.969 131.1 209.533 114.141 197.021 105.395C192.897 102.857 189.399 99.5109 186.763 95.582C185.109 91.6711 182.517 88.1868 174.175 88.7912Z"
        fill="#53424D" />
    <path
        d="M136.862 130.318C136.862 130.318 132.278 125.341 131.075 126.016C129.873 126.692 133.668 129.571 133.668 129.571L136.862 130.318Z"
        fill="#FBB99D" />
    <path
        d="M139.756 131.811C139.756 131.811 132.241 127.616 131.64 127.367C126.868 125.838 125.891 125.056 125.891 126.016C125.891 127.793 129.911 130.318 130.663 130.78C132.043 131.424 133.461 131.993 134.909 132.486C136.55 132.484 138.183 132.257 139.756 131.811Z"
        fill="#FBB99D" />
    <path
        d="M147.719 140.237C141.67 138.779 130.66 130.424 130.66 130.424L133.816 129.18L150.838 133.944C150.838 133.944 152.942 141.41 147.719 140.237Z"
        fill="#FBB99D" />
</svg>