<svg width="48" height="48" viewBox="0 0 48 48" fill="none" xmlns="http://www.w3.org/2000/svg">
    <rect width="48" height="48" rx="24" fill="white" />
    <path
        d="M24.7192 17C25.5071 17.0013 25.9063 17.0055 26.2512 17.0157L26.3871 17.0202C26.5441 17.0258 26.6989 17.0328 26.8856 17.0415C27.6305 17.0759 28.1387 17.1938 28.5849 17.367C29.0463 17.5449 29.436 17.7853 29.8251 18.1744C30.2136 18.5635 30.454 18.9543 30.6325 19.4146C30.8051 19.8603 30.923 20.369 30.958 21.1139C30.9663 21.3006 30.973 21.4554 30.9786 21.6124L30.983 21.7483C30.9932 22.0932 30.9979 22.4925 30.9994 23.2803L30.9999 23.8023C31 23.866 31 23.9318 31 23.9997L30.9999 24.1972L30.9995 24.7192C30.9982 25.507 30.9941 25.9063 30.9838 26.2512L30.9793 26.3871C30.9737 26.5441 30.9667 26.699 30.958 26.8856C30.9236 27.6306 30.8051 28.1386 30.6325 28.5849C30.4545 29.0464 30.2136 29.4361 29.8251 29.8251C29.436 30.2137 29.0446 30.454 28.5849 30.6325C28.1387 30.8052 27.6305 30.923 26.8856 30.958C26.6989 30.9663 26.5441 30.9731 26.3871 30.9786L26.2512 30.983C25.9063 30.9933 25.5071 30.9979 24.7192 30.9994L24.1972 31C24.1335 31 24.0677 31 23.9998 31H23.8023L23.2803 30.9995C22.4925 30.9983 22.0932 30.9941 21.7483 30.9838L21.6124 30.9794C21.4554 30.9737 21.3006 30.9667 21.1139 30.958C20.369 30.9236 19.8614 30.8052 19.4146 30.6325C18.9537 30.4546 18.5635 30.2137 18.1744 29.8251C17.7853 29.4361 17.5455 29.0446 17.367 28.5849C17.1938 28.1386 17.0765 27.6306 17.0415 26.8856C17.0332 26.699 17.0264 26.5441 17.0209 26.3871L17.0165 26.2512C17.0063 25.9063 17.0016 25.507 17.0001 24.7192L17 23.2803C17.0013 22.4925 17.0055 22.0932 17.0157 21.7483L17.0202 21.6124C17.0258 21.4554 17.0328 21.3006 17.0415 21.1139C17.0759 20.3684 17.1938 19.8609 17.367 19.4146C17.5449 18.9538 17.7853 18.5635 18.1744 18.1744C18.5635 17.7853 18.9543 17.5455 19.4146 17.367C19.8609 17.1938 20.3684 17.0765 21.1139 17.0415C21.3006 17.0332 21.4554 17.0264 21.6124 17.0209L21.7483 17.0165C22.0932 17.0063 22.4925 17.0016 23.2803 17.0001L24.7192 17ZM23.9998 20.4996C22.0657 20.4996 20.4996 22.0674 20.4996 23.9997C20.4996 25.9338 22.0674 27.4999 23.9998 27.4999C25.9339 27.4999 27.4999 25.9322 27.4999 23.9997C27.4999 22.0657 25.9321 20.4996 23.9998 20.4996ZM23.9998 21.8997C25.1596 21.8997 26.0998 22.8396 26.0998 23.9997C26.0998 25.1596 25.1599 26.0998 23.9998 26.0998C22.8399 26.0998 21.8997 25.16 21.8997 23.9997C21.8997 22.8399 22.8395 21.8997 23.9998 21.8997ZM27.6749 19.4496C27.1924 19.4496 26.7999 19.8416 26.7999 20.324C26.7999 20.8065 27.1918 21.1991 27.6749 21.1991C28.1573 21.1991 28.5499 20.8071 28.5499 20.324C28.5499 19.8416 28.1567 19.449 27.6749 19.4496Z"
        fill="#1A367C" />
</svg>