<svg width="120" height="132" viewBox="0 0 120 132" fill="none" xmlns="http://www.w3.org/2000/svg">
    <path
        d="M1.44508 64L2.5578 64.2044C3.68104 64.3875 4.7872 64.661 5.86523 65.0221C6.25949 65.1609 6.64402 65.3253 7.01631 65.5142C7.22313 65.614 7.42194 65.7291 7.61103 65.8587C7.80671 65.9874 8.01775 66.1048 8.21343 66.2372L8.78897 66.7256L8.93861 66.8505L9.0115 66.9149L9.0307 66.9149L9.1036 66.9906L9.13046 67.0208L9.34916 67.2707C9.51882 67.449 9.67406 67.6401 9.81343 67.8423C9.97842 68.0846 10.1664 68.3382 10.3046 68.5994C10.8472 69.5939 11.2352 70.6633 11.4556 71.7717C11.7089 72.8733 11.87 73.99 12.1002 75.0689C12.2789 76.1179 12.6495 77.1261 13.1938 78.0443C13.3262 78.2633 13.4804 78.4687 13.6542 78.6575L13.9074 78.949L14.2106 79.2065L14.3947 79.3692C14.4465 79.4203 14.5045 79.4648 14.5674 79.5017C14.6671 79.5623 14.7631 79.6229 14.8628 79.691L15.0086 79.7894L15.1928 79.8841L15.5765 80.0733C16.7675 80.5453 18.012 80.8733 19.283 81.05C20.8213 81.2701 22.3264 81.6756 23.7645 82.2576C24.1571 82.4366 24.5344 82.6468 24.8926 82.886C25.2643 83.1245 25.6124 83.397 25.9324 83.6999L26.0552 83.8059C26.0897 83.8437 26.0206 83.768 26.1434 83.8929L26.1664 83.9194L26.2125 83.9724L26.3966 84.1844L26.5808 84.3926C26.6529 84.4641 26.7172 84.5427 26.7727 84.6273C27.0527 84.9977 27.2992 85.3916 27.5093 85.8046C28.3189 87.368 28.5952 88.9958 28.8791 90.4949C29.1631 91.994 29.424 93.4173 30.0302 94.5492L30.1415 94.765L30.2758 94.9618C30.364 95.0905 30.4484 95.2268 30.5405 95.3404L30.8552 95.6924L30.9357 95.7795L30.9741 95.8249C31.0355 95.8817 30.9089 95.7681 30.9319 95.7908L30.9626 95.8136L31.1851 96.0028C31.3271 96.124 31.4921 96.2792 31.6187 96.3814C31.7453 96.4836 31.8566 96.5252 31.9755 96.6009C32.1062 96.6849 32.2435 96.7583 32.3861 96.8205C32.5318 96.9005 32.6831 96.9701 32.8388 97.0287C33.4943 97.2913 34.1723 97.4953 34.8648 97.6382C35.5938 97.7934 36.3535 97.9259 37.1439 98.0697C37.9629 98.2137 38.7716 98.4097 39.565 98.6565C39.7744 98.7143 39.9796 98.7864 40.1789 98.8722C40.3823 98.9555 40.5894 99.0237 40.7928 99.1183C41.2009 99.3098 41.5946 99.5299 41.9707 99.777C42.3538 100.025 42.7134 100.306 43.0451 100.617L43.1065 100.67L43.1295 100.72L43.2101 100.803L43.306 100.913L43.4978 101.125L43.6858 101.34C43.7206 101.376 43.7527 101.414 43.7818 101.454L43.8892 101.602L44.2998 102.2C44.4302 102.4 44.5108 102.578 44.6221 102.786C44.818 103.168 44.9897 103.561 45.1362 103.964C45.6772 105.542 45.8767 107.079 46.1683 108.442C46.3001 109.095 46.4705 109.74 46.6787 110.373C46.8726 110.936 47.1423 111.47 47.4806 111.963C47.6364 112.195 47.8123 112.414 48.0062 112.617L48.0753 112.697C48.0523 112.674 48.1482 112.765 48.0293 112.659L48.0523 112.659L48.1022 112.701L48.2978 112.871C48.4283 112.985 48.5626 113.106 48.6815 113.204L48.9923 113.397L49.142 113.5C49.2013 113.535 49.2628 113.566 49.3261 113.594L49.7098 113.787C49.8326 113.852 49.9784 113.893 50.1127 113.95C52.2959 114.798 55.001 114.756 57.5065 115.759C58.1369 116.004 58.7348 116.323 59.2868 116.71L59.494 116.846L59.6858 117.009C59.8125 117.115 59.9352 117.224 60.0695 117.33L60.2576 117.493L60.2806 117.512L60.3573 117.592L60.3918 117.63L60.4571 117.705L60.7257 118.008C60.9331 118.246 61.1217 118.499 61.2897 118.765C61.4673 119.02 61.6238 119.288 61.7578 119.568C61.8941 119.82 62.0133 120.08 62.1146 120.348L62.2681 120.726L62.3909 121.105C62.6716 122 62.8908 122.913 63.047 123.838C63.2005 124.652 63.3309 125.378 63.4844 125.984C63.6651 126.88 64.0013 127.738 64.4782 128.52C64.5913 128.711 64.7196 128.892 64.8619 129.062L65 129.244L62.9396 131C62.9396 131 62.8705 130.905 62.7285 130.727C62.5137 130.469 62.3212 130.193 62.153 129.902C61.5539 128.864 61.1362 127.734 60.9175 126.56C60.7564 125.848 60.6451 125.087 60.5031 124.288C60.3779 123.469 60.1997 122.659 59.9698 121.862L59.8777 121.555L59.7626 121.264C59.6142 120.881 59.4265 120.514 59.2024 120.17C59.0934 119.986 58.9647 119.815 58.8187 119.659L58.5501 119.36L58.4811 119.284L58.4465 119.246C58.4465 119.223 58.5424 119.348 58.4887 119.288L58.3621 119.182L58.1089 118.966L57.9823 118.856L57.8403 118.761C57.4481 118.49 57.0243 118.267 56.5779 118.095C55.5066 117.714 54.3982 117.442 53.2705 117.285C51.8852 117.098 50.5226 116.773 49.2034 116.316C49.0269 116.244 48.8427 116.191 48.6662 116.1L48.1328 115.835C48.0408 115.786 47.9525 115.748 47.8604 115.691L47.5803 115.513L47.0278 115.135C46.8859 115.018 46.7631 114.908 46.6441 114.794L46.4446 114.624L46.3947 114.582L46.3717 114.559C46.2374 114.435 46.318 114.51 46.2835 114.472L46.176 114.355C45.8834 114.055 45.6189 113.729 45.3856 113.382C45.2705 113.208 45.1439 113.038 45.0403 112.856L44.7602 112.303C44.6664 112.121 44.5844 111.932 44.5146 111.739L44.2998 111.168C44.0632 110.424 43.8786 109.665 43.7472 108.896C43.5518 107.491 43.2621 106.1 42.8801 104.732C42.7719 104.427 42.6437 104.128 42.4964 103.839C42.4313 103.697 42.3583 103.56 42.2777 103.426C42.201 103.313 42.1242 103.199 42.0513 103.082L41.9784 102.991C41.9515 102.954 41.922 102.918 41.8902 102.885L41.7022 102.669L41.5141 102.457L41.4182 102.347L41.4489 102.381L41.4259 102.381L41.3837 102.344C41.1551 102.128 40.9073 101.933 40.6432 101.761C40.0879 101.399 39.4779 101.127 38.836 100.954C38.1346 100.751 37.4208 100.593 36.6988 100.481C35.9314 100.352 35.164 100.231 34.3429 100.072C33.4925 99.9125 32.6598 99.6716 31.8566 99.353C31.645 99.2695 31.4387 99.1734 31.2388 99.0653C31.0251 98.9662 30.8187 98.8523 30.6211 98.7246C30.4101 98.5846 30.199 98.4445 29.9918 98.3006C29.7846 98.1568 29.6887 98.0394 29.5314 97.9221L29.3089 97.729L29.282 97.7063L29.1899 97.6192L29.1324 97.5549L29.0173 97.4224L28.5568 96.8962C28.4187 96.7107 28.2959 96.5177 28.1731 96.3284C28.1118 96.23 28.0427 96.1353 27.9851 96.0369L27.8278 95.7378C26.9722 94.1176 26.7266 92.452 26.458 90.9529C26.1894 89.4539 25.9592 88.0419 25.353 86.9327C25.2221 86.68 25.0748 86.4359 24.9118 86.2021C24.8651 86.13 24.8111 86.0627 24.7506 86.0015L24.5664 85.7933L24.3784 85.5851L24.3324 85.5321L24.3094 85.5056C24.4129 85.6153 24.3093 85.5245 24.3439 85.5472L24.2556 85.4753C24.0361 85.2679 23.7972 85.0816 23.542 84.9188C23.2856 84.7505 23.0162 84.6024 22.7362 84.4759C20.4341 83.4311 17.399 83.6355 14.5175 82.409L13.988 82.1478L13.7271 82.0191L13.4547 81.845C13.2743 81.7276 13.0978 81.6065 12.9213 81.4891C12.8432 81.4406 12.77 81.3848 12.7026 81.3226L12.5146 81.1636L12.3305 81.0046L12.2384 80.9213L12.1923 80.8834L12.1693 80.8645L12.0811 80.7812L11.6974 80.3459C11.4442 80.0621 11.2169 79.7568 11.0182 79.4336C10.3125 78.2611 9.83246 76.97 9.6024 75.6253C9.35683 74.4253 9.2187 73.3275 8.98849 72.3584C8.81768 71.4908 8.51498 70.6536 8.09064 69.8751C7.99856 69.7124 7.90264 69.595 7.81823 69.4512C7.70534 69.2809 7.57691 69.1213 7.43453 68.9742L7.21582 68.7281L7.18896 68.6978L7.23118 68.7433L7.18129 68.7016L7.08153 68.6221L6.69784 68.2928C6.17997 67.9314 5.61116 67.647 5.00959 67.4486C4.06406 67.1505 3.09512 66.9302 2.11271 66.7899L1 66.6044L1.44508 64Z"
        fill="url(#paint0_linear_134_8845)" />
    <path
        d="M2.01094 55L2.22162 55.2819C2.29256 55.3882 2.37334 55.4877 2.46292 55.579L2.59698 55.7237L2.66977 55.8037L2.66977 55.8266C2.5472 55.7161 2.63912 55.7999 2.61231 55.7771L2.67744 55.8304L3.24049 56.3256L3.78824 56.676C4.35488 56.9795 4.95182 57.2233 5.56936 57.4036C6.42029 57.6469 7.2849 57.8403 8.15869 57.9826C9.29615 58.1632 10.4179 58.4306 11.5141 58.7825C12.889 59.2348 14.1202 60.0388 15.084 61.1137C15.1912 61.2432 15.2947 61.3498 15.4096 61.4946L15.7696 62.0126C15.9902 62.3472 16.1861 62.6973 16.3557 63.0601C16.5166 63.4144 16.6583 63.7801 16.7847 64.1457C16.9111 64.5114 17.0183 64.8847 17.0988 65.2542C17.4818 66.7398 17.635 68.2253 17.9912 69.6081C18.154 70.2784 18.3944 70.9278 18.7075 71.5431L18.8224 71.7678L18.9603 71.9735C19.0561 72.1107 19.1327 72.2592 19.2399 72.3849L19.5694 72.7658L19.6498 72.8611L19.6191 72.8344L19.646 72.8573L19.7034 72.9106L19.9371 73.1125C20.1901 73.3384 20.4632 73.5411 20.7529 73.7181C21.0688 73.8902 21.395 74.0428 21.7297 74.1752C22.4668 74.4537 23.2285 74.6629 24.0049 74.7999C25.629 75.1351 27.4867 75.3294 29.3674 76.1331C29.8406 76.3455 30.2932 76.6005 30.7196 76.895L31.0451 77.1159L31.3439 77.3749L31.6427 77.6377L31.7193 77.7025L31.7576 77.7368L31.8419 77.8206L31.9568 77.9501L32.4088 78.4605C32.5696 78.6929 32.7343 78.929 32.8914 79.1652C32.9675 79.2783 33.0353 79.3967 33.0944 79.5194L33.2744 79.8699C33.3945 80.0985 33.4982 80.3352 33.5847 80.5784C34.3508 82.483 34.4848 84.4371 34.9138 86.155C35.0891 86.9782 35.3697 87.7757 35.7488 88.5281C35.8331 88.7074 35.9344 88.8784 36.0514 89.0385L36.2123 89.2861C36.2698 89.3661 36.3425 89.4308 36.4038 89.507L36.5953 89.728L36.6911 89.8422C36.7103 89.8422 36.603 89.7622 36.6643 89.8194L36.6988 89.846L36.7639 89.907L37.3001 90.3717C37.4533 90.4631 37.5989 90.5583 37.7445 90.6612C37.89 90.764 38.1007 90.844 38.2731 90.9393C38.4587 91.0335 38.6507 91.115 38.8476 91.183C39.045 91.2636 39.2471 91.3323 39.4528 91.3887C40.3334 91.6396 41.2289 91.8356 42.1341 91.9753C43.1193 92.1319 44.095 92.343 45.0566 92.6077C46.105 92.8852 47.094 93.3499 47.9754 93.9789C48.1993 94.1438 48.4141 94.3206 48.6189 94.5084L48.7759 94.6494L48.8525 94.7179L48.9368 94.8055L48.9636 94.8398L49.2011 95.1065L49.4347 95.3731C49.5114 95.4531 49.5995 95.6055 49.6837 95.7197L49.9289 96.1006C50.0134 96.2206 50.0865 96.3481 50.1472 96.4816C50.6418 97.4009 51.0053 98.3842 51.2274 99.4032C51.6832 101.334 51.8747 103.167 52.4531 104.686C52.5919 105.054 52.7583 105.41 52.951 105.753L53.2689 106.222C53.3819 106.371 53.5034 106.513 53.6328 106.648L53.7248 106.751L53.7707 106.804L53.7937 106.831C53.6903 106.736 53.7937 106.831 53.7669 106.808L54.0235 107.029C54.1747 107.171 54.3388 107.298 54.5138 107.41L54.9352 107.68C55.1075 107.76 55.2761 107.848 55.4446 107.936C56.8465 108.583 58.5472 108.808 60.2938 109.139C61.1972 109.299 62.0852 109.535 62.9483 109.844C63.8546 110.166 64.6982 110.642 65.4419 111.25L65.7176 111.486L65.8555 111.604L65.9207 111.661L65.9551 111.691L66.0356 111.775L66.4378 112.229C66.5942 112.406 66.7376 112.594 66.8668 112.792C67.0089 112.99 67.1369 113.198 67.2498 113.413C67.6705 114.187 67.9959 115.008 68.2189 115.859C68.6402 117.462 68.8164 118.959 69.142 120.247C69.2866 120.857 69.4839 121.453 69.7319 122.029C69.9603 122.531 70.2595 122.998 70.6205 123.416L70.881 123.705L70.881 123.725C70.9001 123.744 70.7776 123.629 70.8427 123.686L70.8848 123.728L70.9767 123.805L71.1874 123.945C71.3062 124.041 71.4364 124.166 71.5398 124.239C71.6432 124.311 71.7313 124.357 71.8233 124.418C72.0243 124.551 72.2357 124.668 72.4553 124.768C72.6849 124.877 72.9201 124.974 73.1601 125.058C74.1309 125.369 75.1247 125.605 76.1324 125.762C77.1168 125.957 78.0744 126.12 78.9516 126.353C79.7688 126.565 80.5582 126.872 81.3034 127.267C81.615 127.436 81.9157 127.624 82.2036 127.831C82.4717 128.017 82.6824 128.231 82.8892 128.398L83.0616 128.516L83.096 128.547L83.1497 128.604L83.1995 128.657L83.391 128.859L83.5557 129.034L83.7127 129.233L84 129.583L81.9469 131L81.8052 130.794L81.7286 130.68C81.6903 130.631 81.629 130.57 81.5754 130.505L81.3915 130.303L81.3379 130.246C81.3379 130.246 81.4068 130.318 81.3685 130.28L81.3456 130.257L81.246 130.173C80.4199 129.444 79.4208 128.935 78.3425 128.695C77.4799 128.481 76.6067 128.31 75.7264 128.185C74.577 128.021 73.4449 127.753 72.3442 127.385C72.0237 127.278 71.7103 127.15 71.4057 127.004C71.0701 126.851 70.7473 126.672 70.4405 126.467L69.9425 126.128C69.797 126.014 69.6974 125.919 69.5595 125.812L69.3833 125.652L69.2914 125.572L69.2454 125.53L69.1611 125.454L69.1382 125.423L68.7551 124.985C68.2515 124.38 67.8375 123.707 67.5256 122.986C67.2301 122.27 66.9993 121.529 66.8361 120.772C66.499 119.283 66.3497 117.809 66.0011 116.422C65.8379 115.754 65.5949 115.106 65.2772 114.495C65.208 114.362 65.1286 114.235 65.0397 114.114C64.9605 113.966 64.8627 113.829 64.7486 113.706L64.3655 113.246C64.3655 113.246 64.2966 113.169 64.3923 113.272L64.3694 113.249L64.3196 113.211L64.2238 113.128L64.0361 112.96C63.0134 112.065 61.5387 111.646 59.8993 111.345C59.072 111.189 58.2063 111.063 57.2985 110.88C56.3385 110.698 55.401 110.413 54.5023 110.031C54.2725 109.916 54.0389 109.802 53.809 109.68C53.5792 109.558 53.3341 109.372 53.0966 109.212C52.8964 109.072 52.7069 108.918 52.5297 108.751L52.273 108.526L52.1849 108.446L52.1505 108.408L52.0854 108.332L51.9513 108.183C51.7677 107.987 51.5963 107.779 51.438 107.562L50.9937 106.896C50.7383 106.438 50.5181 105.962 50.3349 105.471C49.6109 103.528 49.5114 101.601 49.1168 99.8831C48.9597 99.0549 48.6782 98.255 48.2818 97.51C48.2437 97.4231 48.1948 97.3412 48.1363 97.2662L47.9907 97.0453C47.9428 96.9629 47.889 96.884 47.8298 96.8091L47.5923 96.5425L47.3549 96.2759L47.328 96.2454C47.2744 96.1844 47.3702 96.2873 47.328 96.2682L47.2744 96.2187L47.1595 96.1235C47.0147 95.9883 46.8625 95.8612 46.7037 95.7426C45.4205 94.7979 43.6394 94.4779 41.7625 94.158C40.7712 94.007 39.79 93.7959 38.8246 93.5257C38.5637 93.4597 38.3077 93.3757 38.0585 93.2743C37.8032 93.1875 37.5537 93.0844 37.3116 92.9657C37.0627 92.8362 36.8252 92.7372 36.5724 92.5848C36.3196 92.4324 36.0706 92.2534 35.8254 92.082L35.2815 91.6173L35.2164 91.5601L35.1819 91.5297C35.1498 91.5021 35.1191 91.4728 35.09 91.4421L34.9521 91.2859L34.6725 90.9735C34.5844 90.8669 34.4848 90.7678 34.4044 90.6536L34.1707 90.3108C34.0083 90.0881 33.8648 89.8524 33.7417 89.6061C33.4925 89.1341 33.2799 88.6438 33.1059 88.1395L32.8875 87.3967C32.8263 87.153 32.7765 86.9092 32.719 86.6654C32.336 84.7304 32.1674 82.8982 31.5699 81.3821C31.5035 81.1935 31.4228 81.0101 31.3286 80.8336L31.1945 80.5708C31.1574 80.4861 31.1111 80.4056 31.0566 80.3308C30.9609 80.1899 30.8689 80.0451 30.777 79.8965L30.3518 79.3785L30.2408 79.2528C30.3327 79.348 30.2408 79.2528 30.2638 79.2795L30.2369 79.2566L30.1833 79.2147L29.9688 79.0281L29.7581 78.8414L29.5168 78.6852C29.1992 78.4734 28.8633 78.2899 28.5133 78.1367C27.0654 77.5273 25.3609 77.3368 23.6066 77.013C22.6931 76.8597 21.7956 76.6239 20.9253 76.3083C20.4786 76.1372 20.0436 75.9375 19.623 75.7103C19.204 75.4606 18.8068 75.1765 18.4356 74.8609L18.2019 74.659L18.1445 74.6095L18.1138 74.5828L18.0257 74.5028L17.907 74.3695L17.4282 73.8324C17.275 73.6496 17.1562 73.4515 17.0183 73.2534L16.823 72.9601L16.6583 72.6516C16.2472 71.8756 15.9395 71.0497 15.7428 70.1947C15.3598 68.5872 15.1912 67.1016 14.8772 65.8103C14.8082 65.4789 14.7048 65.1818 14.6205 64.8733C14.5363 64.5648 14.4098 64.2981 14.2911 64.0277C14.18 63.7769 14.052 63.5338 13.9081 63.3001C13.8391 63.1985 13.774 63.0957 13.7127 62.9916C13.6246 62.8735 13.5021 62.744 13.3948 62.6107C12.6895 61.8447 11.7918 61.2793 10.794 60.9727C9.80927 60.677 8.80258 60.4592 7.78331 60.3214C6.78741 60.1614 5.826 59.9862 4.93735 59.769C4.11439 59.5635 3.3214 59.2537 2.57784 58.8472C2.22928 58.6415 1.89986 58.4092 1.61642 58.2111L1.04953 57.7235L0.984405 57.6702L0.907791 57.5978L0.907791 57.5788L0.873321 57.5407L0.739258 57.3959L0.501778 57.1293C0.396576 57.0078 0.298126 56.8806 0.20684 56.7484L-6.41037e-08 56.4665L2.01094 55Z"
        fill="url(#paint1_linear_134_8845)" />
    <path
        d="M2.04162 36L2.42597 36.1839C2.49132 36.2184 2.54897 36.2414 2.63737 36.2951L2.93333 36.4713C3.04095 36.5365 3.1601 36.6055 3.27541 36.6821L3.62901 36.9465C3.76456 37.0405 3.89301 37.1442 4.01337 37.2569L4.2094 37.437L4.31317 37.529L4.36314 37.5788L4.39005 37.6018L4.46308 37.6823L4.79747 38.0655L4.97427 38.2686C5.04597 38.3568 5.1127 38.4489 5.17414 38.5445C5.31252 38.7437 5.45088 38.9507 5.59309 39.1691C5.73531 39.3875 5.81217 39.5983 5.92748 39.8244C6.04158 40.0527 6.14045 40.2882 6.22343 40.5295L6.36565 40.9127L6.48096 41.2959C6.78226 42.3866 7.02222 43.4932 7.19971 44.6106C7.37125 45.7897 7.67287 46.9463 8.09911 48.0594C8.33398 48.6009 8.65022 49.1035 9.03694 49.5501L9.18684 49.7187L9.25987 49.803L9.27909 49.826L9.2445 49.7953L9.2983 49.8413L9.71725 50.2054C9.83535 50.3116 9.96416 50.4053 10.1016 50.4851C10.2246 50.5579 10.3168 50.646 10.4629 50.7188C11.071 51.0488 11.7161 51.306 12.3847 51.4853C13.1073 51.6769 13.8837 51.834 14.7101 51.9873C15.5364 52.1405 16.4166 52.3015 17.3276 52.5429C18.2954 52.7983 19.221 53.192 20.0757 53.7117C20.2948 53.8611 20.5177 53.9991 20.7291 54.1639L21.3287 54.6927L21.4017 54.7616C21.3748 54.7272 21.4901 54.846 21.4863 54.846L21.5132 54.8766L21.6285 55.0069L21.8591 55.2713C21.936 55.3671 22.009 55.4284 22.0936 55.551L22.3396 55.9074L22.5817 56.2715C22.6536 56.3866 22.719 56.5055 22.7777 56.6278C22.9067 56.8644 23.0234 57.1075 23.1275 57.3559C23.2198 57.6012 23.3235 57.8464 23.4081 58.0955L23.6349 58.8619C24.1614 60.8584 24.2998 62.8511 24.8956 64.5832C25.1646 65.4213 25.6146 66.1904 26.2139 66.8364L26.3215 66.959C26.3753 67.0127 26.2754 66.9207 26.2985 66.959L26.3369 66.9935L26.4099 67.0548L26.702 67.3116C26.7926 67.396 26.8889 67.4741 26.9903 67.5453C27.0749 67.599 27.1556 67.6488 27.2401 67.7063C27.3247 67.7637 27.3977 67.8174 27.49 67.871L27.7898 68.0282L28.0896 68.1853L28.4163 68.3117C30.1613 69.0245 32.3098 69.1394 34.566 69.7526C35.754 70.0576 36.8696 70.5942 37.8484 71.3314L38.2059 71.6456L38.3827 71.8027L38.4711 71.8832L38.5172 71.9215L38.5979 72.0096L39.136 72.6343C39.3321 72.9063 39.5204 73.1861 39.7087 73.4697L40.1354 74.3012C40.594 75.3972 40.9217 76.5432 41.1116 77.7155C41.3192 78.8345 41.496 79.9151 41.7535 80.9191C41.9823 81.881 42.4061 82.786 42.9988 83.5786L43.2333 83.843L43.3524 83.9771L43.4101 84.0422L43.437 84.0767L44.075 84.6247C44.2595 84.7358 44.4363 84.8546 44.617 84.9734L45.2704 85.303C46.2402 85.6949 47.251 85.9777 48.2838 86.146C49.3677 86.353 50.5053 86.5292 51.6661 86.8435C52.8816 87.1553 54.0232 87.7036 55.0254 88.4567L55.3905 88.771L55.5712 88.9281L55.6596 89.0086L55.7787 89.135C55.9632 89.3496 56.1631 89.5182 56.3322 89.775C56.5013 90.0317 56.7166 90.3383 56.8972 90.618C57.0779 90.8978 57.1932 91.1737 57.3162 91.4534C57.7635 92.5442 58.0858 93.6818 58.2771 94.8448C58.4846 95.9407 58.6614 96.9984 58.9113 97.9679C59.1321 98.8889 59.5231 99.7609 60.0643 100.539C60.1912 100.723 60.3565 100.876 60.4948 101.053L60.5525 101.114L60.5794 101.148C60.6332 101.202 60.5333 101.11 60.5602 101.148L60.7101 101.279L61.0099 101.539C61.1763 101.684 61.3565 101.813 61.548 101.923C61.7279 102.045 61.9183 102.151 62.1168 102.241C63.7657 103.057 65.8182 103.225 67.8822 103.666C68.9637 103.875 70.0095 104.238 70.9878 104.743C71.2415 104.87 71.4845 105.017 71.7142 105.184C71.8295 105.264 71.9525 105.341 72.064 105.421L72.3869 105.701L72.7059 105.981L72.7866 106.053C72.8151 106.08 72.842 106.108 72.8673 106.138L72.8981 106.172L73.0172 106.31L73.2594 106.578C73.3486 106.674 73.432 106.775 73.5092 106.881C73.6783 107.126 73.8474 107.372 74.0089 107.617L74.3932 108.341C74.61 108.817 74.7936 109.308 74.9428 109.809C75.2081 110.734 75.4198 111.673 75.577 112.622C75.7385 113.514 75.9037 114.357 76.119 115.139C76.3147 115.866 76.6137 116.562 77.0069 117.205L77.299 117.638L77.641 118.021L77.7256 118.113L77.7679 118.163L77.7371 118.132L77.764 118.159L77.9985 118.358L78.2291 118.557C78.2965 118.622 78.3698 118.679 78.4482 118.73C78.9862 119.092 79.5688 119.383 80.1817 119.596C80.8461 119.806 81.5225 119.976 82.2072 120.106C82.8952 120.251 83.5947 120.374 84.2866 120.489C85.6726 120.703 87.0155 121.136 88.2647 121.772C88.5593 121.938 88.8453 122.119 89.1218 122.313C89.3947 122.504 89.6292 122.738 89.8905 122.941L89.9789 123.022L90.002 123.022C90.0366 123.056 89.9597 122.972 90.0827 123.106L90.1135 123.141L90.2441 123.294L90.5055 123.589C90.5901 123.692 90.6708 123.769 90.7592 123.892L91.0206 124.275C91.3205 124.733 91.5778 125.218 91.7893 125.723C91.8815 125.953 91.9545 126.175 92.0314 126.39C92.1097 126.593 92.1764 126.8 92.2313 127.011C92.4619 127.804 92.5926 128.471 92.7002 128.996L92.9308 130.18L93 130.563L90.6285 131L90.5555 130.59L90.3633 129.406C90.2749 128.9 90.1711 128.287 89.9789 127.612C89.9389 127.438 89.8875 127.267 89.8252 127.099C89.7675 126.927 89.7137 126.746 89.6445 126.566C89.5026 126.216 89.333 125.878 89.1372 125.555L88.9988 125.313C88.927 125.213 88.8487 125.117 88.7644 125.026L88.5107 124.723L88.38 124.574L88.3493 124.535C88.4607 124.65 88.3685 124.558 88.3915 124.581L88.3262 124.528C88.1494 124.386 87.9918 124.217 87.7996 124.083C87.6075 123.949 87.4153 123.803 87.1847 123.7C86.1425 123.183 85.026 122.832 83.8753 122.658C83.2219 122.531 82.5224 122.428 81.7767 122.301C80.9684 122.145 80.1721 121.933 79.3937 121.665C78.9782 121.52 78.5725 121.349 78.1791 121.152C77.9675 121.052 77.7621 120.939 77.5642 120.814C77.3528 120.68 77.1414 120.535 76.9338 120.389C76.8426 120.329 76.7564 120.261 76.6763 120.186L76.4495 119.983L76.2189 119.78L76.1805 119.749C76.0613 119.638 76.1305 119.699 76.0959 119.665L76.0383 119.596L75.9191 119.462C75.7577 119.274 75.5963 119.079 75.4425 118.902L75.0582 118.289C74.5668 117.452 74.1979 116.548 73.9627 115.607C73.7283 114.695 73.5784 113.779 73.4246 112.886C73.2965 112.011 73.1168 111.145 72.8865 110.292C72.7751 109.886 72.6338 109.489 72.4637 109.104L72.1908 108.548C72.0871 108.395 71.9871 108.242 71.891 108.084C71.8305 107.99 71.761 107.901 71.6835 107.82L71.449 107.544L71.326 107.41L71.2953 107.376C71.2453 107.318 71.3337 107.414 71.2953 107.395L71.2376 107.345L71.0032 107.142L70.7726 106.939C70.688 106.877 70.5958 106.824 70.5112 106.766C70.3398 106.643 70.1586 106.534 69.9692 106.44C69.1587 106.028 68.2927 105.733 67.3979 105.567C66.4524 105.368 65.4415 105.218 64.3845 105.011C63.2698 104.826 62.1835 104.498 61.1521 104.038C60.8717 103.908 60.6018 103.757 60.3449 103.586C60.0766 103.422 59.8197 103.24 59.5762 103.041L59.2764 102.777L59.1265 102.647L59.0343 102.562L58.9958 102.52L58.919 102.432C58.7191 102.195 58.4962 101.976 58.3194 101.723C57.6177 100.735 57.1163 99.6192 56.8434 98.4392C56.5513 97.3164 56.3976 96.209 56.2092 95.1551C56.0642 94.1295 55.8011 93.124 55.4251 92.1585C55.329 91.9362 55.2099 91.7293 55.1061 91.5109C55.0023 91.2924 54.8717 91.1507 54.7602 90.9629C54.6487 90.7751 54.4066 90.549 54.2298 90.3421L54.199 90.3038L54.1337 90.2463L53.9992 90.1313L53.7378 89.8976C52.9507 89.2969 52.0438 88.871 51.078 88.6483C50.0749 88.3839 48.9833 88.2307 47.8571 88.0314C46.6638 87.854 45.4952 87.5389 44.3748 87.0925C44.0866 86.9584 43.8021 86.8128 43.5177 86.6672C43.2333 86.5216 42.9373 86.284 42.6529 86.0847L42.0187 85.5252C42.0495 85.5559 41.9303 85.4448 41.9303 85.4409L41.888 85.3949L41.8073 85.303L41.6459 85.119L41.3269 84.7358C40.5777 83.7228 40.0417 82.5693 39.751 81.3445C39.4512 80.1949 39.2936 79.0453 39.1014 77.9838C38.9463 76.962 38.6728 75.9615 38.2866 75.0025L37.9637 74.3587C37.8407 74.1824 37.7254 74.0061 37.614 73.8222L37.0682 73.2052L37.0336 73.1746L36.9683 73.1209L36.8337 73.006L36.5724 72.7799C35.7927 72.2131 34.9084 71.8055 33.9703 71.5805C32.0254 71.0555 29.8077 70.9903 27.5976 70.1549L27.1863 69.9978L26.802 69.7986L26.4176 69.5955C26.2831 69.5188 26.1447 69.423 26.0102 69.3349L25.6258 69.059C25.5155 68.9786 25.4103 68.8916 25.3107 68.7984L25.0186 68.5416L24.9455 68.4803L24.9109 68.4458C24.8779 68.4203 24.8471 68.3921 24.8187 68.3615L24.6688 68.1891C23.8717 67.3244 23.2712 66.2983 22.9084 65.181C22.5895 64.1789 22.3479 63.1541 22.1858 62.1153C22.009 61.1305 21.8553 60.1993 21.6247 59.3256L21.4363 58.6971C21.3672 58.4902 21.2864 58.3139 21.2096 58.0993C21.1321 57.9092 21.0435 57.7236 20.9444 57.5437C20.8643 57.3725 20.7678 57.2096 20.6561 57.057L20.5139 56.8309C20.4473 56.7412 20.3754 56.6555 20.2986 56.5742L20.0719 56.3098L19.9566 56.1795L19.9296 56.1488C19.9066 56.1259 19.9988 56.2255 19.9296 56.1718L19.872 56.1259L19.4338 55.7426C19.2801 55.6277 19.111 55.5319 18.9495 55.4246C18.266 55.0311 17.5295 54.7369 16.7625 54.5509C15.9708 54.3593 15.1482 54.2175 14.318 54.0834C13.4878 53.9493 12.6307 53.796 11.7889 53.589C10.9268 53.3892 10.0919 53.0869 9.30215 52.6885C9.10228 52.5889 8.89474 52.4356 8.69487 52.3053C8.50829 52.1934 8.33206 52.0652 8.16829 51.9221L7.7455 51.5389L7.69553 51.4968L7.61098 51.4163L7.58407 51.3856L7.47645 51.2668L7.26121 51.0254C6.7216 50.4017 6.27972 49.7001 5.95055 48.9446C5.44965 47.6699 5.09882 46.3415 4.90509 44.9861C4.75591 43.9588 4.53892 42.9424 4.25552 41.9435L4.15943 41.6293L4.04413 41.3419C3.98035 41.1577 3.90327 40.9784 3.81351 40.8054L3.56752 40.3264L3.32538 39.9662C3.29073 39.9009 3.24952 39.8392 3.20238 39.7822L3.02558 39.5791L2.68735 39.1959L2.72962 39.2419L2.69118 39.2112L2.622 39.1461L2.48363 39.0235C2.40179 38.9442 2.31304 38.8724 2.21843 38.8089L1.97243 38.6288C1.89556 38.5751 1.82639 38.5406 1.76104 38.4985L1.58039 38.3874C1.52658 38.3529 1.44202 38.3184 1.38437 38.2877L1.00001 38.1038L2.04162 36Z"
        fill="url(#paint2_linear_134_8845)" />
    <path
        d="M1.46285 28C1.46285 28 1.61327 28.0347 1.90255 28.1079C2.19183 28.1812 2.58138 28.2621 3.15222 28.3701C3.72306 28.478 4.42889 28.5975 5.28901 28.7942C6.32423 29.0182 7.32629 29.3745 8.27049 29.8543C8.85692 30.1575 9.40039 30.5374 9.88658 30.9839L10.0794 31.1612L10.1257 31.2075L10.199 31.2807L10.199 31.3039L10.2761 31.3887L10.5808 31.7395L10.7351 31.9168C10.7891 31.9862 10.847 32.0749 10.901 32.152L11.2365 32.6531C12.0504 33.96 12.3936 35.479 12.7022 36.994C13.0108 38.5091 13.1689 40.0781 13.7282 41.4583C13.9904 42.1522 14.3832 42.7895 14.8853 43.3357L14.974 43.4398L15.0203 43.4938C15.0396 43.5131 14.9431 43.4205 14.9971 43.4745L15.0319 43.5015L15.2826 43.7212C15.4324 43.8643 15.5951 43.9933 15.7685 44.1068C15.919 44.1993 16.0501 44.2995 16.2121 44.3959L16.7405 44.6696C17.5386 45.0145 18.3713 45.273 19.2244 45.4406C20.1308 45.6372 21.1028 45.7837 22.1211 46.0035C23.2018 46.2141 24.2507 46.564 25.2414 47.0444C25.511 47.1679 25.7691 47.3149 26.0128 47.4839C26.2656 47.642 26.5055 47.8199 26.7302 48.0159L27.0696 48.3166L27.2355 48.4669C27.3396 48.5749 27.2818 48.517 27.3126 48.5517L27.3473 48.5903L27.409 48.6635L27.6675 48.9642C27.7653 49.0658 27.8543 49.1754 27.9336 49.2919C28.1149 49.5541 28.3193 49.8278 28.4659 50.0976C28.6124 50.3675 28.7436 50.6296 28.8516 50.9034L29.1717 51.7322L29.4224 52.5726C29.7194 53.6983 29.8814 54.8125 30.0819 55.8881C30.2421 56.9284 30.523 57.9466 30.9189 58.922L31.2545 59.589L31.6672 60.202L31.9102 60.4757L32.0336 60.6145L32.0915 60.6838L32.1223 60.7185C32.0876 60.6916 32.1725 60.7687 32.1223 60.7185L32.7742 61.2814L33.3527 61.6669C33.5803 61.7787 33.8001 61.9021 34.0393 62.0062C34.5328 62.2133 35.0407 62.3847 35.5589 62.5189C36.6312 62.7965 37.7921 62.9661 38.9955 63.2128C40.2683 63.4356 41.4999 63.8503 42.6481 64.4426C42.9447 64.6078 43.2318 64.7892 43.5082 64.9862C43.7898 65.1828 44.0367 65.4257 44.2989 65.6493L44.3491 65.6917L44.4301 65.7765L44.5072 65.8613L44.6576 66.0348L44.9546 66.374C45.1629 66.6516 45.375 66.9716 45.5679 67.2723C46.1893 68.436 46.6191 69.6921 46.8407 70.9925C47.0953 72.2261 47.2688 73.4328 47.5581 74.5546C47.7946 75.6316 48.2647 76.6436 48.9351 77.5192L49.1974 77.8161L49.2591 77.8932L49.2938 77.9317C49.2591 77.9047 49.3439 77.9818 49.2938 77.9317L49.4673 78.0859C49.6735 78.2855 49.8982 78.4649 50.1385 78.6218L50.4432 78.8261C50.5581 78.8939 50.6766 78.9557 50.798 79.0112C50.9176 79.0728 51.0372 79.1384 51.1606 79.1962L51.5463 79.3504C53.6406 80.1561 56.1747 80.1638 58.7165 81.1238L59.187 81.3088L59.646 81.5401C59.7965 81.6211 59.9546 81.6828 60.1012 81.7792L60.537 82.0644C60.8251 82.2583 61.0973 82.4749 61.3508 82.7121L61.5475 82.8856C61.5475 82.8856 61.6555 82.9974 61.6324 82.9704L61.671 83.0166L61.7442 83.1015L62.049 83.4446C62.9002 84.5128 63.4988 85.7595 63.8 87.0915C64.124 88.3367 64.2937 89.555 64.529 90.6999C64.7161 91.7872 65.0631 92.8408 65.5588 93.8265C65.6707 94.0616 65.8404 94.2544 65.9715 94.4741C66.1027 94.6939 66.3033 94.8596 66.4614 95.0524L66.4922 95.0909L66.5732 95.1642L66.743 95.3068L67.0747 95.5998C67.2868 95.7617 67.4604 95.8543 67.6648 95.9853C68.6035 96.4899 69.6163 96.8426 70.6655 97.0301C71.7532 97.2652 72.8988 97.4156 74.0597 97.697C75.2681 97.9449 76.4268 98.3918 77.4886 99.0193C77.7613 99.1803 78.0194 99.3647 78.26 99.5706L78.6187 99.879L78.7074 99.9561L78.7537 99.9985C78.785 100.024 78.8135 100.052 78.8386 100.083L78.9774 100.238L79.2513 100.546C79.3536 100.655 79.4465 100.772 79.529 100.897C79.7233 101.161 79.9024 101.437 80.0651 101.722C80.6102 102.758 81.0001 103.868 81.2222 105.018C81.4575 106.097 81.6079 107.134 81.8239 108.102C82.0052 109.003 82.298 109.879 82.6956 110.708C82.7857 110.901 82.8915 111.087 83.0119 111.263C83.1278 111.442 83.2568 111.612 83.3976 111.772L83.602 112.003L83.7023 112.119L83.7524 112.177L83.7756 112.204L84.3233 112.678C84.976 113.151 85.7035 113.51 86.4755 113.742C88.0877 114.243 89.8658 114.397 91.6053 114.829C92.4889 115.029 93.3441 115.339 94.151 115.751C94.5544 115.958 94.9413 116.197 95.3081 116.464L95.8172 116.899L96.064 117.119L96.1373 117.196L96.1605 117.223L96.2067 117.277L96.2993 117.385L96.685 117.802C96.8123 117.971 96.9473 118.187 97.0707 118.353C97.3047 118.698 97.5111 119.062 97.6878 119.44C97.846 119.802 97.9926 120.161 98.1121 120.512C98.2317 120.863 98.3397 121.209 98.413 121.545C98.7485 122.89 98.9144 124.082 99.1381 125.095C99.3045 125.957 99.5631 126.799 99.9095 127.605C100.05 127.902 100.214 128.187 100.399 128.457C100.484 128.573 100.557 128.696 100.642 128.8L100.893 129.078L101.078 129.286L101.348 129.521L101.576 129.722L101.73 129.826L102 130.018L100.739 132L100.268 131.665C100.191 131.607 100.106 131.545 100.014 131.472C99.9211 131.399 99.8671 131.345 99.7861 131.268L99.5238 131.029L99.4891 130.994L99.4312 130.94L99.4119 130.921L99.3309 130.828L99.1689 130.639L98.818 130.227C98.7022 130.08 98.602 129.907 98.4824 129.733C98.2387 129.357 98.0247 128.963 97.8421 128.554C97.4444 127.585 97.1547 126.575 96.9782 125.543C96.766 124.44 96.6156 123.257 96.3417 122.073C96.28 121.768 96.1836 121.487 96.1026 121.186C96.0216 120.886 95.8982 120.612 95.7825 120.327C95.6608 120.059 95.519 119.801 95.3582 119.556C95.2811 119.436 95.2194 119.324 95.1306 119.193L94.7449 118.769L94.6524 118.661L94.6061 118.607L94.5829 118.58C94.5328 118.526 94.6254 118.623 94.6061 118.607L94.4248 118.449L94.0622 118.129C93.788 117.935 93.5006 117.76 93.2021 117.605C92.5435 117.267 91.8432 117.017 91.1193 116.861C90.3479 116.672 89.5148 116.541 88.6316 116.383C87.6902 116.239 86.7607 116.027 85.8506 115.747C85.6042 115.673 85.3621 115.586 85.1255 115.485L84.7398 115.342L84.3811 115.165C84.1304 115.045 83.8881 114.909 83.656 114.756L83.2703 114.509C83.1529 114.432 83.0396 114.348 82.9309 114.259L82.387 113.754L82.3022 113.673L82.2675 113.634L82.198 113.557L82.0553 113.395L81.7776 113.075C81.5966 112.855 81.4316 112.621 81.2839 112.377C81.1271 112.141 80.9879 111.894 80.8674 111.637C80.3952 110.639 80.0592 109.583 79.8684 108.495C79.6563 107.443 79.5213 106.402 79.3207 105.411C79.1497 104.445 78.8365 103.51 78.3912 102.635C78.287 102.42 78.1597 102.25 78.0479 102.076C78.0216 102.027 77.9906 101.981 77.9553 101.938L77.8203 101.78L77.5503 101.467L77.4153 101.309L77.3806 101.278L77.3151 101.221L77.0489 100.985C76.8689 100.829 76.6767 100.687 76.4742 100.561C75.5989 100.031 74.6344 99.6637 73.6277 99.4781C72.5671 99.2429 71.4331 99.0926 70.2528 98.8613C68.9966 98.6459 67.7862 98.2183 66.6735 97.5968C66.3804 97.4002 66.0564 97.2113 65.8018 96.9954L65.4701 96.7024L65.3043 96.5559L65.2194 96.4826C65.1114 96.3863 65.1654 96.4287 65.1307 96.394L65.0883 96.3477C64.8684 96.0894 64.6293 95.8427 64.4326 95.5767C64.2368 95.3016 64.0566 95.0159 63.8926 94.7208C63.3058 93.5642 62.9024 92.3235 62.6969 91.043C62.4617 89.8248 62.3112 88.6374 62.0297 87.5272C61.8069 86.4647 61.3526 85.4643 60.699 84.5973L60.3981 84.2503L60.3249 84.1616L60.2863 84.1192C60.24 84.0691 60.3133 84.1424 60.2863 84.1192L60.1359 83.9881C59.946 83.8025 59.7394 83.6347 59.5187 83.487L59.187 83.2634C59.0721 83.1931 58.9537 83.1287 58.8322 83.0706L58.4658 82.8856L58.0801 82.7391C55.978 81.9334 53.4324 81.995 50.8829 81.0467L50.4085 80.8616C50.2503 80.7922 50.096 80.7074 49.9418 80.6303C49.7875 80.5532 49.6332 80.4838 49.4789 80.3875L49.0122 80.0752C48.7383 79.8929 48.4802 79.6879 48.2408 79.4622L48.0634 79.308C48.0634 79.308 47.9477 79.2001 47.9747 79.2193L47.9322 79.1731L47.8435 79.0728L47.4925 78.6873C47.3753 78.5552 47.2694 78.4134 47.1763 78.2633L46.8831 77.8276C46.7019 77.5308 46.563 77.2147 46.4049 76.9063C46.2467 76.5979 46.1503 76.274 46.0462 75.9579C45.942 75.6418 45.8456 75.3218 45.7762 75.0057C45.4638 73.7412 45.3095 72.5076 45.0819 71.3433C44.9027 70.2321 44.5459 69.1569 44.0251 68.159C43.8862 67.9508 43.7705 67.7734 43.6394 67.5421L43.3385 67.199L43.192 67.0294L43.1148 66.9407C43.1148 66.9176 43.1688 66.9986 43.1148 66.9407L43.0801 66.9099C42.8757 66.7441 42.6944 66.5552 42.4823 66.4049L42.1544 66.189C42.0488 66.1092 41.935 66.0407 41.815 65.9847C40.8174 65.4995 39.7526 65.1669 38.6561 64.9977C37.499 64.7857 36.3419 64.6122 35.1154 64.3347C34.4964 64.1851 33.8893 63.9906 33.2987 63.7525C33.0017 63.6253 32.7124 63.4634 32.4193 63.3169C32.1262 63.1704 31.8292 62.9314 31.5399 62.7348L30.8842 62.1604C30.8842 62.1604 30.7685 62.0563 30.7955 62.0755L30.7531 62.0293L30.6721 61.9368L30.5101 61.7517L30.1861 61.3662C29.9932 61.1002 29.8004 60.8226 29.6384 60.5528C29.4764 60.2829 29.3453 59.9822 29.2026 59.6931C28.7475 58.5781 28.4252 57.4136 28.2422 56.2235C28.0377 55.1055 27.8796 54.0337 27.6212 53.0507L27.4052 52.3298L27.1468 51.6513C27.0465 51.4354 26.9308 51.2311 26.8305 51.019C26.7302 50.807 26.5991 50.6682 26.4872 50.487C26.4192 50.3837 26.3417 50.2869 26.2558 50.1979L25.9935 49.901L25.9279 49.8278L25.8932 49.7892L25.7659 49.6813L25.5114 49.4654C25.3432 49.3194 25.161 49.1903 24.9675 49.0799C24.8769 49.0146 24.783 48.9541 24.686 48.8987L24.3813 48.7483C23.5357 48.3602 22.6439 48.0817 21.7276 47.9195C19.8531 47.534 17.8166 47.3798 15.892 46.5393L15.19 46.1885C14.9547 46.0575 14.7156 45.884 14.4841 45.7298C14.2852 45.5926 14.0969 45.4405 13.921 45.2749L13.6665 45.0551L13.6356 45.0281C13.6703 45.059 13.5508 44.9549 13.5508 44.951L13.489 44.8778L13.3579 44.7313C12.6887 44.0003 12.1651 43.1486 11.8151 42.2216C11.4921 41.3971 11.248 40.5439 11.0861 39.6733C10.9164 38.8522 10.7968 38.0927 10.658 37.3603C10.388 35.9339 10.0486 34.6617 9.46617 33.7519L9.26559 33.4434C9.23088 33.3933 9.20774 33.3432 9.16531 33.2892L9.01103 33.1119L8.70634 32.7649L8.62919 32.6801L8.60991 32.657C8.60991 32.6377 8.6909 32.7418 8.64076 32.6917L8.60605 32.6609L8.46719 32.5336C8.12022 32.2102 7.73096 31.9353 7.31008 31.7163C6.53117 31.3333 5.70311 31.0596 4.84931 30.9029C4.07791 30.741 3.37208 30.6369 2.79738 30.5405C2.22269 30.4442 1.74827 30.3709 1.44356 30.3131C1.13885 30.2553 1.00001 30.2244 1.00001 30.2244L1.46285 28Z"
        fill="url(#paint3_linear_134_8845)" />
    <path
        d="M2.12148 17L2.25239 17.4938L2.41795 18.026C2.49495 18.2327 2.57581 18.4815 2.69517 18.738C2.96435 19.3641 3.3423 19.9382 3.81173 20.434C4.47411 21.0917 5.27681 21.5928 6.16037 21.9002C7.39898 22.3073 8.67033 22.6083 9.96054 22.7999C10.7574 22.9392 11.5455 23.1246 12.3207 23.355C12.7489 23.4826 13.1693 23.6347 13.5797 23.8105C13.7915 23.9024 13.9994 24.0211 14.2112 24.1283C14.4292 24.2368 14.6367 24.3649 14.8311 24.5111C15.2432 24.7878 15.6298 25.1004 15.9861 25.4452L16.0631 25.5256L16.0901 25.5563L16.144 25.6175L16.2557 25.7438L16.4751 25.9965C16.6446 26.1928 16.799 26.4014 16.9371 26.6205L17.1682 26.9651C17.2375 27.0799 17.2875 27.1948 17.3491 27.3096C17.4755 27.5372 17.5874 27.7725 17.6841 28.014C17.7765 28.2514 17.8766 28.4926 17.9613 28.7376L18.1846 29.4764C18.7083 31.4442 18.8315 33.4808 19.4668 35.2878C19.5553 35.506 19.6285 35.7357 19.7324 35.9463C19.8364 36.1568 19.9365 36.3674 20.0558 36.5665C20.1752 36.7655 20.3099 36.9493 20.4409 37.1407L20.6719 37.401L20.7874 37.5312L20.8451 37.5963L20.8721 37.6307L21.4958 38.1705C21.6845 38.2968 21.8808 38.4079 22.0464 38.5342L22.7009 38.8749C22.9358 38.9668 23.1707 39.0625 23.4094 39.1582C24.4708 39.4926 25.5557 39.7486 26.6551 39.9239C27.8911 40.1131 29.1057 40.4208 30.282 40.8427L30.7441 41.0264L31.1945 41.2523C31.3447 41.3365 31.4987 41.4016 31.6412 41.4973L32.0724 41.7844C32.3598 41.9798 32.6303 42.1988 32.8809 42.4391L33.0734 42.6113C33.1697 42.7071 33.1235 42.6649 33.1543 42.6956L33.1928 42.7415L33.266 42.8257L33.5701 43.1779C34.4333 44.2684 35.0327 45.5415 35.322 46.899C35.6454 48.1892 35.8148 49.4717 36.092 50.6891C36.2955 51.8632 36.7327 52.9851 37.378 53.9891C37.5355 54.2271 37.7133 54.4512 37.9093 54.659L37.9786 54.7432L38.0133 54.7815L38.1981 54.9461L38.5831 55.2754C38.8257 55.4438 39.022 55.5778 39.2723 55.7271C39.5335 55.8715 39.8035 55.9993 40.0809 56.1099C41.2943 56.5534 42.5513 56.8691 43.831 57.0517C45.2496 57.2616 46.6378 57.6395 47.9661 58.1772L48.4743 58.4337C48.5591 58.4758 48.6438 58.5141 48.7285 58.5639L48.971 58.7208L49.4485 59.0386C49.6025 59.1534 49.7449 59.2874 49.8912 59.4214L50.1107 59.609L50.2224 59.7047C50.2497 59.7326 50.2754 59.762 50.2994 59.7928L50.3417 59.8425L50.6844 60.2254C50.7421 60.2943 50.7999 60.3479 50.8576 60.4283L51.0309 60.6771L51.3697 61.1863C52.0609 62.4866 52.5268 63.8934 52.7481 65.3476C52.9433 66.6882 53.238 68.0126 53.6298 69.3099C53.8336 69.9025 54.1118 70.4671 54.4576 70.9906C54.6235 71.2484 54.8143 71.4894 55.0274 71.7103L55.1006 71.7983L55.1391 71.8404L55.3393 72.0127L55.7243 72.3573L56.0862 72.5946C56.2077 72.6809 56.3365 72.7565 56.4713 72.8205L56.8909 73.0349C57.0296 73.1076 57.1874 73.1535 57.3337 73.2148C57.9512 73.4498 58.5875 73.6329 59.2357 73.7622C60.5679 74.0532 61.9771 74.2408 63.4171 74.6121C64.9452 74.9708 66.3441 75.7418 67.4598 76.8402L67.8063 77.223C67.8641 77.2881 67.9218 77.3494 67.9796 77.4221L68.1567 77.6748L68.4994 78.1878C68.5995 78.36 68.6803 78.5323 68.7689 78.7008C69.101 79.3757 69.3591 80.0842 69.5389 80.814C69.897 82.2266 70.0857 83.6163 70.3744 84.9103C70.6051 86.1429 71.1031 87.3108 71.8337 88.3328L72.1301 88.6658L72.2803 88.8343C72.2495 88.8151 72.3265 88.884 72.2803 88.8343L72.3304 88.8764L72.4266 88.9606L72.8116 89.2937L72.9117 89.3779L73.0003 89.4353L73.1736 89.5425C73.2929 89.6191 73.393 89.6995 73.5201 89.7684L73.9243 89.9751L74.1284 90.0785L74.344 90.1627L74.7752 90.3311C76.0247 90.7119 77.3015 90.9973 78.5947 91.1849C79.996 91.387 81.3588 91.7973 82.6374 92.4023C83.2948 92.7358 83.9025 93.1584 84.4432 93.6579L84.4932 93.7039C84.5252 93.7307 84.5548 93.7601 84.5818 93.7919L84.6626 93.8838L84.8282 94.0637L85.1516 94.4274C85.3672 94.7413 85.6136 95.0667 85.7869 95.3845C86.4206 96.6045 86.8584 97.9156 87.0844 99.2702C87.3347 100.541 87.5156 101.759 87.8545 102.857C88.1289 103.905 88.6428 104.876 89.3561 105.694L89.4831 105.84L89.5255 105.874L89.614 105.951L89.9528 106.245L90.1222 106.391C90.1761 106.429 90.2224 106.456 90.2724 106.49L90.5689 106.682C90.6734 106.753 90.7842 106.815 90.9 106.866L91.2465 107.042C91.4814 107.153 91.7393 107.237 91.9858 107.336C93.0449 107.666 94.129 107.909 95.2276 108.064C96.3842 108.235 97.5249 108.499 98.6389 108.852C99.7993 109.229 100.86 109.859 101.742 110.698L101.785 110.736L101.862 110.82L101.927 110.893L102.058 111.038L102.32 111.329C102.418 111.441 102.509 111.56 102.589 111.685L102.855 112.068L102.986 112.263L103.086 112.455L103.286 112.838C103.414 113.086 103.527 113.342 103.625 113.603C103.981 114.582 104.249 115.59 104.426 116.616C104.784 118.53 105.069 120.242 105.804 121.524C105.885 121.684 105.981 121.837 106.089 121.98C106.18 122.13 106.286 122.271 106.405 122.401L106.748 122.784L106.767 122.81C106.786 122.81 106.686 122.734 106.74 122.784L106.798 122.833L106.913 122.933L107.144 123.128L107.371 123.323L107.568 123.442L107.953 123.679C108.239 123.836 108.536 123.973 108.842 124.089C110.059 124.508 111.315 124.804 112.592 124.973C113.741 125.143 114.874 125.41 115.977 125.774C116.857 126.075 117.681 126.52 118.414 127.091L118.826 127.447L119.01 127.611L119.053 127.649L119.099 127.699L119.118 127.699L119.18 127.772L119.415 128.028C119.487 128.104 119.554 128.185 119.615 128.27L120 128.79L118.167 130C118.167 130 118.086 129.897 117.94 129.694C117.893 129.621 117.837 129.555 117.775 129.495L117.544 129.242L117.478 129.169L117.478 129.15C117.44 129.112 117.517 129.192 117.505 129.185L117.474 129.158L117.343 129.043L117.051 128.79C116.486 128.382 115.86 128.065 115.195 127.852C114.212 127.529 113.204 127.288 112.18 127.133C110.758 126.934 109.361 126.589 108.01 126.103C107.613 125.946 107.227 125.762 106.855 125.552C106.655 125.433 106.451 125.291 106.251 125.169L105.954 124.958L105.727 124.759L105.496 124.537L105.381 124.437L105.327 124.384C105.361 124.422 105.242 124.311 105.246 124.311L105.215 124.277L104.726 123.741C104.571 123.556 104.429 123.36 104.303 123.155C104.16 122.955 104.031 122.745 103.918 122.527C102.986 120.785 102.763 118.829 102.428 116.988C102.287 116.077 102.067 115.18 101.769 114.308C101.7 114.093 101.614 113.885 101.511 113.684L101.365 113.385L101.288 113.232L101.207 113.106L101.041 112.853C100.988 112.755 100.925 112.663 100.853 112.577L100.595 112.283L100.468 112.133L100.402 112.057L100.368 112.026C99.6906 111.371 98.8693 110.882 97.969 110.598C96.9495 110.275 95.9052 110.034 94.8465 109.878C93.6511 109.703 92.4718 109.433 91.3197 109.071C91.0193 108.948 90.7152 108.849 90.4149 108.707L89.9721 108.481C89.8152 108.409 89.6646 108.325 89.5216 108.228L89.0711 107.926L88.8517 107.773L88.6823 107.627L88.3396 107.329L88.2549 107.256L88.2125 107.218C88.1803 107.191 88.1506 107.162 88.124 107.13L87.9546 106.938C87.0433 105.915 86.3935 104.689 86.0603 103.363C85.7022 102.088 85.5443 100.817 85.321 99.6033C85.1674 98.4264 84.8296 97.2807 84.32 96.2076C84.189 95.9549 84.035 95.7635 83.9003 95.53L83.5807 95.1471L83.4229 94.9596L83.342 94.8677L83.3035 94.8332C82.889 94.433 82.415 94.0986 81.8982 93.8417C80.7622 93.3195 79.5539 92.9698 78.3136 92.8042C76.9326 92.6091 75.5683 92.3109 74.2324 91.9122L73.7126 91.7132L73.4508 91.6136L73.1967 91.4873L72.6884 91.2308C72.519 91.1389 72.3458 91.0164 72.1763 90.9054L71.9261 90.7331L71.799 90.6451L71.7028 90.5608L71.3177 90.2239L71.2215 90.1359L71.1753 90.0938L71.0829 90.0057L70.8942 89.7875L70.5092 89.3511C69.6358 88.1255 69.0467 86.7226 68.7843 85.2433C68.4917 83.8422 68.3415 82.4716 68.0142 81.193C67.8607 80.5706 67.6413 79.9662 67.3597 79.3899C67.2866 79.252 67.2211 79.1065 67.1479 78.9764L66.9092 78.6204L66.7937 78.4366L66.6243 78.2414L66.2778 77.8585L66.2239 77.8317C66.2008 77.8049 66.2662 77.8738 66.2239 77.8317L66.1392 77.7552L65.9621 77.6059C65.8427 77.5102 65.7388 77.3953 65.6117 77.3111C65.3578 77.1307 65.0915 76.9683 64.8147 76.8249L64.395 76.6105L63.9446 76.4382C63.6397 76.3208 63.3286 76.2199 63.0128 76.1358C61.7307 75.7836 60.3176 75.6343 58.9085 75.3472C58.1742 75.2017 57.4531 74.9969 56.7523 74.7346C56.5752 74.6619 56.3943 74.6045 56.221 74.5164L55.6974 74.2561C55.5167 74.1642 55.3429 74.0593 55.1776 73.9422C55.0043 73.8273 54.8272 73.7086 54.6617 73.59L54.2766 73.2454L54.0764 73.0732C54.0451 73.0484 54.0155 73.0216 53.9879 72.9927L53.9378 72.9392L53.8377 72.8281C53.566 72.5425 53.3199 72.2338 53.1023 71.9055C52.6697 71.2647 52.3276 70.5678 52.0859 69.8344C51.6942 68.4518 51.3945 67.045 51.1888 65.6233C51.0032 64.3413 50.6037 63.0992 50.0067 61.9481L49.7719 61.5959L49.6602 61.416C49.6179 61.3547 49.5486 61.2896 49.4947 61.2245L49.1558 60.8417L49.1135 60.7958L49.0288 60.723L48.8555 60.5737C48.74 60.478 48.6322 60.3708 48.5129 60.279L48.1278 60.0301L47.9392 59.9038C47.8737 59.8655 47.8006 59.8311 47.7351 59.7966L47.3231 59.5899C46.1106 59.1143 44.843 58.7915 43.5499 58.629C42.1518 58.4491 40.777 58.1206 39.4494 57.6489C39.1053 57.5136 38.7697 57.3576 38.4445 57.1819C38.1058 56.9854 37.778 56.7706 37.4627 56.5387L37.0777 56.2171L36.889 56.0525C36.8575 56.028 36.8278 56.0012 36.8005 55.9721L36.7504 55.9185L36.658 55.8152C36.3976 55.5473 36.1606 55.2578 35.9496 54.95C35.1766 53.7552 34.6529 52.4182 34.4095 51.0183C34.1438 49.709 33.9821 48.4495 33.6933 47.2857C33.6317 46.9871 33.5355 46.7153 33.4546 46.432C33.3738 46.1487 33.2544 45.896 33.1543 45.628C33.0542 45.3601 32.9079 45.1227 32.7693 44.8968L32.5614 44.5791C32.4935 44.4605 32.4121 44.35 32.3188 44.2499L32.0108 43.9015L31.9338 43.8173L31.8953 43.7751L31.7413 43.645C31.5455 43.4626 31.3342 43.2974 31.1098 43.1511L30.7749 42.9329C30.6632 42.8602 30.5323 42.8104 30.4168 42.7492L30.051 42.5692L29.666 42.4238C27.5907 41.6581 25.1766 41.6581 22.8203 40.8924L21.9425 40.5594C21.6575 40.4216 21.3765 40.2876 21.0954 40.1344C20.8143 39.9813 20.5217 39.7516 20.2599 39.5717L19.6362 39.0242C19.6036 38.9995 19.5739 38.9713 19.5476 38.94L19.5091 38.8979L19.4321 38.8098L19.2781 38.6337L18.9701 38.2815C18.7814 38.0327 18.6197 37.7724 18.4464 37.5159C18.2732 37.2594 18.1654 36.9837 18.0268 36.7196C17.8882 36.4554 17.8073 36.176 17.6957 35.908C17.3529 34.8817 17.0954 33.8292 16.9256 32.7611C16.7446 31.7619 16.5829 30.8202 16.3519 29.955L16.1633 29.3233C16.0901 29.1204 16.0093 28.9405 15.9361 28.7337C15.8576 28.5453 15.7689 28.3613 15.6704 28.1825C15.6242 28.0944 15.5819 27.9987 15.5318 27.9183L15.3817 27.6963C15.2854 27.5305 15.1718 27.3752 15.0428 27.2331L14.6578 26.7813C14.385 26.5296 14.0899 26.3028 13.7761 26.1037C13.1534 25.7118 12.4726 25.4199 11.7586 25.2385C11.0495 25.0449 10.3295 24.8928 9.60247 24.7829C8.19335 24.604 6.80221 24.3056 5.44423 23.8909C4.81052 23.6783 4.20438 23.3917 3.63847 23.0372C3.49602 22.9377 3.35355 22.8458 3.21879 22.7539C3.15334 22.708 3.07634 22.6582 3.02244 22.6161L2.87227 22.4898C2.77602 22.4056 2.67976 22.3252 2.58736 22.2409L2.44875 22.1223L2.41409 22.0916L2.39485 22.0916L2.32555 22.0227L2.25239 21.9462C1.60052 21.2771 1.07146 20.4997 0.689201 19.6492C0.531341 19.3123 0.431229 19.006 0.334976 18.7457L0.12706 18.0681L7.60446e-06 17.5704L2.12148 17Z"
        fill="url(#paint4_linear_134_8845)" />
    <path
        d="M1.67867 -5.12828e-06C1.67867 -5.12828e-06 1.84736 0.057476 2.17709 0.176265C2.39845 0.247652 2.61491 0.333413 2.82507 0.433002L3.27366 0.643755C3.44499 0.71823 3.60925 0.808007 3.76443 0.91199C4.14308 1.1315 4.49887 1.38824 4.8265 1.67837L5.10638 1.92361L5.25208 2.05007L5.28659 2.08072L5.30577 2.08072L5.36712 2.14969L5.42463 2.21484L5.88473 2.7513C6.64961 3.78104 7.19981 4.95379 7.50273 6.20001C7.84397 7.51053 8.02801 8.92833 8.31941 10.3576C8.46761 11.0683 8.67802 11.7645 8.94822 12.4384C9.23577 13.109 9.63363 13.7268 10.1253 14.2662L10.1483 14.293L10.1291 14.293L10.1905 14.3466L10.3132 14.4578L10.5624 14.68C10.7035 14.8121 10.8592 14.9278 11.0263 15.0249C11.1756 15.1362 11.3348 15.2337 11.5018 15.3161C11.6798 15.4159 11.8628 15.5067 12.05 15.5882C12.8791 15.9302 13.7431 16.1807 14.6266 16.3354C15.566 16.527 16.5782 16.6879 17.6364 16.9332C18.7686 17.1752 19.8555 17.5942 20.8571 18.1747C21.1102 18.351 21.3747 18.5119 21.6239 18.7074L21.9728 19.0139L22.1492 19.171L22.2336 19.2515C22.2681 19.2821 22.2336 19.2515 22.3179 19.332L22.3524 19.3703C22.5326 19.5849 22.7128 19.7841 22.8969 20.0102C23.0809 20.2363 23.2803 20.5658 23.4528 20.8456C24.0378 21.9407 24.4454 23.1215 24.6606 24.3441C24.906 25.5281 25.044 26.7007 25.3277 27.8196C25.5573 28.9065 25.9933 29.9394 26.6122 30.8621C26.7732 31.0767 26.9649 31.2722 27.1375 31.4829L27.4442 31.7511C27.5592 31.8508 27.6819 31.9734 27.7931 32.05L28.1113 32.257C28.2182 32.3346 28.331 32.4038 28.4487 32.4639C28.696 32.6076 28.9521 32.7356 29.2156 32.8471C30.3721 33.2741 31.5696 33.581 32.789 33.7629C34.1511 33.9652 35.487 34.316 36.7727 34.809C37.1063 34.9355 37.4283 35.1347 37.7542 35.2918C38.0731 35.4858 38.3803 35.6982 38.6744 35.9279L39.1 36.3111L39.2035 36.4031L39.2572 36.4529C39.2862 36.4788 39.3131 36.507 39.3377 36.5372L39.5026 36.7288L39.8362 37.112C39.9474 37.2538 40.0586 37.4339 40.1697 37.5948C40.5823 38.2244 40.9122 38.9044 41.1513 39.618C41.3684 40.3022 41.5463 40.9982 41.6842 41.7026C41.9641 43.0821 42.1405 44.4462 42.5201 45.6993C42.6944 46.3134 42.9402 46.905 43.2524 47.462C43.5706 47.9948 43.9689 48.4756 44.4333 48.8874C44.5637 48.9947 44.7017 49.1365 44.8167 49.2208L45.181 49.4622C45.301 49.5511 45.4294 49.6281 45.5644 49.6921L45.99 49.9144C46.6014 50.1724 47.2338 50.3775 47.8802 50.5275C49.203 50.8532 50.637 51.0256 52.0978 51.3973C53.63 51.7217 55.0477 52.4493 56.2042 53.5049L56.2617 53.5547C56.2913 53.58 56.3183 53.6083 56.3422 53.639L56.4342 53.7386L56.6106 53.9417C56.7369 54.0784 56.856 54.2217 56.9672 54.3709C57.2118 54.6989 57.4274 55.0477 57.6113 55.4132C57.9658 56.1015 58.241 56.8279 58.4318 57.5782C58.8152 59.0381 58.9878 60.4904 59.306 61.8431C59.4506 62.5059 59.6533 63.1548 59.9118 63.782C60.1656 64.3781 60.5082 64.9323 60.9279 65.4259L61.0851 65.6098L61.1656 65.698L61.2039 65.744L61.6103 66.1003L61.8136 66.2766L62.0053 66.3992L62.3887 66.6521C62.9671 66.9764 63.5807 67.2335 64.2176 67.4185C65.5174 67.8017 66.9398 67.978 68.3776 68.2769C69.8909 68.5316 71.3303 69.1136 72.5952 69.9821C72.7562 70.097 72.8981 70.235 73.0476 70.3652L73.27 70.5607L73.3237 70.6105C73.3554 70.6348 73.3837 70.6631 73.408 70.6948L73.4962 70.7944C73.753 71.0641 73.9865 71.3551 74.194 71.6643C74.3052 71.8367 74.4241 72.0091 74.5276 72.1777L74.7883 72.695C74.8823 72.8617 74.9618 73.036 75.0261 73.2162L75.2331 73.745C75.6451 75.1264 75.9602 76.5349 76.1763 77.9601C76.3749 79.2475 76.7856 80.4931 77.3917 81.6464C77.7014 82.1663 78.0893 82.6355 78.542 83.0374C78.6685 83.1446 78.7989 83.2673 78.9254 83.3631L79.282 83.593C79.5281 83.7524 79.7842 83.8957 80.0488 84.0221C81.2378 84.4995 82.4801 84.8314 83.7488 85.0108C85.1022 85.2038 86.4337 85.5272 87.7248 85.9764C87.8858 86.0454 88.0507 86.1029 88.2117 86.1757L88.691 86.4171C89.0174 86.5726 89.3325 86.7505 89.6342 86.9497C89.9294 87.1528 90.1825 87.4134 90.4547 87.6433C90.4836 87.6666 90.5105 87.6923 90.5352 87.7199L90.5736 87.7659L90.6541 87.8579L90.8113 88.038C90.9148 88.1644 91.0222 88.2679 91.1295 88.4212C91.3471 88.7177 91.548 89.026 91.7315 89.3447C91.8983 89.6459 92.0468 89.9568 92.1762 90.2758L92.3641 90.751C92.4255 90.9119 92.4676 91.069 92.5175 91.23C92.621 91.548 92.7015 91.8622 92.7744 92.1764C93.0773 93.4371 93.2421 94.6557 93.4952 95.7937C93.6931 96.8758 94.0826 97.9139 94.6454 98.8593C94.7791 99.0755 94.9318 99.2794 95.1017 99.4686L95.3548 99.7521L95.4161 99.8249C95.3586 99.7751 95.4161 99.8441 95.4161 99.8249L95.4544 99.8594L95.6193 100.001C95.9929 100.341 96.4108 100.628 96.8616 100.856C97.7872 101.302 98.7705 101.618 99.7832 101.795C100.811 102.005 101.869 102.155 102.927 102.388C103.998 102.6 105.032 102.97 105.995 103.484C106.473 103.754 106.92 104.075 107.329 104.442L107.482 104.576L107.559 104.645L107.597 104.68L107.67 104.753L107.908 105.021C108.083 105.186 108.246 105.364 108.395 105.554C108.552 105.78 108.721 106.013 108.851 106.24L109.204 106.922C109.403 107.365 109.574 107.82 109.714 108.286C109.965 109.135 110.165 109.999 110.312 110.872C110.465 111.685 110.599 112.451 110.776 113.152C110.925 113.811 111.139 114.452 111.416 115.068C111.542 115.334 111.688 115.591 111.853 115.835L112.091 116.183C112.171 116.294 112.271 116.39 112.359 116.49L112.49 116.639L112.559 116.716L112.589 116.754C112.589 116.773 112.505 116.674 112.559 116.724L112.904 117.019L113.245 117.302C113.352 117.383 113.444 117.421 113.54 117.482C113.918 117.717 114.318 117.916 114.733 118.076C114.943 118.149 115.143 118.218 115.338 118.283C115.534 118.348 115.722 118.39 115.921 118.444C116.305 118.548 116.657 118.609 116.972 118.678L119 119.061L118.647 121C118.647 121 118.471 120.969 118.126 120.912C117.781 120.854 117.271 120.77 116.592 120.632C116.247 120.556 115.864 120.49 115.442 120.368C115.223 120.306 115.001 120.257 114.767 120.18C114.533 120.103 114.284 120.011 114.031 119.919C113.463 119.698 112.922 119.414 112.417 119.073C112.279 118.977 112.118 118.877 111.995 118.781C111.872 118.686 111.776 118.586 111.661 118.49L111.32 118.187L111.243 118.118L111.243 118.095L111.197 118.042L111.109 117.942L110.933 117.739C110.818 117.597 110.691 117.463 110.584 117.31L110.273 116.842C110.069 116.515 109.887 116.175 109.729 115.823C109.417 115.096 109.179 114.34 109.016 113.566C108.632 112.007 108.521 110.355 108.065 108.78C107.944 108.392 107.798 108.011 107.628 107.642L107.356 107.098C107.26 106.925 107.152 106.784 107.053 106.619C106.932 106.432 106.793 106.258 106.639 106.098L106.405 105.83L106.378 105.807L106.317 105.753L106.198 105.649C105.881 105.365 105.534 105.116 105.163 104.906C104.339 104.467 103.453 104.155 102.536 103.983C101.566 103.764 100.519 103.599 99.4266 103.396C98.2641 103.186 97.138 102.809 96.0832 102.277C95.7897 102.127 95.5089 101.952 95.2436 101.756C94.9927 101.584 94.7556 101.394 94.5342 101.185L94.3732 101.04L94.3349 101.005C94.306 100.98 94.2791 100.954 94.2544 100.925L94.1738 100.833L93.8518 100.45C93.6384 100.202 93.4472 99.937 93.2805 99.6563C92.6276 98.5481 92.1783 97.3321 91.9539 96.0658C91.7046 94.8434 91.5704 93.6287 91.2905 92.4677C91.2254 92.1764 91.1564 91.889 91.0682 91.6132C91.026 91.4714 90.9915 91.3258 90.9416 91.1916L90.7883 90.7855C90.6847 90.5232 90.5656 90.2673 90.4317 90.0191C90.3052 89.7623 90.1441 89.5707 90.0099 89.337C89.9256 89.222 89.8067 89.0956 89.707 88.9768L89.5498 88.7967L89.4693 88.7047L89.431 88.6626C89.2086 88.4863 89.0131 88.2794 88.7753 88.1184C88.5418 87.9482 88.2957 87.7957 88.0392 87.6624L87.6558 87.4632C87.5216 87.4019 87.3797 87.3559 87.2417 87.2984C86.0391 86.887 84.7983 86.5968 83.5379 86.4324C82.1407 86.2437 80.7736 85.8767 79.4698 85.3403C79.1254 85.1793 78.7923 84.9949 78.473 84.7885L77.9784 84.4513C77.8365 84.3364 77.7176 84.2252 77.5949 84.1103C77.0217 83.6009 76.5303 83.0064 76.138 82.3476C75.4599 81.0395 75.0087 79.6259 74.8037 78.167C74.6172 76.8115 74.3353 75.4709 73.9602 74.155L73.7838 73.699C73.7332 73.5454 73.6691 73.3967 73.5921 73.2545L73.3735 72.8215C73.293 72.6912 73.2087 72.5724 73.1282 72.4383C72.9392 72.1655 72.7276 71.9091 72.4955 71.6719L72.4073 71.5723L72.3652 71.534L72.1849 71.3769C72.0623 71.2772 71.9511 71.1623 71.8015 71.0703C70.6945 70.3315 69.4398 69.8424 68.1246 69.6372C66.7596 69.3536 65.3103 69.2003 63.8457 68.7712C63.0943 68.5623 62.3698 68.2665 61.687 67.8898L61.1618 67.5411L60.901 67.361L60.694 67.1848L60.2837 66.8284C60.2538 66.8049 60.2256 66.7793 60.1994 66.7518L60.1495 66.6943L60.0498 66.5832L59.8505 66.3571C59.5842 66.0563 59.3443 65.7333 59.1335 65.3914C59.0283 65.2231 58.9347 65.0477 58.8536 64.8665C58.7588 64.6922 58.673 64.5131 58.5967 64.33C58.3105 63.619 58.0873 62.8843 57.9296 62.1343C57.6113 60.6705 57.4618 59.2412 57.1167 57.9192C56.9546 57.2688 56.7192 56.6389 56.4151 56.0416C56.2773 55.7621 56.117 55.4942 55.9358 55.2407C55.8342 55.0989 55.7228 54.9644 55.6022 54.8384L55.4259 54.6353L55.3377 54.5318C55.3147 54.5088 55.3683 54.5663 55.3377 54.5318L55.2917 54.4935C54.3059 53.6112 53.1007 53.0103 51.8026 52.7538C50.4683 52.4358 49.0496 52.2863 47.585 51.9606C46.8452 51.802 46.1214 51.5762 45.4225 51.2862L44.9011 51.0295C44.7189 50.9466 44.5444 50.8479 44.3796 50.7344L43.862 50.3857C43.7166 50.2784 43.5771 50.1632 43.4441 50.0408C42.8477 49.524 42.34 48.913 41.9411 48.2322C41.5741 47.5671 41.2834 46.8626 41.0746 46.1323C40.649 44.7106 40.4918 43.3082 40.2311 41.9938C40.1134 41.3454 39.9533 40.7054 39.7518 40.0779C39.633 39.7866 39.5409 39.4839 39.3991 39.2119C39.272 38.9462 39.1259 38.6901 38.962 38.4455C38.8776 38.3305 38.8201 38.2156 38.7204 38.0891L38.3869 37.7059L38.222 37.5143L38.1798 37.476L38.0955 37.4032L37.7581 37.112C37.5319 36.9204 37.2673 36.7748 37.0257 36.6062C36.7842 36.4376 36.5005 36.3226 36.2091 36.223C35.021 35.7998 33.7908 35.5056 32.5398 35.3455C31.2032 35.1681 29.8886 34.8521 28.6174 34.4028C28.2885 34.2773 27.9683 34.13 27.6589 33.9622C27.4948 33.881 27.3372 33.7875 27.1873 33.6824L26.7195 33.3644C26.57 33.2571 26.4741 33.1575 26.3361 33.054L26.1597 32.9007L26.0716 32.8241L26.0255 32.7858C25.9949 32.7551 26.0255 32.7858 25.9412 32.7053C25.7073 32.4409 25.4619 32.1842 25.251 31.9044C24.8443 31.3477 24.5082 30.7428 24.2503 30.1034L24.0663 29.6359C24.0049 29.4788 23.9704 29.3217 23.9244 29.1646L23.7902 28.6971L23.679 28.2335C23.3915 27.0034 23.2343 25.8194 23.0042 24.7119C22.8223 23.6682 22.4741 22.6604 21.9728 21.7269L21.5894 21.1598C21.4169 20.9528 21.206 20.7421 21.045 20.5352L20.5427 20.106C20.3548 19.9565 20.1593 19.8416 19.9522 19.7228C19.1057 19.2545 18.189 18.9258 17.2377 18.7495C16.2715 18.5387 15.2746 18.4008 14.2739 18.2169C13.2573 18.0524 12.2612 17.78 11.3024 17.4045C11.0602 17.3059 10.8235 17.1946 10.5931 17.0711C10.3491 16.9533 10.1156 16.8148 9.89526 16.6573C9.67463 16.5229 9.46558 16.3704 9.27029 16.2013L9.01723 15.9829L8.89071 15.8756L8.82936 15.8219L8.74883 15.7491L8.71432 15.7108C8.03349 15.0089 7.48533 14.1898 7.09631 13.2929C6.76628 12.4992 6.5096 11.677 6.32948 10.8366C6.00742 9.28087 5.83105 7.91288 5.52814 6.7748C5.44379 6.4989 5.36711 6.22301 5.27893 5.9701C5.19074 5.7172 5.09872 5.47579 4.99136 5.25737C4.88401 5.03895 4.77666 4.81287 4.66164 4.64426C4.54661 4.47566 4.45458 4.32238 4.32806 4.15378L3.85646 3.62115L3.79895 3.55983L3.83346 3.59815L3.80277 3.57516L3.69926 3.48703L3.49221 3.31459C3.25652 3.10669 2.99948 2.92429 2.72538 2.77046C2.61656 2.69591 2.49948 2.63418 2.37647 2.58653C2.26528 2.53288 2.16176 2.4869 2.0659 2.44475C1.88432 2.35669 1.69581 2.28364 1.50228 2.22633L1.00001 2.05773L1.67867 -5.12828e-06Z"
        fill="url(#paint5_linear_134_8845)" />
    <defs>
        <linearGradient id="paint0_linear_134_8845" x1="140.983" y1="-9.68524" x2="17.1771"
            y2="115.802" gradientUnits="userSpaceOnUse">
            <stop stop-color="#A9F8FF" />
            <stop offset="0.17" stop-color="#91E9FF" />
            <stop offset="0.54" stop-color="#55C2FF" />
            <stop offset="1" stop-color="#008CFF" />
        </linearGradient>
        <linearGradient id="paint1_linear_134_8845" x1="143.256" y1="-7.65657" x2="18.6759"
            y2="117.614" gradientUnits="userSpaceOnUse">
            <stop stop-color="#A9F8FF" />
            <stop offset="0.17" stop-color="#91E9FF" />
            <stop offset="0.54" stop-color="#55C2FF" />
            <stop offset="1" stop-color="#008CFF" />
        </linearGradient>
        <linearGradient id="paint2_linear_134_8845" x1="141.679" y1="-10.632" x2="16.349"
            y2="115.076" gradientUnits="userSpaceOnUse">
            <stop stop-color="#A9F8FF" />
            <stop offset="0.17" stop-color="#91E9FF" />
            <stop offset="0.54" stop-color="#55C2FF" />
            <stop offset="1" stop-color="#008CFF" />
        </linearGradient>
        <linearGradient id="paint3_linear_134_8845" x1="142.121" y1="-11.0101" x2="16.0231"
            y2="115.149" gradientUnits="userSpaceOnUse">
            <stop stop-color="#A9F8FF" />
            <stop offset="0.17" stop-color="#91E9FF" />
            <stop offset="0.54" stop-color="#55C2FF" />
            <stop offset="1" stop-color="#008CFF" />
        </linearGradient>
        <linearGradient id="paint4_linear_134_8845" x1="142.909" y1="-9.25833" x2="17.7024"
            y2="116.669" gradientUnits="userSpaceOnUse">
            <stop stop-color="#A9F8FF" />
            <stop offset="0.17" stop-color="#91E9FF" />
            <stop offset="0.54" stop-color="#55C2FF" />
            <stop offset="1" stop-color="#008CFF" />
        </linearGradient>
        <linearGradient id="paint5_linear_134_8845" x1="136.361" y1="-15.6418" x2="11.031"
            y2="109.758" gradientUnits="userSpaceOnUse">
            <stop stop-color="#A9F8FF" />
            <stop offset="0.17" stop-color="#91E9FF" />
            <stop offset="0.54" stop-color="#55C2FF" />
            <stop offset="1" stop-color="#008CFF" />
        </linearGradient>
    </defs>
</svg>