<svg width="145" height="64" viewBox="0 0 145 64" fill="none" xmlns="http://www.w3.org/2000/svg">
    <rect y="6" width="52" height="52" rx="26" fill="#1A367C" />
    <path fill-rule="evenodd" clip-rule="evenodd"
        d="M19.9503 28.0235L26 21.6449L32.0496 28.0235C35.3908 31.5463 35.3908 37.2578 32.0496 40.7806C28.7085 44.3034 23.2914 44.3034 19.9503 40.7806C16.6092 37.2578 16.6092 31.5463 19.9503 28.0235ZM33.7782 26.201L26 18L18.2218 26.201C13.9261 30.7303 13.9261 38.0738 18.2218 42.603C22.5176 47.1323 29.4823 47.1323 33.7782 42.603C38.0739 38.0738 38.0739 30.7303 33.7782 26.201Z"
        fill="white" />
    <path
        d="M31.5008 34.5268C31.8147 34.4661 32.1119 34.706 32.0829 35.0245C31.7859 38.291 29.1759 40.8453 26 40.8453C22.6803 40.8453 19.9789 38.0546 19.8911 34.5767C19.8882 34.4639 19.9273 34.3541 20.0154 34.2836C20.302 34.0544 21.1254 33.5724 22.9804 33.5724C24.0864 33.5724 26.4314 34.9368 28.1568 34.9368C29.2167 34.9368 30.6843 34.6849 31.5008 34.5268Z"
        fill="white" />
    <path
        d="M88.824 20.656C88.824 23.92 86.568 25.288 78.696 25.288C74.952 25.288 70.344 24.76 67.536 24.112L67.944 21.712C71.04 22.384 75.456 22.936 79.368 22.936C84.984 22.936 86.04 22.288 86.04 20.584C86.04 18.784 84.96 18.496 82.896 18.28L73.56 17.464C69.36 17.152 67.272 16.048 67.272 13.048C67.272 9.664 69.984 8.368 77.376 8.368C80.496 8.368 85.104 8.824 88.08 9.448L87.6 11.728C84.816 11.176 80.28 10.72 76.776 10.72C71.112 10.72 70.056 11.296 70.056 12.976C70.056 14.56 71.232 14.848 73.44 15.088L82.536 15.856C86.544 16.168 88.824 17.2 88.824 20.656ZM111.334 16.48V8.632H114.262V17.008C114.262 22.672 109.942 25.264 102.91 25.264C95.8538 25.264 91.5578 22.672 91.5578 17.008V8.632H94.4858V16.48C94.4858 20.8 97.1497 22.72 102.91 22.72C108.67 22.72 111.334 20.8 111.334 16.48ZM127.35 25L116.094 8.632H119.67L129.318 22.6L138.942 8.632H142.446L131.214 25H127.35ZM84.696 57H67.704V40.632H84.624C88.32 40.632 89.712 42.144 89.712 44.712C89.688 46.56 88.776 47.904 86.976 48.432C89.208 48.888 90.336 50.304 90.336 52.656C90.336 55.632 88.656 57 84.696 57ZM83.904 42.912H70.584V47.688H84.168C85.752 47.688 86.976 46.968 86.976 45.288C86.976 43.656 86.088 42.912 83.904 42.912ZM84.432 49.824H70.584V54.888H84.192C86.616 54.888 87.576 54.24 87.576 52.344C87.576 50.472 86.4 49.824 84.432 49.824ZM105.659 57.288C96.8034 57.288 92.7474 54.696 92.7474 48.816C92.7474 42.936 96.8034 40.344 105.659 40.344C114.515 40.344 118.571 42.936 118.571 48.816C118.571 54.696 114.515 57.288 105.659 57.288ZM105.659 54.744C113.099 54.744 115.595 52.92 115.595 48.816C115.595 44.712 113.099 42.888 105.659 42.888C98.2194 42.888 95.6754 44.712 95.6754 48.816C95.6754 52.92 98.2194 54.744 105.659 54.744ZM124.421 57H121.493V40.632H137.213C141.221 40.632 143.501 42.168 143.501 45.984C143.501 49.44 141.581 51.144 137.789 51.288L135.965 51.312L137.429 52.32L143.165 57H139.421L132.701 51.432H124.421V57ZM124.421 43.152V49.176H137.021C139.493 49.176 140.501 48.312 140.501 46.176C140.501 43.992 139.493 43.152 137.021 43.152H124.421Z"
        fill="#262D32" />
</svg>