<svg width="103" height="42" viewBox="0 0 103 42" fill="none" xmlns="http://www.w3.org/2000/svg">
    <rect y="1" width="40" height="40" rx="20" fill="#1A367C" />
    <path fill-rule="evenodd" clip-rule="evenodd"
        d="M14.5003 17.5915L20 12.1242L25.4996 17.5915C28.5371 20.6111 28.5371 25.5067 25.4996 28.5262C22.4623 31.5458 17.5377 31.5458 14.5003 28.5262C11.4629 25.5067 11.4629 20.6111 14.5003 17.5915ZM27.0711 16.0294L20 9L12.9289 16.0294C9.02369 19.9117 9.02369 26.2061 12.9289 30.0883C16.8342 33.9706 23.1658 33.9706 27.0711 30.0883C30.9763 26.2061 30.9763 19.9117 27.0711 16.0294Z"
        fill="white" />
    <path
        d="M24.952 23.1747C25.2643 23.1182 25.5567 23.3579 25.5215 23.6733C25.2141 26.4344 22.8593 28.5817 20 28.5817C16.9932 28.5817 14.5444 26.2072 14.4474 23.2415C14.4436 23.1238 14.4867 23.0096 14.5822 22.9407C14.8621 22.7385 15.615 22.3477 17.2549 22.3477C18.2604 22.3477 20.3921 23.5173 21.9608 23.5173C22.9035 23.5173 24.2013 23.3105 24.952 23.1747Z"
        fill="white" />
    <path
        d="M65.216 13.104C65.216 15.28 63.712 16.192 58.464 16.192C55.968 16.192 52.896 15.84 51.024 15.408L51.296 13.808C53.36 14.256 56.304 14.624 58.912 14.624C62.656 14.624 63.36 14.192 63.36 13.056C63.36 11.856 62.64 11.664 61.264 11.52L55.04 10.976C52.24 10.768 50.848 10.032 50.848 8.032C50.848 5.776 52.656 4.912 57.584 4.912C59.664 4.912 62.736 5.216 64.72 5.632L64.4 7.152C62.544 6.784 59.52 6.48 57.184 6.48C53.408 6.48 52.704 6.864 52.704 7.984C52.704 9.04 53.488 9.232 54.96 9.392L61.024 9.904C63.696 10.112 65.216 10.8 65.216 13.104ZM80.2225 10.32V5.088H82.1745V10.672C82.1745 14.448 79.2945 16.176 74.6065 16.176C69.9025 16.176 67.0385 14.448 67.0385 10.672V5.088H68.9905V10.32C68.9905 13.2 70.7665 14.48 74.6065 14.48C78.4465 14.48 80.2225 13.2 80.2225 10.32ZM90.9003 16L83.3963 5.088H85.7803L92.2123 14.4L98.6283 5.088H100.964L93.4763 16H90.9003ZM62.464 37H51.136V26.088H62.416C64.88 26.088 65.808 27.096 65.808 28.808C65.792 30.04 65.184 30.936 63.984 31.288C65.472 31.592 66.224 32.536 66.224 34.104C66.224 36.088 65.104 37 62.464 37ZM61.936 27.608H53.056V30.792H62.112C63.168 30.792 63.984 30.312 63.984 29.192C63.984 28.104 63.392 27.608 61.936 27.608ZM62.288 32.216H53.056V35.592H62.128C63.744 35.592 64.384 35.16 64.384 33.896C64.384 32.648 63.6 32.216 62.288 32.216ZM76.4396 37.192C70.5356 37.192 67.8316 35.464 67.8316 31.544C67.8316 27.624 70.5356 25.896 76.4396 25.896C82.3436 25.896 85.0476 27.624 85.0476 31.544C85.0476 35.464 82.3436 37.192 76.4396 37.192ZM76.4396 35.496C81.3996 35.496 83.0636 34.28 83.0636 31.544C83.0636 28.808 81.3996 27.592 76.4396 27.592C71.4796 27.592 69.7836 28.808 69.7836 31.544C69.7836 34.28 71.4796 35.496 76.4396 35.496ZM88.9474 37H86.9954V26.088H97.4754C100.147 26.088 101.667 27.112 101.667 29.656C101.667 31.96 100.387 33.096 97.8594 33.192L96.6434 33.208L97.6194 33.88L101.443 37H98.9474L94.4674 33.288H88.9474V37ZM88.9474 27.768V31.784H97.3474C98.9954 31.784 99.6674 31.208 99.6674 29.784C99.6674 28.328 98.9954 27.768 97.3474 27.768H88.9474Z"
        fill="#262D32" />
</svg>