<svg width="37" height="37" viewBox="0 0 37 37" fill="none" xmlns="http://www.w3.org/2000/svg">
<path d="M4.52754 29.4957C4.52834 30.3241 5.20056 30.995 6.02899 30.9942L12.029 30.9884C12.8574 30.9876 13.5283 30.3154 13.5275 29.487V29.487C13.5267 28.6585 12.8545 27.9876 12.0261 27.9884L6.02609 27.9942C5.19766 27.995 4.52674 28.6672 4.52754 29.4957V29.4957ZM4.5174 18.9957C4.5182 19.8241 5.19042 20.495 6.01885 20.4942L21.0188 20.4797C21.8473 20.4789 22.5182 19.8067 22.5174 18.9783V18.9783C22.5166 18.1499 21.8444 17.4789 21.0159 17.4797L6.01595 17.4942C5.18752 17.495 4.5166 18.1672 4.5174 18.9957V18.9957ZM4.50726 8.49567C4.50806 9.3241 5.18028 9.99502 6.00871 9.99422L30.0087 9.97105C30.8371 9.97025 31.508 9.29803 31.5072 8.4696V8.4696C31.5064 7.64117 30.8342 6.97025 30.0058 6.97105L6.00581 6.99422C5.17739 6.99502 4.50646 7.66725 4.50726 8.49567V8.49567Z" fill="black"/>
</svg>
