<svg width="120" height="132" viewBox="0 0 120 132" fill="none" xmlns="http://www.w3.org/2000/svg">
    <path
        d="M118.555 64L117.442 64.2044C116.319 64.3875 115.213 64.661 114.135 65.0221C113.741 65.1609 113.356 65.3253 112.984 65.5142C112.777 65.614 112.578 65.7291 112.389 65.8587C112.193 65.9874 111.982 66.1048 111.787 66.2372L111.211 66.7256L111.061 66.8505L110.988 66.9149L110.969 66.9149L110.896 66.9906L110.87 67.0208L110.651 67.2707C110.481 67.449 110.326 67.6401 110.187 67.8423C110.022 68.0846 109.834 68.3382 109.695 68.5994C109.153 69.5939 108.765 70.6633 108.544 71.7717C108.291 72.8733 108.13 73.99 107.9 75.0689C107.721 76.1179 107.351 77.1261 106.806 78.0443C106.674 78.2633 106.52 78.4687 106.346 78.6575L106.093 78.949L105.789 79.2065L105.605 79.3692C105.553 79.4203 105.495 79.4648 105.433 79.5017C105.333 79.5623 105.237 79.6229 105.137 79.691L104.991 79.7894L104.807 79.8841L104.424 80.0733C103.233 80.5453 101.988 80.8733 100.717 81.05C99.1787 81.2701 97.6736 81.6756 96.2355 82.2576C95.8429 82.4366 95.4656 82.6468 95.1074 82.886C94.7357 83.1245 94.3876 83.397 94.0676 83.6999L93.9448 83.8059C93.9103 83.8437 93.9794 83.768 93.8566 83.8929L93.8336 83.9194L93.7875 83.9724L93.6034 84.1844L93.4192 84.3926C93.3471 84.4641 93.2828 84.5427 93.2273 84.6273C92.9473 84.9977 92.7008 85.3916 92.4907 85.8046C91.6811 87.368 91.4048 88.9958 91.1209 90.4949C90.8369 91.994 90.576 93.4173 89.9698 94.5492L89.8585 94.765L89.7242 94.9618C89.636 95.0905 89.5516 95.2268 89.4595 95.3404L89.1448 95.6924L89.0643 95.7795L89.0259 95.8249C88.9645 95.8817 89.0911 95.7681 89.0681 95.7908L89.0374 95.8136L88.8149 96.0028C88.6729 96.124 88.5079 96.2792 88.3813 96.3814C88.2547 96.4836 88.1434 96.5252 88.0245 96.6009C87.8938 96.6849 87.7565 96.7583 87.6139 96.8205C87.4682 96.9005 87.3169 96.9701 87.1612 97.0287C86.5057 97.2913 85.8277 97.4953 85.1352 97.6382C84.4062 97.7934 83.6465 97.9259 82.8561 98.0697C82.0371 98.2137 81.2284 98.4097 80.435 98.6565C80.2256 98.7143 80.0204 98.7864 79.8211 98.8722C79.6177 98.9555 79.4106 99.0237 79.2072 99.1183C78.7991 99.3098 78.4054 99.5299 78.0293 99.777C77.6462 100.025 77.2866 100.306 76.9549 100.617L76.8935 100.67L76.8705 100.72L76.7899 100.803L76.694 100.913L76.5022 101.125L76.3142 101.34C76.2794 101.376 76.2473 101.414 76.2182 101.454L76.1108 101.602L75.7002 102.2C75.5698 102.4 75.4892 102.578 75.3779 102.786C75.182 103.168 75.0103 103.561 74.8638 103.964C74.3228 105.542 74.1233 107.079 73.8317 108.442C73.6999 109.095 73.5295 109.74 73.3213 110.373C73.1274 110.936 72.8577 111.47 72.5194 111.963C72.3636 112.195 72.1877 112.414 71.9938 112.617L71.9247 112.697C71.9477 112.674 71.8518 112.765 71.9707 112.659L71.9477 112.659L71.8978 112.701L71.7022 112.871C71.5717 112.985 71.4374 113.106 71.3185 113.204L71.0077 113.397L70.858 113.5C70.7987 113.535 70.7372 113.566 70.6739 113.594L70.2902 113.787C70.1674 113.852 70.0216 113.893 69.8873 113.95C67.7041 114.798 64.999 114.756 62.4935 115.759C61.8631 116.004 61.2652 116.323 60.7132 116.71L60.506 116.846L60.3142 117.009C60.1875 117.115 60.0648 117.224 59.9305 117.33L59.7424 117.493L59.7194 117.512L59.6427 117.592L59.6082 117.63L59.5429 117.705L59.2743 118.008C59.0669 118.246 58.8783 118.499 58.7103 118.765C58.5327 119.02 58.3762 119.288 58.2422 119.568C58.1059 119.82 57.9867 120.08 57.8854 120.348L57.7319 120.726L57.6091 121.105C57.3284 122 57.1092 122.913 56.953 123.838C56.7995 124.652 56.6691 125.378 56.5156 125.984C56.3349 126.88 55.9987 127.738 55.5218 128.52C55.4087 128.711 55.2804 128.892 55.1381 129.062L55 129.244L57.0604 131C57.0604 131 57.1295 130.905 57.2715 130.727C57.4863 130.469 57.6788 130.193 57.847 129.902C58.4461 128.864 58.8638 127.734 59.0825 126.56C59.2436 125.848 59.3549 125.087 59.4969 124.288C59.6221 123.469 59.8003 122.659 60.0302 121.862L60.1223 121.555L60.2374 121.264C60.3858 120.881 60.5735 120.514 60.7976 120.17C60.9066 119.986 61.0353 119.815 61.1813 119.659L61.4499 119.36L61.5189 119.284L61.5535 119.246C61.5535 119.223 61.4576 119.348 61.5113 119.288L61.6379 119.182L61.8911 118.966L62.0177 118.856L62.1597 118.761C62.5519 118.49 62.9757 118.267 63.4221 118.095C64.4934 117.714 65.6018 117.442 66.7295 117.285C68.1148 117.098 69.4774 116.773 70.7966 116.316C70.9731 116.244 71.1573 116.191 71.3338 116.1L71.8672 115.835C71.9592 115.786 72.0475 115.748 72.1396 115.691L72.4197 115.513L72.9722 115.135C73.1141 115.018 73.2369 114.908 73.3559 114.794L73.5554 114.624L73.6053 114.582L73.6283 114.559C73.7626 114.435 73.682 114.51 73.7165 114.472L73.824 114.355C74.1166 114.055 74.3811 113.729 74.6144 113.382C74.7295 113.208 74.8561 113.038 74.9597 112.856L75.2398 112.303C75.3336 112.121 75.4156 111.932 75.4854 111.739L75.7002 111.168C75.9368 110.424 76.1214 109.665 76.2528 108.896C76.4482 107.491 76.7379 106.1 77.1199 104.732C77.2281 104.427 77.3563 104.128 77.5036 103.839C77.5687 103.697 77.6417 103.56 77.7223 103.426C77.799 103.313 77.8758 103.199 77.9487 103.082L78.0216 102.991C78.0485 102.954 78.078 102.918 78.1098 102.885L78.2978 102.669L78.4859 102.457L78.5818 102.347L78.5511 102.381L78.5741 102.381L78.6163 102.344C78.8449 102.128 79.0927 101.933 79.3568 101.761C79.9121 101.399 80.5221 101.127 81.164 100.954C81.8654 100.751 82.5792 100.593 83.3012 100.481C84.0686 100.352 84.836 100.231 85.6571 100.072C86.5075 99.9125 87.3402 99.6716 88.1434 99.353C88.355 99.2695 88.5613 99.1734 88.7612 99.0653C88.9749 98.9662 89.1813 98.8523 89.3789 98.7246C89.5899 98.5846 89.801 98.4445 90.0082 98.3006C90.2154 98.1568 90.3113 98.0394 90.4686 97.9221L90.6911 97.729L90.718 97.7063L90.8101 97.6192L90.8676 97.5549L90.9827 97.4224L91.4432 96.8962C91.5813 96.7107 91.7041 96.5177 91.8269 96.3284C91.8882 96.23 91.9573 96.1353 92.0149 96.0369L92.1722 95.7378C93.0278 94.1176 93.2734 92.452 93.542 90.9529C93.8106 89.4539 94.0408 88.0419 94.647 86.9327C94.7779 86.68 94.9252 86.4359 95.0882 86.2021C95.1349 86.13 95.1889 86.0627 95.2494 86.0015L95.4336 85.7933L95.6216 85.5851L95.6676 85.5321L95.6906 85.5056C95.5871 85.6153 95.6907 85.5245 95.6561 85.5472L95.7444 85.4753C95.9639 85.2679 96.2028 85.0816 96.458 84.9188C96.7144 84.7505 96.9838 84.6024 97.2638 84.4759C99.5659 83.4311 102.601 83.6355 105.482 82.409L106.012 82.1478L106.273 82.0191L106.545 81.845C106.726 81.7276 106.902 81.6065 107.079 81.4891C107.157 81.4406 107.23 81.3848 107.297 81.3226L107.485 81.1636L107.67 81.0046L107.762 80.9213L107.808 80.8834L107.831 80.8645L107.919 80.7812L108.303 80.3459C108.556 80.0621 108.783 79.7568 108.982 79.4336C109.688 78.2611 110.168 76.97 110.398 75.6253C110.643 74.4253 110.781 73.3275 111.012 72.3584C111.182 71.4908 111.485 70.6536 111.909 69.8751C112.001 69.7124 112.097 69.595 112.182 69.4512C112.295 69.2809 112.423 69.1213 112.565 68.9742L112.784 68.7281L112.811 68.6978L112.769 68.7433L112.819 68.7016L112.918 68.6221L113.302 68.2928C113.82 67.9314 114.389 67.647 114.99 67.4486C115.936 67.1505 116.905 66.9302 117.887 66.7899L119 66.6044L118.555 64Z"
        fill="url(#paint0_linear_134_8852)" />
    <path
        d="M117.989 55L117.778 55.2819C117.707 55.3882 117.627 55.4877 117.537 55.579L117.403 55.7237L117.33 55.8037L117.33 55.8266C117.453 55.7161 117.361 55.7999 117.388 55.7771L117.323 55.8304L116.76 56.3256L116.212 56.676C115.645 56.9795 115.048 57.2233 114.431 57.4036C113.58 57.6469 112.715 57.8403 111.841 57.9826C110.704 58.1632 109.582 58.4306 108.486 58.7825C107.111 59.2348 105.88 60.0388 104.916 61.1137C104.809 61.2432 104.705 61.3498 104.59 61.4946L104.23 62.0126C104.01 62.3472 103.814 62.6973 103.644 63.0601C103.483 63.4144 103.342 63.7801 103.215 64.1457C103.089 64.5114 102.982 64.8847 102.901 65.2542C102.518 66.7398 102.365 68.2253 102.009 69.6081C101.846 70.2784 101.606 70.9278 101.292 71.5431L101.178 71.7678L101.04 71.9735C100.944 72.1107 100.867 72.2592 100.76 72.3849L100.431 72.7658L100.35 72.8611L100.381 72.8344L100.354 72.8573L100.297 72.9106L100.063 73.1125C99.8099 73.3384 99.5368 73.5411 99.2471 73.7181C98.9312 73.8902 98.605 74.0428 98.2703 74.1752C97.5332 74.4537 96.7715 74.6629 95.9951 74.7999C94.371 75.1351 92.5133 75.3294 90.6326 76.1331C90.1594 76.3455 89.7068 76.6005 89.2804 76.895L88.9549 77.1159L88.6561 77.3749L88.3573 77.6377L88.2807 77.7025L88.2424 77.7368L88.1581 77.8206L88.0432 77.9501L87.5912 78.4605C87.4304 78.6929 87.2657 78.929 87.1086 79.1652C87.0325 79.2783 86.9647 79.3967 86.9056 79.5194L86.7256 79.8699C86.6055 80.0985 86.5018 80.3352 86.4153 80.5784C85.6492 82.483 85.5152 84.4371 85.0862 86.155C84.9109 86.9782 84.6303 87.7757 84.2512 88.5281C84.1669 88.7074 84.0656 88.8784 83.9486 89.0385L83.7877 89.2861C83.7302 89.3661 83.6575 89.4308 83.5962 89.507L83.4047 89.728L83.3089 89.8422C83.2897 89.8422 83.397 89.7622 83.3357 89.8194L83.3012 89.846L83.2361 89.907L82.6999 90.3717C82.5467 90.4631 82.4011 90.5583 82.2555 90.6612C82.11 90.764 81.8993 90.844 81.7269 90.9393C81.5413 91.0335 81.3493 91.115 81.1524 91.183C80.955 91.2636 80.7529 91.3323 80.5472 91.3887C79.6666 91.6396 78.7711 91.8356 77.8659 91.9753C76.8807 92.1319 75.905 92.343 74.9434 92.6077C73.895 92.8852 72.906 93.3499 72.0246 93.9789C71.8007 94.1438 71.5859 94.3206 71.3811 94.5084L71.2241 94.6494L71.1475 94.7179L71.0632 94.8055L71.0364 94.8398L70.7989 95.1065L70.5653 95.3731C70.4886 95.4531 70.4005 95.6055 70.3163 95.7197L70.0711 96.1006C69.9866 96.2206 69.9135 96.3481 69.8528 96.4816C69.3582 97.4009 68.9947 98.3842 68.7726 99.4032C68.3168 101.334 68.1253 103.167 67.5469 104.686C67.4081 105.054 67.2417 105.41 67.049 105.753L66.7311 106.222C66.6181 106.371 66.4966 106.513 66.3672 106.648L66.2752 106.751L66.2293 106.804L66.2063 106.831C66.3097 106.736 66.2063 106.831 66.2331 106.808L65.9765 107.029C65.8253 107.171 65.6612 107.298 65.4862 107.41L65.0648 107.68C64.8925 107.76 64.7239 107.848 64.5554 107.936C63.1535 108.583 61.4528 108.808 59.7062 109.139C58.8028 109.299 57.9148 109.535 57.0517 109.844C56.1454 110.166 55.3018 110.642 54.5581 111.25L54.2824 111.486L54.1445 111.604L54.0793 111.661L54.0449 111.691L53.9644 111.775L53.5622 112.229C53.4058 112.406 53.2624 112.594 53.1332 112.792C52.9911 112.99 52.8631 113.198 52.7502 113.413C52.3295 114.187 52.0041 115.008 51.7811 115.859C51.3598 117.462 51.1836 118.959 50.858 120.247C50.7134 120.857 50.5161 121.453 50.2681 122.029C50.0397 122.531 49.7405 122.998 49.3795 123.416L49.119 123.705L49.119 123.725C49.0999 123.744 49.2224 123.629 49.1573 123.686L49.1152 123.728L49.0233 123.805L48.8126 123.945C48.6938 124.041 48.5636 124.166 48.4602 124.239C48.3568 124.311 48.2687 124.357 48.1767 124.418C47.9757 124.551 47.7643 124.668 47.5447 124.768C47.3151 124.877 47.0799 124.974 46.8399 125.058C45.8691 125.369 44.8753 125.605 43.8676 125.762C42.8832 125.957 41.9256 126.12 41.0484 126.353C40.2312 126.565 39.4418 126.872 38.6966 127.267C38.385 127.436 38.0843 127.624 37.7964 127.831C37.5283 128.017 37.3176 128.231 37.1108 128.398L36.9384 128.516L36.904 128.547L36.8503 128.604L36.8005 128.657L36.609 128.859L36.4443 129.034L36.2873 129.233L36 129.583L38.0531 131L38.1948 130.794L38.2714 130.68C38.3097 130.631 38.371 130.57 38.4246 130.505L38.6085 130.303L38.6621 130.246C38.6621 130.246 38.5932 130.318 38.6315 130.28L38.6544 130.257L38.754 130.173C39.5801 129.444 40.5792 128.935 41.6575 128.695C42.5201 128.481 43.3933 128.31 44.2736 128.185C45.423 128.021 46.5551 127.753 47.6558 127.385C47.9763 127.278 48.2897 127.15 48.5943 127.004C48.9299 126.851 49.2527 126.672 49.5595 126.467L50.0575 126.128C50.203 126.014 50.3026 125.919 50.4405 125.812L50.6167 125.652L50.7086 125.572L50.7546 125.53L50.8389 125.454L50.8618 125.423L51.2449 124.985C51.7485 124.38 52.1625 123.707 52.4744 122.986C52.7699 122.27 53.0007 121.529 53.1639 120.772C53.501 119.283 53.6503 117.809 53.9989 116.422C54.1621 115.754 54.4051 115.106 54.7228 114.495C54.792 114.362 54.8714 114.235 54.9603 114.114C55.0395 113.966 55.1373 113.829 55.2514 113.706L55.6345 113.246C55.6345 113.246 55.7034 113.169 55.6077 113.272L55.6306 113.249L55.6804 113.211L55.7762 113.128L55.9639 112.96C56.9866 112.065 58.4613 111.646 60.1007 111.345C60.928 111.189 61.7937 111.063 62.7015 110.88C63.6615 110.698 64.599 110.413 65.4977 110.031C65.7275 109.916 65.9611 109.802 66.191 109.68C66.4208 109.558 66.6659 109.372 66.9034 109.212C67.1036 109.072 67.2931 108.918 67.4703 108.751L67.727 108.526L67.8151 108.446L67.8495 108.408L67.9146 108.332L68.0487 108.183C68.2323 107.987 68.4037 107.779 68.562 107.562L69.0063 106.896C69.2617 106.438 69.4819 105.962 69.6651 105.471C70.3891 103.528 70.4886 101.601 70.8832 99.8831C71.0403 99.0549 71.3218 98.255 71.7182 97.51C71.7563 97.4231 71.8052 97.3412 71.8637 97.2662L72.0093 97.0453C72.0572 96.9629 72.111 96.884 72.1702 96.8091L72.4077 96.5425L72.6451 96.2759L72.672 96.2454C72.7256 96.1844 72.6298 96.2873 72.672 96.2682L72.7256 96.2187L72.8405 96.1235C72.9853 95.9883 73.1375 95.8612 73.2963 95.7426C74.5795 94.7979 76.3606 94.4779 78.2375 94.158C79.2288 94.007 80.21 93.7959 81.1754 93.5257C81.4363 93.4597 81.6923 93.3757 81.9415 93.2743C82.1968 93.1875 82.4463 93.0844 82.6884 92.9657C82.9373 92.8362 83.1748 92.7372 83.4276 92.5848C83.6804 92.4324 83.9294 92.2534 84.1746 92.082L84.7185 91.6173L84.7836 91.5601L84.8181 91.5297C84.8502 91.5021 84.8809 91.4728 84.91 91.4421L85.0479 91.2859L85.3275 90.9735C85.4156 90.8669 85.5152 90.7678 85.5956 90.6536L85.8293 90.3108C85.9917 90.0881 86.1352 89.8524 86.2583 89.6061C86.5075 89.1341 86.7201 88.6438 86.8941 88.1395L87.1125 87.3967C87.1737 87.153 87.2235 86.9092 87.281 86.6654C87.664 84.7304 87.8326 82.8982 88.4301 81.3821C88.4965 81.1935 88.5772 81.0101 88.6714 80.8336L88.8055 80.5708C88.8426 80.4861 88.8889 80.4056 88.9434 80.3308C89.0391 80.1899 89.1311 80.0451 89.223 79.8965L89.6482 79.3785L89.7592 79.2528C89.6673 79.348 89.7592 79.2528 89.7362 79.2795L89.7631 79.2566L89.8167 79.2147L90.0312 79.0281L90.2419 78.8414L90.4832 78.6852C90.8008 78.4734 91.1367 78.2899 91.4867 78.1367C92.9346 77.5273 94.6391 77.3368 96.3934 77.013C97.3069 76.8597 98.2044 76.6239 99.0747 76.3083C99.5214 76.1372 99.9564 75.9375 100.377 75.7103C100.796 75.4606 101.193 75.1765 101.564 74.8609L101.798 74.659L101.856 74.6095L101.886 74.5828L101.974 74.5028L102.093 74.3695L102.572 73.8324C102.725 73.6496 102.844 73.4515 102.982 73.2534L103.177 72.9601L103.342 72.6516C103.753 71.8756 104.061 71.0497 104.257 70.1947C104.64 68.5872 104.809 67.1016 105.123 65.8103C105.192 65.4789 105.295 65.1818 105.379 64.8733C105.464 64.5648 105.59 64.2981 105.709 64.0277C105.82 63.7769 105.948 63.5338 106.092 63.3001C106.161 63.1985 106.226 63.0957 106.287 62.9916C106.375 62.8735 106.498 62.744 106.605 62.6107C107.31 61.8447 108.208 61.2793 109.206 60.9727C110.191 60.677 111.197 60.4592 112.217 60.3214C113.213 60.1614 114.174 59.9862 115.063 59.769C115.886 59.5635 116.679 59.2537 117.422 58.8472C117.771 58.6415 118.1 58.4092 118.384 58.2111L118.95 57.7235L119.016 57.6702L119.092 57.5978L119.092 57.5788L119.127 57.5407L119.261 57.3959L119.498 57.1293C119.603 57.0078 119.702 56.8806 119.793 56.7484L120 56.4665L117.989 55Z"
        fill="url(#paint1_linear_134_8852)" />
    <path
        d="M117.958 36L117.574 36.1839C117.509 36.2184 117.451 36.2414 117.363 36.2951L117.067 36.4713C116.959 36.5365 116.84 36.6055 116.725 36.6821L116.371 36.9465C116.235 37.0405 116.107 37.1442 115.987 37.2569L115.791 37.437L115.687 37.529L115.637 37.5788L115.61 37.6018L115.537 37.6823L115.203 38.0655L115.026 38.2686C114.954 38.3568 114.887 38.4489 114.826 38.5445C114.687 38.7437 114.549 38.9507 114.407 39.1691C114.265 39.3875 114.188 39.5983 114.073 39.8244C113.958 40.0527 113.86 40.2882 113.777 40.5295L113.634 40.9127L113.519 41.2959C113.218 42.3866 112.978 43.4932 112.8 44.6106C112.629 45.7897 112.327 46.9463 111.901 48.0594C111.666 48.6009 111.35 49.1035 110.963 49.5501L110.813 49.7187L110.74 49.803L110.721 49.826L110.756 49.7953L110.702 49.8413L110.283 50.2054C110.165 50.3116 110.036 50.4053 109.898 50.4851C109.775 50.5579 109.683 50.646 109.537 50.7188C108.929 51.0488 108.284 51.306 107.615 51.4853C106.893 51.6769 106.116 51.834 105.29 51.9873C104.464 52.1405 103.583 52.3015 102.672 52.5429C101.705 52.7983 100.779 53.192 99.9243 53.7117C99.7052 53.8611 99.4823 53.9991 99.2709 54.1639L98.6713 54.6927L98.5983 54.7616C98.6252 54.7272 98.5099 54.846 98.5137 54.846L98.4868 54.8766L98.3715 55.0069L98.1409 55.2713C98.064 55.3671 97.991 55.4284 97.9064 55.551L97.6604 55.9074L97.4183 56.2715C97.3464 56.3866 97.281 56.5055 97.2223 56.6278C97.0933 56.8644 96.9766 57.1075 96.8725 57.3559C96.7802 57.6012 96.6765 57.8464 96.5919 58.0955L96.3651 58.8619C95.8386 60.8584 95.7002 62.8511 95.1044 64.5832C94.8354 65.4213 94.3854 66.1904 93.7861 66.8364L93.6785 66.959C93.6247 67.0127 93.7246 66.9207 93.7015 66.959L93.6631 66.9935L93.5901 67.0548L93.298 67.3116C93.2074 67.396 93.1111 67.4741 93.0097 67.5453C92.9251 67.599 92.8444 67.6488 92.7599 67.7063C92.6753 67.7637 92.6023 67.8174 92.51 67.871L92.2102 68.0282L91.9104 68.1853L91.5837 68.3117C89.8387 69.0245 87.6902 69.1394 85.434 69.7526C84.246 70.0576 83.1304 70.5942 82.1516 71.3314L81.7941 71.6456L81.6173 71.8027L81.5289 71.8832L81.4828 71.9215L81.4021 72.0096L80.864 72.6343C80.6679 72.9063 80.4796 73.1861 80.2913 73.4697L79.8646 74.3012C79.406 75.3972 79.0783 76.5432 78.8884 77.7155C78.6808 78.8345 78.504 79.9151 78.2465 80.9191C78.0177 81.881 77.5939 82.786 77.0012 83.5786L76.7667 83.843L76.6476 83.9771L76.5899 84.0422L76.563 84.0767L75.925 84.6247C75.7405 84.7358 75.5637 84.8546 75.383 84.9734L74.7296 85.303C73.7598 85.6949 72.749 85.9777 71.7162 86.146C70.6323 86.353 69.4947 86.5292 68.3339 86.8435C67.1184 87.1553 65.9768 87.7036 64.9746 88.4567L64.6095 88.771L64.4288 88.9281L64.3404 89.0086L64.2213 89.135C64.0368 89.3496 63.8369 89.5182 63.6678 89.775C63.4987 90.0317 63.2834 90.3383 63.1028 90.618C62.9221 90.8978 62.8068 91.1737 62.6838 91.4534C62.2365 92.5442 61.9142 93.6818 61.7229 94.8448C61.5154 95.9407 61.3386 96.9984 61.0887 97.9679C60.8679 98.8889 60.4769 99.7609 59.9357 100.539C59.8088 100.723 59.6435 100.876 59.5052 101.053L59.4475 101.114L59.4206 101.148C59.3668 101.202 59.4667 101.11 59.4398 101.148L59.2899 101.279L58.9901 101.539C58.8237 101.684 58.6435 101.813 58.452 101.923C58.2721 102.045 58.0817 102.151 57.8832 102.241C56.2343 103.057 54.1818 103.225 52.1178 103.666C51.0363 103.875 49.9905 104.238 49.0122 104.743C48.7585 104.87 48.5155 105.017 48.2858 105.184C48.1705 105.264 48.0475 105.341 47.936 105.421L47.6131 105.701L47.2941 105.981L47.2134 106.053C47.1849 106.08 47.158 106.108 47.1327 106.138L47.1019 106.172L46.9828 106.31L46.7406 106.578C46.6514 106.674 46.568 106.775 46.4908 106.881C46.3217 107.126 46.1526 107.372 45.9911 107.617L45.6068 108.341C45.39 108.817 45.2064 109.308 45.0572 109.809C44.7919 110.734 44.5802 111.673 44.423 112.622C44.2615 113.514 44.0963 114.357 43.881 115.139C43.6853 115.866 43.3863 116.562 42.9931 117.205L42.701 117.638L42.359 118.021L42.2744 118.113L42.2321 118.163L42.2629 118.132L42.236 118.159L42.0015 118.358L41.7709 118.557C41.7035 118.622 41.6302 118.679 41.5518 118.73C41.0138 119.092 40.4312 119.383 39.8183 119.596C39.1539 119.806 38.4775 119.976 37.7928 120.106C37.1048 120.251 36.4053 120.374 35.7134 120.489C34.3274 120.703 32.9845 121.136 31.7353 121.772C31.4407 121.938 31.1547 122.119 30.8782 122.313C30.6053 122.504 30.3708 122.738 30.1095 122.941L30.0211 123.022L29.998 123.022C29.9634 123.056 30.0403 122.972 29.9173 123.106L29.8865 123.141L29.7559 123.294L29.4945 123.589C29.4099 123.692 29.3292 123.769 29.2408 123.892L28.9794 124.275C28.6795 124.733 28.4222 125.218 28.2107 125.723C28.1185 125.953 28.0455 126.175 27.9686 126.39C27.8903 126.593 27.8236 126.8 27.7687 127.011C27.5381 127.804 27.4074 128.471 27.2998 128.996L27.0692 130.18L27 130.563L29.3715 131L29.4445 130.59L29.6367 129.406C29.7251 128.9 29.8289 128.287 30.0211 127.612C30.0611 127.438 30.1125 127.267 30.1748 127.099C30.2325 126.927 30.2863 126.746 30.3555 126.566C30.4974 126.216 30.667 125.878 30.8628 125.555L31.0012 125.313C31.073 125.213 31.1513 125.117 31.2356 125.026L31.4893 124.723L31.62 124.574L31.6507 124.535C31.5393 124.65 31.6315 124.558 31.6085 124.581L31.6738 124.528C31.8506 124.386 32.0082 124.217 32.2004 124.083C32.3925 123.949 32.5847 123.803 32.8153 123.7C33.8575 123.183 34.974 122.832 36.1247 122.658C36.7781 122.531 37.4776 122.428 38.2233 122.301C39.0316 122.145 39.8279 121.933 40.6063 121.665C41.0218 121.52 41.4275 121.349 41.8209 121.152C42.0325 121.052 42.2379 120.939 42.4358 120.814C42.6472 120.68 42.8586 120.535 43.0662 120.389C43.1574 120.329 43.2436 120.261 43.3237 120.186L43.5505 119.983L43.7811 119.78L43.8195 119.749C43.9387 119.638 43.8695 119.699 43.9041 119.665L43.9617 119.596L44.0809 119.462C44.2423 119.274 44.4037 119.079 44.5575 118.902L44.9418 118.289C45.4332 117.452 45.8021 116.548 46.0373 115.607C46.2717 114.695 46.4216 113.779 46.5754 112.886C46.7035 112.011 46.8832 111.145 47.1135 110.292C47.2249 109.886 47.3662 109.489 47.5363 109.104L47.8092 108.548C47.9129 108.395 48.0129 108.242 48.109 108.084C48.1695 107.99 48.239 107.901 48.3165 107.82L48.551 107.544L48.674 107.41L48.7047 107.376C48.7547 107.318 48.6663 107.414 48.7047 107.395L48.7624 107.345L48.9968 107.142L49.2274 106.939C49.312 106.877 49.4042 106.824 49.4888 106.766C49.6602 106.643 49.8414 106.534 50.0308 106.44C50.8413 106.028 51.7073 105.733 52.6021 105.567C53.5476 105.368 54.5585 105.218 55.6155 105.011C56.7302 104.826 57.8165 104.498 58.8479 104.038C59.1283 103.908 59.3982 103.757 59.6551 103.586C59.9234 103.422 60.1803 103.24 60.4238 103.041L60.7236 102.777L60.8735 102.647L60.9657 102.562L61.0042 102.52L61.081 102.432C61.2809 102.195 61.5038 101.976 61.6806 101.723C62.3823 100.735 62.8837 99.6192 63.1566 98.4392C63.4487 97.3164 63.6024 96.209 63.7908 95.1551C63.9358 94.1295 64.1989 93.124 64.5749 92.1585C64.671 91.9362 64.7901 91.7293 64.8939 91.5109C64.9977 91.2924 65.1283 91.1507 65.2398 90.9629C65.3513 90.7751 65.5934 90.549 65.7702 90.3421L65.801 90.3038L65.8663 90.2463L66.0008 90.1313L66.2622 89.8976C67.0493 89.2969 67.9562 88.871 68.922 88.6483C69.9251 88.3839 71.0167 88.2307 72.1429 88.0314C73.3362 87.854 74.5048 87.5389 75.6252 87.0925C75.9134 86.9584 76.1979 86.8128 76.4823 86.6672C76.7667 86.5216 77.0627 86.284 77.3471 86.0847L77.9813 85.5252C77.9505 85.5559 78.0697 85.4448 78.0697 85.4409L78.112 85.3949L78.1927 85.303L78.3541 85.119L78.6731 84.7358C79.4223 83.7228 79.9583 82.5693 80.249 81.3445C80.5488 80.1949 80.7064 79.0453 80.8986 77.9838C81.0537 76.962 81.3272 75.9615 81.7134 75.0025L82.0363 74.3587C82.1593 74.1824 82.2746 74.0061 82.386 73.8222L82.9318 73.2052L82.9664 73.1746L83.0317 73.1209L83.1663 73.006L83.4276 72.7799C84.2073 72.2131 85.0916 71.8055 86.0297 71.5805C87.9746 71.0555 90.1923 70.9903 92.4024 70.1549L92.8137 69.9978L93.198 69.7986L93.5824 69.5955C93.7169 69.5188 93.8553 69.423 93.9898 69.3349L94.3742 69.059C94.4845 68.9786 94.5897 68.8916 94.6893 68.7984L94.9814 68.5416L95.0545 68.4803L95.0891 68.4458C95.1221 68.4203 95.1529 68.3921 95.1813 68.3615L95.3312 68.1891C96.1283 67.3244 96.7288 66.2983 97.0916 65.181C97.4105 64.1789 97.6521 63.1541 97.8142 62.1153C97.991 61.1305 98.1447 60.1993 98.3753 59.3256L98.5637 58.6971C98.6328 58.4902 98.7136 58.3139 98.7904 58.0993C98.8679 57.9092 98.9565 57.7236 99.0556 57.5437C99.1357 57.3725 99.2322 57.2096 99.3439 57.057L99.4861 56.8309C99.5527 56.7412 99.6246 56.6555 99.7014 56.5742L99.9281 56.3098L100.043 56.1795L100.07 56.1488C100.093 56.1259 100.001 56.2255 100.07 56.1718L100.128 56.1259L100.566 55.7426C100.72 55.6277 100.889 55.5319 101.05 55.4246C101.734 55.0311 102.47 54.7369 103.237 54.5509C104.029 54.3593 104.852 54.2175 105.682 54.0834C106.512 53.9493 107.369 53.796 108.211 53.589C109.073 53.3892 109.908 53.0869 110.698 52.6885C110.898 52.5889 111.105 52.4356 111.305 52.3053C111.492 52.1934 111.668 52.0652 111.832 51.9221L112.255 51.5389L112.304 51.4968L112.389 51.4163L112.416 51.3856L112.524 51.2668L112.739 51.0254C113.278 50.4017 113.72 49.7001 114.049 48.9446C114.55 47.6699 114.901 46.3415 115.095 44.9861C115.244 43.9588 115.461 42.9424 115.744 41.9435L115.841 41.6293L115.956 41.3419C116.02 41.1577 116.097 40.9784 116.186 40.8054L116.432 40.3264L116.675 39.9662C116.709 39.9009 116.75 39.8392 116.798 39.7822L116.974 39.5791L117.313 39.1959L117.27 39.2419L117.309 39.2112L117.378 39.1461L117.516 39.0235C117.598 38.9442 117.687 38.8724 117.782 38.8089L118.028 38.6288C118.104 38.5751 118.174 38.5406 118.239 38.4985L118.42 38.3874C118.473 38.3529 118.558 38.3184 118.616 38.2877L119 38.1038L117.958 36Z"
        fill="url(#paint2_linear_134_8852)" />
    <path
        d="M118.537 28C118.537 28 118.387 28.0347 118.097 28.1079C117.808 28.1812 117.419 28.2621 116.848 28.3701C116.277 28.478 115.571 28.5975 114.711 28.7942C113.676 29.0182 112.674 29.3745 111.73 29.8543C111.143 30.1575 110.6 30.5374 110.113 30.9839L109.921 31.1612L109.874 31.2075L109.801 31.2807L109.801 31.3039L109.724 31.3887L109.419 31.7395L109.265 31.9168C109.211 31.9862 109.153 32.0749 109.099 32.152L108.763 32.6531C107.95 33.96 107.606 35.479 107.298 36.994C106.989 38.5091 106.831 40.0781 106.272 41.4583C106.01 42.1522 105.617 42.7895 105.115 43.3357L105.026 43.4398L104.98 43.4938C104.96 43.5131 105.057 43.4205 105.003 43.4745L104.968 43.5015L104.717 43.7212C104.568 43.8643 104.405 43.9933 104.231 44.1068C104.081 44.1993 103.95 44.2995 103.788 44.3959L103.259 44.6696C102.461 45.0145 101.629 45.273 100.776 45.4406C99.8692 45.6372 98.8972 45.7837 97.8789 46.0035C96.7982 46.2141 95.7493 46.564 94.7586 47.0444C94.489 47.1679 94.2309 47.3149 93.9872 47.4839C93.7344 47.642 93.4945 47.8199 93.2698 48.0159L92.9304 48.3166L92.7645 48.4669C92.6604 48.5749 92.7182 48.517 92.6874 48.5517L92.6527 48.5903L92.591 48.6635L92.3325 48.9642C92.2347 49.0658 92.1457 49.1754 92.0664 49.2919C91.8851 49.5541 91.6807 49.8278 91.5341 50.0976C91.3876 50.3675 91.2564 50.6296 91.1484 50.9034L90.8283 51.7322L90.5776 52.5726C90.2806 53.6983 90.1186 54.8125 89.9181 55.8881C89.7579 56.9284 89.477 57.9466 89.0811 58.922L88.7455 59.589L88.3328 60.202L88.0898 60.4757L87.9664 60.6145L87.9085 60.6838L87.8777 60.7185C87.9124 60.6916 87.8275 60.7687 87.8777 60.7185L87.2258 61.2814L86.6473 61.6669C86.4197 61.7787 86.1999 61.9021 85.9607 62.0062C85.4672 62.2133 84.9593 62.3847 84.4411 62.5189C83.3688 62.7965 82.2079 62.9661 81.0045 63.2128C79.7317 63.4356 78.5001 63.8503 77.3519 64.4426C77.0553 64.6078 76.7682 64.7892 76.4918 64.9862C76.2102 65.1828 75.9633 65.4257 75.7011 65.6493L75.6509 65.6917L75.5699 65.7765L75.4928 65.8613L75.3424 66.0348L75.0454 66.374C74.8371 66.6516 74.625 66.9716 74.4321 67.2723C73.8107 68.436 73.3809 69.6921 73.1593 70.9925C72.9047 72.2261 72.7312 73.4328 72.4419 74.5546C72.2054 75.6316 71.7353 76.6436 71.0649 77.5192L70.8026 77.8161L70.7409 77.8932L70.7062 77.9317C70.7409 77.9047 70.6561 77.9818 70.7062 77.9317L70.5327 78.0859C70.3265 78.2855 70.1018 78.4649 69.8615 78.6218L69.5568 78.8261C69.4419 78.8939 69.3234 78.9557 69.202 79.0112C69.0824 79.0728 68.9628 79.1384 68.8394 79.1962L68.4537 79.3504C66.3594 80.1561 63.8253 80.1638 61.2835 81.1238L60.813 81.3088L60.354 81.5401C60.2035 81.6211 60.0454 81.6828 59.8988 81.7792L59.463 82.0644C59.1749 82.2583 58.9027 82.4749 58.6492 82.7121L58.4525 82.8856C58.4525 82.8856 58.3445 82.9974 58.3676 82.9704L58.329 83.0166L58.2558 83.1015L57.951 83.4446C57.0998 84.5128 56.5012 85.7595 56.2 87.0915C55.876 88.3367 55.7063 89.555 55.471 90.6999C55.2839 91.7872 54.9369 92.8408 54.4412 93.8265C54.3293 94.0616 54.1596 94.2544 54.0285 94.4741C53.8973 94.6939 53.6967 94.8596 53.5386 95.0524L53.5078 95.0909L53.4268 95.1642L53.257 95.3068L52.9253 95.5998C52.7132 95.7617 52.5396 95.8543 52.3352 95.9853C51.3965 96.4899 50.3837 96.8426 49.3345 97.0301C48.2468 97.2652 47.1012 97.4156 45.9403 97.697C44.7319 97.9449 43.5732 98.3918 42.5114 99.0193C42.2387 99.1803 41.9806 99.3647 41.74 99.5706L41.3813 99.879L41.2926 99.9561L41.2463 99.9985C41.215 100.024 41.1865 100.052 41.1614 100.083L41.0226 100.238L40.7487 100.546C40.6464 100.655 40.5535 100.772 40.471 100.897C40.2767 101.161 40.0976 101.437 39.9349 101.722C39.3898 102.758 38.9999 103.868 38.7778 105.018C38.5425 106.097 38.3921 107.134 38.1761 108.102C37.9948 109.003 37.702 109.879 37.3044 110.708C37.2143 110.901 37.1085 111.087 36.9881 111.263C36.8722 111.442 36.7432 111.612 36.6024 111.772L36.398 112.003L36.2977 112.119L36.2476 112.177L36.2244 112.204L35.6767 112.678C35.024 113.151 34.2965 113.51 33.5245 113.742C31.9123 114.243 30.1342 114.397 28.3947 114.829C27.5111 115.029 26.6559 115.339 25.849 115.751C25.4456 115.958 25.0587 116.197 24.6919 116.464L24.1828 116.899L23.936 117.119L23.8627 117.196L23.8395 117.223L23.7933 117.277L23.7007 117.385L23.315 117.802C23.1877 117.971 23.0527 118.187 22.9293 118.353C22.6953 118.698 22.4889 119.062 22.3122 119.44C22.154 119.802 22.0074 120.161 21.8879 120.512C21.7683 120.863 21.6603 121.209 21.587 121.545C21.2515 122.89 21.0856 124.082 20.8619 125.095C20.6955 125.957 20.4369 126.799 20.0905 127.605C19.9502 127.902 19.7864 128.187 19.6007 128.457C19.5158 128.573 19.4425 128.696 19.3577 128.8L19.107 129.078L18.9218 129.286L18.6518 129.521L18.4243 129.722L18.27 129.826L18 130.018L19.2613 132L19.7318 131.665C19.8089 131.607 19.8938 131.545 19.9864 131.472C20.0789 131.399 20.1329 131.345 20.2139 131.268L20.4762 131.029L20.5109 130.994L20.5688 130.94L20.5881 130.921L20.6691 130.828L20.8311 130.639L21.182 130.227C21.2978 130.08 21.398 129.907 21.5176 129.733C21.7613 129.357 21.9753 128.963 22.1579 128.554C22.5556 127.585 22.8453 126.575 23.0218 125.543C23.234 124.44 23.3844 123.257 23.6583 122.073C23.72 121.768 23.8164 121.487 23.8974 121.186C23.9784 120.886 24.1018 120.612 24.2175 120.327C24.3392 120.059 24.481 119.801 24.6418 119.556C24.7189 119.436 24.7806 119.324 24.8694 119.193L25.2551 118.769L25.3476 118.661L25.3939 118.607L25.4171 118.58C25.4672 118.526 25.3746 118.623 25.3939 118.607L25.5752 118.449L25.9378 118.129C26.212 117.935 26.4994 117.76 26.7979 117.605C27.4565 117.267 28.1568 117.017 28.8807 116.861C29.6521 116.672 30.4852 116.541 31.3684 116.383C32.3098 116.239 33.2393 116.027 34.1494 115.747C34.3958 115.673 34.6379 115.586 34.8745 115.485L35.2602 115.342L35.6189 115.165C35.8696 115.045 36.1119 114.909 36.344 114.756L36.7297 114.509C36.8471 114.432 36.9604 114.348 37.0691 114.259L37.613 113.754L37.6978 113.673L37.7325 113.634L37.802 113.557L37.9447 113.395L38.2224 113.075C38.4034 112.855 38.5684 112.621 38.7161 112.377C38.8729 112.141 39.0121 111.894 39.1326 111.637C39.6048 110.639 39.9408 109.583 40.1316 108.495C40.3437 107.443 40.4787 106.402 40.6793 105.411C40.8503 104.445 41.1635 103.51 41.6088 102.635C41.713 102.42 41.8403 102.25 41.9521 102.076C41.9784 102.027 42.0094 101.981 42.0447 101.938L42.1797 101.78L42.4497 101.467L42.5847 101.309L42.6194 101.278L42.6849 101.221L42.9511 100.985C43.1311 100.829 43.3233 100.687 43.5258 100.561C44.4011 100.031 45.3656 99.6637 46.3723 99.4781C47.4329 99.2429 48.5669 99.0926 49.7472 98.8613C51.0034 98.6459 52.2138 98.2183 53.3265 97.5968C53.6196 97.4002 53.9436 97.2113 54.1982 96.9954L54.5299 96.7024L54.6957 96.5559L54.7806 96.4826C54.8886 96.3863 54.8346 96.4287 54.8693 96.394L54.9117 96.3477C55.1316 96.0894 55.3707 95.8427 55.5674 95.5767C55.7632 95.3016 55.9434 95.0159 56.1074 94.7208C56.6942 93.5642 57.0976 92.3235 57.3031 91.043C57.5383 89.8248 57.6888 88.6374 57.9703 87.5272C58.1931 86.4647 58.6474 85.4643 59.301 84.5973L59.6019 84.2503L59.6751 84.1616L59.7137 84.1192C59.76 84.0691 59.6867 84.1424 59.7137 84.1192L59.8641 83.9881C60.054 83.8025 60.2606 83.6347 60.4813 83.487L60.813 83.2634C60.9279 83.1931 61.0463 83.1287 61.1678 83.0706L61.5342 82.8856L61.9199 82.7391C64.022 81.9334 66.5676 81.995 69.1171 81.0467L69.5915 80.8616C69.7497 80.7922 69.904 80.7074 70.0582 80.6303C70.2125 80.5532 70.3668 80.4838 70.5211 80.3875L70.9878 80.0752C71.2617 79.8929 71.5198 79.6879 71.7592 79.4622L71.9366 79.308C71.9366 79.308 72.0523 79.2001 72.0253 79.2193L72.0678 79.1731L72.1565 79.0728L72.5075 78.6873C72.6247 78.5552 72.7306 78.4134 72.8237 78.2633L73.1169 77.8276C73.2981 77.5308 73.437 77.2147 73.5951 76.9063C73.7533 76.5979 73.8497 76.274 73.9538 75.9579C74.058 75.6418 74.1544 75.3218 74.2238 75.0057C74.5362 73.7412 74.6905 72.5076 74.9181 71.3433C75.0973 70.2321 75.4541 69.1569 75.9749 68.159C76.1138 67.9508 76.2295 67.7734 76.3606 67.5421L76.6615 67.199L76.808 67.0294L76.8852 66.9407C76.8852 66.9176 76.8312 66.9986 76.8852 66.9407L76.9199 66.9099C77.1243 66.7441 77.3056 66.5552 77.5177 66.4049L77.8456 66.189C77.9512 66.1092 78.065 66.0407 78.185 65.9847C79.1826 65.4995 80.2474 65.1669 81.3439 64.9977C82.501 64.7857 83.6581 64.6122 84.8846 64.3347C85.5036 64.1851 86.1107 63.9906 86.7013 63.7525C86.9983 63.6253 87.2876 63.4634 87.5807 63.3169C87.8738 63.1704 88.1708 62.9314 88.4601 62.7348L89.1158 62.1604C89.1158 62.1604 89.2315 62.0563 89.2045 62.0755L89.2469 62.0293L89.3279 61.9368L89.4899 61.7517L89.8139 61.3662C90.0068 61.1002 90.1996 60.8226 90.3616 60.5528C90.5236 60.2829 90.6547 59.9822 90.7974 59.6931C91.2525 58.5781 91.5748 57.4136 91.7578 56.2235C91.9623 55.1055 92.1204 54.0337 92.3788 53.0507L92.5948 52.3298L92.8532 51.6513C92.9535 51.4354 93.0692 51.2311 93.1695 51.019C93.2698 50.807 93.4009 50.6682 93.5128 50.487C93.5808 50.3837 93.6583 50.2869 93.7442 50.1979L94.0065 49.901L94.0721 49.8278L94.1068 49.7892L94.2341 49.6813L94.4886 49.4654C94.6568 49.3194 94.839 49.1903 95.0325 49.0799C95.1231 49.0146 95.217 48.9541 95.314 48.8987L95.6187 48.7483C96.4643 48.3602 97.3561 48.0817 98.2724 47.9195C100.147 47.534 102.183 47.3798 104.108 46.5393L104.81 46.1885C105.045 46.0575 105.284 45.884 105.516 45.7298C105.715 45.5926 105.903 45.4405 106.079 45.2749L106.334 45.0551L106.364 45.0281C106.33 45.059 106.449 44.9549 106.449 44.951L106.511 44.8778L106.642 44.7313C107.311 44.0003 107.835 43.1486 108.185 42.2216C108.508 41.3971 108.752 40.5439 108.914 39.6733C109.084 38.8522 109.203 38.0927 109.342 37.3603C109.612 35.9339 109.951 34.6617 110.534 33.7519L110.734 33.4434C110.769 33.3933 110.792 33.3432 110.835 33.2892L110.989 33.1119L111.294 32.7649L111.371 32.6801L111.39 32.657C111.39 32.6377 111.309 32.7418 111.359 32.6917L111.394 32.6609L111.533 32.5336C111.88 32.2102 112.269 31.9353 112.69 31.7163C113.469 31.3333 114.297 31.0596 115.151 30.9029C115.922 30.741 116.628 30.6369 117.203 30.5405C117.777 30.4442 118.252 30.3709 118.556 30.3131C118.861 30.2553 119 30.2244 119 30.2244L118.537 28Z"
        fill="url(#paint3_linear_134_8852)" />
    <path
        d="M117.879 17L117.748 17.4938L117.582 18.026C117.505 18.2327 117.424 18.4815 117.305 18.738C117.036 19.3641 116.658 19.9382 116.188 20.434C115.526 21.0917 114.723 21.5928 113.84 21.9002C112.601 22.3073 111.33 22.6083 110.039 22.7999C109.243 22.9392 108.454 23.1246 107.679 23.355C107.251 23.4826 106.831 23.6347 106.42 23.8105C106.208 23.9024 106.001 24.0211 105.789 24.1283C105.571 24.2368 105.363 24.3649 105.169 24.5111C104.757 24.7878 104.37 25.1004 104.014 25.4452L103.937 25.5256L103.91 25.5563L103.856 25.6175L103.744 25.7438L103.525 25.9965C103.355 26.1928 103.201 26.4014 103.063 26.6205L102.832 26.9651C102.763 27.0799 102.712 27.1948 102.651 27.3096C102.525 27.5372 102.413 27.7725 102.316 28.014C102.224 28.2514 102.123 28.4926 102.039 28.7376L101.815 29.4764C101.292 31.4442 101.169 33.4808 100.533 35.2878C100.445 35.506 100.372 35.7357 100.268 35.9463C100.164 36.1568 100.064 36.3674 99.9442 36.5665C99.8248 36.7655 99.69 36.9493 99.5591 37.1407L99.3281 37.401L99.2126 37.5312L99.1549 37.5963L99.1279 37.6307L98.5042 38.1705C98.3155 38.2968 98.1192 38.4079 97.9536 38.5342L97.2991 38.8749C97.0642 38.9668 96.8293 39.0625 96.5906 39.1582C95.5292 39.4926 94.4443 39.7486 93.3449 39.9239C92.1089 40.1131 90.8943 40.4208 89.718 40.8427L89.2559 41.0264L88.8055 41.2523C88.6553 41.3365 88.5013 41.4016 88.3588 41.4973L87.9276 41.7844C87.6402 41.9798 87.3697 42.1988 87.1191 42.4391L86.9266 42.6113C86.8303 42.7071 86.8765 42.6649 86.8457 42.6956L86.8072 42.7415L86.734 42.8257L86.4299 43.1779C85.5667 44.2684 84.9673 45.5415 84.678 46.899C84.3546 48.1892 84.1852 49.4717 83.908 50.6891C83.7045 51.8632 83.2673 52.9851 82.622 53.9891C82.4645 54.2271 82.2867 54.4512 82.0907 54.659L82.0214 54.7432L81.9867 54.7815L81.8019 54.9461L81.4169 55.2754C81.1743 55.4438 80.978 55.5778 80.7277 55.7271C80.4665 55.8715 80.1965 55.9993 79.9191 56.1099C78.7057 56.5534 77.4488 56.8691 76.169 57.0517C74.7504 57.2616 73.3622 57.6395 72.0339 58.1772L71.5257 58.4337C71.441 58.4758 71.3562 58.5141 71.2715 58.5639L71.029 58.7208L70.5515 59.0386C70.3975 59.1534 70.2551 59.2874 70.1088 59.4214L69.8893 59.609L69.7776 59.7047C69.7503 59.7326 69.7246 59.762 69.7006 59.7928L69.6583 59.8425L69.3156 60.2254C69.2579 60.2943 69.2001 60.3479 69.1424 60.4283L68.9691 60.6771L68.6303 61.1863C67.9391 62.4866 67.4732 63.8934 67.2519 65.3476C67.0567 66.6882 66.762 68.0126 66.3702 69.3099C66.1664 69.9025 65.8882 70.4671 65.5424 70.9906C65.3765 71.2484 65.1857 71.4894 64.9726 71.7103L64.8994 71.7983L64.8609 71.8404L64.6607 72.0127L64.2757 72.3573L63.9138 72.5946C63.7923 72.6809 63.6635 72.7565 63.5287 72.8205L63.1091 73.0349C62.9704 73.1076 62.8126 73.1535 62.6663 73.2148C62.0488 73.4498 61.4125 73.6329 60.7643 73.7622C59.4321 74.0532 58.0229 74.2408 56.5829 74.6121C55.0548 74.9708 53.6559 75.7418 52.5402 76.8402L52.1937 77.223C52.1359 77.2881 52.0782 77.3494 52.0204 77.4221L51.8433 77.6748L51.5006 78.1878C51.4005 78.36 51.3197 78.5323 51.2311 78.7008C50.899 79.3757 50.6409 80.0842 50.4611 80.814C50.103 82.2266 49.9143 83.6163 49.6256 84.9103C49.3949 86.1429 48.8969 87.3108 48.1663 88.3328L47.8699 88.6658L47.7197 88.8343C47.7505 88.8151 47.6735 88.884 47.7197 88.8343L47.6696 88.8764L47.5734 88.9606L47.1884 89.2937L47.0883 89.3779L46.9997 89.4353L46.8264 89.5425C46.7071 89.6191 46.607 89.6995 46.4799 89.7684L46.0757 89.9751L45.8716 90.0785L45.656 90.1627L45.2248 90.3311C43.9753 90.7119 42.6985 90.9973 41.4053 91.1849C40.004 91.387 38.6412 91.7973 37.3626 92.4023C36.7052 92.7358 36.0975 93.1584 35.5568 93.6579L35.5068 93.7039C35.4748 93.7307 35.4452 93.7601 35.4182 93.7919L35.3374 93.8838L35.1718 94.0637L34.8484 94.4274C34.6328 94.7413 34.3864 95.0667 34.2131 95.3845C33.5794 96.6045 33.1416 97.9156 32.9156 99.2702C32.6653 100.541 32.4844 101.759 32.1455 102.857C31.8711 103.905 31.3572 104.876 30.6439 105.694L30.5169 105.84L30.4745 105.874L30.386 105.951L30.0472 106.245L29.8778 106.391C29.8239 106.429 29.7776 106.456 29.7276 106.49L29.4311 106.682C29.3266 106.753 29.2158 106.815 29.1 106.866L28.7535 107.042C28.5186 107.153 28.2607 107.237 28.0142 107.336C26.9551 107.666 25.871 107.909 24.7724 108.064C23.6158 108.235 22.4751 108.499 21.3611 108.852C20.2007 109.229 19.1402 109.859 18.2578 110.698L18.2154 110.736L18.1384 110.82L18.073 110.893L17.9421 111.038L17.6802 111.329C17.5816 111.441 17.4915 111.56 17.4107 111.685L17.1451 112.068L17.0142 112.263L16.914 112.455L16.7138 112.838C16.586 113.086 16.4729 113.342 16.375 113.603C16.019 114.582 15.751 115.59 15.5742 116.616C15.2161 118.53 14.9312 120.242 14.1958 121.524C14.1145 121.684 14.0192 121.837 13.9109 121.98C13.8198 122.13 13.714 122.271 13.5952 122.401L13.2525 122.784L13.2332 122.81C13.214 122.81 13.3141 122.734 13.2602 122.784L13.2024 122.833L13.0869 122.933L12.8559 123.128L12.6287 123.323L12.4324 123.442L12.0474 123.679C11.7607 123.836 11.4635 123.973 11.158 124.089C9.94091 124.508 8.68454 124.804 7.40784 124.973C6.2586 125.143 5.12626 125.41 4.02349 125.774C3.14317 126.075 2.3195 126.52 1.5863 127.091L1.17432 127.447L0.989513 127.611L0.94716 127.649L0.900958 127.699L0.881707 127.699L0.820103 127.772L0.585239 128.028C0.512717 128.104 0.445803 128.185 0.385027 128.27L4.88651e-06 128.79L1.83271 130C1.83271 130 1.91357 129.897 2.05988 129.694C2.10736 129.621 2.1629 129.555 2.22544 129.495L2.45645 129.242L2.5219 129.169L2.5219 129.15C2.56041 129.112 2.4834 129.192 2.49495 129.185L2.52575 129.158L2.65666 129.043L2.94928 128.79C3.51401 128.382 4.14042 128.065 4.80509 127.852C5.78784 127.529 6.79633 127.288 7.81981 127.133C9.24185 126.934 10.6393 126.589 11.9896 126.103C12.3872 125.946 12.7732 125.762 13.1447 125.552C13.3449 125.433 13.5489 125.291 13.7492 125.169L14.0456 124.958L14.2728 124.759L14.5038 124.537L14.6193 124.437L14.6732 124.384C14.6386 124.422 14.7579 124.311 14.7541 124.311L14.7849 124.277L15.2738 123.741C15.4292 123.556 15.5708 123.36 15.6974 123.155C15.8405 122.955 15.9691 122.745 16.0824 122.527C17.0142 120.785 17.2375 118.829 17.5724 116.988C17.7126 116.077 17.9329 115.18 18.2308 114.308C18.3001 114.093 18.3864 113.885 18.4888 113.684L18.6351 113.385L18.7121 113.232L18.793 113.106L18.9585 112.853C19.0116 112.755 19.0748 112.663 19.1472 112.577L19.4051 112.283L19.5322 112.133L19.5977 112.057L19.6323 112.026C20.3094 111.371 21.1307 110.882 22.031 110.598C23.0505 110.275 24.0948 110.034 25.1535 109.878C26.3489 109.703 27.5282 109.433 28.6803 109.071C28.9807 108.948 29.2848 108.849 29.5851 108.707L30.0279 108.481C30.1848 108.409 30.3354 108.325 30.4784 108.228L30.9289 107.926L31.1483 107.773L31.3177 107.627L31.6604 107.329L31.7451 107.256L31.7875 107.218C31.8197 107.191 31.8494 107.162 31.876 107.13L32.0454 106.938C32.9567 105.915 33.6065 104.689 33.9397 103.363C34.2978 102.088 34.4557 100.817 34.679 99.6033C34.8326 98.4264 35.1704 97.2807 35.68 96.2076C35.811 95.9549 35.965 95.7635 36.0997 95.53L36.4193 95.1471L36.5771 94.9596L36.658 94.8677L36.6965 94.8332C37.111 94.433 37.585 94.0986 38.1018 93.8417C39.2378 93.3195 40.4461 92.9698 41.6864 92.8042C43.0674 92.6091 44.4317 92.3109 45.7676 91.9122L46.2874 91.7132L46.5492 91.6136L46.8033 91.4873L47.3116 91.2308C47.481 91.1389 47.6542 91.0164 47.8237 90.9054L48.0739 90.7331L48.201 90.6451L48.2972 90.5608L48.6823 90.2239L48.7785 90.1359L48.8247 90.0938L48.9171 90.0057L49.1058 89.7875L49.4908 89.3511C50.3642 88.1255 50.9533 86.7225 51.2157 85.2433C51.5083 83.8422 51.6585 82.4716 51.9858 81.193C52.1393 80.5706 52.3587 79.9662 52.6403 79.3899C52.7134 79.252 52.7789 79.1065 52.8521 78.9764L53.0908 78.6204L53.2063 78.4366L53.3757 78.2414L53.7222 77.8585L53.7761 77.8317C53.7992 77.8049 53.7338 77.8738 53.7761 77.8317L53.8608 77.7552L54.0379 77.6059C54.1573 77.5102 54.2612 77.3953 54.3883 77.3111C54.6422 77.1307 54.9085 76.9683 55.1853 76.8249L55.605 76.6105L56.0554 76.4382C56.3603 76.3208 56.6714 76.2199 56.9872 76.1358C58.2693 75.7836 59.6824 75.6343 61.0915 75.3472C61.8258 75.2017 62.5469 74.9969 63.2477 74.7346C63.4248 74.6619 63.6057 74.6045 63.779 74.5164L64.3026 74.2561C64.4833 74.1642 64.6571 74.0593 64.8224 73.9422C64.9957 73.8273 65.1728 73.7087 65.3383 73.59L65.7234 73.2454L65.9236 73.0732C65.9549 73.0484 65.9845 73.0216 66.0121 72.9927L66.0622 72.9392L66.1623 72.8281C66.434 72.5425 66.6801 72.2338 66.8977 71.9055C67.3303 71.2647 67.6724 70.5678 67.9141 69.8344C68.3058 68.4518 68.6055 67.045 68.8112 65.6233C68.9968 64.3413 69.3963 63.0992 69.9933 61.9481L70.2281 61.5959L70.3398 61.416C70.3821 61.3547 70.4514 61.2896 70.5053 61.2245L70.8442 60.8417L70.8865 60.7958L70.9712 60.723L71.1445 60.5737C71.26 60.478 71.3678 60.3708 71.4871 60.279L71.8722 60.0301L72.0608 59.9038C72.1263 59.8655 72.1994 59.8311 72.2649 59.7966L72.6769 59.5899C73.8894 59.1143 75.157 58.7915 76.4501 58.629C77.8482 58.4491 79.2229 58.1206 80.5506 57.6489C80.8947 57.5136 81.2303 57.3576 81.5555 57.1819C81.8942 56.9853 82.222 56.7706 82.5373 56.5387L82.9223 56.2171L83.111 56.0525C83.1426 56.028 83.1722 56.0012 83.1995 55.9721L83.2496 55.9185L83.342 55.8152C83.6024 55.5473 83.8394 55.2578 84.0504 54.95C84.8234 53.7552 85.3471 52.4182 85.5905 51.0183C85.8562 49.709 86.0179 48.4495 86.3067 47.2857C86.3683 46.9871 86.4645 46.7153 86.5454 46.432C86.6262 46.1487 86.7456 45.896 86.8457 45.628C86.9458 45.3601 87.0921 45.1227 87.2307 44.8968L87.4386 44.5791C87.5065 44.4605 87.5879 44.35 87.6812 44.2499L87.9892 43.9015L88.0662 43.8173L88.1047 43.7751L88.2587 43.645C88.4545 43.4626 88.6658 43.2974 88.8902 43.1511L89.2251 42.9329C89.3368 42.8602 89.4677 42.8104 89.5832 42.7492L89.949 42.5692L90.334 42.4238C92.4093 41.6581 94.8234 41.6581 97.1797 40.8924L98.0575 40.5594C98.3425 40.4216 98.6235 40.2876 98.9046 40.1344C99.1857 39.9813 99.4783 39.7516 99.7401 39.5717L100.364 39.0242C100.396 38.9995 100.426 38.9713 100.452 38.94L100.491 38.8979L100.568 38.8098L100.722 38.6337L101.03 38.2815C101.219 38.0327 101.38 37.7724 101.554 37.5159C101.727 37.2594 101.835 36.9837 101.973 36.7196C102.112 36.4554 102.193 36.176 102.304 35.908C102.647 34.8817 102.905 33.8292 103.074 32.7611C103.255 31.7619 103.417 30.8202 103.648 29.955L103.837 29.3233C103.91 29.1204 103.991 28.9405 104.064 28.7337C104.142 28.5453 104.231 28.3613 104.33 28.1825C104.376 28.0944 104.418 27.9987 104.468 27.9183L104.618 27.6963C104.715 27.5305 104.828 27.3752 104.957 27.2331L105.342 26.7813C105.615 26.5296 105.91 26.3028 106.224 26.1037C106.847 25.7118 107.527 25.4199 108.241 25.2385C108.951 25.0449 109.67 24.8928 110.398 24.7829C111.807 24.604 113.198 24.3056 114.556 23.8909C115.189 23.6783 115.796 23.3917 116.362 23.0372C116.504 22.9377 116.646 22.8458 116.781 22.7539C116.847 22.708 116.924 22.6582 116.978 22.6161L117.128 22.4898C117.224 22.4056 117.32 22.3252 117.413 22.2409L117.551 22.1223L117.586 22.0916L117.605 22.0916L117.674 22.0227L117.748 21.9462C118.399 21.2771 118.929 20.4997 119.311 19.6492C119.469 19.3123 119.569 19.006 119.665 18.7457L119.873 18.0681L120 17.5704L117.879 17Z"
        fill="url(#paint4_linear_134_8852)" />
    <path
        d="M118.321 -5.12828e-06C118.321 -5.12828e-06 118.153 0.057476 117.823 0.176265C117.602 0.247652 117.385 0.333413 117.175 0.433002L116.726 0.643755C116.555 0.71823 116.391 0.808007 116.236 0.91199C115.857 1.1315 115.501 1.38824 115.174 1.67837L114.894 1.92361L114.748 2.05007L114.713 2.08072L114.694 2.08072L114.633 2.14969L114.575 2.21484L114.115 2.7513C113.35 3.78104 112.8 4.95379 112.497 6.20001C112.156 7.51053 111.972 8.92833 111.681 10.3576C111.532 11.0683 111.322 11.7645 111.052 12.4384C110.764 13.109 110.366 13.7268 109.875 14.2662L109.852 14.293L109.871 14.293L109.81 14.3466L109.687 14.4578L109.438 14.68C109.296 14.8121 109.141 14.9278 108.974 15.0249C108.824 15.1362 108.665 15.2337 108.498 15.3161C108.32 15.4159 108.137 15.5067 107.95 15.5882C107.121 15.9302 106.257 16.1807 105.373 16.3354C104.434 16.527 103.422 16.6879 102.364 16.9332C101.231 17.1752 100.144 17.5942 99.1429 18.1747C98.8898 18.351 98.6253 18.5119 98.3761 18.7074L98.0272 19.0139L97.8508 19.171L97.7664 19.2515C97.7319 19.2821 97.7664 19.2515 97.6821 19.332L97.6476 19.3703C97.4674 19.5849 97.2872 19.7841 97.1031 20.0102C96.9191 20.2363 96.7197 20.5658 96.5472 20.8456C95.9622 21.9407 95.5546 23.1215 95.3394 24.3441C95.094 25.5281 94.956 26.7007 94.6723 27.8196C94.4427 28.9065 94.0067 29.9394 93.3878 30.8621C93.2268 31.0767 93.0351 31.2722 92.8625 31.4829L92.5558 31.7511C92.4408 31.8508 92.3181 31.9734 92.2069 32.05L91.8887 32.257C91.7818 32.3346 91.669 32.4038 91.5513 32.4639C91.304 32.6076 91.0479 32.7356 90.7844 32.8471C89.6279 33.2741 88.4304 33.581 87.211 33.7629C85.8489 33.9652 84.513 34.316 83.2273 34.809C82.8937 34.9355 82.5717 35.1347 82.2458 35.2918C81.9269 35.4858 81.6197 35.6982 81.3256 35.9279L80.9 36.3111L80.7965 36.4031L80.7428 36.4529C80.7138 36.4788 80.6869 36.507 80.6623 36.5372L80.4974 36.7288L80.1638 37.112C80.0526 37.2538 79.9414 37.4339 79.8303 37.5948C79.4177 38.2244 79.0878 38.9044 78.8487 39.618C78.6316 40.3022 78.4537 40.9982 78.3158 41.7026C78.0359 43.0821 77.8595 44.4462 77.4799 45.6993C77.3056 46.3134 77.0598 46.905 76.7476 47.462C76.4294 47.9948 76.0311 48.4756 75.5667 48.8874C75.4363 48.9947 75.2983 49.1365 75.1833 49.2208L74.819 49.4622C74.699 49.5511 74.5706 49.6281 74.4356 49.6921L74.01 49.9144C73.3986 50.1724 72.7662 50.3775 72.1198 50.5275C70.797 50.8532 69.363 51.0256 67.9022 51.3973C66.37 51.7217 64.9523 52.4493 63.7958 53.5049L63.7383 53.5547C63.7087 53.58 63.6817 53.6083 63.6578 53.639L63.5658 53.7386L63.3894 53.9417C63.2631 54.0784 63.144 54.2217 63.0328 54.3709C62.7882 54.6989 62.5726 55.0477 62.3887 55.4132C62.0342 56.1015 61.759 56.8279 61.5682 57.5782C61.1848 59.0381 61.0122 60.4904 60.694 61.8431C60.5494 62.5059 60.3467 63.1548 60.0882 63.782C59.8344 64.3781 59.4918 64.9323 59.0721 65.4259L58.9149 65.6098L58.8344 65.698L58.7961 65.744L58.3897 66.1003L58.1864 66.2766L57.9947 66.3992L57.6113 66.6521C57.0329 66.9764 56.4193 67.2335 55.7824 67.4185C54.4826 67.8017 53.0602 67.978 51.6224 68.2769C50.1091 68.5316 48.6697 69.1136 47.4048 69.9821C47.2438 70.097 47.1019 70.235 46.9524 70.3652L46.73 70.5607L46.6763 70.6105C46.6446 70.6348 46.6163 70.6631 46.592 70.6948L46.5038 70.7944C46.247 71.0641 46.0135 71.3551 45.806 71.6643C45.6948 71.8367 45.5759 72.0091 45.4724 72.1777L45.2117 72.695C45.1177 72.8617 45.0382 73.036 44.9739 73.2162L44.7669 73.745C44.3549 75.1264 44.0398 76.5349 43.8237 77.9601C43.6251 79.2475 43.2144 80.4931 42.6083 81.6464C42.2986 82.1663 41.9107 82.6355 41.458 83.0374C41.3315 83.1446 41.2011 83.2673 41.0746 83.3631L40.718 83.593C40.4719 83.7524 40.2158 83.8957 39.9512 84.0221C38.7622 84.4995 37.5199 84.8314 36.2512 85.0108C34.8978 85.2038 33.5663 85.5272 32.2752 85.9764C32.1142 86.0454 31.9493 86.1029 31.7883 86.1757L31.309 86.4171C30.9826 86.5726 30.6675 86.7505 30.3658 86.9497C30.0706 87.1528 29.8175 87.4134 29.5453 87.6433C29.5164 87.6666 29.4895 87.6923 29.4648 87.7199L29.4264 87.7659L29.3459 87.8579L29.1887 88.038C29.0852 88.1644 28.9778 88.2679 28.8705 88.4212C28.6529 88.7177 28.452 89.026 28.2685 89.3447C28.1017 89.6459 27.9532 89.9568 27.8238 90.2758L27.6359 90.751C27.5745 90.9119 27.5324 91.069 27.4825 91.23C27.379 91.548 27.2985 91.8622 27.2256 92.1764C26.9227 93.4371 26.7579 94.6557 26.5048 95.7937C26.3069 96.8758 25.9174 97.9139 25.3546 98.8593C25.2209 99.0755 25.0682 99.2794 24.8983 99.4686L24.6452 99.7521L24.5839 99.8249C24.6414 99.7751 24.5839 99.8441 24.5839 99.8249L24.5456 99.8594L24.3807 100.001C24.0071 100.341 23.5892 100.628 23.1384 100.856C22.2128 101.302 21.2295 101.618 20.2168 101.795C19.1892 102.005 18.131 102.155 17.0728 102.388C16.0018 102.6 14.9682 102.97 14.0055 103.484C13.5272 103.754 13.0798 104.075 12.6712 104.442L12.5178 104.576L12.4411 104.645L12.4028 104.68L12.3299 104.753L12.0922 105.021C11.9169 105.186 11.7542 105.364 11.6053 105.554C11.4481 105.78 11.2794 106.013 11.149 106.24L10.7963 106.922C10.5968 107.365 10.4265 107.82 10.2863 108.286C10.0349 109.135 9.83514 109.999 9.6882 110.872C9.53484 111.685 9.40064 112.451 9.22427 113.152C9.07521 113.811 8.86071 114.452 8.58397 115.068C8.45781 115.334 8.31169 115.591 8.14687 115.835L7.90915 116.183C7.82864 116.294 7.72895 116.39 7.64076 116.49L7.5104 116.639L7.44139 116.716L7.41071 116.754C7.41071 116.773 7.49507 116.674 7.44139 116.724L7.09631 117.019L6.75507 117.302C6.64772 117.383 6.5557 117.421 6.45984 117.482C6.08158 117.717 5.6824 117.916 5.26742 118.076C5.05654 118.149 4.85717 118.218 4.66162 118.283C4.46608 118.348 4.27821 118.39 4.07883 118.444C3.69542 118.548 3.34267 118.609 3.02827 118.678L1.00001 119.061L1.35275 121C1.35275 121 1.52912 120.969 1.87419 120.912C2.21927 120.854 2.72921 120.77 3.40786 120.632C3.75293 120.556 4.13634 120.49 4.5581 120.368C4.77665 120.306 4.99903 120.257 5.23291 120.18C5.4668 120.103 5.71602 120.011 5.96907 119.919C6.53678 119.698 7.07814 119.414 7.58325 119.073C7.72128 118.977 7.88232 118.877 8.00501 118.781C8.1277 118.686 8.22356 118.586 8.33858 118.49L8.67982 118.187L8.7565 118.118L8.7565 118.095L8.80251 118.042L8.8907 117.942L9.06707 117.739C9.18209 117.597 9.30862 117.463 9.41598 117.31L9.72654 116.842C9.93071 116.515 10.1126 116.175 10.271 115.823C10.5825 115.096 10.8214 114.34 10.9841 113.566C11.3676 112.007 11.4788 110.355 11.935 108.78C12.0559 108.392 12.2019 108.011 12.3721 107.642L12.6443 107.098C12.7402 106.925 12.8475 106.784 12.9472 106.619C13.0681 106.432 13.2068 106.258 13.3613 106.098L13.5952 105.83L13.622 105.807L13.6834 105.753L13.8023 105.649C14.1194 105.365 14.4665 105.116 14.8375 104.906C15.661 104.467 16.5466 104.155 17.4639 103.983C18.4339 103.764 19.4806 103.599 20.5734 103.396C21.7359 103.186 22.862 102.809 23.9168 102.277C24.2103 102.127 24.4911 101.952 24.7564 101.756C25.0073 101.584 25.2444 101.394 25.4658 101.185L25.6268 101.04L25.6651 101.005C25.694 100.98 25.7209 100.954 25.7456 100.925L25.8262 100.833L26.1482 100.45C26.3616 100.202 26.5528 99.937 26.7195 99.6563C27.3724 98.5481 27.8217 97.3321 28.0461 96.0658C28.2954 94.8434 28.4296 93.6287 28.7095 92.4677C28.7746 92.1764 28.8436 91.889 28.9318 91.6132C28.974 91.4714 29.0085 91.3258 29.0584 91.1916L29.2117 90.7855C29.3153 90.5232 29.4344 90.2673 29.5683 90.0191C29.6948 89.7623 29.8559 89.5707 29.9901 89.337C30.0744 89.222 30.1933 89.0956 30.293 88.9768L30.4502 88.7967L30.5307 88.7047L30.569 88.6626C30.7914 88.4863 30.9869 88.2794 31.2247 88.1184C31.4582 87.9482 31.7043 87.7957 31.9608 87.6624L32.3442 87.4632C32.4784 87.4019 32.6203 87.3559 32.7583 87.2984C33.9609 86.887 35.2017 86.5968 36.4621 86.4324C37.8593 86.2437 39.2264 85.8767 40.5302 85.3403C40.8746 85.1793 41.2077 84.9949 41.527 84.7885L42.0216 84.4513C42.1635 84.3364 42.2824 84.2252 42.4051 84.1103C42.9783 83.6009 43.4697 83.0064 43.862 82.3476C44.5401 81.0395 44.9913 79.6259 45.1963 78.167C45.3828 76.8115 45.6647 75.4709 46.0398 74.155L46.2162 73.699C46.2668 73.5454 46.3309 73.3967 46.4079 73.2545L46.6265 72.8215C46.707 72.6912 46.7913 72.5724 46.8718 72.4383C47.0608 72.1655 47.2724 71.9091 47.5045 71.6719L47.5927 71.5723L47.6348 71.534L47.8151 71.3769C47.9377 71.2772 48.0489 71.1623 48.1985 71.0703C49.3055 70.3315 50.5602 69.8424 51.8754 69.6372C53.2404 69.3536 54.6897 69.2003 56.1543 68.7712C56.9057 68.5623 57.6302 68.2665 58.313 67.8898L58.8382 67.5411L59.099 67.361L59.306 67.1848L59.7163 66.8284C59.7462 66.8049 59.7744 66.7793 59.8006 66.7518L59.8505 66.6943L59.9502 66.5832L60.1495 66.3571C60.4158 66.0563 60.6557 65.7333 60.8665 65.3914C60.9717 65.2231 61.0653 65.0477 61.1464 64.8665C61.2412 64.6922 61.327 64.5131 61.4033 64.33C61.6895 63.619 61.9127 62.8843 62.0704 62.1343C62.3887 60.6705 62.5382 59.2412 62.8833 57.9192C63.0454 57.2688 63.2808 56.6389 63.5849 56.0416C63.7227 55.7621 63.883 55.4942 64.0642 55.2407C64.1658 55.0989 64.2772 54.9644 64.3978 54.8384L64.5741 54.6353L64.6623 54.5318C64.6853 54.5088 64.6317 54.5663 64.6623 54.5318L64.7083 54.4935C65.6941 53.6112 66.8993 53.0103 68.1974 52.7538C69.5317 52.4358 70.9504 52.2863 72.415 51.9606C73.1548 51.802 73.8786 51.5762 74.5775 51.2862L75.0989 51.0295C75.2811 50.9466 75.4556 50.8479 75.6204 50.7344L76.138 50.3857C76.2834 50.2784 76.4229 50.1632 76.5559 50.0408C77.1523 49.524 77.66 48.913 78.0589 48.2322C78.4259 47.5671 78.7166 46.8626 78.9254 46.1323C79.351 44.7106 79.5082 43.3082 79.7689 41.9938C79.8866 41.3454 80.0467 40.7054 80.2482 40.0779C80.367 39.7866 80.4591 39.4839 80.6009 39.2119C80.728 38.9462 80.8741 38.6901 81.038 38.4455C81.1224 38.3305 81.1799 38.2156 81.2796 38.0891L81.6131 37.7059L81.778 37.5143L81.8202 37.476L81.9045 37.4032L82.2419 37.112C82.4681 36.9204 82.7327 36.7748 82.9743 36.6062C83.2158 36.4376 83.4995 36.3226 83.7909 36.223C84.979 35.7998 86.2092 35.5056 87.4602 35.3455C88.7968 35.1681 90.1114 34.8521 91.3826 34.4028C91.7115 34.2773 92.0317 34.13 92.3411 33.9622C92.5052 33.881 92.6628 33.7875 92.8127 33.6824L93.2805 33.3644C93.43 33.2571 93.5259 33.1575 93.6639 33.054L93.8403 32.9007L93.9284 32.8241L93.9745 32.7858C94.0051 32.7551 93.9745 32.7858 94.0588 32.7053C94.2927 32.4409 94.5381 32.1842 94.749 31.9044C95.1557 31.3477 95.4918 30.7428 95.7497 30.1034L95.9337 29.6359C95.9951 29.4788 96.0296 29.3217 96.0756 29.1646L96.2098 28.6971L96.321 28.2335C96.6085 27.0034 96.7657 25.8194 96.9958 24.7119C97.1777 23.6682 97.5259 22.6604 98.0272 21.7269L98.4106 21.1598C98.5831 20.9528 98.794 20.7421 98.955 20.5352L99.4573 20.106C99.6452 19.9565 99.8407 19.8416 100.048 19.7228C100.894 19.2545 101.811 18.9258 102.762 18.7495C103.729 18.5387 104.725 18.4008 105.726 18.2169C106.743 18.0524 107.739 17.78 108.698 17.4045C108.94 17.3059 109.177 17.1946 109.407 17.0711C109.651 16.9533 109.884 16.8148 110.105 16.6573C110.325 16.5229 110.534 16.3704 110.73 16.2013L110.983 15.9829L111.109 15.8756L111.171 15.8219L111.251 15.7491L111.286 15.7108C111.967 15.0089 112.515 14.1898 112.904 13.2929C113.234 12.4992 113.49 11.677 113.671 10.8366C113.993 9.28087 114.169 7.91288 114.472 6.7748C114.556 6.4989 114.633 6.22301 114.721 5.9701C114.809 5.7172 114.901 5.47579 115.009 5.25737C115.116 5.03895 115.223 4.81287 115.338 4.64426C115.453 4.47566 115.545 4.32238 115.672 4.15378L116.144 3.62115L116.201 3.55983L116.167 3.59815L116.197 3.57516L116.301 3.48703L116.508 3.31459C116.743 3.10669 117.001 2.92429 117.275 2.77046C117.383 2.69591 117.501 2.63418 117.624 2.58653C117.735 2.53288 117.838 2.4869 117.934 2.44475C118.116 2.35669 118.304 2.28364 118.498 2.22633L119 2.05773L118.321 -5.12828e-06Z"
        fill="url(#paint5_linear_134_8852)" />
    <defs>
        <linearGradient id="paint0_linear_134_8852" x1="-20.9827" y1="-9.68524" x2="102.823"
            y2="115.802" gradientUnits="userSpaceOnUse">
            <stop stop-color="#A9F8FF" />
            <stop offset="0.17" stop-color="#91E9FF" />
            <stop offset="0.54" stop-color="#55C2FF" />
            <stop offset="1" stop-color="#008CFF" />
        </linearGradient>
        <linearGradient id="paint1_linear_134_8852" x1="-23.2558" y1="-7.65657" x2="101.324"
            y2="117.614" gradientUnits="userSpaceOnUse">
            <stop stop-color="#A9F8FF" />
            <stop offset="0.17" stop-color="#91E9FF" />
            <stop offset="0.54" stop-color="#55C2FF" />
            <stop offset="1" stop-color="#008CFF" />
        </linearGradient>
        <linearGradient id="paint2_linear_134_8852" x1="-21.679" y1="-10.632" x2="103.651"
            y2="115.076" gradientUnits="userSpaceOnUse">
            <stop stop-color="#A9F8FF" />
            <stop offset="0.17" stop-color="#91E9FF" />
            <stop offset="0.54" stop-color="#55C2FF" />
            <stop offset="1" stop-color="#008CFF" />
        </linearGradient>
        <linearGradient id="paint3_linear_134_8852" x1="-22.1208" y1="-11.0101" x2="103.977"
            y2="115.149" gradientUnits="userSpaceOnUse">
            <stop stop-color="#A9F8FF" />
            <stop offset="0.17" stop-color="#91E9FF" />
            <stop offset="0.54" stop-color="#55C2FF" />
            <stop offset="1" stop-color="#008CFF" />
        </linearGradient>
        <linearGradient id="paint4_linear_134_8852" x1="-22.9088" y1="-9.25833" x2="102.298"
            y2="116.669" gradientUnits="userSpaceOnUse">
            <stop stop-color="#A9F8FF" />
            <stop offset="0.17" stop-color="#91E9FF" />
            <stop offset="0.54" stop-color="#55C2FF" />
            <stop offset="1" stop-color="#008CFF" />
        </linearGradient>
        <linearGradient id="paint5_linear_134_8852" x1="-16.3611" y1="-15.6418" x2="108.969"
            y2="109.758" gradientUnits="userSpaceOnUse">
            <stop stop-color="#A9F8FF" />
            <stop offset="0.17" stop-color="#91E9FF" />
            <stop offset="0.54" stop-color="#55C2FF" />
            <stop offset="1" stop-color="#008CFF" />
        </linearGradient>
    </defs>
</svg>