<svg width="151" height="165" viewBox="0 0 151 165" fill="none" xmlns="http://www.w3.org/2000/svg">
    <path
        d="M103.991 38.5881C104.131 38.4871 104.291 38.4157 104.46 38.3784C104.629 38.341 104.804 38.3384 104.973 38.3708C109.835 39.2272 111.724 37.3483 111.724 37.3483C112.221 37.3483 112.566 31.6604 112.489 24.5665V24.2469C112.489 21.3327 112.349 18.6485 112.209 16.5779C112.209 16.4501 112.209 16.3222 112.209 16.1944C112.004 13.4208 111.724 11.6569 111.456 11.6697C111.456 11.6697 109.516 9.8291 104.68 10.8133C104.511 10.8475 104.337 10.847 104.168 10.8119C103.999 10.7767 103.839 10.7076 103.697 10.6088C103.463 10.42 103.169 10.3204 102.868 10.3276C102.735 10.3174 102.601 10.34 102.479 10.3935C102.357 10.4469 102.249 10.5297 102.166 10.6343C102.025 10.7911 101.848 10.9105 101.65 10.9818C101.452 11.0532 101.239 11.0743 101.031 11.0434C100.469 10.9667 99.6269 10.8516 98.5678 10.7366C93.4439 10.1976 88.2722 10.3179 83.1788 11.0945C81.6538 11.3381 80.1453 11.6753 78.6617 12.1043C78.1824 12.2483 77.6663 12.2025 77.2197 11.9764C76.7781 11.8195 76.296 11.8195 75.8544 11.9764C73.8 12.5005 69.8059 21.2304 64.906 22.6237V27.6086C66.98 28.3726 68.8005 29.7005 70.1632 31.4431C72.7153 34.3062 74.8336 37.7062 76.1096 38.0001C76.5547 38.1406 77.0357 38.1133 77.4622 37.9235C77.9119 37.6953 78.4296 37.6407 78.9169 37.7701C80.4085 38.1584 81.9209 38.4614 83.4468 38.6776C88.5601 39.3289 93.7352 39.3289 98.8485 38.6776C99.8949 38.537 100.737 38.4092 101.299 38.3069C101.505 38.2728 101.716 38.2899 101.914 38.3568C102.112 38.4236 102.291 38.5382 102.434 38.6904C102.526 38.7901 102.639 38.8682 102.765 38.919C102.891 38.9698 103.026 38.9921 103.162 38.9843C103.478 38.96 103.773 38.8188 103.991 38.5881Z"
        fill="#D0E0FA" />
    <path opacity="0.5"
        d="M111.84 24.3234C111.84 21.4986 111.7 18.84 111.546 16.6543C111.554 16.5266 111.554 16.3986 111.546 16.2709C111.495 14.9522 111.337 13.6399 111.074 12.3469L110.793 12.0145C110.399 11.7732 109.968 11.5963 109.517 11.4905C107.946 11.1043 106.304 11.1043 104.732 11.4905C104.478 11.5442 104.215 11.5447 103.96 11.4919C103.706 11.4391 103.464 11.3342 103.252 11.1837C103.125 11.0825 102.968 11.0283 102.805 11.0303C102.652 11.0303 102.627 11.0303 102.563 11.1198C102.356 11.3587 102.091 11.5404 101.794 11.6478C101.497 11.7552 101.178 11.7847 100.866 11.7333C100.343 11.6566 99.5006 11.5416 98.4287 11.4393C96.2118 11.2079 93.984 11.0969 91.7551 11.107C88.8957 11.0948 86.0402 11.3214 83.2184 11.7845C81.7153 12.0271 80.2282 12.36 78.765 12.7814C78.1283 12.9637 77.4469 12.9046 76.851 12.6153C76.5539 12.509 76.2293 12.509 75.9322 12.6153C75.8046 12.6153 75.4856 12.8198 74.8221 13.5739C74.1585 14.328 73.6609 15.0182 72.9973 15.9002C70.9557 18.6355 68.4419 21.9971 65.4815 23.1091V27.1354C67.4712 27.9747 69.2241 29.2916 70.5856 30.9699C71.5171 32.0052 72.3976 33.13 73.1377 34.1142C73.8778 35.0984 74.4138 35.8014 75.0135 36.3894C75.6132 36.9773 76.0215 37.2969 76.1491 37.3225C76.4469 37.4247 76.7702 37.4247 77.0679 37.3225C77.657 37.0149 78.3391 36.9374 78.982 37.1052C80.4517 37.4885 81.9431 37.783 83.4481 37.9871C86.2803 38.3779 89.1396 38.5361 91.9975 38.46C94.2249 38.4084 96.4481 38.242 98.6584 37.9615C99.7303 37.8337 100.572 37.6931 101.096 37.6037C101.406 37.5525 101.724 37.5782 102.022 37.6784C102.32 37.7787 102.589 37.9505 102.805 38.1788C102.805 38.1788 102.895 38.2683 103.048 38.2683C103.128 38.2709 103.207 38.2575 103.282 38.229C103.356 38.2005 103.424 38.1573 103.482 38.1021C103.692 37.9464 103.932 37.8355 104.186 37.7761C104.441 37.7168 104.705 37.7103 104.962 37.757C106.545 38.1008 108.187 38.0526 109.747 37.6164C110.171 37.4907 110.575 37.3056 110.947 37.0668V36.7345H111.215C111.438 35.5068 111.562 34.2628 111.585 33.015C111.699 30.7143 111.75 27.7489 111.712 24.6685L111.84 24.3234Z"
        fill="white" />
    <path
        d="M98.875 38.5881L98.5305 10.6471C93.4066 10.1081 88.2349 10.2284 83.1415 11.005L83.4733 38.5625C88.5856 39.2223 93.7606 39.2309 98.875 38.5881Z"
        fill="#008CFF" />
    <path
        d="M79.0087 24.5666C79.0959 20.8316 78.8051 17.0973 78.1409 13.4209C78.796 17.0941 79.0868 20.8233 79.0087 24.5538C79.1533 28.5045 78.9569 32.4602 78.4217 36.377C78.9557 32.4644 79.1521 28.513 79.0087 24.5666Z"
        fill="white" />
    <path
        d="M102.372 24.2345C102.447 19.9305 102.148 15.6281 101.478 11.376C102.148 15.6237 102.447 19.9219 102.372 24.2217C102.516 28.7757 102.324 33.3341 101.797 37.8598C102.321 33.3382 102.513 28.7842 102.372 24.2345Z"
        fill="white" />
    <path
        d="M104.923 24.2086C105.006 19.9067 104.728 15.6055 104.093 11.3501C104.745 15.5998 105.039 19.8968 104.974 24.1958C105.116 28.7495 104.928 33.3074 104.412 37.834C104.911 33.3105 105.082 28.7568 104.923 24.2086Z"
        fill="white" />
    <path
        d="M97.5352 36.2109L97.3948 24.5667C97.3883 24.4389 97.3329 24.3186 97.2403 24.2306C97.1477 24.1426 97.0248 24.0936 96.8971 24.0938C96.834 24.0937 96.7716 24.1064 96.7135 24.1309C96.6554 24.1555 96.6027 24.1915 96.5587 24.2368C96.5147 24.282 96.4802 24.3357 96.4573 24.3945C96.4343 24.4534 96.4233 24.5163 96.425 24.5795L96.5654 36.2109C96.5686 36.3387 96.6208 36.4603 96.711 36.5507C96.8012 36.6411 96.9227 36.6933 97.0503 36.6966C97.1769 36.6904 97.2967 36.6372 97.3863 36.5474C97.476 36.4577 97.529 36.3377 97.5352 36.2109Z"
        fill="white" />
    <path
        d="M94.2766 35.1955L94.1616 25.7632C94.1586 25.5232 94.3505 25.3262 94.5901 25.3233L94.6921 25.3221C94.9317 25.3191 95.1283 25.5113 95.1313 25.7513L95.2463 35.1836C95.2492 35.4236 95.0574 35.6205 94.8178 35.6234L94.7157 35.6246C94.4761 35.6276 94.2795 35.4354 94.2766 35.1955Z"
        fill="white" />
    <path
        d="M88.7805 35.009C89.6638 34.9988 90.5242 34.7265 91.2529 34.2266C91.9817 33.7266 92.546 33.0214 92.8747 32.2001C93.2033 31.3789 93.2815 30.4785 93.0992 29.6127C92.917 28.747 92.4826 27.9548 91.8509 27.3364C91.2192 26.7179 90.4187 26.301 89.5505 26.1383C88.6823 25.9756 87.7853 26.0744 86.9732 26.4223C86.161 26.7702 85.4701 27.3515 84.9878 28.0927C84.5055 28.8339 84.2534 29.7017 84.2634 30.5865C84.2701 31.174 84.3921 31.7544 84.6228 32.2946C84.8534 32.8348 85.188 33.3242 85.6075 33.7349C86.027 34.1456 86.5231 34.4695 87.0675 34.6881C87.6119 34.9067 88.194 35.0157 88.7805 35.009Z"
        fill="white" />
    <path
        d="M88.7836 34.4339C89.5544 34.4262 90.3055 34.1894 90.9417 33.7536C91.578 33.3177 92.0707 32.7025 92.3574 31.9858C92.6441 31.2691 92.712 30.4832 92.5523 29.7279C92.3926 28.9726 92.0125 28.2817 91.4604 27.743C90.9082 27.2043 90.2088 26.8419 89.4507 26.7019C88.6927 26.5618 87.9103 26.6504 87.2026 26.9564C86.4949 27.2623 85.8938 27.7719 85.4756 28.4204C85.0574 29.069 84.8408 29.8274 84.8534 30.5994C84.8532 31.1116 84.9555 31.6188 85.1542 32.0908C85.353 32.5628 85.6441 32.9902 86.0105 33.3476C86.3768 33.705 86.811 33.9853 87.2873 34.1719C87.7636 34.3585 88.2724 34.4476 88.7836 34.4339Z"
        fill="#55C2FF" />
    <path
        d="M89.5614 32.1969C89.7923 32.2172 90.0249 32.1891 90.2445 32.1145C90.464 32.0399 90.6656 31.9204 90.8365 31.7635C91.0075 31.6066 91.1439 31.4159 91.2373 31.2033C91.3307 30.9908 91.3789 30.7611 91.3789 30.5289C91.3789 30.2967 91.3307 30.067 91.2373 29.8545C91.1439 29.642 91.0075 29.4512 90.8365 29.2943C90.6656 29.1375 90.464 29.0179 90.2445 28.9433C90.0249 28.8687 89.7923 28.8406 89.5614 28.8609C88.2575 29.2545 87.0159 29.8312 85.8736 30.5736C87.0228 31.2814 88.2637 31.8276 89.5614 32.1969Z"
        fill="white" />
    <path
        d="M61.7691 27.9538H65.5972C65.5972 27.9538 65.6865 27.9538 65.7503 27.7748C65.8984 27.3883 65.9969 26.9846 66.0438 26.5733C66.1088 26.0776 66.1387 25.5779 66.1331 25.0779C66.1641 24.1327 65.9944 23.1917 65.6355 22.317C65.6355 22.2531 65.5589 22.2275 65.5207 22.2275H61.6926L61.7691 27.9538Z"
        fill="#008CFF" />
    <path
        d="M61.6777 28.3503L61.7543 28.2864C62.296 27.315 62.5065 26.1931 62.354 25.0909C62.354 23.2887 62.0478 22.2278 61.6777 21.9083C61.6575 21.8813 61.6313 21.8594 61.6012 21.8443C61.5391 21.8084 61.4686 21.7896 61.3969 21.7896C61.3253 21.7896 61.2549 21.8084 61.1928 21.8443C60.7334 22.0744 60.5037 23.3143 60.5293 25.1037C60.5293 26.9059 60.81 28.1458 61.2694 28.3503C61.3325 28.3828 61.4025 28.3998 61.4735 28.3998C61.5445 28.3998 61.6146 28.3828 61.6777 28.3503Z"
        fill="#6F74A1" />
    <path
        d="M60.5567 27.9154C60.2249 27.9154 59.9314 26.6372 59.9186 25.1162C59.9059 23.5952 60.1483 22.3042 60.4929 22.3042H61.1053C61.4499 22.3042 61.7306 23.5824 61.7561 25.1034C61.7817 26.6244 61.5137 27.9282 61.1691 27.9282L60.5567 27.9154Z"
        fill="#008CFF" />
    <path opacity="0.25"
        d="M62.357 25.0907C62.4053 24.1157 62.2533 23.1412 61.9104 22.2275H62.3315C62.6613 23.14 62.8087 24.1085 62.7653 25.0779C62.7753 25.4678 62.9371 25.8384 63.216 26.1106C63.4949 26.3828 63.8689 26.5351 64.2584 26.535H66.0703C65.9555 27.353 65.7513 27.9026 65.6237 27.9154H62.3953H61.987C62.2884 27.0059 62.414 26.0472 62.357 25.0907Z"
        fill="#00569D" />
    <path opacity="0.25"
        d="M112.477 28.887C112.477 27.6088 112.477 26.1261 112.477 24.6307V24.3111C112.387 17.2939 111.915 11.6188 111.417 11.6316C111.417 11.6316 109.478 9.79101 104.642 10.7752C104.473 10.8094 104.298 10.8089 104.13 10.7738C103.961 10.7386 103.801 10.6695 103.659 10.5707C103.424 10.3819 103.131 10.2823 102.83 10.2895C102.697 10.2793 102.563 10.3019 102.441 10.3554C102.318 10.4089 102.211 10.4916 102.128 10.5963C101.987 10.753 101.81 10.8724 101.611 10.9438C101.413 11.0151 101.201 11.0363 100.992 11.0053C100.431 10.9286 99.5886 10.8136 98.5295 10.6985C93.4056 10.1596 88.2339 10.2798 83.1405 11.0564C81.6156 11.3 80.107 11.6372 78.6233 12.0662C78.1441 12.2102 77.6279 12.1645 77.1814 11.9384C76.7398 11.7814 76.2577 11.7814 75.8161 11.9384C73.8765 12.4368 70.2016 20.2721 65.6078 22.3044C65.9668 23.179 66.1364 24.1201 66.1054 25.0652C66.111 25.5652 66.0811 26.065 66.0161 26.5607C65.9692 26.972 65.8707 27.3757 65.7226 27.7622C66.8565 27.943 68.018 27.8141 69.0848 27.3889C70.1515 26.9637 71.084 26.2581 71.7838 25.3464C73.5064 23.0841 74.9101 21.0134 75.8671 20.7578C76.3084 20.5987 76.7912 20.5987 77.2325 20.7578C77.6851 20.9786 78.2031 21.0241 78.6872 20.8856C80.1722 20.4585 81.6803 20.1171 83.2043 19.8631C88.3182 19.1106 93.5075 19.0204 98.6443 19.5946C99.6907 19.6969 100.533 19.8119 101.107 19.9014C101.313 19.9302 101.524 19.908 101.719 19.8367C101.915 19.7654 102.09 19.6472 102.23 19.4924C102.316 19.3883 102.426 19.3063 102.55 19.2529C102.675 19.1996 102.81 19.1765 102.945 19.1856C103.24 19.1778 103.528 19.2727 103.761 19.454C103.903 19.5529 104.063 19.622 104.232 19.6571C104.4 19.6923 104.575 19.6927 104.744 19.6585C109.58 18.6871 111.52 20.5149 111.52 20.5149C111.915 20.451 112.298 23.966 112.477 28.887Z"
        fill="white" />
    <path opacity="0.25"
        d="M103.991 38.5884C104.131 38.4873 104.291 38.416 104.46 38.3786C104.629 38.3412 104.804 38.3387 104.973 38.3711C109.835 39.2274 111.724 37.3485 111.724 37.3485C112.221 37.3485 112.566 31.6606 112.489 24.5667V24.2472C112.489 21.3329 112.349 18.6488 112.209 16.5781C112.323 18.4698 112.566 26.19 109.542 30.2163C106.071 34.8049 77.207 36.6072 70.2015 31.3794C72.7536 34.2425 74.8718 37.6425 76.1478 37.9365C76.593 38.0769 77.074 38.0497 77.5004 37.8598C77.9501 37.6316 78.4679 37.577 78.9551 37.7064C80.4467 38.0947 81.9591 38.3977 83.485 38.6139C88.5984 39.2652 93.7735 39.2652 98.8868 38.6139C99.9331 38.4733 100.775 38.3455 101.337 38.2432C101.543 38.2091 101.754 38.2262 101.952 38.2931C102.15 38.36 102.329 38.4745 102.472 38.6267C102.564 38.7264 102.677 38.8045 102.803 38.8553C102.929 38.9062 103.064 38.9285 103.2 38.9207C103.494 38.9047 103.773 38.7873 103.991 38.5884Z"
        fill="#7F9ECC" />
    <path
        d="M72.1316 102.548C72.5016 106.523 72.8334 109.144 72.8334 109.144L85.4023 110C85.4023 110 88.4138 93.601 90.0599 79.1192C90.1492 78.2884 90.2385 77.4576 90.3151 76.6524C90.3917 75.8471 90.4938 74.7607 90.5703 73.8404L81.9698 71.4118L81.4594 71.2712L72.8717 68.8555C72.6676 69.6096 72.4761 70.4148 72.3103 71.2712C71.9769 73.0677 71.7426 74.8812 71.6084 76.7035C71.5191 77.6493 71.4681 78.6207 71.417 79.6177C71.1673 87.2687 71.406 94.9278 72.1316 102.548Z"
        fill="#1A367C" />
    <path
        d="M55.772 117.119C56.314 113.878 57.1118 110.686 58.1582 107.571C59.1114 97.9588 60.6971 88.4199 62.905 79.0168C63.0964 78.2498 63.3006 77.5085 63.5048 76.7672C64.0188 74.9051 64.6278 73.0706 65.3295 71.271H81.918V71.4116C81.9147 73.4809 81.7053 75.5448 81.2927 77.5724C81.1906 78.0709 81.0885 78.5694 80.9609 79.0679C80.7057 80.0904 80.3868 81.1002 80.0295 82.0972C78.4855 86.3791 75.3592 95.518 72.1308 102.548C70.506 106.087 69.455 109.862 69.0173 113.732C68.8514 115.189 68.66 116.723 68.4303 118.065C67.7157 122.436 64.028 129.863 61.527 147.169H55.6061C55.6061 147.169 55.1213 123.127 55.772 117.119Z"
        fill="#264BA8" />
    <path
        d="M72.3599 31.3793H80.9859L81.0497 30.9319L81.5346 27.7109L82.4023 22.0358L75.5245 20.6426L74.6696 23.5313L73.9933 25.8448L72.3599 31.3793Z"
        fill="#FBA284" />
    <path
        d="M61.1692 41.0933C61.2313 41.9835 61.3593 42.8679 61.552 43.7391C62.8918 50.015 67.9322 56.8916 68.315 61.7487C68.2231 64.1056 67.6407 66.4174 66.6051 68.5358C66.137 69.3045 65.711 70.0981 65.3291 70.9132C64.372 72.9711 63.8233 74.8628 63.1726 76.6011C67.0772 78.6334 70.229 75.2334 79.9141 77.3296C83.7672 78.1168 87.7673 77.7295 91.3984 76.2176L89.5609 69.111L89.4206 68.5358C89.1144 66.5802 88.7316 63.6276 88.4891 59.8697C88.3679 58.0104 88.3424 56.146 88.4126 54.2841C88.4126 52.648 88.6167 51.012 88.8081 49.3887C88.9321 48.3666 88.9917 47.3378 88.9867 46.3083C88.9867 41.873 87.8511 36.0828 83.2063 32.6957C82.516 32.2022 81.7812 31.7743 81.0115 31.4175H72.3856C68.2129 31.9415 62.5856 35.9422 62.5856 35.9422C62.5856 35.9422 60.9012 37.0159 61.1692 41.0933Z"
        fill="#55C2FF" />
    <path opacity="0.5"
        d="M68.3652 61.7742C68.2733 64.1312 67.6909 66.4429 66.6553 68.5613C65.2045 71.1115 64.0446 73.8169 63.1973 76.6267C67.1019 78.659 70.2537 75.259 79.9388 77.3552C76.9912 74.1981 68.6204 76.077 64.9199 75.5658C73.3928 66.2351 69.2712 54.9615 69.2712 54.9615L75.7279 58.0547C76.8078 58.5762 77.9996 58.8223 79.1973 58.771C80.395 58.7197 81.5615 58.3727 82.593 57.7607L88.4372 54.3097C88.4372 52.6736 88.6414 51.0375 88.8328 49.4142C88.9567 48.3922 89.0164 47.3634 89.0114 46.3338H86.2297L83.1545 48.9669L78.5735 52.3029C78.5735 52.3029 72.4358 47.0624 71.6702 45.8226C70.9045 44.5827 66.0429 42.4993 65.5324 41.579C65.1879 40.9399 62.7251 40.991 61.1811 41.0933C61.2433 41.9835 61.3712 42.8679 61.5639 43.7391C62.891 50.015 67.8675 56.8916 68.3652 61.7742Z"
        fill="#008CFF" />
    <path
        d="M61.4757 147.22C61.9154 148.217 62.1912 149.279 62.2924 150.365C62.3235 151.025 62.192 151.684 61.9096 152.282H52.9774C52.9774 152.282 51.9565 152.141 52.4159 150.633C52.9391 148.869 55.2104 148.409 55.5422 147.22H61.4757Z"
        fill="#3E364B" />
    <path
        d="M85.3984 110L79.5415 147.22H72.8295C72.8295 137.673 71.2473 122.667 71.2473 118.832C71.1422 115.53 71.6796 112.24 72.8295 109.144L85.3984 110Z"
        fill="#1A367C" />
    <path
        d="M79.5063 147.22C80.961 148.192 82.5977 148.857 84.317 149.176C84.9414 149.318 85.4989 149.669 85.8978 150.171C86.2967 150.672 86.5132 151.295 86.5117 151.937V152.282H71.8756C71.7399 151.587 71.6757 150.881 71.6842 150.173C71.7663 149.101 72.1563 148.075 72.8071 147.22H79.5063Z"
        fill="#3E364B" />
    <path
        d="M70.4969 18.4696C70.4969 19.3899 71.9772 21.0259 72.8193 21.8184L73.2149 22.1891C73.7015 22.6409 74.1496 23.1326 74.5547 23.659C74.5595 23.6886 74.5595 23.7188 74.5547 23.7484C74.6568 23.9657 74.8993 24.5026 75.1545 25.1161C75.5373 25.9597 75.9456 26.9311 76.086 27.3785C76.7368 28.3499 79.3654 29.807 81.0625 30.5356C81.4705 30.7305 81.8983 30.8805 82.3386 30.9829C83.1942 30.9575 84.047 30.8721 84.8907 30.7273C85.0001 30.7124 85.1032 30.6675 85.1888 30.5975C85.2743 30.5276 85.339 30.4354 85.3756 30.3311C86.3595 28.0269 86.9712 25.5805 87.1875 23.0838C87.1489 22.0645 86.9772 21.0547 86.6771 20.0801C86.6454 19.9671 86.6071 19.8561 86.5623 19.7477V19.032C86.5623 18.3034 86.6388 17.0891 86.6898 15.517C86.6898 14.4817 81.2795 10.6855 77.6428 10.481C75.6758 10.9754 73.8304 11.867 72.2196 13.1012C71.4554 14.8238 70.8779 16.6236 70.4969 18.4696Z"
        fill="#FBA284" />
    <path
        d="M76.3922 22.739C76.2842 22.4064 76.258 22.0526 76.3158 21.7077C76.3736 21.3628 76.5136 21.0369 76.724 20.7578C77.3492 19.9909 74.8993 17.1917 74.8993 17.1917C74.8993 17.1917 80.7946 16.5271 83.7039 18.9173C83.6709 18.4217 83.5147 17.9422 83.2495 17.5225C82.9843 17.1028 82.6185 16.7562 82.1854 16.5143C83.3211 16.412 86.6516 16.2714 88.3359 18.2015C88.2466 17.3195 87.7744 13.8685 84.9289 12.6414C85.7342 12.6687 86.5363 12.7584 87.3278 12.9098C87.3278 12.9098 85.7583 10.4685 80.9476 9.26702C78.8259 8.73987 76.5919 8.90099 74.5675 9.72716C73.808 10.0222 73.0913 10.4177 72.4365 10.9031C70.9506 12.4773 70.1082 14.5526 70.0759 16.7188C70.0131 17.5571 70.116 18.3995 70.3788 19.1979C70.6415 19.9962 71.0589 20.7348 71.6071 21.3714C72.0696 21.9145 72.6443 22.3506 73.2914 22.6495L76.3922 22.739Z"
        fill="#572C35" />
    <path
        d="M73.3441 23.8126C73.5923 24.1994 73.9182 24.5303 74.3011 24.784C74.5727 24.9648 74.8831 25.0787 75.2071 25.1163C75.4895 25.1545 75.776 25.0862 76.011 24.9246C76.1947 24.7937 76.3425 24.6185 76.4406 24.4151C76.5388 24.2118 76.5841 23.987 76.5724 23.7614C76.5688 23.1398 76.3775 22.5338 76.0237 22.0231C75.2836 20.9239 74.0842 20.4254 73.3441 20.9111C73.1978 21.0167 73.0755 21.1522 72.9854 21.3087C72.8952 21.4651 72.8391 21.6389 72.8209 21.8186C72.7408 22.5254 72.9274 23.2366 73.3441 23.8126Z"
        fill="#FBA284" />
    <path
        d="M79.5188 20.259C79.8741 19.758 80.2757 19.2915 80.7183 18.8658C81.7152 18.5022 82.7452 18.2367 83.7936 18.0733C83.8046 18.0715 83.8159 18.072 83.8267 18.0751C83.8375 18.0781 83.8476 18.0834 83.8561 18.0907C83.8646 18.098 83.8714 18.1072 83.876 18.1174C83.8806 18.1276 83.883 18.1388 83.8828 18.15V18.4312C83.8806 18.4589 83.8694 18.4851 83.851 18.5059C83.8326 18.5266 83.808 18.5408 83.7808 18.5463C82.8176 18.6681 81.8715 18.8997 80.9607 19.2365C80.4559 19.5417 79.974 19.8835 79.5188 20.259Z"
        fill="#572C35" />
    <path
        d="M83.6758 20.4894L83.4589 20.6428C83.0615 20.8764 82.6314 21.0487 82.1828 21.1541L81.8383 21.2308C81.5396 21.2939 81.231 21.2939 80.9323 21.2308C81.1419 20.7898 81.447 20.4011 81.8255 20.0932C82.0054 19.9532 82.2028 19.8371 82.4125 19.7481C82.6121 19.7393 82.8115 19.7696 82.9994 19.8375C83.156 19.8841 83.2991 19.9676 83.4168 20.081C83.5345 20.1944 83.6233 20.3345 83.6758 20.4894Z"
        fill="white" />
    <path
        d="M80.9081 21.1791C80.9633 21.0039 81.0405 20.8364 81.1378 20.6806C81.2327 20.5276 81.3393 20.3823 81.4568 20.246L81.5589 20.1438L81.661 20.0543C81.6887 20.018 81.7234 19.9876 81.7631 19.9648H81.8268L81.9417 19.8881L82.0693 19.8242H82.1969H82.3755H82.5414H82.6945C82.748 19.8446 82.7993 19.8703 82.8477 19.9009H82.6818H82.4011L82.2862 19.9648L82.1842 20.0415L82.0821 20.1182L81.9927 20.1949L81.8906 20.2844C81.8577 20.3109 81.8278 20.3409 81.8014 20.3738C81.4737 20.607 81.174 20.8772 80.9081 21.1791Z"
        fill="#EF8D72" />
    <path
        d="M85.5433 17.9971L85.4667 18.2655C85.4627 18.2792 85.4619 18.2936 85.4645 18.3076C85.4671 18.3217 85.473 18.3348 85.4818 18.3461C85.4905 18.3573 85.5018 18.3663 85.5147 18.3723C85.5276 18.3783 85.5418 18.3812 85.556 18.3806C85.988 18.406 86.4159 18.4788 86.832 18.5978C86.832 18.355 86.4365 18.0227 85.556 17.9204C85.5482 17.9314 85.5431 17.944 85.5409 17.9573C85.5387 17.9706 85.5395 17.9842 85.5433 17.9971Z"
        fill="#572C35" />
    <path
        d="M86.9062 24.9626C86.7738 25.3116 86.5261 25.6048 86.2044 25.7934L85.477 25.7039C85.6812 25.3205 84.6221 25.5889 84.6221 25.5889C84.6221 25.5889 86.4086 24.5152 86.9062 24.9626Z"
        fill="#EF8D72" />
    <path
        d="M85.4386 19.0701C85.4386 19.2874 85.4386 19.4663 85.4386 19.4663C85.4386 19.4663 85.5023 19.7859 85.6427 20.3738H85.7831C86.1215 20.3306 86.4522 20.2403 86.7656 20.1054C86.748 20.0263 86.7224 19.9492 86.6891 19.8754V19.7859C86.6947 19.6965 86.6947 19.6068 86.6891 19.5175C86.6891 19.4024 86.6891 19.249 86.6891 19.0701C86.3871 18.9669 86.0595 18.9669 85.7576 19.0701C85.6518 19.0545 85.5443 19.0545 85.4386 19.0701Z"
        fill="white" />
    <path
        d="M86.6914 19.0324C86.6084 18.9615 86.5063 18.917 86.3979 18.9046C86.2881 18.886 86.176 18.886 86.0662 18.9046C85.9559 18.8922 85.8446 18.8922 85.7344 18.9046L85.4409 19.0452H85.7599H86.0662C86.2727 19.0088 86.4836 19.0045 86.6914 19.0324Z"
        fill="#EF8D72" />
    <path
        d="M73.3047 21.6523C73.553 21.6009 73.8093 21.6009 74.0576 21.6523C74.2992 21.7136 74.531 21.8082 74.7466 21.9335L74.8997 22.0229C74.9555 22.0494 75.007 22.0839 75.0529 22.1252C75.1602 22.1946 75.2625 22.2715 75.3591 22.3553L75.6271 22.6109L75.8823 22.8793C75.8364 22.9741 75.798 23.0724 75.7674 23.1733C75.7431 23.2741 75.7431 23.3793 75.7674 23.4801C75.7653 23.5914 75.7917 23.7014 75.844 23.7996C75.9036 23.8951 75.9817 23.9777 76.0737 24.0425C76.0464 24.1191 76.0029 24.1888 75.9461 24.247L75.844 24.3364L75.742 24.4259C75.5896 24.5171 75.4154 24.5653 75.2379 24.5653C75.0604 24.5653 74.8862 24.5171 74.7339 24.4259C74.6492 24.391 74.568 24.3482 74.4914 24.2981L74.2745 24.1319C74.3365 24.1982 74.4048 24.2582 74.4786 24.3109L74.7083 24.4643C74.7895 24.5074 74.875 24.5417 74.9635 24.5665H75.104H75.2443C75.4369 24.5608 75.6252 24.5081 75.793 24.4131L75.9078 24.3237C75.9474 24.3009 75.9821 24.2705 76.0099 24.2342C76.0823 24.1614 76.1388 24.0743 76.1758 23.9785C76.0965 23.9268 76.0308 23.8567 75.9843 23.774C75.9324 23.6943 75.9058 23.6008 75.9078 23.5056C75.9274 23.3135 75.9838 23.1269 76.0737 22.956C76.0815 22.9354 76.0815 22.9127 76.0737 22.8921L75.8058 22.6237C75.7184 22.5319 75.6245 22.4465 75.525 22.368C75.3318 22.1999 75.1172 22.0581 74.887 21.9462C74.6605 21.8311 74.4204 21.7452 74.1724 21.6906C73.8912 21.6038 73.5925 21.5906 73.3047 21.6523Z"
        fill="#EF8D72" />
    <path
        d="M74.1989 22.061C74.1248 22.2665 74.0817 22.4819 74.0713 22.7001C74.0731 22.9171 74.1075 23.1325 74.1734 23.3392L74.2372 23.4926L74.3137 23.646C74.3703 23.7364 74.4343 23.8219 74.5052 23.9016C74.5797 23.9847 74.6608 24.0617 74.7476 24.1317L74.8752 24.2212L75.0156 24.2978C74.8552 24.165 74.7097 24.015 74.5817 23.8505C74.4544 23.6847 74.3553 23.499 74.2883 23.3009C74.2243 23.1064 74.1857 22.9045 74.1734 22.7001C74.1564 22.4868 74.165 22.2723 74.1989 22.061Z"
        fill="#EF8D72" />
    <path
        d="M85.7695 27.4939C85.3786 27.7729 84.9486 27.9926 84.4935 28.1457C83.7485 28.1174 83.0085 28.0103 82.2859 27.8262C83.084 27.8164 83.8792 27.7265 84.6594 27.5578C85.0006 27.4834 85.3457 27.428 85.693 27.3916L85.7695 27.4939Z"
        fill="white" />
    <path
        d="M83.5117 20.6297C83.1182 20.8739 82.687 21.051 82.2357 21.1538C82.2357 21.0132 82.2357 21.2816 82.2357 21.1538C82.2357 20.6042 82.4399 20.1185 82.8227 20.0801C83.2055 20.0418 83.4607 20.0801 83.5117 20.6297Z"
        fill="#412128" />
    <path
        d="M85.7948 20.3485C86.1332 20.3053 86.4639 20.2149 86.7773 20.0801C86.7597 20.0009 86.7341 19.9239 86.7008 19.85V19.7605C86.7064 19.6711 86.7064 19.5815 86.7008 19.4921C86.6027 19.4162 86.4798 19.3797 86.3562 19.3898C86.2755 19.4004 86.1982 19.4288 86.1297 19.473C86.0613 19.5172 86.0035 19.5761 85.9607 19.6455C85.9948 19.6659 86.024 19.6938 86.0461 19.7269C86.0682 19.7601 86.0826 19.7978 86.0883 19.8372C86.0919 19.8996 86.0714 19.961 86.031 20.0086C85.9906 20.0562 85.9334 20.0864 85.8713 20.0928C85.8339 20.174 85.8081 20.2601 85.7948 20.3485Z"
        fill="#412128" />
    <path
        d="M82.5174 20.8728C82.5248 20.9385 82.5125 21.0049 82.4819 21.0636C82.4514 21.1222 82.4041 21.1704 82.3461 21.202C82.2881 21.2336 82.222 21.2471 82.1562 21.2408C82.0905 21.2345 82.0282 21.2087 81.9772 21.1668C81.9262 21.1248 81.8888 21.0685 81.8698 21.0051C81.8509 20.9418 81.8514 20.8742 81.871 20.8111C81.8907 20.7479 81.9286 20.6921 81.9801 20.6507C82.0316 20.6093 82.0943 20.5843 82.1601 20.5788C82.2462 20.5716 82.3316 20.5983 82.3983 20.6532C82.465 20.7081 82.5078 20.7868 82.5174 20.8728Z"
        fill="white" />
    <path
        d="M95.9901 9.36882H95.6965C95.6229 9.36698 95.5497 9.38036 95.4814 9.40814C95.4132 9.43592 95.3513 9.4775 95.2999 9.53028C95.2484 9.58305 95.2083 9.64589 95.1822 9.71488C95.156 9.78386 95.1443 9.85751 95.1478 9.93122L95.2627 11.7334C95.2693 11.868 95.3272 11.9948 95.4246 12.0876C95.522 12.1804 95.6514 12.2321 95.7858 12.2319C95.9184 12.2358 96.0474 12.1891 96.1469 12.1013C96.2464 12.0135 96.3089 11.8912 96.3218 11.759L96.5132 9.96956C96.5202 9.89531 96.512 9.82041 96.4892 9.74943C96.4664 9.67844 96.4294 9.61285 96.3804 9.55665C96.3315 9.50045 96.2716 9.45481 96.2045 9.42252C96.1374 9.39023 96.0644 9.37196 95.9901 9.36882Z"
        fill="#FBA284" />
    <path
        d="M97.4345 9.52221H97.1155C97.0377 9.51328 96.9587 9.52077 96.884 9.54419C96.8092 9.56762 96.7401 9.60647 96.6812 9.65824C96.6223 9.71001 96.575 9.77355 96.5421 9.84478C96.5092 9.91601 96.4915 9.99335 96.4902 10.0718V11.9891C96.4893 12.1312 96.541 12.2686 96.6353 12.3748C96.7295 12.481 96.8597 12.5485 97.0006 12.5643C97.1419 12.5794 97.2836 12.5404 97.3973 12.455C97.511 12.3696 97.5881 12.2442 97.6131 12.1041L97.9704 10.2252C97.9917 10.1427 97.994 10.0565 97.9771 9.97299C97.9603 9.88949 97.9246 9.81093 97.873 9.74322C97.8214 9.67552 97.7551 9.62045 97.6791 9.58216C97.6032 9.54387 97.5196 9.52337 97.4345 9.52221Z"
        fill="#FBA284" />
    <path
        d="M98.8626 9.75263L98.5691 9.68872C98.496 9.67604 98.4211 9.67835 98.3489 9.69549C98.2767 9.71264 98.2088 9.74427 98.1491 9.78848C98.0895 9.83268 98.0394 9.88854 98.0019 9.95269C97.9644 10.0168 97.9403 10.0879 97.931 10.1617L97.7141 11.9255C97.6954 12.059 97.7287 12.1945 97.8071 12.304C97.8855 12.4135 98.0031 12.4885 98.1353 12.5135C98.2683 12.5381 98.4058 12.5125 98.5212 12.4417C98.6366 12.3709 98.7218 12.2599 98.7605 12.13L99.2454 10.3917C99.2626 10.3246 99.2662 10.2547 99.2562 10.1861C99.2462 10.1175 99.2227 10.0516 99.1871 9.99213C99.1515 9.93269 99.1045 9.88091 99.0488 9.8398C98.9931 9.79869 98.9298 9.76906 98.8626 9.75263Z"
        fill="#FBA284" />
    <path
        d="M100.163 10.1104L99.9078 10.0082C99.845 9.98663 99.7785 9.97821 99.7124 9.98344C99.6463 9.98867 99.5819 10.0074 99.5233 10.0386C99.4647 10.0697 99.4131 10.1126 99.3717 10.1645C99.3303 10.2165 99.2999 10.2764 99.2826 10.3405L98.8488 11.9255C98.8164 12.0424 98.8301 12.1673 98.8871 12.2743C98.9441 12.3814 99.04 12.4624 99.155 12.5006C99.2673 12.5412 99.3905 12.5388 99.5012 12.494C99.6118 12.4492 99.7021 12.3651 99.7547 12.2578L100.444 10.7623C100.47 10.7013 100.484 10.6355 100.484 10.5689C100.485 10.5023 100.471 10.4364 100.445 10.3753C100.418 10.3142 100.38 10.2591 100.331 10.2136C100.283 10.168 100.226 10.1329 100.163 10.1104Z"
        fill="#FBA284" />
    <path
        d="M70.2555 52.7505C70.7659 52.9805 71.5316 52.5587 72.2972 51.7024C73.1964 50.6705 73.9323 49.5066 74.4792 48.2513C75.2337 46.7785 75.6686 45.1624 75.7552 43.5092C75.7947 43.0478 75.6528 42.5892 75.3597 42.2311C75.3046 42.1733 75.2399 42.1257 75.1683 42.0905C75.1013 42.0557 75.0268 42.0376 74.9513 42.0376C74.8758 42.0376 74.8015 42.0557 74.7344 42.0905C73.956 42.5378 73.2032 44.9536 70.9063 46.5641C70.4297 46.9034 70.034 47.3441 69.7472 47.8545C69.4604 48.3649 69.2898 48.9325 69.2475 49.5167C69.1335 50.0972 69.166 50.697 69.342 51.2617C69.5181 51.8264 69.832 52.3381 70.2555 52.7505Z"
        fill="#79BBD8" />
    <path
        d="M61.2449 39.7257C61.1841 38.9813 61.3031 38.2333 61.5918 37.5447C61.8806 36.8561 62.3306 36.2473 62.9038 35.7697C63.477 35.292 64.1565 34.9596 64.885 34.8006C65.6135 34.6415 66.3695 34.6605 67.0891 34.8558C67.6127 34.9952 68.0973 35.2532 68.5055 35.61C71.0576 37.9746 72.4357 39.1889 75.2812 42.2693C75.2262 42.2115 75.1615 42.1639 75.0899 42.1287C75.0228 42.0939 74.9484 42.0758 74.8729 42.0758C74.7974 42.0758 74.7231 42.0939 74.656 42.1287C73.8776 42.576 73.1248 44.9918 70.8279 46.6023C70.3513 46.9416 69.9555 47.3823 69.6687 47.8927C69.3819 48.4031 69.2113 48.9707 69.1691 49.5549C69.0661 50.1255 69.1042 50.7128 69.2799 51.2653C69.4556 51.8178 69.7636 52.3189 70.1771 52.7248C68.4558 51.7836 66.8572 50.6331 65.4175 49.2992C62.8295 46.7592 61.3053 43.3264 61.1555 39.7001L61.2449 39.7257Z"
        fill="#008CFF" />
    <path
        d="M68.8638 52.0477C68.8968 52.0594 68.9328 52.0594 68.9658 52.0477C68.977 52.037 68.986 52.0241 68.9921 52.0098C68.9982 51.9955 69.0013 51.9802 69.0013 51.9646C69.0013 51.9491 68.9982 51.9337 68.9921 51.9195C68.986 51.9052 68.977 51.8923 68.9658 51.8815C67.7662 51.1475 66.6458 50.2908 65.6226 49.3252C63.0627 46.8203 61.5485 43.4348 61.3863 39.8539C61.3196 39.1155 61.4362 38.3721 61.7256 37.6897C62.015 37.0074 62.4683 36.4072 63.0451 35.9427C63.5829 35.4517 64.2342 35.1024 64.9403 34.9261C65.6464 34.7498 66.3851 34.7522 67.0901 34.9329C67.5901 35.0703 68.0525 35.3194 68.4427 35.6615L69.0935 36.2494C70.612 37.6554 71.6455 38.6652 73.1257 40.084C73.1364 40.0952 73.1493 40.1041 73.1636 40.1102C73.1778 40.1163 73.1932 40.1194 73.2087 40.1194C73.2242 40.1194 73.2395 40.1163 73.2537 40.1102C73.268 40.1041 73.2809 40.0952 73.2916 40.084C73.315 40.0601 73.3281 40.0279 73.3281 39.9945C73.3281 39.961 73.315 39.9289 73.2916 39.905C71.8752 38.4735 70.7396 37.4509 69.2466 36.0705L68.6086 35.4825C68.186 35.1198 67.6896 34.8537 67.1539 34.7028C66.4224 34.481 65.6472 34.4454 64.8985 34.5994C64.1499 34.7534 63.4514 35.0921 62.8664 35.5848C62.2732 36.0684 61.8047 36.6878 61.5005 37.3907C61.1963 38.0937 61.0652 38.8595 61.1183 39.6238C61.2524 43.2839 62.793 46.7505 65.4185 49.2996C66.4447 50.2781 67.5792 51.1358 68.8 51.856L68.8638 52.0477Z"
        fill="#79BBD8" />
    <path
        d="M69.2451 49.5808L72.2949 51.7153C75.4977 53.9138 78.2539 55.6777 78.2539 55.6777L82.082 52.4311C79.53 49.6191 78.0498 46.8071 75.7019 43.4839C75.3828 43.0365 75.0383 42.5891 74.681 42.1162C73.9027 42.5636 73.1498 44.9793 70.8529 46.5898C70.381 46.9384 69.992 47.3875 69.714 47.9046C69.436 48.4218 69.2759 48.9942 69.2451 49.5808Z"
        fill="#FBA284" />
    <path
        d="M81.1277 56.304C80.6361 56.4417 80.1195 56.4638 79.6179 56.3688C79.1164 56.2738 78.6436 56.0642 78.2361 55.7563C77.8287 55.4483 77.4977 55.0504 77.2688 54.5933C77.04 54.1363 76.9195 53.6326 76.9168 53.1213C76.9173 52.6317 77.0081 52.1464 77.1847 51.6898C78.129 49.2229 86.8444 44.1485 91.4508 36.9907L93.6328 40.0456C93.6328 40.0456 87.342 53.0574 81.6254 56.1123C81.4662 56.1924 81.2994 56.2566 81.1277 56.304Z"
        fill="#FBA284" />
    <path
        d="M92.6104 35.5843L96.7703 31.3024C96.8 31.2715 96.8357 31.2469 96.8752 31.2301C96.9146 31.2132 96.9571 31.2046 96.9999 31.2046C97.0428 31.2046 97.0852 31.2132 97.1247 31.2301C97.1642 31.2469 97.1999 31.2715 97.2296 31.3024C97.2798 31.3586 97.3076 31.4314 97.3076 31.5069C97.3076 31.5823 97.2798 31.6552 97.2296 31.7114L94.9072 34.6512L97.906 31.6219C97.9346 31.5914 97.9692 31.567 98.0076 31.5503C98.046 31.5337 98.0874 31.5251 98.1292 31.5251C98.1711 31.5251 98.2125 31.5337 98.2509 31.5503C98.2893 31.567 98.3239 31.5914 98.3525 31.6219C98.396 31.6763 98.4197 31.744 98.4197 31.8137C98.4197 31.8834 98.396 31.951 98.3525 32.0054L95.6984 35.252L98.2504 32.6956C98.285 32.6592 98.3266 32.6303 98.3726 32.6105C98.4187 32.5908 98.4683 32.5806 98.5184 32.5806C98.5685 32.5806 98.6182 32.5908 98.6642 32.6105C98.7103 32.6303 98.7519 32.6592 98.7864 32.6956C98.8429 32.7589 98.8741 32.8408 98.8741 32.9257C98.8741 33.0106 98.8429 33.0925 98.7864 33.1557L96.2344 35.9038L98.6078 33.6798C98.6377 33.6447 98.6749 33.6165 98.7167 33.5972C98.7586 33.5779 98.8041 33.5679 98.8502 33.5679C98.8963 33.5679 98.9418 33.5779 98.9836 33.5972C99.0255 33.6165 99.0627 33.6447 99.0927 33.6798C99.1414 33.7392 99.168 33.8138 99.168 33.8907C99.168 33.9676 99.1414 34.0421 99.0927 34.1016L95.6984 38.294L93.2356 37.0925L92.6104 35.5843Z"
        fill="#55C2FF" />
    <path
        d="M93.632 40.0453L94.908 39.2656C95.4001 38.9487 95.7781 38.4827 95.987 37.9354C96.1959 37.3882 96.2248 36.7883 96.0693 36.2235V36.019C96.0002 35.7552 95.8539 35.5181 95.6493 35.3381C95.4446 35.1582 95.1909 35.0437 94.9208 35.0093C94.3039 34.9213 93.675 35.0263 93.1199 35.31C92.5649 35.5937 92.1109 36.0422 91.8201 36.5942L91.6159 36.9776L93.632 40.0453Z"
        fill="#FBA284" />
    <path
        d="M72.3592 31.3794C72.5889 32.1463 78.0503 34.8433 80.5386 33.8207C83.0268 32.7982 80.9852 31.3794 80.9852 31.3794H72.3592Z"
        fill="#FBA284" />
    <path
        d="M73.9943 25.8451C74.3005 26.3052 74.7982 27.021 75.5893 28.1458C77.2419 29.3733 79.0879 30.3151 81.0508 30.9322V30.536C79.3537 29.8074 76.725 28.3503 76.0742 27.3789C75.9338 26.9315 75.5255 25.9601 75.1427 25.1165C74.8188 25.0789 74.5083 24.965 74.2367 24.7842L73.9943 25.8451Z"
        fill="#EF8D72" />
    <path
        d="M62.9035 79.017C65.1749 80.0523 68.2118 79.9373 71.3637 79.6178C74.5356 79.1117 77.7505 78.9276 80.9595 79.0681C81.4869 79.1277 82.0079 79.2346 82.5163 79.3877C84.9761 80.1139 87.6049 80.0197 90.0066 79.1193C90.0959 78.2884 90.1852 77.4576 90.2617 76.6524C87.3917 77.63 84.3381 77.9446 81.3295 77.5727C80.8701 77.5727 80.398 77.4321 79.9259 77.3298C77.1955 76.7032 74.3865 76.492 71.5934 76.7035C68.0333 76.9847 65.8895 77.8027 63.5416 76.7035C63.2608 77.5088 63.0949 78.2501 62.9035 79.017Z"
        fill="#19316C" />
</svg>