<svg width="192" height="226" viewBox="0 0 192 226" fill="none" xmlns="http://www.w3.org/2000/svg">
    <g clip-path="url(#clip0_330_642)">
        <path
            d="M124.4 104.388L126.562 104.599L128.61 104.778C129.967 104.876 131.316 104.949 132.673 105.014C135.38 105.16 138.086 105.185 140.8 105.193C146.33 105.189 151.856 104.858 157.347 104.201C163.361 103.552 169.276 102.187 174.966 100.135C178.577 98.8501 181.947 96.9701 184.938 94.5728C185.862 93.8228 186.731 93.0075 187.539 92.1333C187.969 91.6535 188.351 91.1574 188.79 90.637L189.392 89.8238L189.538 89.6124L189.83 89.1814C190.129 88.7346 190.4 88.2703 190.643 87.7909C191.384 86.2608 191.836 84.6065 191.976 82.9118C192.069 81.8281 192.045 80.7375 191.903 79.6591C191.716 78.272 191.38 76.9089 190.903 75.5932C190.25 73.8294 189.434 72.1305 188.465 70.5189C187.652 69.0959 186.84 67.8354 185.978 66.6157C184.353 64.1761 182.614 62.0049 180.899 59.8825C179.184 57.7601 177.388 55.7597 175.608 53.7837C173.828 51.8077 172.04 49.8723 170.196 47.9939C168.351 46.1154 166.514 44.2532 164.645 42.4236C162.776 40.5939 160.866 38.8212 158.956 37.0403C155.096 33.5274 151.243 30.0876 147.115 26.7861L139.232 34.1048L156.363 59.1832C159.127 63.3548 161.898 67.4858 164.336 71.6249C165.579 73.6659 166.774 75.6908 167.741 77.6587C168.237 78.6263 168.676 79.5778 169.025 80.4397C169.296 81.0714 169.506 81.7277 169.651 82.3995C169.651 82.5215 169.602 82.554 169.505 82.0417C169.429 81.5904 169.412 81.1311 169.456 80.6755C169.533 79.6222 169.809 78.5931 170.269 77.6424C170.427 77.3046 170.609 76.9786 170.813 76.6666L170.968 76.4389C170.959 76.418 170.959 76.3947 170.968 76.3738V76.325C170.968 76.325 170.87 76.325 170.716 76.4226C169.559 77.0039 168.351 77.4775 167.107 77.8376C165.211 78.3803 163.281 78.7933 161.329 79.0736C159.224 79.3826 157.014 79.6753 154.738 79.8868C150.195 80.2364 145.457 80.4072 140.67 80.3991C138.281 80.3991 135.875 80.3991 133.47 80.3422L129.869 80.2446H128.09L126.464 80.1795L124.4 104.388Z"
            fill="#FF8B7B" />
        <path
            d="M147.471 44.1395C148.966 44.1395 150.575 43.3264 152.274 41.8057C154.566 39.7077 155.704 37.569 155.655 35.4466C155.62 34.6299 155.423 33.8282 155.076 33.0883C154.728 32.3484 154.237 31.685 153.631 31.1368C153.548 31.0815 153.447 31.0588 153.349 31.073C153.25 31.0871 153.16 31.1371 153.095 31.2135C153.031 31.2899 152.997 31.3873 153 31.4871C153.003 31.587 153.042 31.6823 153.111 31.7548C154.152 32.7228 154.773 34.0593 154.842 35.4792C154.842 37.3495 153.826 39.2767 151.729 41.1714C149.925 42.7978 148.284 43.5134 146.853 43.2369C146.257 43.0784 145.7 42.7968 145.218 42.4103C144.737 42.0238 144.342 41.5409 144.058 40.9925C144.035 40.9447 144.003 40.9018 143.964 40.8665C143.924 40.8311 143.878 40.8039 143.829 40.7865C143.779 40.7691 143.726 40.7618 143.673 40.7651C143.62 40.7683 143.569 40.7821 143.521 40.8055C143.472 40.8282 143.429 40.8603 143.392 40.9001C143.356 40.9399 143.328 40.9864 143.31 41.0371C143.292 41.0878 143.284 41.1416 143.287 41.1954C143.289 41.2491 143.303 41.3018 143.326 41.3503C143.664 42.0128 144.14 42.5951 144.722 43.058C145.303 43.5209 145.978 43.8536 146.699 44.0338C146.952 44.0932 147.211 44.1285 147.471 44.1395Z"
            fill="#263238" />
        <path
            d="M121.261 73.4868C121.261 73.4868 130.769 78.7643 149.372 77.0404C153.769 76.6338 157.849 106.315 156.499 108.754C153.338 114.447 125.674 113.349 125.674 113.349C125.674 113.349 121.797 84.4322 121.261 73.4868Z"
            fill="#407BFF" />
        <g opacity="0.2">
            <path
                d="M121.261 73.4868C121.261 73.4868 130.769 78.7643 149.372 77.0404C153.769 76.6338 157.849 106.315 156.499 108.754C153.338 114.447 125.674 113.349 125.674 113.349C125.674 113.349 121.797 84.4322 121.261 73.4868Z"
                fill="#07112A" />
        </g>
        <path
            d="M100.336 7.20508C100.336 7.20508 106.569 4.97697 109.43 8.72573C112.29 12.4745 109.925 18.6547 109.925 18.6547L100.336 7.20508Z"
            fill="#263238" />
        <path d="M110.009 258.518L103.629 216.639L145.41 201.368L155 258.518H110.009Z"
            fill="#263238" />
        <path
            d="M57.0519 258.518C57.4582 231.276 58.4985 215.712 56.9056 203.018L113.957 208.897C111.43 225.039 111.755 243.157 108.91 258.501L57.0519 258.518Z"
            fill="#263238" />
        <g opacity="0.2">
            <path
                d="M64.6572 239.002C64.1858 239.002 63.7063 239.002 63.2106 239.002V258.518H62.3328V215.655H63.2106V238.083C70.0535 238.384 75.3442 236.619 78.9607 232.854C85.2347 226.308 84.3001 215.777 84.292 215.696L85.1697 215.606C85.2184 216.062 86.153 226.617 79.6027 233.456C76.0675 237.139 71.0775 239.002 64.6572 239.002Z"
                fill="white" />
        </g>
        <g opacity="0.2">
            <path
                d="M149.36 225.901L149.547 225.039C139.608 222.901 138.925 207.564 138.925 207.41H138.047C138.063 208.101 138.754 223.624 149.36 225.901Z"
                fill="white" />
        </g>
        <g opacity="0.2">
            <path
                d="M104.936 213.11L110.665 240.344L111.527 240.165L110.787 236.644C111.61 236.559 112.403 236.289 113.107 235.854C113.811 235.419 114.407 234.83 114.851 234.131C119.077 227.707 113.932 211.362 113.713 210.671L112.9 210.947C112.949 211.102 118.134 227.577 114.144 233.651C113.763 234.256 113.247 234.764 112.636 235.134C112.025 235.504 111.336 235.726 110.625 235.782L105.821 212.923L104.936 213.11Z"
                fill="white" />
        </g>
        <path
            d="M48.8028 151.642C51.7041 177.176 52.9476 207.296 57.6775 212.63C59.9124 215.119 64.9349 216.745 71.5665 217.615L71.9809 217.672C99.6777 221.161 154.307 211.915 150.593 198.562C149.447 194.415 146.847 180.624 144.002 164.002C143.945 163.685 143.897 163.376 143.84 163.059C143.553 161.384 143.265 159.684 142.978 157.96C140.963 145.917 138.915 132.874 137.192 121.172C136.948 119.546 136.721 117.919 136.493 116.293C136.452 115.984 136.404 115.675 136.363 115.366C134.421 101.542 133.112 90.3851 133.291 86.2216C133.77 72.6903 104.326 68.5431 104.326 68.5431L94.574 67.8438C94.574 67.8438 73.8014 69.6653 61.5215 75.9024C61.107 76.1138 60.7088 76.3333 60.3025 76.561C51.8504 81.2937 48.2339 103.916 47.8032 125.588C47.5738 134.285 47.9077 142.988 48.8028 151.642Z"
            fill="#2C56C0" />
        <g opacity="0.2">
            <path
                d="M59.4182 156.96C61.0769 177.588 65.1689 197.948 71.6087 217.615L71.6656 217.794L72.0232 217.672L72.4296 217.533C67.9327 203.816 64.5837 189.749 62.4171 175.476C66.4417 176.873 70.665 177.611 74.9245 177.663C83.7261 177.663 91.4304 174.354 100.931 170.28C104.783 168.653 109.147 166.75 113.934 164.945C129.107 159.253 139.615 162.18 144.004 164.034C143.947 163.717 143.898 163.408 143.841 163.091C139.071 161.18 128.546 158.602 113.674 164.181C108.838 165.994 104.466 167.873 100.606 169.531C86.9606 175.386 77.0376 179.639 62.2464 174.606C61.8645 172.06 61.5313 169.564 61.2387 167.141C61.32 167.482 61.4094 167.824 61.5069 168.157C61.5069 168.157 71.4543 175.118 90.4227 168.157C107.579 161.863 126.328 150.82 142.98 157.992C140.964 145.949 138.916 132.906 137.194 121.204C130.692 118.895 117.957 117.195 99.2486 126.986C74.7458 139.81 62.474 133.605 59.5401 131.637C59.5808 130.06 59.6377 128.588 59.7108 127.23C63.6675 128.704 67.8503 129.477 72.072 129.515C80.3127 129.515 87.5132 126.344 96.4123 122.424C100.013 120.838 104.092 119.033 108.603 117.301C122.606 111.91 132.334 114.569 136.503 116.358C136.462 116.049 136.413 115.74 136.373 115.431C131.822 113.601 122.045 111.251 108.31 116.545C103.792 118.285 99.6956 120.09 96.1197 121.676C83.2547 127.368 73.9574 131.434 59.9059 126.425L59.7677 126.815C60.1172 119.952 60.7023 116.057 60.7186 115.927L59.9059 115.797C59.1069 122.105 58.7025 128.458 58.695 134.817C58.691 134.849 58.691 134.882 58.695 134.914C58.4172 142.271 58.6589 149.637 59.4182 156.96Z"
                fill="black" />
        </g>
        <path
            d="M78.3426 44.5381C78.3426 44.5381 76.1483 51.0842 77.7574 51.8567C79.3666 52.6292 80.2443 50.0921 80.2443 50.0921C80.2443 50.0921 80.545 54.158 83.1862 53.2554C85.8275 52.3527 86.3477 47.2297 86.3477 47.2297L78.3426 44.5381Z"
            fill="#263238" />
        <path
            d="M83.6397 70.0799C84.68 72.7308 92.9776 79.5128 99.2435 80.7325C105.843 82.0092 108.451 74.9671 105.859 70.8849C104.63 68.3688 103.92 65.6309 103.77 62.8344C103.77 62.2571 103.713 61.6797 103.77 61.0861C103.827 60.4925 103.843 59.663 103.933 58.923C103.933 58.923 103.933 58.923 103.933 58.858C103.973 58.5571 103.99 58.2562 104.047 57.9472C104.103 57.6382 104.128 57.4837 104.177 57.2642L104.689 53.8895L100.966 52.3688L91.3197 48.433L82.4613 42.3667C84.7369 50.3928 84.5824 60.8991 83.6397 70.0799Z"
            fill="#FF8B7B" />
        <path
            d="M103.196 90.4338C104.113 90.4332 105.028 90.3378 105.926 90.1492C108.608 89.5881 110.38 88.2789 111.193 86.2378C113.704 79.9519 106.219 69.0065 105.902 68.543L105.228 69.0065C105.309 69.1122 112.794 80.0495 110.437 85.9369C109.73 87.7015 108.153 88.8562 105.764 89.3522C104.941 89.5251 104.102 89.6124 103.261 89.6125C90.664 89.6125 82.8946 69.6733 82.8133 69.4537L82.0494 69.7465C82.3907 70.641 90.1195 90.4338 103.196 90.4338Z"
            fill="white" />
        <g opacity="0.2">
            <path
                d="M94.152 58.1259C97.2241 59.4709 100.659 59.743 103.904 58.8985C103.904 58.8985 103.904 58.8985 103.904 58.8334C103.945 58.5325 103.961 58.2317 104.018 57.9227C104.075 57.6136 104.099 57.4591 104.148 57.2396L104.66 53.8649L100.938 52.3442L90.5842 53.4339C89.9666 54.5073 91.2913 56.8493 94.152 58.1259Z"
                fill="black" />
        </g>
        <path
            d="M73.9413 31.8681C72.5299 29.0507 71.8615 25.919 71.9997 22.7704C72.138 19.6219 73.0781 16.5609 74.7309 13.8781C76.3838 11.1953 78.6945 8.9797 81.4437 7.44166C84.1929 5.90361 87.2893 5.09415 90.4391 5.09012C104.718 5.0088 114.097 22.8581 116.055 35.1778C118.225 48.888 105.173 60.9962 91.6744 55.2714C82.7347 51.4658 79.8577 44.0333 73.925 31.8437"
            fill="#FF8B7B" />
        <path
            d="M99.253 4.01723C99.253 4.01723 105.226 4.70843 107.38 6.76577C109.534 8.82312 106.835 9.62817 106.835 9.62817C106.835 9.62817 109.753 11.3928 109.339 12.6939C108.469 15.418 97.5545 11.2301 97.5545 11.2301C97.5545 11.2301 102.187 15.6376 99.2693 16.2231C96.3517 16.8085 90.5002 13.1411 90.5002 13.1411C90.5002 13.1411 93.621 19.801 90.5002 19.9962C87.3795 20.1914 85.5509 14.6048 85.5509 14.6048C85.5509 14.6048 85.5509 21.5169 82.4464 21.1103C81.5998 21.0383 80.7761 20.7976 80.0238 20.4024C79.2715 20.0072 78.6059 19.4654 78.066 18.809C78.066 18.809 85.8353 27.2254 83.2672 30.9172C83.2672 30.9172 88.8423 35.471 85.5428 38.2358C82.2432 41.0006 74.6039 36.2598 72.9866 34.3082C71.3693 32.3565 65.3553 24.7127 74.4576 11.7831C83.5598 -1.14646 99.253 4.01723 99.253 4.01723Z"
            fill="#263238" />
        <path
            d="M95.2461 2.10626C95.2461 2.10626 91.6702 -0.894369 80.2112 1.29308C68.7521 3.48054 64.5749 16.2881 64.5749 16.2881C64.5749 16.2881 58.6259 19.2888 60.7227 25.8918C62.8194 32.4948 66.6635 31.397 66.6635 31.397C67.3099 32.3848 68.3144 33.0827 69.4652 33.3437C70.616 33.6046 71.8231 33.4081 72.8319 32.7957C72.8319 32.7957 69.6298 11.0106 95.2461 2.10626Z"
            fill="#407BFF" />
        <g opacity="0.1">
            <path
                d="M95.2461 2.10626C95.2461 2.10626 91.6702 -0.894369 80.2112 1.29308C68.7521 3.48054 64.5749 16.2881 64.5749 16.2881C64.5749 16.2881 58.6259 19.2888 60.7227 25.8918C62.8194 32.4948 66.6635 31.397 66.6635 31.397C67.3099 32.3848 68.3144 33.0827 69.4652 33.3437C70.616 33.6046 71.8231 33.4081 72.8319 32.7957C72.8319 32.7957 69.6298 11.0106 95.2461 2.10626Z"
                fill="white" />
        </g>
        <path
            d="M103.383 4.84633C103.383 4.84633 85.3897 8.91222 79.0019 18.768C72.614 28.6237 75.0359 35.0316 75.0359 35.0316C75.0359 35.0316 69.0951 34.6412 68.8756 28.827C68.6562 23.0128 74.9871 8.4975 87.4864 3.78919C99.0999 -0.561321 103.383 4.84633 103.383 4.84633Z"
            fill="#407BFF" />
        <g opacity="0.1">
            <path
                d="M103.383 4.84633C103.383 4.84633 85.3897 8.91222 79.0019 18.768C72.614 28.6237 75.0359 35.0316 75.0359 35.0316C75.0359 35.0316 69.0951 34.6412 68.8756 28.827C68.6562 23.0128 74.9871 8.4975 87.4864 3.78919C99.0999 -0.561321 103.383 4.84633 103.383 4.84633Z"
                fill="black" />
        </g>
        <path
            d="M101.782 26.4526C103.297 27.786 105.136 28.6974 107.114 29.0955C110.194 29.6078 110.47 31.2016 109.194 32.8768C108.925 33.263 108.582 33.5914 108.184 33.8428C107.786 34.0942 107.342 34.2634 106.878 34.3405C104.911 32.6165 103.294 29.7216 101.782 26.4526Z"
            fill="#FF5652" />
        <path
            d="M107.652 27.0462C108.017 27.0452 108.377 26.956 108.7 26.786C109.203 26.5639 109.627 26.1952 109.917 25.728C110.207 25.2608 110.349 24.717 110.326 24.1675C110.316 24.0597 110.264 23.9601 110.181 23.8908C110.098 23.8214 109.99 23.7878 109.883 23.7975C109.775 23.8072 109.675 23.8594 109.606 23.9425C109.537 24.0256 109.503 24.1329 109.513 24.2407C109.519 24.6249 109.412 25.0024 109.205 25.3263C108.999 25.6501 108.702 25.9061 108.351 26.0623C107.124 26.6803 105.913 25.3548 105.913 25.3385C105.839 25.2587 105.737 25.2113 105.629 25.2067C105.521 25.2022 105.415 25.2408 105.336 25.3141C105.256 25.3874 105.208 25.4895 105.204 25.5977C105.199 25.706 105.238 25.8117 105.311 25.8915C105.922 26.5519 106.756 26.9631 107.652 27.0462Z"
            fill="#263238" />
        <path
            d="M96.42 31.4455C96.9703 31.4471 97.5084 31.2827 97.9641 30.9739C98.4676 30.6739 98.8759 30.2376 99.142 29.7152C99.408 29.1929 99.5209 28.6059 99.4676 28.022C99.4585 27.9686 99.439 27.9175 99.4102 27.8717C99.3814 27.8258 99.3439 27.7861 99.2997 27.7548C99.2556 27.7234 99.2057 27.7011 99.1529 27.689C99.1002 27.677 99.0455 27.6755 98.9922 27.6845C98.9388 27.6936 98.8877 27.7131 98.8419 27.7419C98.7961 27.7708 98.7564 27.8083 98.7251 27.8525C98.6937 27.8967 98.6714 27.9466 98.6594 27.9994C98.6473 28.0522 98.6458 28.1069 98.6549 28.1603C98.6802 28.5888 98.5856 29.016 98.3818 29.3938C98.1779 29.7716 97.8729 30.085 97.5009 30.2989C96.2005 31.1772 94.819 30.0794 94.7621 30.0306C94.7204 29.9964 94.6725 29.9708 94.621 29.9551C94.5695 29.9395 94.5154 29.9342 94.4618 29.9395C94.4082 29.9447 94.3562 29.9605 94.3087 29.9859C94.2612 30.0113 94.2192 30.0458 94.185 30.0875C94.1509 30.1291 94.1253 30.1771 94.1097 30.2287C94.094 30.2802 94.0887 30.3343 94.094 30.388C94.0993 30.4416 94.1151 30.4936 94.1404 30.5411C94.1658 30.5886 94.2003 30.6307 94.2419 30.6648C94.865 31.153 95.6289 31.4268 96.42 31.4455Z"
            fill="#263238" />
        <path
            d="M106.303 39.9515C106.855 41.399 108.277 42.204 109.464 41.7487C110.651 41.2933 111.171 39.7401 110.61 38.2926C110.049 36.8452 108.635 36.032 107.44 36.4874C106.246 36.9428 105.742 38.4959 106.303 39.9515Z"
            fill="white" />
        <path
            d="M72.0293 42.4315C74.1671 45.0826 77.2675 46.7785 80.652 47.1479C85.1462 47.6033 86.6253 43.3991 84.7155 39.5609C83.0088 36.1049 78.6202 31.7056 74.4186 33.0555C70.2169 34.4054 69.4205 39.1625 71.9805 42.4477"
            fill="#FF8B7B" />
        <path
            d="M80.88 46.1321C80.8784 46.4995 80.986 46.859 81.1889 47.1652C81.3919 47.4713 81.6812 47.7102 82.0201 47.8515C82.3591 47.9929 82.7323 48.0303 83.0925 47.959C83.4527 47.8877 83.7836 47.711 84.0432 47.4512C84.3028 47.1914 84.4795 46.8603 84.5507 46.4999C84.622 46.1395 84.5846 45.766 84.4433 45.4269C84.3021 45.0878 84.0633 44.7983 83.7574 44.5952C83.4514 44.3921 83.092 44.2845 82.7249 44.2862C82.2356 44.2862 81.7663 44.4806 81.4204 44.8268C81.0744 45.173 80.88 45.6425 80.88 46.1321Z"
            fill="white" />
        <path
            d="M108.423 19.4108C108.335 19.4473 108.239 19.4598 108.145 19.4469C108.051 19.4341 107.962 19.3964 107.887 19.3377C107.603 19.0846 107.271 18.8921 106.911 18.7719C106.55 18.6516 106.169 18.6062 105.79 18.6383C105.045 18.785 104.376 19.1878 103.897 19.7768C103.812 19.8907 103.686 19.9667 103.546 19.988C103.406 20.0093 103.263 19.9743 103.149 19.8906C103.036 19.8035 102.961 19.6762 102.94 19.5354C102.919 19.3945 102.953 19.2508 103.035 19.1344C103.685 18.3088 104.617 17.7528 105.652 17.5731C106.173 17.5191 106.699 17.5728 107.198 17.7309C107.697 17.889 108.158 18.148 108.553 18.492C108.627 18.5501 108.684 18.6266 108.719 18.7138C108.754 18.801 108.766 18.8958 108.753 18.9888C108.739 19.0819 108.702 19.1698 108.644 19.2439C108.586 19.3179 108.51 19.3755 108.423 19.4108Z"
            fill="#263238" />
        <path
            d="M91.2324 26.9322C91.1548 26.9627 91.0718 26.9766 90.9886 26.9729C90.8477 26.9624 90.7165 26.8968 90.6237 26.7902C90.5309 26.6837 90.4839 26.5447 90.4928 26.4037C90.5791 25.3573 91.0512 24.3805 91.8175 23.6632C92.2242 23.3328 92.6947 23.0901 93.1996 22.9501C93.7044 22.8102 94.2327 22.7761 94.7514 22.8501C94.8223 22.8551 94.8915 22.8744 94.9548 22.9069C95.0181 22.9393 95.0742 22.9842 95.1197 23.0389C95.1653 23.0936 95.1993 23.1569 95.2198 23.2251C95.2403 23.2932 95.2468 23.3648 95.239 23.4355C95.2266 23.5766 95.1589 23.707 95.0509 23.7984C94.9428 23.8898 94.803 23.9347 94.662 23.9235C94.2868 23.8656 93.9039 23.8848 93.5364 23.9799C93.1689 24.0749 92.8247 24.2439 92.5246 24.4764C91.9805 25.0102 91.641 25.7182 91.5656 26.4768C91.556 26.5757 91.52 26.6701 91.4614 26.7503C91.4028 26.8304 91.3236 26.8932 91.2324 26.9322Z"
            fill="#263238" />
        <path
            d="M1.27631 131.158C1.5732 130.492 1.92101 129.851 2.31659 129.239L2.66604 128.677L3.35684 127.588C3.81195 126.856 4.29955 126.165 4.78717 125.482C5.75428 124.083 6.7783 122.79 7.8023 121.481C9.87468 118.927 12.0446 116.545 14.2632 114.26C18.6743 109.876 23.3741 105.793 28.331 102.038C30.7691 100.184 33.2072 98.4109 35.7266 96.687C38.246 94.9631 40.7735 93.353 43.3335 91.8079C45.8935 90.2629 48.5022 88.7178 51.1435 87.2704C52.4763 86.5466 53.801 85.8311 55.1501 85.1317L57.2062 84.1152L59.4005 83.0581L70.0469 105.014L68.4215 105.892L66.6823 106.852C65.5039 107.494 64.3336 108.153 63.1552 108.82C60.8146 110.153 58.4659 111.511 56.1579 112.886C53.8498 114.26 51.5499 115.691 49.2987 117.155C47.0475 118.618 44.7963 120.066 42.6345 121.603C40.4728 123.14 38.311 124.669 36.2467 126.262C34.1825 127.856 32.1832 129.515 30.2815 131.141C28.3798 132.768 26.5431 134.516 24.8608 136.273C24.0481 137.159 23.2354 138.037 22.4796 138.94C22.4272 139.014 22.3702 139.084 22.3089 139.151C23.3092 141.059 24.4303 142.9 25.6654 144.665C28.5749 148.869 32.0776 153.097 35.6535 157.293C40.5297 162.921 45.674 168.507 50.8834 174.037C50.8834 174.077 50.8834 174.118 50.8834 174.167C51.9591 179.605 52.113 185.185 51.3385 190.674L50.7778 191.349C45.8447 188.097 41.1961 184.665 36.5393 181.111C31.8825 177.558 27.3558 173.866 22.9185 169.922C18.321 165.934 13.9781 161.662 9.9153 157.131C7.62751 154.594 5.56878 151.859 3.76319 148.958C2.59583 147.08 1.64693 145.075 0.93499 142.981C0.430222 141.46 0.121605 139.881 0.0166321 138.281C-0.139389 135.84 0.292603 133.397 1.27631 131.158ZM21.4638 136.85C21.4861 137.104 21.5463 137.354 21.6426 137.59C21.6426 137.5 21.6426 137.419 21.6426 137.346C21.5613 136.858 21.4638 136.777 21.4638 136.866V136.85Z"
            fill="#FF8B7B" />
        <path
            d="M74.157 107.494L41.9985 128.523C41.9985 128.523 26.7929 111.869 28.1176 97.053C28.1176 97.053 46.3789 79.7566 60.2679 76.5852C74.157 73.4138 88.8018 96.866 74.157 107.494Z"
            fill="#407BFF" />
        <g opacity="0.2">
            <path
                d="M74.157 107.494L41.9985 128.523C41.9985 128.523 26.7929 111.869 28.1176 97.053C28.1176 97.053 46.3789 79.7566 60.2679 76.5852C74.157 73.4138 88.8018 96.866 74.157 107.494Z"
                fill="#07112A" />
        </g>
        <path
            d="M166.904 23.647C172.804 20.7196 161.288 -2.65936 155.371 0.251822C151.648 1.84882 148.013 3.64307 144.481 5.62694C139.199 8.63571 137.305 17.0115 134.03 19.0688C130.755 21.1261 125.716 17.9141 121.644 19.3209C119.206 20.1341 116.24 24.265 114.208 27.4527C113.193 29.0486 112.778 30.9539 113.038 32.8278L109.909 34.3728L112.176 38.9673L115.305 37.4223C115.658 37.775 116.042 38.0961 116.451 38.3818C117.586 39.1609 118.901 39.6368 120.271 39.7642C124.05 40.0976 129.121 40.2277 131.259 38.8128C134.851 36.4302 135.411 30.5021 139.004 29.1278C142.596 27.7536 150.381 31.3722 156.013 29.0221C159.734 27.4213 163.369 25.6271 166.904 23.647Z"
            fill="#407BFF" />
        <g opacity="0.5">
            <path
                d="M166.904 23.647C172.804 20.7196 161.288 -2.65936 155.371 0.251822C151.648 1.84882 148.013 3.64307 144.481 5.62694C139.199 8.63571 137.305 17.0115 134.03 19.0688C130.755 21.1261 125.716 17.9141 121.644 19.3209C119.206 20.1341 116.24 24.265 114.208 27.4527C113.193 29.0486 112.778 30.9539 113.038 32.8278L109.909 34.3728L112.176 38.9673L115.305 37.4223C115.658 37.775 116.042 38.0961 116.451 38.3818C117.586 39.1609 118.901 39.6368 120.271 39.7642C124.05 40.0976 129.121 40.2277 131.259 38.8128C134.851 36.4302 135.411 30.5021 139.004 29.1278C142.596 27.7536 150.381 31.3722 156.013 29.0221C159.734 27.4213 163.369 25.6271 166.904 23.647Z"
                fill="white" />
            <g opacity="0.1">
                <path
                    d="M116.346 28.8516C119.337 24.1352 121.523 22.0778 122.466 21.7526C123.79 21.2972 125.538 21.5899 127.382 21.8989C128.598 22.1309 129.828 22.2749 131.064 22.3299C132.571 22.3973 134.065 22.0243 135.363 21.2565C137.354 20.0286 138.703 17.5972 140.134 15.0276C141.653 12.3034 143.385 9.21333 145.733 7.86345C149.61 5.6516 153.714 3.79755 155.486 2.98438C159.21 5.94101 161.996 9.91558 163.507 14.4258C164.372 16.7688 164.956 19.2065 165.246 21.6875C163.913 22.4275 159.557 24.7939 155.047 26.6967C152.544 27.7538 149.049 27.2334 145.969 26.778C143.051 26.347 140.28 25.9648 138.118 26.778C135.339 27.8351 133.957 30.4373 132.746 32.7142C131.86 34.3406 131.031 35.9669 129.869 36.7151C129.057 37.268 126.074 37.7478 120.515 37.2436C119.955 37.1989 119.405 37.0615 118.89 36.8371C118.767 36.794 118.648 36.7423 118.532 36.6825L115.606 30.7463C115.731 30.0736 115.982 29.4306 116.346 28.8516Z"
                    fill="black" />
            </g>
        </g>
        <path
            d="M120.305 35.1539C122.206 30.9416 129.342 33.5275 129.285 28.559C129.285 28.4776 129.439 27.0139 131.308 25.3062C132.339 24.3521 133.557 23.6237 134.884 23.1676C144.71 19.7604 146.79 7.9042 157.071 4.375C159.993 7.16513 162.196 10.6222 163.491 14.4503C164.357 16.7933 164.941 19.231 165.23 21.712C163.898 22.452 159.542 24.8183 155.031 26.7212C152.528 27.7783 149.033 27.2579 145.953 26.8025C143.036 26.3715 140.264 25.9893 138.103 26.8025C135.323 27.8596 133.942 30.4618 132.731 32.7387C131.845 34.3651 131.016 35.9914 129.854 36.7396C129.041 37.2925 126.058 37.7723 120.5 37.2681C119.939 37.2234 119.39 37.086 118.874 36.8615C119.508 36.4449 120.005 35.8511 120.305 35.1539Z"
            fill="#407BFF" />
        <path
            d="M128.562 31.0474C126.388 31.9611 124.003 32.2566 121.671 31.9012C117.778 31.3157 118.42 34.1293 116.055 35.2027C113.69 36.2761 111.821 35.7557 111.179 37.0242C109.635 39.1792 108.684 40.9438 109.432 41.7488C111.691 41.2202 115.454 37.1544 116.86 37.2682C118.212 37.376 119.571 37.376 120.923 37.2682C123.288 37.2275 128.562 31.0474 128.562 31.0474Z"
            fill="#407BFF" />
        <path
            d="M139.238 34.064C139.238 34.064 131.802 35.9425 130.184 33.4948C128.567 31.0471 131.403 30.112 132.923 28.6889C134.443 27.2658 139.221 24.1188 140.034 25.8428C140.847 27.5667 138.173 29.5671 138.173 29.5671C139.328 29.0677 140.572 28.81 141.83 28.81C143.088 28.81 144.333 29.0677 145.487 29.5671C149.177 31.3317 139.238 34.064 139.238 34.064Z"
            fill="#FF8B7B" />
        <path
            d="M54.6629 184.055C54.6629 184.055 62.3673 186.942 62.8793 188.999C63.3913 191.056 55.1993 189.259 55.1993 189.259C55.1993 189.259 59.7098 191.081 60.3681 192.634C61.0264 194.187 54.7686 193.447 54.7686 193.447C54.7686 193.447 57.7268 194.789 57.1254 196.464C56.524 198.139 55.1343 198.237 53.3057 197.912C52.5528 197.776 51.8417 197.468 51.2282 197.011C50.6147 196.553 50.1157 195.96 49.7705 195.277C49.4048 194.342 50.697 192.919 50.697 192.919C50.697 192.919 48.4783 190.276 48.8521 189.154C48.9754 188.812 49.1696 188.501 49.4217 188.241C49.6738 187.98 49.9783 187.776 50.315 187.641C49.9462 187.382 49.6476 187.036 49.4462 186.632C49.2447 186.229 49.1467 185.782 49.161 185.332C49.1565 184.933 49.2515 184.54 49.4374 184.188C49.6234 183.836 49.8943 183.536 50.2256 183.315C50.1835 181.819 50.2433 180.322 50.4044 178.834C50.6563 177.273 53.6552 177.249 55.5244 177.029C57.3936 176.81 58.7752 181.095 61.0182 182.721C61.0182 182.721 61.9447 184.055 60.2055 184.405C58.4663 184.754 56.142 182.063 55.5 181.843C54.858 181.624 54.6629 184.055 54.6629 184.055Z"
            fill="#FF8B7B" />
        <g opacity="0.2">
            <path
                d="M48.6305 189.991H48.6711C48.697 189.986 48.7216 189.976 48.7436 189.962C48.7655 189.947 48.7842 189.928 48.7986 189.906C48.8131 189.884 48.8229 189.86 48.8275 189.834C48.8321 189.808 48.8315 189.781 48.8255 189.755C48.7672 189.301 48.8488 188.84 49.0594 188.433C49.2699 188.026 49.5994 187.693 50.004 187.479C50.0333 187.462 50.0581 187.438 50.0765 187.41C50.0949 187.382 50.1062 187.349 50.1096 187.316C50.1099 187.281 50.102 187.247 50.0864 187.216C50.0709 187.185 50.0482 187.158 50.0202 187.137C50.0202 187.137 48.8174 186.275 48.8174 185.324C48.8246 184.904 48.9486 184.494 49.1754 184.141C49.4022 183.787 49.7229 183.504 50.1015 183.323C50.1322 183.311 50.1594 183.291 50.1806 183.265C50.2019 183.24 50.2166 183.209 50.2234 183.177C50.2315 183.145 50.2313 183.112 50.2227 183.081C50.2142 183.049 50.1976 183.021 50.1746 182.998C49.7322 182.267 49.5814 181.396 49.752 180.558C49.9136 179.474 50.498 178.497 51.3774 177.842C51.4227 177.812 51.4541 177.765 51.4648 177.712C51.4754 177.658 51.4645 177.603 51.4343 177.558C51.4041 177.512 51.3572 177.481 51.3039 177.47C51.2505 177.46 51.1951 177.471 51.1499 177.501C50.6647 177.858 50.2564 178.309 49.9492 178.827C49.642 179.346 49.4423 179.92 49.3619 180.518C49.2132 181.384 49.3441 182.276 49.7358 183.063C49.3351 183.291 49.0021 183.621 48.7708 184.019C48.5395 184.418 48.4181 184.871 48.4192 185.332C48.4674 185.719 48.5939 186.092 48.7909 186.429C48.9879 186.766 49.2513 187.06 49.5651 187.291C49.1462 187.558 48.816 187.943 48.6163 188.397C48.4166 188.852 48.3564 189.356 48.4436 189.845C48.4543 189.886 48.4784 189.923 48.5122 189.95C48.546 189.976 48.5876 189.991 48.6305 189.991Z"
                fill="black" />
        </g>
        <path
            d="M132.668 19.6139C132.668 19.6139 137.544 24.0213 139.616 23.5009C141.689 22.9804 136.739 16.7108 136.739 16.7108C136.739 16.7108 140.478 19.8253 142.152 19.6789C143.826 19.5326 140.234 14.3445 140.234 14.3445C140.234 14.3445 142.753 17.4183 143.948 16.1009C145.143 14.7836 143.818 12.6205 142.664 11.1649C141.51 9.70934 140.486 8.96122 139.486 9.08319C138.487 9.20517 137.861 11.0104 137.861 11.0104C137.861 11.0104 134.488 10.303 133.667 11.1649C133.426 11.4348 133.245 11.7524 133.134 12.097C133.023 12.4415 132.986 12.8055 133.025 13.1654C132.624 12.9623 132.178 12.8626 131.728 12.8754C131.278 12.8882 130.839 13.013 130.449 13.2385C129.165 14.0517 129.718 15.979 129.718 15.979C129.718 15.979 127.109 15.6374 126.296 17.5403C125.67 18.9958 127.922 19.8253 128.58 21.6062C129.238 23.387 131.254 23.7286 133.757 24.9321C133.757 24.9321 135.382 25.1191 134.846 23.387C134.309 21.6549 132.083 20.6954 131.595 20.2156C131.107 19.7358 132.668 19.6139 132.668 19.6139Z"
            fill="#FF8B7B" />
    </g>
    <defs>
        <clipPath id="clip0_330_642">
            <rect width="192" height="226" fill="white" transform="matrix(-1 0 0 1 192 0)" />
        </clipPath>
    </defs>
</svg>