<svg width="20" height="16" viewBox="0 0 20 16" fill="none" xmlns="http://www.w3.org/2000/svg">
    <g clip-path="url(#clip0_32_3446)">
        <path
            d="M18.332 0.0668945H1.66536C0.859948 0.0668945 0.207031 0.719811 0.207031 1.52522V12.4776C0.207031 13.283 0.859948 13.9359 1.66536 13.9359H18.332C19.1374 13.9359 19.7903 13.283 19.7903 12.4776V1.52522C19.7903 0.719811 19.1374 0.0668945 18.332 0.0668945Z"
            fill="white" stroke="white" stroke-width="0.416667" />
        <mask id="mask0_32_3446" style="mask-type:alpha" maskUnits="userSpaceOnUse" x="-1" y="-1"
            width="22" height="18">
            <path
                d="M19.5 0H1.50777e-05L5.8157e-05 2L1.50777e-05 14.5C0 15.5 0 16 0.499943 16H19.4463C20 16 20 15.5 20.0001 14.5001V14.5V1.74918C20 0 20 0 19.5 0Z"
                fill="white" stroke="white" stroke-width="0.416667" />
        </mask>
        <g mask="url(#mask0_32_3446)">
            <path fill-rule="evenodd" clip-rule="evenodd"
                d="M-0.0078125 5.5H20.7839V-0.5H-0.0078125V5.5Z" fill="#32ADE6" />
            <path fill-rule="evenodd" clip-rule="evenodd"
                d="M-0.0078125 16.5H20.7839V10.5H-0.0078125V16.5Z" fill="#34C759" />
            <path fill-rule="evenodd" clip-rule="evenodd"
                d="M7.57304 2.02352C7.85226 2.02352 8.07862 1.77756 8.07862 1.47416C8.07862 1.17075 7.85226 0.924805 7.57304 0.924805C7.29381 0.924805 7.06747 1.17075 7.06747 1.47416C7.06747 1.77756 7.29381 2.02352 7.57304 2.02352ZM3.52844 4.22098C3.8404 4.22098 4.13037 4.11864 4.37146 3.94317C4.34348 3.94518 4.31525 3.94621 4.28681 3.94621C3.58876 3.94621 3.02288 3.33131 3.02288 2.57281C3.02288 1.81431 3.58876 1.19941 4.28681 1.19941C4.31516 1.19941 4.34327 1.20042 4.37115 1.20242C4.13012 1.02709 3.84027 0.924839 3.52844 0.924839C2.69078 0.924839 2.01172 1.6627 2.01172 2.57291C2.01172 3.48312 2.69078 4.22098 3.52844 4.22098ZM6.05637 3.67166C6.05637 3.97506 5.83002 4.22102 5.5508 4.22102C5.27158 4.22102 5.04522 3.97506 5.04522 3.67166C5.04522 3.36825 5.27158 3.1223 5.5508 3.1223C5.83002 3.1223 6.05637 3.36825 6.05637 3.67166ZM10.101 1.47416C10.101 1.77756 9.87461 2.02352 9.59538 2.02352C9.31616 2.02352 9.08981 1.77756 9.08981 1.47416C9.08981 1.17075 9.31616 0.924805 9.59538 0.924805C9.87461 0.924805 10.101 1.17075 10.101 1.47416ZM9.59538 4.22102C9.87461 4.22102 10.101 3.97506 10.101 3.67166C10.101 3.36825 9.87461 3.1223 9.59538 3.1223C9.31616 3.1223 9.08981 3.36825 9.08981 3.67166C9.08981 3.97506 9.31616 4.22102 9.59538 4.22102ZM8.07862 3.67166C8.07862 3.97506 7.85226 4.22102 7.57304 4.22102C7.29381 4.22102 7.06747 3.97506 7.06747 3.67166C7.06747 3.36825 7.29381 3.1223 7.57304 3.1223C7.85226 3.1223 8.07862 3.36825 8.07862 3.67166Z"
                fill="white" />
        </g>
    </g>
    <defs>
        <clipPath id="clip0_32_3446">
            <rect width="20" height="16" rx="1" fill="white" />
        </clipPath>
    </defs>
</svg>