<svg width="48" height="48" viewBox="0 0 48 48" fill="none" xmlns="http://www.w3.org/2000/svg">
    <rect width="48" height="48" rx="24" fill="white" />
    <path
        d="M24 17C27.866 17 31 20.134 31 24C31 27.866 27.866 31 24 31C22.7163 31 21.5133 30.6545 20.4789 30.0513L17.0029 31L17.9493 27.522C17.3458 26.4875 17 25.2842 17 24C17 20.134 20.134 17 24 17ZM21.4739 20.7158C21.3834 20.7222 21.2946 20.7443 21.2137 20.7857C21.1531 20.8167 21.0967 20.8616 21.0083 20.9451C20.9247 21.024 20.8763 21.0929 20.8253 21.1593C20.5665 21.4962 20.4274 21.9098 20.43 22.3347C20.4314 22.6781 20.5206 23.0119 20.6615 23.3235C20.9472 23.9555 21.4183 24.6236 22.0407 25.2431C22.1902 25.3919 22.3366 25.5424 22.4945 25.6814C23.267 26.3615 24.1875 26.8519 25.1828 27.1137C25.1828 27.1137 25.5748 27.1739 25.5805 27.1743C25.7104 27.1813 25.84 27.1719 25.97 27.1653C26.1739 27.1548 26.373 27.0996 26.5532 27.0036C26.669 26.942 26.7238 26.9113 26.8211 26.85C26.8211 26.85 26.8509 26.8298 26.9084 26.787C27.0029 26.7166 27.0613 26.667 27.1399 26.5854C27.1979 26.5252 27.2477 26.4541 27.2862 26.3739C27.341 26.2597 27.3961 26.0416 27.418 25.8605C27.4347 25.7222 27.4297 25.6466 27.4278 25.5998C27.4248 25.5245 27.3626 25.447 27.2944 25.4141L26.8874 25.2311C26.8874 25.2311 26.2787 24.9662 25.9065 24.7964C25.8677 24.7787 25.8253 24.7705 25.7826 24.7679C25.6892 24.7622 25.5846 24.7865 25.518 24.8567C25.5145 24.8553 25.4682 24.8953 24.9617 25.5089C24.9338 25.5422 24.8684 25.6148 24.7552 25.608C24.7381 25.6068 24.7211 25.6044 24.7045 25.6001C24.6586 25.5879 24.614 25.572 24.5703 25.5535C24.4837 25.5168 24.4533 25.5028 24.3942 25.4774C23.9901 25.3008 23.6192 25.0646 23.2914 24.7756C23.2035 24.6982 23.1217 24.6148 23.0374 24.5331C22.7433 24.248 22.5025 23.9448 22.3233 23.6457C22.3136 23.6294 22.2985 23.6058 22.2823 23.5794C22.253 23.5317 22.2206 23.475 22.2105 23.4361C22.1845 23.3331 22.2535 23.2504 22.2535 23.2504C22.2535 23.2504 22.4239 23.0641 22.503 22.9628C22.5792 22.8653 22.6449 22.77 22.6868 22.702C22.7693 22.5694 22.7954 22.4324 22.752 22.3267C22.5557 21.848 22.353 21.3718 22.1442 20.8983C22.103 20.8048 21.9804 20.7369 21.8689 20.724C21.8312 20.7197 21.7934 20.7153 21.7555 20.7128C21.6617 20.7082 21.5676 20.7092 21.4739 20.7158Z"
        fill="#1A367C" />
</svg>